<svg xmlns="http://www.w3.org/2000/svg" width="54.226" height="49.943" viewBox="0 0 54.226 49.943">
  <g id="noun_back_2784508" transform="translate(33.45 -442.25)">
    <path id="Path_771" data-name="Path 771" d="M37.93,18.5H13.715l6.625-6.682a3.271,3.271,0,1,0-4.626-4.626L3.492,19.471a3.31,3.31,0,0,0,0,4.626L15.714,36.319A3.3,3.3,0,0,0,18,37.29a3.2,3.2,0,0,0,2.284-.971,3.31,3.31,0,0,0,0-4.626l-6.568-6.682H37.93a12.336,12.336,0,0,1,0,24.672H12.344a3.254,3.254,0,0,0-3.255,3.255,3.291,3.291,0,0,0,3.255,3.255H37.93a18.846,18.846,0,1,0,0-37.693Z" transform="translate(-36 436)" fill="#fff"/>
  </g>
</svg>
