<svg xmlns="http://www.w3.org/2000/svg" xmlns:xlink="http://www.w3.org/1999/xlink" width="265.796" height="265.796" viewBox="0 0 265.796 265.796"><defs><linearGradient id="a" y1="0.133" x2="0.866" y2="1" gradientUnits="objectBoundingBox"><stop offset="0" stop-color="#fee690"/><stop offset="1" stop-color="#9d7700"/></linearGradient></defs><g transform="translate(0 0)" fill="none" stroke="#bc970c" stroke-width="2"><circle cx="132.898" cy="132.898" r="132.898" stroke="none"/><circle cx="132.898" cy="132.898" r="131.898" fill="none"/></g><g transform="translate(125.875 -354.111)"><path d="M56.595,24.963H19.605l10.12-10.207a5,5,0,0,0-7.066-7.066L3.989,26.446a5.056,5.056,0,0,0,0,7.066L22.659,52.182a5.044,5.044,0,0,0,3.49,1.483,4.89,4.89,0,0,0,3.49-1.483,5.056,5.056,0,0,0,0-7.066L19.605,34.908H56.595a18.844,18.844,0,1,1,0,37.687H17.512a4.97,4.97,0,0,0-4.973,4.973,5.027,5.027,0,0,0,4.973,4.973H56.595a28.789,28.789,0,1,0,0-57.578Z" transform="translate(-36 436)" fill="url(#a)"/></g></svg>