<svg xmlns="http://www.w3.org/2000/svg" xmlns:xlink="http://www.w3.org/1999/xlink" width="271.852" height="26.376" viewBox="0 0 271.852 26.376"><defs><clipPath id="a"><rect width="41.978" height="16.636" transform="translate(790.34 193.792)" fill="#fff"/></clipPath></defs><g transform="translate(-790.34 -188.641)"><text transform="translate(851.192 209.486)" fill="#fff" font-size="14.879" font-family="Gotham-Book, Gotham"><tspan x="0" y="0">Asahi Eu</tspan><tspan y="0" letter-spacing="-0.021em">r</tspan><tspan y="0">ope &amp; In</tspan><tspan y="0" letter-spacing="-0.014em">t</tspan><tspan y="0">ern</tspan><tspan y="0" letter-spacing="-0.005em">a</tspan><tspan y="0">tional</tspan></text><g clip-path="url(#a)"><path d="M798.47,198.828v10.937c0,.373.311.437.591.136l3.635-3.564v-12.1c0-.332-.29-.4-.58-.136l-9.094,8.942c-2.589,2.59-2.681,5.4-1.129,6.753.456.332.766.351,1.119.031l5-4.87c.372-.371-.1-.4-.1-.4h-2.63c-.931-.012-1.13-1.225.067-2.577Z" fill="#fff"/><path d="M808.456,201.987l1.864-1.832c.258-.281.29-.468-.063-.8a3.268,3.268,0,0,0-4.372-.012l-1.843,1.8a1.613,1.613,0,0,0,0,2.559l3.947,3.892c.446.416.175,1.089-.674,1.535-1.139.547-1.593.247-1.593-.809v-2.237c-.021-.352-.167-.352-.373-.125l-2.28,2.278c-.445.509.032,1.171.725,1.44,2.268.746,3.554.187,4.63-.786l1.471-1.481a1.605,1.605,0,0,0,.083-2.352c-.56-.579-3.822-3.738-3.822-3.738-.807-.664-.582-1.3.6-2,.455-.27.891-.082.891.351v2.382c0,.5.269.468.808-.072" fill="#fff"/><path d="M822.562,194.155c.311-.322.68-.362.68.292v7.872l3.69-3.6c.354-.414.662-.313.662.166v8.408l-2.484,2.466c-.436.394-.748.353-.748-.227v-7.582l-1.12,1.129v4.153l-2.606,2.579c-.384.353-.746.342-.746-.342v-12.75Z" fill="#fff"/><path d="M831.76,194.03l-2.652,2.55v2.829c0,.445.28.487.631.154l2.559-2.526v-2.882c-.02-.352-.291-.362-.538-.125" fill="#fff"/><path d="M831.739,198.631l-2.591,2.548v8.472c.011.425.28.477.62.135l2.55-2.517v-8.431c0-.4-.279-.506-.579-.207" fill="#fff"/><path d="M817.774,198.756l-5.2,5.1c-1.3,1.3-2.751,4.25-.807,5.9.5.373.682.311,1.056,0l2.423-2.341v2.227c0,.4.322.456.663.135.471-.444,2.558-2.445,2.558-2.445v-8.41c.012-.55-.28-.58-.7-.165m-2.505,7.944-.835.723c-.521.374-1.277-.413-1.277-1.894a3.747,3.747,0,0,1,1.208-2.708l.9-.875Z" fill="#fff"/><path d="M798.47,198.828v10.937c0,.373.311.437.591.136l3.635-3.564v-12.1c0-.332-.29-.4-.58-.136l-9.094,8.942c-2.589,2.59-2.681,5.4-1.129,6.753.456.332.766.351,1.119.031l5-4.87c.372-.371-.1-.4-.1-.4h-2.63c-.931-.012-1.13-1.225.067-2.577Z" fill="#fff"/><path d="M808.456,201.987l1.864-1.832c.258-.281.29-.468-.063-.8a3.268,3.268,0,0,0-4.372-.012l-1.843,1.8a1.613,1.613,0,0,0,0,2.559l3.947,3.892c.446.416.175,1.089-.674,1.535-1.139.547-1.593.247-1.593-.809v-2.237c-.021-.352-.167-.352-.373-.125l-2.28,2.278c-.445.509.032,1.171.725,1.44,2.268.746,3.554.187,4.63-.786l1.471-1.481a1.605,1.605,0,0,0,.083-2.352c-.56-.579-3.822-3.738-3.822-3.738-.807-.664-.582-1.3.6-2,.455-.27.891-.082.891.351v2.382c0,.5.269.468.808-.072" fill="#fff"/><path d="M822.562,194.155c.311-.322.68-.362.68.292v7.872l3.69-3.6c.354-.414.662-.313.662.166v8.408l-2.484,2.466c-.436.394-.748.353-.748-.227v-7.582l-1.12,1.129v4.153l-2.606,2.579c-.384.353-.746.342-.746-.342v-12.75Z" fill="#fff"/><path d="M831.76,194.03l-2.652,2.55v2.829c0,.445.28.487.631.154l2.559-2.526v-2.882c-.02-.352-.291-.362-.538-.125" fill="#fff"/><path d="M831.739,198.631l-2.591,2.548v8.472c.011.425.28.477.62.135l2.55-2.517v-8.431c0-.4-.279-.506-.579-.207" fill="#fff"/><path d="M817.774,198.756l-5.2,5.1c-1.3,1.3-2.751,4.25-.807,5.9.5.373.682.311,1.056,0l2.423-2.341v2.227c0,.4.322.456.663.135.471-.444,2.558-2.445,2.558-2.445v-8.41c.012-.55-.28-.58-.7-.165m-2.505,7.944-.835.723c-.521.374-1.277-.413-1.277-1.894a3.747,3.747,0,0,1,1.208-2.708l.9-.875Z" fill="#fff"/></g><path d="M842.365,188.641v26.376h.665V188.641" fill="#fff"/></g></svg>