<svg xmlns="http://www.w3.org/2000/svg" width="265.796" height="265.796" viewBox="0 0 265.796 265.796"><g transform="translate(-296.669 -304.778)"><g transform="translate(347.306 404.009)"><path d="M300.107,339.566s-2.7,4-5.793,1.523c0,0-10.954-8.781,2.073-23.273l40.063-40.122s1.8-1.225,1.8,1.591v47.671l-15.5,14.941s-2.287,1.474-2.287-2.538l.067-41.658-13.983,14.5s-5.427,6.4,2.417,7.507h9.921s1.639.047.263,1.467Z" transform="translate(-290.006 -277.333)" fill="#004391"/><path d="M460.717,349.15l9.383-9.306s1.329-1.7-1.272-3.346c0,0-10.006-6.785-17.406.615l-7.643,7.643s-4.512,4.239-.391,8.5l5.077,5.077-.016.015,10.709,10.793s2.435,2.312-.46,5.209-6.038,3.082-6.038.19l.051-9.556s-.048-2.707-1.994-.76l-9.384,9.306s-1.328,1.705,1.272,3.346c0,0,10.007,6.786,17.406-.613l7.644-7.644s4.511-4.239.39-8.5l-5.076-5.076.015-.016-10.709-10.792s-2.435-2.313.461-5.209,6.038-3.083,6.038-.19l-.052,9.556S458.77,351.1,460.717,349.15Z" transform="translate(-390.97 -314.932)" fill="#004391"/><path d="M563.28,335.476s-.009-3.081-2.048-1.042L540.7,355.059s-16.712,17.99-1.443,25.085l10.959-10.96-.074,9.172s.008,2.408,2.233,1.53l10.96-11.047Zm-17.9,35.693s-9.934-9.552,4.832-22.956l.086,18.209Z" transform="translate(-452.378 -314.985)" fill="#004391"/><path d="M656.438,278.673s-.3-2.217-1.923-.659l-11.367,10.818.07,52.316s.09,2.575,1.966,1.363l11.254-11.048V314.55l4.316-3.884v31.1s.469,2.091,1.812.747L673.7,331.379V296.805s-.447-1.414-1.378-.483l-15.881,14.351Z" transform="translate(-526.151 -277.353)" fill="#004391"/><path d="M753.452,343.588,764.9,333.225c.932-.932,1.378.483,1.378.483v34.574l-11.13,11.133c-1.344,1.343-1.813-.747-1.813-.747V343.719Z" transform="translate(-599.832 -314.431)" fill="#004391"/><path d="M753.452,287.819,764.9,277.456c.932-.932,1.378.483,1.378.483v12.337l-11.13,11.132c-1.344,1.343-1.813-.747-1.813-.747V287.95Z" transform="translate(-599.832 -277.138)" fill="#004391"/></g><g transform="translate(296.669 304.778)" fill="none" stroke="#bc970c" stroke-width="2"><circle cx="132.898" cy="132.898" r="132.898" stroke="none"/><circle cx="132.898" cy="132.898" r="131.898" fill="none"/></g></g></svg>