<svg xmlns="http://www.w3.org/2000/svg" width="512" height="512" viewBox="0 0 512 512"><g transform="translate(-296.669 -304.778)"><g transform="translate(296.669 304.778)"><circle cx="256" cy="256" r="256" transform="translate(0 0)" fill="#fff"/></g><g transform="translate(296.669 304.778)"><g transform="translate(84.542 149.645)"><path d="M309.463,397.123s-5.2,7.7-11.159,2.933c0,0-21.1-16.915,3.993-44.831L379.47,277.94s3.465-2.359,3.465,3.064v91.829l-29.859,28.78s-4.406,2.839-4.406-4.889l.129-80.245-26.936,27.929s-10.455,12.329,4.656,14.461H345.63s3.157.091.507,2.826Z" transform="translate(-290.006 -277.243)" fill="#004391"/><path d="M478.987,363.5l18.075-17.927s2.559-3.284-2.449-6.446c0,0-19.275-13.071-33.53,1.184L446.36,355.037s-8.692,8.166-.753,16.377l9.78,9.779-.031.029,20.628,20.79s4.691,4.453-.887,10.034-11.632,5.936-11.632.366l.1-18.408s-.092-5.215-3.842-1.465l-18.077,17.927s-2.558,3.285,2.451,6.445c0,0,19.276,13.071,33.528-1.181L492.349,401s8.69-8.165.752-16.377l-9.778-9.778.029-.03-20.628-20.788s-4.691-4.456.889-10.035,11.631-5.938,11.631-.367l-.1,18.408S475.237,367.253,478.987,363.5Z" transform="translate(-344.635 -297.587)" fill="#004391"/><path d="M591.491,337.087s-.016-5.935-3.946-2.007l-39.552,39.73s-32.192,34.654-2.781,48.321l21.11-21.113-.142,17.667s.015,4.638,4.3,2.947l21.112-21.28Zm-34.476,68.754s-19.136-18.4,9.308-44.22l.166,35.076Z" transform="translate(-377.861 -297.616)" fill="#004391"/><path d="M668.748,279.8s-.578-4.27-3.7-1.269l-21.9,20.839.135,100.776s.174,4.959,3.787,2.625l21.679-21.281V348.907l8.315-7.481v59.9s.9,4.028,3.491,1.44L702,381.324v-66.6s-.861-2.724-2.655-.93l-30.592,27.644Z" transform="translate(-417.778 -277.255)" fill="#004391"/><path d="M753.562,353.482l22.051-19.963c1.8-1.795,2.655.93,2.655.93v66.6l-21.44,21.445c-2.589,2.588-3.493-1.44-3.493-1.44v-67.32Z" transform="translate(-457.645 -297.316)" fill="#004391"/><path d="M753.562,297.713l22.051-19.963c1.8-1.795,2.655.93,2.655.93v23.765l-21.44,21.444c-2.589,2.586-3.493-1.44-3.493-1.44V297.965Z" transform="translate(-457.645 -277.138)" fill="#004391"/></g><g fill="none" stroke="#bc970c" stroke-width="2"><circle cx="256" cy="256" r="256" stroke="none"/><circle cx="256" cy="256" r="255" fill="none"/></g><path d="M38.94-13.662v-.132c0-8.052-5.28-11.418-14.652-13.86C16.3-29.7,14.322-30.69,14.322-33.726v-.132c0-2.244,2.046-4.026,5.94-4.026s7.92,1.716,12.012,4.554l5.28-7.656a26.744,26.744,0,0,0-17.16-5.874c-9.438,0-16.17,5.544-16.17,13.926v.132c0,9.174,6.006,11.748,15.312,14.124,7.722,1.98,9.306,3.3,9.306,5.874v.132c0,2.706-2.508,4.356-6.666,4.356-5.28,0-9.636-2.178-13.794-5.61L2.376-6.732A29.4,29.4,0,0,0,21.978.66C31.944.66,38.94-4.488,38.94-13.662ZM77.814-36.828V-46.2H39.534v9.372H53.592V0H63.756V-36.828ZM120.714,0l-19.8-46.53H91.542L71.742,0H82.1l4.224-10.362h19.536L110.088,0Zm-18.48-19.338H89.958L96.1-34.32ZM164.934,0V-46.2H154.9v28.446L133.254-46.2h-9.372V0h10.032V-29.37L156.288,0Zm49.7-23.1v-.132c0-13-10.032-22.968-24.552-22.968H172.062V0H190.08C204.6,0,214.632-10.1,214.632-23.1Zm-10.626.132c0,8.184-5.61,13.794-13.926,13.794h-7.854V-37.026h7.854c8.316,0,13.926,5.742,13.926,13.926ZM261.426,0l-19.8-46.53h-9.372L212.454,0h10.362l4.224-10.362h19.536L250.8,0Zm-18.48-19.338H230.67l6.138-14.982ZM304.524,0,293.238-16.5c5.874-2.178,9.9-6.864,9.9-14.322v-.132c0-9.5-6.534-15.246-17.424-15.246h-21.12V0h10.164V-14.784h7.986L292.644,0ZM292.842-30.294c0,3.894-2.838,6.534-7.788,6.534h-10.3V-37.026h10.1c4.95,0,7.986,2.244,7.986,6.6Zm58.08,7.194v-.132c0-13-10.032-22.968-24.552-22.968H308.352V0H326.37C340.89,0,350.922-10.1,350.922-23.1Zm-10.626.132c0,8.184-5.61,13.794-13.926,13.794h-7.854V-37.026h7.854c8.316,0,13.926,5.742,13.926,13.926ZM391.182,0V-9.042H366.1v-9.7h21.78v-9.042H366.1v-9.372h24.75V-46.2H356V0Z" transform="translate(58.842 351.355)" fill="#bc970c"/></g></g></svg>