<svg xmlns="http://www.w3.org/2000/svg" width="93.932" height="37.026" viewBox="0 0 93.932 37.026"><g transform="translate(-290.006 -277.138)"><path d="M295.706,312.5s-1.523,2.257-3.269.859c0,0-6.182-4.956,1.17-13.134l22.609-22.642s1.015-.691,1.015.9v26.9l-8.748,8.432s-1.291.832-1.291-1.432l.038-23.509-7.891,8.182s-3.063,3.612,1.364,4.237h5.6s.925.027.149.828Z" transform="translate(0 -0.236)" fill="#fff"/><path d="M452.124,342.4l5.3-5.252s.75-.962-.718-1.889c0,0-5.647-3.829-9.823.347l-4.314,4.314s-2.547,2.392-.221,4.8l2.865,2.865-.009.009,6.043,6.091s1.374,1.3-.26,2.94-3.408,1.739-3.408.107l.029-5.393s-.027-1.528-1.126-.429l-5.3,5.252s-.749.962.718,1.888c0,0,5.647,3.829,9.823-.346l4.314-4.314s2.546-2.392.22-4.8l-2.865-2.865.008-.009-6.043-6.09s-1.374-1.305.26-2.94,3.408-1.74,3.408-.108l-.03,5.393S451.025,343.5,452.124,342.4Z" transform="translate(-122.757 -45.951)" fill="#fff"/><path d="M550.012,334.718s0-1.739-1.156-.588l-11.587,11.64s-9.431,10.153-.815,14.156l6.185-6.185-.042,5.176s0,1.359,1.26.863l6.185-6.234Zm-10.1,20.143s-5.606-5.391,2.727-12.955l.049,10.276Z" transform="translate(-197.42 -46.016)" fill="#fff"/><path d="M650.647,278.144s-.169-1.251-1.085-.372l-6.415,6.105.04,29.524s.051,1.453,1.109.769l6.351-6.235v-9.545l2.436-2.192v17.55s.265,1.18,1.023.422l6.282-6.283V288.377s-.252-.8-.778-.272l-8.963,8.1Z" transform="translate(-287.115 -0.261)" fill="#fff"/><path d="M753.4,338.935l6.46-5.849c.526-.526.778.272.778.272V352.87l-6.281,6.283c-.758.758-1.023-.422-1.023-.422V339.009Z" transform="translate(-376.701 -45.342)" fill="#fff"/><path d="M753.4,283.166l6.46-5.849c.526-.526.778.272.778.272v6.962l-6.281,6.283c-.758.758-1.023-.422-1.023-.422V283.24Z" transform="translate(-376.701)" fill="#fff"/></g></svg>