<svg id="TAB_BUTTON" data-name="TAB BUTTON" xmlns="http://www.w3.org/2000/svg" width="257.172" height="66.726" viewBox="0 0 257.172 66.726">
  <g id="Path_896" data-name="Path 896" transform="translate(0)" fill="#004391">
    <path d="M 233.1715393066406 65.72567749023438 L 24.00000381469727 65.72567749023438 C 20.89456939697266 65.72567749023438 17.88257026672363 65.11771392822266 15.04766941070557 63.91864776611328 C 12.30896949768066 62.76028060913086 9.849136352539063 61.10174560546875 7.736536502838135 58.9891471862793 C 5.623936176300049 56.87654495239258 3.965436220169067 54.41671371459961 2.807036399841309 51.67801284790039 C 1.607969641685486 48.84311294555664 1.000002980232239 45.83111190795898 1.000002980232239 42.72568130493164 L 1.000002980232239 24.00001335144043 C 1.000002980232239 20.89457893371582 1.607969641685486 17.8825798034668 2.807036399841309 15.04767990112305 C 3.965436220169067 12.30897998809814 5.623936176300049 9.849146842956543 7.736536502838135 7.736546516418457 C 9.849136352539063 5.623946189880371 12.30896949768066 3.965446472167969 15.04766941070557 2.807046413421631 C 17.88257026672363 1.607979655265808 20.89456939697266 1.000012993812561 24.00000381469727 1.000012993812561 L 233.1715393066406 1.000012993812561 C 236.2769622802734 1.000012993812561 239.2889709472656 1.607979655265808 242.1238708496094 2.807046413421631 C 244.8625640869141 3.965446472167969 247.3224029541016 5.623946189880371 249.4349975585938 7.736546516418457 C 251.547607421875 9.849146842956543 253.2061004638672 12.30897998809814 254.364501953125 15.04767990112305 C 255.5635681152344 17.8825798034668 256.1715393066406 20.89457893371582 256.1715393066406 24.00001335144043 L 256.1715393066406 42.72568130493164 C 256.1715393066406 45.83111190795898 255.5635681152344 48.84311294555664 254.364501953125 51.67801284790039 C 253.2061004638672 54.41671371459961 251.547607421875 56.87654495239258 249.4349975585938 58.9891471862793 C 247.3224029541016 61.10174560546875 244.8625640869141 62.76028060913086 242.1238708496094 63.91864776611328 C 239.2889709472656 65.11771392822266 236.2769622802734 65.72567749023438 233.1715393066406 65.72567749023438 Z" stroke="none"/>
    <path d="M 24 2.000015258789063 C 21.02912902832031 2.000015258789063 18.14820861816406 2.581413269042969 15.43724060058594 3.728046417236328 C 12.81770324707031 4.836013793945313 10.46473693847656 6.422580718994141 8.44366455078125 8.443645477294922 C 6.422576904296875 10.46474456787109 4.83599853515625 12.81771469116211 3.728042602539063 15.43721389770508 C 2.581405639648438 18.14821243286133 2 21.02914810180664 2 24.0000114440918 L 2 42.72567749023438 C 2 45.69654846191406 2.581405639648438 48.57748031616211 3.728042602539063 51.28844451904297 C 4.83599853515625 53.90798187255859 6.422576904296875 56.26094818115234 8.44366455078125 58.28201293945313 C 10.46473693847656 60.3031120300293 12.81770324707031 61.88967895507813 15.43724060058594 62.99764633178711 C 18.14820861816406 64.14427947998047 21.02912902832031 64.72567749023438 24 64.72567749023438 L 233.1715393066406 64.72567749023438 C 236.1423950195313 64.72567749023438 239.0233306884766 64.14427947998047 241.7342987060547 62.99764633178711 C 244.3538360595703 61.88967895507813 246.7068023681641 60.3031120300293 248.7278747558594 58.28201293945313 C 250.7489624023438 56.26094818115234 252.3355407714844 53.90798187255859 253.4434967041016 51.28844451904297 C 254.5901336669922 48.57748031616211 255.1715393066406 45.69654846191406 255.1715393066406 42.72567749023438 L 255.1715393066406 24.0000114440918 C 255.1715393066406 21.02914810180664 254.5901336669922 18.14821243286133 253.4434967041016 15.43721389770508 C 252.3355407714844 12.81771469116211 250.7489624023438 10.46474456787109 248.7278747558594 8.443645477294922 C 246.7068023681641 6.422580718994141 244.3538360595703 4.836013793945313 241.7342987060547 3.728046417236328 C 239.0233306884766 2.581413269042969 236.1423950195313 2.000015258789063 233.1715393066406 2.000015258789063 L 24 2.000015258789063 M 24 1.52587890625e-05 L 233.1715393066406 1.52587890625e-05 C 246.4263763427734 1.52587890625e-05 257.1715393066406 10.74514770507813 257.1715393066406 24.0000114440918 L 257.1715393066406 42.72567749023438 C 257.1715393066406 55.98051452636719 246.4263763427734 66.72567749023438 233.1715393066406 66.72567749023438 L 24 66.72567749023438 C 10.74516296386719 66.72567749023438 0 55.98051452636719 0 42.72567749023438 L 0 24.0000114440918 C 0 10.74514770507813 10.74516296386719 1.52587890625e-05 24 1.52587890625e-05 Z" stroke="none" fill="#fff"/>
  </g>
  <text id="RAFT" transform="translate(128.161 42.603)" fill="#fff" font-size="22" font-family="ArialMT, Arial"><tspan x="-28.719" y="0">RAFT</tspan></text>
</svg>
