<svg xmlns="http://www.w3.org/2000/svg" width="221.496" height="221.496" viewBox="0 0 221.496 221.496"><g transform="translate(-661.131 -466.117)"><g transform="translate(661.131 466.117)" fill="none" stroke="#bc970c" stroke-width="2"><circle cx="110.748" cy="110.748" r="110.748" stroke="none"/><circle cx="110.748" cy="110.748" r="109.748" fill="none"/></g><g transform="translate(719.797 518.42)"><path d="M164.735,171c0,2.591.129,4.793.129,4.793h-5.639V168.6c0-2.461-.712-3.3-2.073-3.3-1.748,0-2.656,1.36-2.656,4.146v6.412h-5.571c.194-4.275,0-10.752-.129-14.7h4.987a7.9,7.9,0,0,1,.129,1.554v.583a6.464,6.464,0,0,1,5.181-2.4,5.68,5.68,0,0,1,5.052,2.915,8.389,8.389,0,0,1,.583,3.368V171Z" transform="translate(-60.972 -62.182)" fill="#ed1b2e" fill-rule="evenodd"/><path d="M57.458,173.889a6.557,6.557,0,0,1-4.987,2.137c-3.108-.259-5.571-1.619-5.571-6.218v-8.744h5.571v7.189c0,2.461.648,3.3,2.008,3.3,1.748,0,2.591-1.619,2.591-4.146V161h5.5c-.194,4.275,0,10.752.129,14.7H57.716a5.426,5.426,0,0,1-.259-1.814Z" transform="translate(-25.072 -62.225)" fill="#ed1b2e" fill-rule="evenodd"/><path d="M132.474,173.769a9.772,9.772,0,0,0,.129,1.879H137.4s-.129-2.527-.129-7.448a16.576,16.576,0,0,0-.389-3.952,5.808,5.808,0,0,0-4.729-3.562,13.124,13.124,0,0,0-7.773,1.036v3.627a11.219,11.219,0,0,1,4.275-1.3c1.425,0,3.439.065,3.5,2.137H130.34c-3.439,0-7.7.648-7.84,4.858-.065,3.3,2.85,4.793,5.377,4.729a6.28,6.28,0,0,0,4.6-2.008Z" transform="translate(-51.705 -62.041)" fill="#ed1b2e" fill-rule="evenodd"/><path d="M130.7,175.55c-.129-2.073,3.886-1.814,4.4-1.619C135.1,177.429,130.827,177.883,130.7,175.55Z" transform="translate(-54.591 -66.735)" fill="#fff" fill-rule="evenodd"/><path d="M106.2,166.289c0-2.461-.842-3.3-2.008-3.3-1.748,0-2.656,1.3-2.656,4.146v6.412H96.1V154.5h5.5v5.764a6.7,6.7,0,0,1,4.6-1.814c2.461.129,5.639,1.231,5.639,6.542v8.42h-5.571l-.065-7.125Z" transform="translate(-42.404 -59.935)" fill="#ed1b2e" fill-rule="evenodd"/><path d="M85.971,165.713c-2.008-1.619-6.8-1.425-6.8,2.4,0,4.275,5.181,4.146,7.189,2.721l.129,4.146C83.7,176.4,73.6,176.918,73.6,168.173s9.975-8.291,12.76-6.6l-.389,4.146Z" transform="translate(-34.479 -62.08)" fill="#ed1b2e" fill-rule="evenodd"/><path d="M20.454,169.339l-1.36,3.886H13.2L20.714,153.6h6.477L34.7,173.161h-6.22l-1.36-3.821Z" transform="translate(-13.2 -59.618)" fill="#ed1b2e" fill-rule="evenodd"/><path d="M30.427,168.071,28.613,162.5,26.8,168.139Z" transform="translate(-17.992 -62.753)" fill="#fff" fill-rule="evenodd"/><path d="M124.958,43.021a19.588,19.588,0,0,0,4.016-2.267,10.718,10.718,0,0,1-2.785-2.008c-.971-.906-3.108-5.246-11.594-5.246-9.068,0-12.954,6.283-12.954,11.27a11.852,11.852,0,0,0,.128,2.071C89.982,52.414,79.423,58.7,67.7,73.011H97.684a21.319,21.319,0,0,0-6.348,3.439L93.8,85.064a33.436,33.436,0,0,0,11.534-2.791A32.843,32.843,0,0,0,123.6,61.611c.389-1.425,2.2-8.873,2.4-9.975a8.332,8.332,0,0,1,3.108-5.246,16.917,16.917,0,0,0-4.081-2.656c-.712-.259-.712-.454-.065-.712Z" transform="translate(-32.399 -17.307)" fill="#ed1b2e" fill-rule="evenodd"/><path d="M139.139,41.2a4.539,4.539,0,1,0,4.539,4.539A4.539,4.539,0,0,0,139.139,41.2Z" transform="translate(-55.968 -20.02)" fill="#009d57" fill-rule="evenodd"/><path d="M95.405,8.5H52.656L38.6,49.694H60.751a28.183,28.183,0,0,1,3.108-2.267l9.716-31.478,6.671,21.7c.842-.454,3.044-1.619,4.081-2.073.519-8.614,6.931-13.408,15.416-14.379Z" transform="translate(-22.148 -8.5)" fill="#ed1b2e" fill-rule="evenodd"/><path d="M24.187,97.4,13.5,128.485H39.408L47.051,104H29.628a24.115,24.115,0,0,1,3.239-6.6Z" transform="translate(-13.306 -39.819)" fill="#ed1b2e" fill-rule="evenodd"/><path d="M115.2,111.079l6.542,21.568h6.74L121.356,109.2a32.981,32.981,0,0,1-6.154,1.879Z" transform="translate(-49.134 -43.977)" fill="#009d57" fill-rule="evenodd"/><path d="M144.493,86.5A34.936,34.936,0,0,1,128.3,102.3l6.6,22.345h22.605Z" transform="translate(-53.749 -35.979)" fill="#ed1b2e" fill-rule="evenodd"/><path d="M170.6,46.773a21.768,21.768,0,0,0-8.1-1.684,7.427,7.427,0,0,1-2.656-.389,16.96,16.96,0,0,1-4.016,2.267c-.648.259-.648.454,0,.648a19.158,19.158,0,0,1,4.081,2.656c2.656-1.943,4.858-.259,10.687-2.915Q171.478,47.064,170.6,46.773Z" transform="translate(-63.278 -21.253)" fill="#009d57" fill-rule="evenodd"/><path d="M22.36,65.457a.259.259,0,0,1,0,.519,6.9,6.9,0,0,0-7.06,6.089H37.516a21.273,21.273,0,0,0-4.6,6.74h34.07l7.84,26.362h6.8l-6.283-20.92-2.461-8.614a22.121,22.121,0,0,1,6.348-3.439H49.248c11.723-14.314,22.282-20.662,34.07-26.168a11.854,11.854,0,0,1-.129-2.073c0-4.987,3.821-11.27,12.954-11.27a15.083,15.083,0,0,1,8.8,2.4A18.725,18.725,0,0,0,93.672,31c-10.1,0-16.193,6.477-15.68,13.731C71.521,47.712,60.315,53.67,53.262,59.5H15.3A6.828,6.828,0,0,0,22.36,65.457Z" transform="translate(-13.94 -16.427)" fill="#009d57" fill-rule="evenodd"/><path d="M140.991,46.358l4.469-2.2a4.462,4.462,0,0,0-2.85-2.656l-2.073,4.4c-.259.454-.065.712.454.454Z" transform="translate(-58.021 -20.125)" fill="#fff" fill-rule="evenodd"/></g></g></svg>