<svg xmlns="http://www.w3.org/2000/svg" width="221.496" height="221.496" viewBox="0 0 221.496 221.496"><g transform="translate(-231.166 -174.96)"><g transform="translate(231.166 174.96)" fill="none" stroke="#bc970c" stroke-width="2"><circle cx="110.748" cy="110.748" r="110.748" stroke="none"/><circle cx="110.748" cy="110.748" r="109.748" fill="none"/></g><g transform="translate(-3.359 20.154)"><path d="M301.166,330.523a1.316,1.316,0,0,0-.027.264v.267a3.557,3.557,0,0,0,.938,2.576,3.629,3.629,0,0,0,2.756.982,5,5,0,0,0,4.315-2.1c.016-.019.091-.014.224.012a1.7,1.7,0,0,1,.433.169,1.331,1.331,0,0,1,.422.366.962.962,0,0,1,.182.6,1.639,1.639,0,0,1-.142.713,2.629,2.629,0,0,1-.534.687,5.633,5.633,0,0,1-2.041,1.244,8.576,8.576,0,0,1-2.915.439,7.781,7.781,0,0,1-2.687-.423,5.232,5.232,0,0,1-1.916-1.178,4.865,4.865,0,0,1-1.161-1.776,6.089,6.089,0,0,1-.395-2.226,8.614,8.614,0,0,1,.659-3.4,8.45,8.45,0,0,1,1.8-2.7,8.351,8.351,0,0,1,2.69-1.792,8.537,8.537,0,0,1,3.334-.644,6,6,0,0,1,3.751,1.023,3.256,3.256,0,0,1,1.317,2.7,4.265,4.265,0,0,1-.377,1.819,3.337,3.337,0,0,1-1.277,1.389,6.887,6.887,0,0,1-2.394.868,20.1,20.1,0,0,1-3.763.294c-.486,0-.991-.016-1.515-.043S301.764,330.576,301.166,330.523Zm.449-1.932a21.563,21.563,0,0,0,2.492.166,15.445,15.445,0,0,0,2.716-.193,6.282,6.282,0,0,0,1.694-.518,2.08,2.08,0,0,0,.882-.758,1.735,1.735,0,0,0,.251-.882,1.539,1.539,0,0,0-.657-1.205,3.154,3.154,0,0,0-2-.532,5.05,5.05,0,0,0-1.76.308,5.948,5.948,0,0,0-1.528.826,6.04,6.04,0,0,0-1.218,1.234A6.688,6.688,0,0,0,301.615,328.591Z" fill="#008634"/><path d="M312.34,336.4a2.353,2.353,0,0,1-.521-.433,1.007,1.007,0,0,1-.235-.686,1.555,1.555,0,0,1,.235-.828,4.246,4.246,0,0,1,.8-.852l4.228-4.031-2.994-5.882c-.022-.038,0-.1.069-.2a1.311,1.311,0,0,1,.294-.293,2.062,2.062,0,0,1,.5-.281,1.827,1.827,0,0,1,.7-.126,1.392,1.392,0,0,1,1.007.348,3.163,3.163,0,0,1,.673,1.164l1.819,3.949,5.463-5.6a2.517,2.517,0,0,1,.267.056,1.806,1.806,0,0,1,.516.224,2.011,2.011,0,0,1,.505.433,1.029,1.029,0,0,1,.224.687,1.494,1.494,0,0,1-.238.825,3.932,3.932,0,0,1-.8.855l-4.592,4.4,1.121,2.214a8.626,8.626,0,0,0,.687,1.173,2.751,2.751,0,0,0,.644.673,1.935,1.935,0,0,0,.7.307,5.678,5.678,0,0,0,.855.115c.037,0,.053.1.043.307a1.717,1.717,0,0,1-.182.658,1.984,1.984,0,0,1-.547.657,1.718,1.718,0,0,1-1.107.31,3.142,3.142,0,0,1-.95-.142,2.308,2.308,0,0,1-.871-.531,5.143,5.143,0,0,1-.839-1.064,14.067,14.067,0,0,1-.9-1.766l-.7-1.594-5.126,5.236A2.687,2.687,0,0,1,312.34,336.4Z" fill="#008634"/><path d="M330.879,325.2a6.41,6.41,0,0,1,2.017-1.933,5.345,5.345,0,0,1,2.744-.671,5.6,5.6,0,0,1,2.046.379,5,5,0,0,1,1.734,1.119,5.4,5.4,0,0,1,1.2,1.846,6.722,6.722,0,0,1,.449,2.535,9.127,9.127,0,0,1-.519,3.053,8.685,8.685,0,0,1-1.468,2.648,7.335,7.335,0,0,1-2.285,1.862,6.28,6.28,0,0,1-2.951.7,5.134,5.134,0,0,1-2.971-.829,5.066,5.066,0,0,1-1.766-2l-1.426,6.665a1.986,1.986,0,0,1-.433,1.023,1.119,1.119,0,0,1-.828.291h-.307a1.615,1.615,0,0,1-.954-.275q-.392-.281-.224-1.039l3.724-17.615c.058-.093.29-.139.7-.139a2.074,2.074,0,0,1,.684.112,1.241,1.241,0,0,1,.548.379,1.632,1.632,0,0,1,.323.727A3,3,0,0,1,330.879,325.2Zm-.924,4.76a4.312,4.312,0,0,0,0,1.694,3.32,3.32,0,0,0,.659,1.443,3.61,3.61,0,0,0,1.259,1,4.047,4.047,0,0,0,1.779.377,3.9,3.9,0,0,0,1.988-.505,4.818,4.818,0,0,0,1.468-1.315,5.867,5.867,0,0,0,.911-1.85,7.3,7.3,0,0,0,.308-2.1,4.374,4.374,0,0,0-.278-1.609,3.764,3.764,0,0,0-.743-1.2,3.162,3.162,0,0,0-1.1-.756,3.362,3.362,0,0,0-1.327-.264,4.563,4.563,0,0,0-2.52.753,5.885,5.885,0,0,0-1.9,1.99Z" fill="#008634"/><path d="M347.2,325.172a4.137,4.137,0,0,1,3.7-2.575,2.763,2.763,0,0,1,1.527.406,1.276,1.276,0,0,1,.629,1.135,1.924,1.924,0,0,1-.182.865,2.079,2.079,0,0,1-.4.575,1.621,1.621,0,0,1-.409.3c-.121.054-.19.073-.211.054a2.68,2.68,0,0,0-.7-.532,2.317,2.317,0,0,0-1.092-.224,2.39,2.39,0,0,0-1.374.422,4.213,4.213,0,0,0-1.119,1.191,8.651,8.651,0,0,0-.881,1.819,16.5,16.5,0,0,0-.631,2.311l-.9,4.285a1.9,1.9,0,0,1-.446,1.02,1.12,1.12,0,0,1-.812.294h-.337a1.543,1.543,0,0,1-.94-.28c-.252-.184-.329-.532-.235-1.034l2.6-12.24c.056-.093.288-.139.7-.139a2.083,2.083,0,0,1,.687.112,1.241,1.241,0,0,1,.548.379,1.676,1.676,0,0,1,.323.714A2.909,2.909,0,0,1,347.2,325.172Z" fill="#008634"/><path d="M355.525,330.523a1.191,1.191,0,0,0-.029.264v.267a3.556,3.556,0,0,0,.937,2.576,3.641,3.641,0,0,0,2.759.982,5,5,0,0,0,4.312-2.1c.016-.019.091-.014.224.012a1.685,1.685,0,0,1,.433.169,1.321,1.321,0,0,1,.422.366.961.961,0,0,1,.181.6,1.611,1.611,0,0,1-.14.713,2.636,2.636,0,0,1-.535.687,5.607,5.607,0,0,1-2.041,1.244,8.562,8.562,0,0,1-2.914.439,7.786,7.786,0,0,1-2.688-.423,5.227,5.227,0,0,1-1.915-1.178,4.9,4.9,0,0,1-1.165-1.776,6.174,6.174,0,0,1-.392-2.226,8.632,8.632,0,0,1,.659-3.4,8.469,8.469,0,0,1,1.8-2.7,8.34,8.34,0,0,1,2.69-1.792,8.528,8.528,0,0,1,3.333-.644,5.992,5.992,0,0,1,3.751,1.023,3.25,3.25,0,0,1,1.314,2.7,4.248,4.248,0,0,1-.374,1.819,3.33,3.33,0,0,1-1.277,1.389,6.873,6.873,0,0,1-2.393.868,20.133,20.133,0,0,1-3.765.294c-.485,0-.99-.016-1.514-.043S356.12,330.576,355.525,330.523Zm.446-1.932a21.534,21.534,0,0,0,2.492.166,15.457,15.457,0,0,0,2.717-.193,6.339,6.339,0,0,0,1.694-.518,2.1,2.1,0,0,0,.884-.758,1.761,1.761,0,0,0,.248-.882,1.53,1.53,0,0,0-.657-1.205,3.142,3.142,0,0,0-2-.532,5.082,5.082,0,0,0-1.765.308,5.851,5.851,0,0,0-1.523.826,5.978,5.978,0,0,0-1.221,1.234A6.724,6.724,0,0,0,355.971,328.591Z" fill="#008634"/><path d="M372.605,336.742a8.579,8.579,0,0,1-3.112-.522,6.193,6.193,0,0,1-2.1-1.245,2.781,2.781,0,0,1-.5-.673,1.507,1.507,0,0,1-.2-.726,1.2,1.2,0,0,1,.169-.647,1.635,1.635,0,0,1,.766-.684c.126-.048.193-.061.211-.042a5.716,5.716,0,0,0,1.862,1.72,5.313,5.313,0,0,0,2.789.716,3.4,3.4,0,0,0,2.041-.518,1.608,1.608,0,0,0,.7-1.36,1.277,1.277,0,0,0-.726-1.162,13.407,13.407,0,0,0-2.017-.852c-.487-.171-.967-.356-1.443-.561a5.77,5.77,0,0,1-1.29-.759,3.557,3.557,0,0,1-.924-1.074,3.185,3.185,0,0,1-.347-1.554,3.916,3.916,0,0,1,.363-1.7,3.826,3.826,0,0,1,1.049-1.331,4.887,4.887,0,0,1,1.652-.865,7.116,7.116,0,0,1,2.172-.31,7.729,7.729,0,0,1,2.772.462,5.15,5.15,0,0,1,1.9,1.191,1.953,1.953,0,0,1,.7,1.4,1.184,1.184,0,0,1-.182.671,1.648,1.648,0,0,1-.419.449,1.5,1.5,0,0,1-.433.224c-.13.037-.205.037-.224,0a4.527,4.527,0,0,0-1.681-1.638,4.78,4.78,0,0,0-2.462-.657,2.976,2.976,0,0,0-1.964.545,1.633,1.633,0,0,0-.643,1.272,1.363,1.363,0,0,0,.785,1.25,16.255,16.255,0,0,0,2.129.935c.505.187.994.385,1.47.59a5.951,5.951,0,0,1,1.274.74,3.653,3.653,0,0,1,.91,1.039,2.884,2.884,0,0,1,.35,1.466,3.751,3.751,0,0,1-1.415,3.057A6.185,6.185,0,0,1,372.605,336.742Z" fill="#008634"/><path d="M385.43,336.742a8.551,8.551,0,0,1-3.109-.522,6.134,6.134,0,0,1-2.1-1.245,2.8,2.8,0,0,1-.508-.673,1.517,1.517,0,0,1-.2-.726,1.22,1.22,0,0,1,.168-.647,1.635,1.635,0,0,1,.377-.445,1.471,1.471,0,0,1,.393-.239c.122-.048.193-.061.211-.042a5.686,5.686,0,0,0,1.862,1.72,5.283,5.283,0,0,0,2.786.716,3.415,3.415,0,0,0,2.044-.518,1.612,1.612,0,0,0,.7-1.36,1.275,1.275,0,0,0-.727-1.162,13.345,13.345,0,0,0-2.016-.852c-.483-.171-.967-.356-1.442-.561a5.823,5.823,0,0,1-1.291-.759,3.505,3.505,0,0,1-.921-1.074,3.152,3.152,0,0,1-.35-1.554,3.916,3.916,0,0,1,.363-1.7,3.8,3.8,0,0,1,1.052-1.331,4.9,4.9,0,0,1,1.651-.865,7.111,7.111,0,0,1,2.17-.31,7.714,7.714,0,0,1,2.772.462,5.142,5.142,0,0,1,1.9,1.191,1.946,1.946,0,0,1,.7,1.4,1.2,1.2,0,0,1-.182.671,1.666,1.666,0,0,1-.42.449,1.542,1.542,0,0,1-.435.224c-.131.037-.206.037-.224,0a4.531,4.531,0,0,0-1.68-1.638,4.785,4.785,0,0,0-2.464-.657,2.964,2.964,0,0,0-1.96.545,1.634,1.634,0,0,0-.644,1.272,1.366,1.366,0,0,0,.783,1.25,16.505,16.505,0,0,0,2.129.935c.5.187.993.385,1.472.59a5.9,5.9,0,0,1,1.274.74,3.677,3.677,0,0,1,.908,1.039,2.854,2.854,0,0,1,.351,1.466,3.739,3.739,0,0,1-1.414,3.057A6.191,6.191,0,0,1,385.43,336.742Z" fill="#008634"/></g><g transform="translate(26 24.358)"><path d="M270.409,301.488c-1.989,0-3.436,1-3.436,2.915a2.945,2.945,0,0,0,3.152,3.048,4.366,4.366,0,0,0,3.312-1.706V303.19c0-.851-1.1-1.7-3.028-1.7Zm42.933-.354a5.583,5.583,0,0,0,5.93,5.8,6.109,6.109,0,0,0,4.544-1.978,1.414,1.414,0,0,1,.568,1.275c0,1.673-2.021,3.989-6.72,3.989a8.567,8.567,0,0,1-8.579-8.7c0-5.427,3.564-9.306,8.831-9.306,4.8,0,7,3.528,7,6.529a4.952,4.952,0,0,1-.567,2.4Zm6.688-2.174c.757,0,.788-.443.788-1.036a3.463,3.463,0,0,0-3.531-3.412c-2.747,0-3.819,2.3-3.913,4.448Zm44.512,1.855c0,4.108.566,6.208,3.218,6.208,2.9,0,3.69-2.587,3.69-4.939V297.6c0-1.54-.73-2.14-2.4-1.958-.692-1.736,1.608-2.835,2.907-3.087a7.731,7.731,0,0,1,1.135-.126c1.828,0,2.531,1.139,2.531,2.842,0,.626-.062,1.766-.062,6.49,0,1.99-.031,3.048-.031,3.375,0,1.557.719,2.345,2.385,2.167.683,1.732-1.6,2.557-2.9,2.8a8.007,8.007,0,0,1-1.064.119c-1.735,0-2.087-1.123-2.437-2.74a9.572,9.572,0,0,1-.94,1,6.2,6.2,0,0,1-4.292,1.706,5.6,5.6,0,0,1-4.355-1.855c-1.515-1.8-1.515-4.114-1.515-7.49V297.6c0-1.54-.725-2.14-2.4-1.958-.692-1.736,1.61-2.835,2.9-3.087a7.748,7.748,0,0,1,1.134-.126c1.831,0,2.527,1.139,2.527,2.842Zm-7.982.352c0-5.334-3.69-8.958-8.8-8.958a8.821,8.821,0,0,0-8.928,8.958,8.865,8.865,0,1,0,17.728,0Zm-79.177,4.7c0,1.361.879,1.8,2.427,2.008a2.4,2.4,0,0,1-2.491,2.315,3.233,3.233,0,0,1-3.441-2.067,8.08,8.08,0,0,1-5.173,2.127c-3.5,0-6.12-2.346-6.12-5.539,0-3.379,2.936-5.38,7.066-5.38a8.958,8.958,0,0,1,3.786.756v-2.263c0-2.024-.884-3.312-3.185-3.312a7.774,7.774,0,0,0-2.335.437,3.574,3.574,0,0,1,.157.981,2.084,2.084,0,1,1-4.161.1c0-2.21,2.773-3.816,6.622-3.816,3.06,0,4.923.723,5.9,1.984.883,1.107.947,2.813.947,5.271Zm74.665-4.442c0,4.1-1.766,6.331-4.258,6.331-2.21,0-4.354-2.23-4.354-7.093,0-3.786,1.576-6.151,4.165-6.151,2.555,0,4.447,2.623,4.447,6.913Zm-62.173-6.218a2.033,2.033,0,0,0,2.078,1.829,2.264,2.264,0,0,0,2.179-2.369,2.493,2.493,0,0,0-2.651-2.494,4.983,4.983,0,0,0-4.038,2.842l-.063.03c-.283-1.507-1.008-2.647-2.524-2.647a3.784,3.784,0,0,0-1.133.189c-1.262.378-3.125,1.352-2.433,3.087,1.768-.341,2.4.256,2.4,1.8v7.338c0,1.457-.188,2.067-.691,2.494a3.155,3.155,0,0,1-1.294.573c-.727,1.583.694,2.077,4.192,2.077s4.705-.494,3.979-2.077a4.463,4.463,0,0,1-1.677-.573c-.5-.427-.721-1.037-.721-2.494v-4.426c0-3.952,1.449-4.987,2.4-5.175Zm43.4-2.558h4.509a1.626,1.626,0,0,1-1.194,2.429c-.321.029-.664.029-.979.029-.822,0-1.641-.062-2.21-.062v9.763c0,1.457.252,2.067.757,2.494a5.37,5.37,0,0,0,1.894.573c.725,1.583-.981,2.077-4.483,2.077s-4.95-.494-4.223-2.077a3.149,3.149,0,0,0,1.292-.573c.5-.427.694-1.037.694-2.494v-9.826l-2.651-.1c-.537-1.288.191-2.206,1.261-2.206h1.328v-1.263a8.534,8.534,0,0,1,1.1-4.919,5.831,5.831,0,0,1,5.266-2.554c3.31,0,5.993,1.547,5.993,3.876a2.161,2.161,0,0,1-2.145,2.243,2.119,2.119,0,0,1-2.082-2.051,2.2,2.2,0,0,1,.444-1.295,2.649,2.649,0,0,0-1.924-.662c-2.177,0-2.651,1.609-2.651,3.627Zm-29.054,2.558a2.036,2.036,0,0,0,2.083,1.829,2.263,2.263,0,0,0,2.176-2.369,2.492,2.492,0,0,0-2.65-2.494,4.982,4.982,0,0,0-4.038,2.842l-.063.03c-.282-1.507-1.008-2.647-2.522-2.647a3.761,3.761,0,0,0-1.135.189c-1.266.378-3.128,1.352-2.432,3.087,1.767-.341,2.4.256,2.4,1.8v7.338c0,1.457-.186,2.067-.692,2.494a3.138,3.138,0,0,1-1.292.573c-.725,1.583.692,2.077,4.194,2.077s4.7-.494,3.976-2.077a4.461,4.461,0,0,1-1.672-.573c-.5-.427-.727-1.037-.727-2.494v-4.426c0-3.952,1.452-4.987,2.4-5.175Zm83.959,0a2.062,2.062,0,0,0,2.106,1.829,2.265,2.265,0,0,0,2.16-2.369,2.483,2.483,0,0,0-2.653-2.494,4.95,4.95,0,0,0-4.011,2.842l-.094.03c-.275-1.507-1.007-2.647-2.491-2.647a3.934,3.934,0,0,0-1.163.189c-1.244.378-3.1,1.352-2.423,3.087,1.773-.341,2.392.256,2.392,1.8v7.338c0,1.457-.181,2.067-.7,2.494a3.058,3.058,0,0,1-1.276.573c-.732,1.583.7,2.077,4.2,2.077s4.683-.494,3.952-2.077a4.684,4.684,0,0,1-1.677-.573c-.477-.427-.689-1.037-.689-2.494v-4.426c0-3.952,1.424-4.987,2.366-5.175Zm-148.808,2.472c0,7.96,5.485,12.674,11.448,12.674,5.363,0,9.116-3.77,9.116-6.908a2.61,2.61,0,0,0-2.4-2.888,2.449,2.449,0,0,0-2.556,2.557,2.905,2.905,0,0,0,.98,2.068,4.976,4.976,0,0,1-4.668,2.553c-3.976,0-6.846-4.137-6.846-10.09s2.745-10.126,6.718-10.126a5.005,5.005,0,0,1,4.67,2.557,2.96,2.96,0,0,0-.982,2.083,2.449,2.449,0,0,0,2.558,2.551c1.358,0,2.4-1.222,2.4-2.9,0-3.123-3.753-6.91-9.116-6.91C244.736,284.9,239.377,290.076,239.377,297.679Z" fill="#008634"/></g><g transform="translate(-126.071 -77.586)"><path d="M440.92,290.29l-36.2,35.022a7.4,7.4,0,0,0,0,11.841l36.2,35.013a.957.957,0,0,0,.652.328.6.6,0,0,0,.566-.675,1,1,0,0,0-.313-.675c-8.5-10.559-14.685-22.671-14.685-39.786s6.183-29.478,14.685-40.039a1,1,0,0,0,.313-.675.6.6,0,0,0-.566-.679.949.949,0,0,0-.652.328" transform="translate(0 1.19)" fill="#6db27c"/><path d="M447.446,288.512c-14.171,0-19.715,20.09-19.715,44.034s5.544,43.771,19.715,43.771c8.509,0,15.766-4.983,15.784-9.075a3.463,3.463,0,0,0-1.092-2.509c-4.034-3.89-5.607-7.781-5.627-11.22-.024-6.561,5.669-11.442,10.911-11.442,7.213,0,11.464,5.667,11.464,13,0,6.96-2.967,12.749-6.181,17.384a1.1,1.1,0,0,0-.188.59.589.589,0,0,0,.537.657,1.013,1.013,0,0,0,.675-.35l36.209-35.013a7.4,7.4,0,0,0,0-11.841l-36.209-35.022a1,1,0,0,0-.675-.348c-.326,0-.537.295-.537.663a1.069,1.069,0,0,0,.188.584c3.213,4.639,6.181,10.432,6.181,17.381,0,7.333-4.251,13.006-11.464,13.006-5.241,0-10.934-4.879-10.911-11.442.02-3.432,1.593-7.33,5.627-11.222a3.454,3.454,0,0,0,1.092-2.5C463.212,293.5,455.955,288.512,447.446,288.512Z" transform="translate(21.307 0)" fill="#008634"/></g></g></svg>