<svg xmlns="http://www.w3.org/2000/svg" width="221.496" height="221.496" viewBox="0 0 221.496 221.496"><g transform="translate(-319.704)"><g transform="translate(319.704)" fill="none" stroke="#bc970c" stroke-width="2"><circle cx="110.748" cy="110.748" r="110.748" stroke="none"/><circle cx="110.748" cy="110.748" r="109.748" fill="none"/></g><g transform="translate(-238.601 -141.303)"><g transform="translate(603.958 182.418)"><g transform="translate(0 87.92)"><path d="M14.1,122.874a1.578,1.578,0,0,1,1.647,1.647c0,.859-.215,1.79-.215,2.648,0,.723.215,1.432.215,2.148,0,1.217-1.146,1.79-2.22,1.79-1.432,0-2.077-.644-2-2.077,0-.788.072-1.146-.5-1.719a2.849,2.849,0,0,0-2.22-.788c-3.294,0-3.652,3.294-3.652,5.871,0,2.721.362,5.656,3.8,5.656a2.778,2.778,0,0,0,2-.573,2.169,2.169,0,0,0,.644-1.932,2.083,2.083,0,0,1,.362-1.575,1.933,1.933,0,0,1,1.575-.723c1.719,0,2.435,1.217,2.435,2.793,0,3.937-3.724,5.8-7.3,5.8a8.467,8.467,0,0,1-6.372-2.506A10.758,10.758,0,0,1,0,132.468a12.905,12.905,0,0,1,1.575-6.508A7.439,7.439,0,0,1,7.735,122.8a5.9,5.9,0,0,1,4.519,1.862,1.79,1.79,0,0,1,1.847-1.79Z" transform="translate(0.002 -122.798)" fill="#005baa"/><path d="M29.487,132.656c0,1.217-1.146,1.719-2.22,1.719a2.328,2.328,0,0,1-2.435-2.22c0-2.648,3.724-3.151,5.729-3.151a9.453,9.453,0,0,1,4.225.788c1.575.931,1.647,2.363,1.647,4.01v4.868c0,.362-.072,1.217.43,1.217h.644a1.316,1.316,0,0,1,1.289,1.432c0,1.432-1.5,2-2.721,2a2.979,2.979,0,0,1-3.006-1.647,6.508,6.508,0,0,1-4.519,1.647c-2.363,0-4.653-1.217-4.653-3.867,0-6.157,8.162-2.936,8.162-6.372,0-1-.931-1.432-1.79-1.432-.43,0-.859.072-.859.573v.43Zm2.648,4.367c-.788.788-3.8.43-3.8,1.79,0,.931.723,1.217,1.5,1.217,1.575,0,2.29-.931,2.29-2.435Z" transform="translate(-6.787 -124.561)" fill="#005baa"/><path d="M132.818,136.022c0,4.3-2.22,7.3-6.8,7.3S119,140.6,119,136.166s2.435-7.16,7.016-7.16a6.414,6.414,0,0,1,6.8,7.016Zm-6.8-3.724c-2.148,0-2.648,2.148-2.648,3.867,0,1.5.5,3.867,2.435,3.867a2.169,2.169,0,0,0,2.148-1.146,6,6,0,0,0,.573-2.721c0-1.647-.43-3.867-2.505-3.867Z" transform="translate(-33.795 -124.562)" fill="#005baa"/><path d="M91.25,136.78c-.5,0-1.217-.143-1.217.573A2.659,2.659,0,0,0,92.754,140c2.29,0,2.077-2.077,4.158-2.077a1.678,1.678,0,0,1,1.862,1.647,3.467,3.467,0,0,1-1.862,2.721,7.913,7.913,0,0,1-4.225,1.074,7.231,7.231,0,1,1-.143-14.462,6.808,6.808,0,0,1,4.519,1.432A6.508,6.508,0,0,1,99,134.918c0,1.575-.143,1.932-1.719,1.932H91.25Zm2.435-2.936c.43,0,.931.143.931-.43a1.768,1.768,0,0,0-.573-1.146,2.189,2.189,0,0,0-1.432-.5,2.14,2.14,0,0,0-1.79.723c-.215.215-.644.644-.644,1,0,.5.788.362,1.146.362h2.363Z" transform="translate(-24.373 -124.532)" fill="#005baa"/><path d="M48.978,134.229c0-.362.072-1.862-.5-1.862-.286,0-.5.215-.859.215-.859,0-1.146-.723-1.146-1.5,0-1,.43-1.79,1.289-1.79.788,0,1.289.286,1.79.286a14.341,14.341,0,0,0,1.719-.286c.788,0,.788.5.788,1.146v1.932A4.125,4.125,0,0,1,56.351,129,3.379,3.379,0,0,1,59.86,132.3a2.379,2.379,0,0,1-2.29,2.578,1.732,1.732,0,0,1-1.862-1.719,2.33,2.33,0,0,1,.286-1c-2.936-.215-3.006,3.8-3.006,5.871,0,.362-.072,1.862.5,1.862.286,0,.5-.215.859-.215.859,0,1.146.723,1.146,1.5,0,1-.43,1.79-1.289,1.79-1.432,0-2.505-.286-3.579-.286-1,0-2,.215-2.936.286-.859,0-1.289-.788-1.289-1.79,0-.788.286-1.5,1.146-1.5.362,0,.644.215.859.215.573,0,.5-1.5.5-1.862v-3.8Z" transform="translate(-13.174 -124.559)" fill="#005baa"/><path d="M68.975,134.229c0-.362.072-1.862-.5-1.862-.286,0-.5.215-.859.215-.859,0-1.146-.723-1.146-1.5,0-1,.43-1.79,1.289-1.79.788,0,1.289.286,1.862.286a14.34,14.34,0,0,0,1.719-.286c.788,0,.788.5.788,1.146v1.932A4.125,4.125,0,0,1,76.421,129,3.379,3.379,0,0,1,79.93,132.3a2.379,2.379,0,0,1-2.29,2.578,1.732,1.732,0,0,1-1.862-1.719,2.33,2.33,0,0,1,.286-1c-2.936-.215-3.073,3.8-3.073,5.871,0,.362-.072,1.862.5,1.862.286,0,.5-.215.859-.215.859,0,1.146.723,1.146,1.5,0,1-.43,1.79-1.289,1.79-1.432,0-2.505-.286-3.579-.286-1,0-2,.215-2.936.286-.859,0-1.289-.788-1.289-1.79,0-.788.286-1.5,1.146-1.5.362,0,.573.215.859.215.573,0,.5-1.5.5-1.862v-3.8Z" transform="translate(-18.852 -124.559)" fill="#005baa"/><path d="M165.546,134.229c0-.362.072-1.862-.5-1.862-.286,0-.5.215-.859.215-.859,0-1.146-.723-1.146-1.5,0-1,.43-1.79,1.361-1.79.788,0,1.289.286,1.79.286a14.337,14.337,0,0,0,1.719-.286c.788,0,.788.5.788,1.146v1.932a4.125,4.125,0,0,1,4.3-3.364A3.379,3.379,0,0,1,176.5,132.3a2.379,2.379,0,0,1-2.29,2.578,1.732,1.732,0,0,1-1.862-1.719,2.329,2.329,0,0,1,.286-1c-2.936-.215-3.073,3.8-3.073,5.871,0,.362-.072,1.862.5,1.862.286,0,.5-.215.859-.215.859,0,1.146.723,1.146,1.5,0,1-.43,1.79-1.289,1.79-1.432,0-2.505-.286-3.579-.286-1,0-2,.215-2.936.286-.859,0-1.361-.788-1.361-1.79,0-.788.286-1.5,1.146-1.5.362,0,.644.215.859.215.573,0,.5-1.5.5-1.862v-3.8Z" transform="translate(-46.26 -124.559)" fill="#005baa"/><path d="M140.363,134.311c0-.362.072-1.862-.43-1.862-.286,0-.5.215-.859.215-.859,0-1.074-.723-1.074-1.5,0-1,.43-1.79,2.29-1.79.5,0,1,.286,1.575.286s1.146-.215,1.79-.286c.859,0,.644.788.644,1.432v6.229a4.881,4.881,0,0,0,.286,2,1.651,1.651,0,0,0,1.432.788,2.11,2.11,0,0,0,1.79-1.074,5.062,5.062,0,0,0,.573-2.721v-1.79c0-.362.072-1.862-.43-1.862-.215,0-.5.215-.859.215-.859,0-1.074-.723-1.074-1.5,0-1,.43-1.79,2.148-1.79.5,0,1,.286,1.575.286s1.146-.215,1.79-.286c.859,0,.788.573.788,1.289v7.446c0,.362-.072,1.862.43,1.862.286,0,.5-.215.859-.215.859,0,1.074.723,1.074,1.5,0,1-.43,1.79-1.5,1.79-.644,0-1.217-.286-1.79-.286a10.272,10.272,0,0,0-1.575.286c-.931,0-.931-.859-.931-1.361v-.5a5.562,5.562,0,0,1-4.519,2.22,4.158,4.158,0,0,1-3.509-1.647,7.554,7.554,0,0,1-.644-4.009v-3.366Z" transform="translate(-39.19 -124.643)" fill="#005baa"/><path d="M111.63,136.262c0,.362-.072,1.79.5,1.79.286,0,.5-.215.859-.215.859,0,1.146.723,1.146,1.5,0,1-.43,1.79-1.575,1.79s-2.22-.286-3.294-.286c-1,0-2,.215-2.863.286-1,0-1.432-.788-1.432-1.79,0-.788.286-1.5,1.146-1.5.362,0,.644.215.859.215.573,0,.5-1.5.5-1.79v-4.725c0-.931.072-1-.931-1s-1.647-.215-1.647-1.361c0-1.074.43-1.5,1.5-1.5.788,0,1,.072,1.074-.859.072-2.863,2.578-4.01,5.226-4.01a6,6,0,0,1,2.721.573,2.647,2.647,0,0,1,1.575,2.29,1.916,1.916,0,0,1-2,2,1.676,1.676,0,0,1-1.79-1.5,1.381,1.381,0,0,1,.215-.723,1.218,1.218,0,0,0-.5-.072c-1,0-1.361.573-1.361,1.5,0,.859.072.859.931.859,1.146,0,1.862.072,1.862,1.432,0,1.217-.5,1.5-1.647,1.5-1.074,0-1.146-.072-1.146,1v4.583Z" transform="translate(-29.789 -122.798)" fill="#005baa"/></g><g transform="translate(20.541 115.054)"><path d="M37.94,180.535c-.5,0-.723-.143-.723-.573a13,13,0,0,1,.723-2.505,51.157,51.157,0,0,0,2.363-8.162c0-.215-.072-.362-.362-.362-1.432,0-5.656,4.158-8.019,10.3-.362.931-2,1.289-2.505,1.289s-.723-.143-.723-.573c0-.573,1-3.937,2.936-10.6.286-1.074.5-1.289.859-1.575a5.877,5.877,0,0,1,2.22-.788c.362,0,.5.215.5.573,0,.573-.644,2.578-1.289,5.156h.072c1.862-2.863,4.583-5.8,7.446-5.8a1.988,1.988,0,0,1,2.148,2.148,7.328,7.328,0,0,1-.723,2.721h.072c2.148-3.006,4.725-4.868,6.658-4.868,1.575,0,2.077.859,2.077,1.79a22.835,22.835,0,0,1-1.432,5.3,23.471,23.471,0,0,0-1.146,4.01c0,.5.43.788,1.146.788,1.361,0,1.361,0,1.361.43,0,.859-1.719,1.361-3.509,1.361-1.647,0-2.435-.573-2.435-2a19.478,19.478,0,0,1,1.361-4.868,16.481,16.481,0,0,0,1.361-4.44c0-.215-.072-.43-.362-.43-1.361,0-5.656,4.868-6.869,8.3a15.106,15.106,0,0,1-1,2.29A2.963,2.963,0,0,1,37.94,180.535Zm30.286-12.887c0,.362-.43,1.932-1.146,1.862a28.181,28.181,0,0,0-3.435-.286,7.573,7.573,0,0,0-7.446,7.661c0,.859.362,1.361,1.289,1.361,1.79,0,5.156-4.44,6.372-6.3a3.145,3.145,0,0,1,1.146-1.217,5.1,5.1,0,0,1,1.862-.5c.362,0,.5.215.5.573a48.566,48.566,0,0,1-1.432,4.868,9.454,9.454,0,0,0-.5,2.435c0,.5.43.788,1.146.788,1.361,0,1.432,0,1.432.43,0,.859-1.719,1.361-3.509,1.361s-2.29-.723-2.29-1.932a10.911,10.911,0,0,1,.573-3.006h-.072c-1.719,2.22-3.937,4.941-6.869,4.941a2.721,2.721,0,0,1-3.006-2.936c0-6.087,7.16-10.812,13.245-10.812C67.654,167,68.227,167.21,68.227,167.648ZM70.3,180.535c-.5,0-.723-.143-.723-.573,0-.573.931-3.937,2.793-10.6.286-1.074.5-1.289.859-1.575A5.218,5.218,0,0,1,75.31,167c.362,0,.5.215.5.573a7.615,7.615,0,0,1-.43,1.575h.072A10.411,10.411,0,0,1,80.536,167c.644,0,.723.43.723.859a4.145,4.145,0,0,1-.644,2.148c-.215.215-1.862-.072-3.151.072-1.575.215-2.363.723-2.721,2.22l-.723,2.936c-.362,1.289-.788,3.073-1.074,4.01-.352.931-2.072,1.289-2.643,1.289Zm14.176-7.375a7.592,7.592,0,0,0,5.083-4.653c.215-.43.362-.931.5-1.146.215-.286,1.217-.215,2,0,.5.072.931.362.788.788-.286,1.432-1.862,3.221-5.8,5.729,1.289,2.22,2.363,3.652,3.294,5.011,2.29,3.073,3.006,3.073,3.509,3.221.215.072.286.072.286.286.072.573-.723,1.146-1.79,1.217-1.289.072-2.721-.072-4.8-3.435l-3.221-5.156-.215-.362-.723,2.505a7.773,7.773,0,0,1-.723,2.29,3.435,3.435,0,0,1-2.435,1.289c-.5,0-.723-.143-.723-.573,0-1.074,3.221-12.171,4.725-17.112.286-1.074.5-1.289.859-1.575a5.876,5.876,0,0,1,2.22-.788c.362,0,.5.215.5.573a25.216,25.216,0,0,1-1.289,4.868Zm11.313,1.647a4.728,4.728,0,0,0-.072,1c0,1.862,1.146,2.648,3.073,2.648a9.219,9.219,0,0,0,5.584-2.435h.072c.215,0,.362.362.362.573,0,1.361-3.8,4.158-7.8,4.158-3.151,0-4.367-1.79-4.367-3.937,0-4.868,4.868-9.809,9.308-9.809,1.932,0,3.366,1,3.366,2.936,0,2.506-2.793,4.941-8.377,4.941a6.163,6.163,0,0,0-1.144-.081Zm5.371-6.3c-2.29,0-4.367,2.505-5.156,5.156,5.011-.215,6.508-2.29,6.508-3.867.007-.788-.351-1.289-1.354-1.289Zm11.455.644c-.788,2.863-1.289,4.653-2.077,7.8a6.675,6.675,0,0,0-.143,1c0,.573.43.788,1.575.788a17.045,17.045,0,0,0,2.29-.286c.43,0,.723.072.723.43,0,1.074-2.936,1.79-5.083,1.79-2.077,0-2.793-.788-2.793-2.077a64.246,64.246,0,0,1,2.363-9.165l-.788.072a8.282,8.282,0,0,1-1.217.072c-.859,0-.931-.215-.931-.723,0-1.289.788-1.5,2.863-1.575h.723c.286-1.074.644-2.22,1-3.366.286-1.074.5-1.289.859-1.575a5.876,5.876,0,0,1,2.22-.788c.362,0,.5.215.5.573-.072.286-.286,1.217-.644,2.363l-.788,2.793,4.01-.072c.5,0,.788.072.788.5,0,.788-.286,1-2.363,1.217Z" transform="translate(-28.694 -160.697)" fill="#ed1c24"/></g><path d="M0,40.448a1.951,1.951,0,0,0,.644,1.5L37.375,78.682a1.034,1.034,0,0,0,.5.143.871.871,0,0,0,.859-.859.651.651,0,0,0-.215-.5c-8.162-9.738-11.17-21.837-11.17-37.017S30.356,13.17,38.519,3.361a.651.651,0,0,0,.215-.5A.871.871,0,0,0,37.876,2a1.034,1.034,0,0,0-.5.143L.644,38.944A1.951,1.951,0,0,0,0,40.448Z" transform="translate(0.004 -0.566)" fill="#ed1c24"/><path d="M64.094,39.881c-.362,22.7,6.157,39.88,20.548,39.88A17.9,17.9,0,0,0,100.824,70.1c1.575-3.221-1.647-2.363-1.647-2.363-6.229.072-8.592-4.868-8.592-9.666a12.193,12.193,0,0,1,12.171-12.314,12.96,12.96,0,0,1,12.887,12.314,26.821,26.821,0,0,1-5.729,19.044.542.542,0,0,0-.072.362.86.86,0,0,0,.788.859,1.034,1.034,0,0,0,.5-.143L147.86,41.459a2.233,2.233,0,0,0,.644-1.5,1.951,1.951,0,0,0-.644-1.5l-36.583-36.8a1.034,1.034,0,0,0-.5-.143.813.813,0,0,0-.788.859.542.542,0,0,0,.072.362,27.161,27.161,0,0,1,5.729,19.044A12.959,12.959,0,0,1,102.9,34.084,12.193,12.193,0,0,1,90.731,21.769c0-4.8,2.363-9.738,8.592-9.666,0,0,3.221.859,1.647-2.363A18.122,18.122,0,0,0,84.643,0C70.251,0,64.525,17.255,64.094,39.881Z" transform="translate(-18.196 0.001)" fill="#005baa"/></g></g><path d="M-14.83,0V-14h-3.32l-3.68,5.92L-25.51-14h-3.32V0h3.02V-9.08l3.9,5.92h.08l3.94-5.98V0Zm17,0-6-14.1H-6.67l-6,14.1h3.14l1.28-3.14h5.92L-1.05,0Zm-5.6-5.86H-7.15l1.86-4.54ZM16.43,0,13.01-5a4.348,4.348,0,0,0,3-4.34v-.04c0-2.88-1.98-4.62-5.28-4.62H4.33V0H7.41V-4.48H9.83l3,4.48ZM12.89-9.18c0,1.18-.86,1.98-2.36,1.98H7.41v-4.02h3.06c1.5,0,2.42.68,2.42,2ZM29.45,0V-2.74h-7.6V-5.68h6.6V-8.42h-6.6v-2.84h7.5V-14H18.79V0Z" transform="translate(430.511 198.096)" fill="#004391"/></g></svg>