<svg xmlns="http://www.w3.org/2000/svg" width="221.496" height="221.496" viewBox="0 0 221.496 221.496"><g transform="translate(-560.944 -140.098)"><g transform="translate(560.944 140.098)" fill="none" stroke="#bc970c" stroke-width="2"><circle cx="110.748" cy="110.748" r="110.748" stroke="none"/><circle cx="110.748" cy="110.748" r="109.748" fill="none"/></g><g transform="translate(603.958 182.418)"><g transform="translate(0 91.481)"><path d="M14.673,122.877a1.642,1.642,0,0,1,1.714,1.714c0,.893-.224,1.862-.224,2.756,0,.752.224,1.49.224,2.235,0,1.266-1.193,1.862-2.31,1.862-1.49,0-2.161-.67-2.086-2.161,0-.82.075-1.193-.521-1.789a2.964,2.964,0,0,0-2.31-.82c-3.427,0-3.8,3.427-3.8,6.109,0,2.831.376,5.885,3.95,5.885a2.891,2.891,0,0,0,2.086-.6,2.257,2.257,0,0,0,.67-2.011,2.167,2.167,0,0,1,.376-1.638,2.011,2.011,0,0,1,1.638-.752c1.789,0,2.534,1.266,2.534,2.906,0,4.1-3.875,6.034-7.6,6.034A8.81,8.81,0,0,1,2.385,140,11.193,11.193,0,0,1,0,132.859a13.428,13.428,0,0,1,1.638-6.771A7.74,7.74,0,0,1,8.049,122.8a6.134,6.134,0,0,1,4.7,1.937,1.862,1.862,0,0,1,1.922-1.862Z" transform="translate(0.002 -122.798)" fill="#005baa"/><path d="M29.714,132.8c0,1.266-1.193,1.789-2.31,1.789a2.423,2.423,0,0,1-2.534-2.31c0-2.756,3.875-3.279,5.961-3.279a9.836,9.836,0,0,1,4.4.82c1.638.969,1.714,2.458,1.714,4.172v5.065c0,.376-.075,1.266.448,1.266h.67a1.369,1.369,0,0,1,1.341,1.49c0,1.49-1.565,2.086-2.831,2.086a3.1,3.1,0,0,1-3.128-1.714,6.771,6.771,0,0,1-4.7,1.714c-2.458,0-4.842-1.266-4.842-4.023,0-6.406,8.492-3.055,8.492-6.63,0-1.042-.969-1.49-1.862-1.49-.448,0-.893.075-.893.6v.448Zm2.756,4.544c-.82.82-3.95.448-3.95,1.862,0,.969.752,1.266,1.565,1.266,1.638,0,2.383-.969,2.383-2.534Z" transform="translate(-6.094 -124.381)" fill="#005baa"/><path d="M133.378,136.307c0,4.469-2.31,7.6-7.078,7.6s-7.3-2.831-7.3-7.448,2.534-7.45,7.3-7.45a6.673,6.673,0,0,1,7.078,7.3Zm-7.078-3.875c-2.235,0-2.756,2.235-2.756,4.023,0,1.565.521,4.023,2.534,4.023a2.257,2.257,0,0,0,2.235-1.193,6.247,6.247,0,0,0,.6-2.831c0-1.714-.448-4.023-2.607-4.023Z" transform="translate(-30.344 -124.383)" fill="#005baa"/><path d="M91.487,137.1c-.521,0-1.266-.149-1.266.6a2.767,2.767,0,0,0,2.831,2.756c2.383,0,2.161-2.161,4.326-2.161A1.746,1.746,0,0,1,99.316,140a3.608,3.608,0,0,1-1.937,2.831,8.233,8.233,0,0,1-4.4,1.117,7.524,7.524,0,1,1-.149-15.047,7.084,7.084,0,0,1,4.7,1.49,6.771,6.771,0,0,1,2.011,4.768c0,1.638-.149,2.011-1.789,2.011H91.487Zm2.534-3.055c.448,0,.969.149.969-.448a1.84,1.84,0,0,0-.6-1.193,2.278,2.278,0,0,0-1.49-.521,2.227,2.227,0,0,0-1.862.752c-.224.224-.67.67-.67,1.042,0,.521.82.376,1.193.376h2.458Z" transform="translate(-21.902 -124.355)" fill="#005baa"/><path d="M49.082,134.441c0-.376.075-1.937-.521-1.937-.3,0-.521.224-.893.224-.893,0-1.193-.752-1.193-1.565,0-1.042.448-1.862,1.341-1.862.82,0,1.341.3,1.862.3a14.921,14.921,0,0,0,1.789-.3c.82,0,.82.521.82,1.193V132.5a4.292,4.292,0,0,1,4.467-3.5,3.515,3.515,0,0,1,3.651,3.427,2.475,2.475,0,0,1-2.383,2.682,1.8,1.8,0,0,1-1.937-1.789,2.424,2.424,0,0,1,.3-1.042c-3.055-.224-3.128,3.95-3.128,6.109,0,.376-.075,1.937.521,1.937.3,0,.521-.224.893-.224.893,0,1.193.752,1.193,1.565,0,1.042-.448,1.862-1.341,1.862-1.49,0-2.607-.3-3.724-.3-1.044,0-2.086.224-3.055.3-.893,0-1.341-.82-1.341-1.862,0-.82.3-1.565,1.193-1.565.376,0,.67.224.893.224.6,0,.521-1.565.521-1.937v-3.95Z" transform="translate(-11.828 -124.38)" fill="#005baa"/><path d="M69.08,134.441c0-.376.075-1.937-.521-1.937-.3,0-.521.224-.893.224-.893,0-1.193-.752-1.193-1.565,0-1.042.448-1.862,1.341-1.862.82,0,1.341.3,1.937.3a14.92,14.92,0,0,0,1.789-.3c.82,0,.82.521.82,1.193V132.5a4.292,4.292,0,0,1,4.467-3.5,3.515,3.515,0,0,1,3.651,3.427,2.475,2.475,0,0,1-2.383,2.682,1.8,1.8,0,0,1-1.937-1.789,2.425,2.425,0,0,1,.3-1.042c-3.055-.224-3.2,3.95-3.2,6.109,0,.376-.075,1.937.521,1.937.3,0,.521-.224.893-.224.893,0,1.193.752,1.193,1.565,0,1.042-.448,1.862-1.341,1.862-1.49,0-2.607-.3-3.724-.3-1.042,0-2.086.224-3.055.3-.893,0-1.341-.82-1.341-1.862,0-.82.3-1.565,1.193-1.565.376,0,.6.224.893.224.6,0,.521-1.565.521-1.937v-3.95Z" transform="translate(-16.926 -124.38)" fill="#005baa"/><path d="M165.653,134.441c0-.376.075-1.937-.521-1.937-.3,0-.521.224-.893.224-.893,0-1.193-.752-1.193-1.565,0-1.042.448-1.862,1.416-1.862.82,0,1.341.3,1.862.3a14.918,14.918,0,0,0,1.789-.3c.82,0,.82.521.82,1.193V132.5A4.292,4.292,0,0,1,173.4,129a3.515,3.515,0,0,1,3.651,3.427,2.475,2.475,0,0,1-2.383,2.682,1.8,1.8,0,0,1-1.937-1.789,2.424,2.424,0,0,1,.3-1.042c-3.055-.224-3.2,3.95-3.2,6.109,0,.376-.075,1.937.521,1.937.3,0,.521-.224.893-.224.893,0,1.193.752,1.193,1.565,0,1.042-.448,1.862-1.341,1.862-1.49,0-2.607-.3-3.724-.3-1.042,0-2.086.224-3.055.3-.893,0-1.416-.82-1.416-1.862,0-.82.3-1.565,1.193-1.565.376,0,.67.224.893.224.6,0,.521-1.565.521-1.937v-3.95Z" transform="translate(-41.535 -124.38)" fill="#005baa"/><path d="M140.458,134.514c0-.376.075-1.937-.448-1.937-.3,0-.521.224-.893.224-.893,0-1.117-.752-1.117-1.565,0-1.044.448-1.862,2.383-1.862.521,0,1.044.3,1.638.3s1.193-.224,1.862-.3c.893,0,.67.82.67,1.49v6.482a5.078,5.078,0,0,0,.3,2.086,1.718,1.718,0,0,0,1.49.82,2.2,2.2,0,0,0,1.862-1.117,5.267,5.267,0,0,0,.6-2.831v-1.862c0-.376.075-1.937-.448-1.937-.224,0-.521.224-.893.224-.893,0-1.117-.752-1.117-1.565,0-1.042.448-1.862,2.235-1.862.521,0,1.042.3,1.638.3s1.193-.224,1.862-.3c.893,0,.82.6.82,1.341v7.748c0,.376-.075,1.937.448,1.937.3,0,.521-.224.893-.224.893,0,1.117.752,1.117,1.565,0,1.044-.448,1.862-1.565,1.862-.67,0-1.266-.3-1.862-.3a10.689,10.689,0,0,0-1.638.3c-.969,0-.969-.893-.969-1.416v-.521a5.788,5.788,0,0,1-4.7,2.31,4.326,4.326,0,0,1-3.651-1.714,7.86,7.86,0,0,1-.67-4.172v-3.5Z" transform="translate(-35.188 -124.454)" fill="#005baa"/><path d="M111.9,136.807c0,.376-.075,1.862.521,1.862.3,0,.521-.224.893-.224.893,0,1.193.752,1.193,1.565,0,1.044-.448,1.862-1.638,1.862s-2.31-.3-3.427-.3c-1.044,0-2.086.224-2.979.3-1.042,0-1.49-.82-1.49-1.862,0-.82.3-1.565,1.193-1.565.376,0,.67.224.893.224.6,0,.521-1.565.521-1.862v-4.917c0-.969.075-1.044-.969-1.044s-1.714-.224-1.714-1.416c0-1.117.448-1.565,1.565-1.565.82,0,1.044.075,1.117-.893.075-2.979,2.682-4.172,5.438-4.172a6.247,6.247,0,0,1,2.831.6,2.754,2.754,0,0,1,1.638,2.383,1.994,1.994,0,0,1-2.086,2.086,1.744,1.744,0,0,1-1.862-1.565,1.437,1.437,0,0,1,.224-.752,1.268,1.268,0,0,0-.521-.075c-1.042,0-1.416.6-1.416,1.565,0,.893.075.893.969.893,1.193,0,1.937.075,1.937,1.49,0,1.266-.521,1.565-1.714,1.565-1.117,0-1.193-.075-1.193,1.042V136.8Z" transform="translate(-26.747 -122.798)" fill="#005baa"/></g><g transform="translate(21.373 119.714)"><path d="M38.315,181.338c-.521,0-.752-.149-.752-.6a13.525,13.525,0,0,1,.752-2.607,53.229,53.229,0,0,0,2.458-8.492c0-.224-.075-.376-.376-.376-1.49,0-5.885,4.326-8.344,10.721-.376.969-2.086,1.341-2.607,1.341s-.752-.149-.752-.6c0-.6,1.042-4.1,3.055-11.026.3-1.117.521-1.341.893-1.638a6.115,6.115,0,0,1,2.31-.82c.376,0,.521.224.521.6,0,.6-.67,2.682-1.341,5.364h.075c1.937-2.979,4.768-6.034,7.748-6.034a2.069,2.069,0,0,1,2.235,2.235,7.625,7.625,0,0,1-.752,2.831h.075c2.235-3.128,4.917-5.065,6.927-5.065,1.638,0,2.161.893,2.161,1.862a23.76,23.76,0,0,1-1.49,5.513,24.422,24.422,0,0,0-1.193,4.172c0,.521.448.82,1.193.82,1.416,0,1.416,0,1.416.448,0,.893-1.789,1.416-3.651,1.416-1.714,0-2.534-.6-2.534-2.086a20.267,20.267,0,0,1,1.416-5.065,17.149,17.149,0,0,0,1.416-4.62c0-.224-.075-.448-.376-.448-1.416,0-5.885,5.065-7.148,8.641a15.718,15.718,0,0,1-1.042,2.383A3.083,3.083,0,0,1,38.315,181.338Zm31.513-13.409c0,.376-.448,2.011-1.193,1.937a29.322,29.322,0,0,0-3.574-.3,7.879,7.879,0,0,0-7.748,7.971c0,.893.376,1.416,1.341,1.416,1.862,0,5.364-4.62,6.63-6.555a3.273,3.273,0,0,1,1.193-1.266,5.312,5.312,0,0,1,1.937-.521c.376,0,.521.224.521.6a50.534,50.534,0,0,1-1.49,5.065,9.837,9.837,0,0,0-.521,2.534c0,.521.448.82,1.192.82,1.416,0,1.49,0,1.49.448,0,.893-1.789,1.416-3.651,1.416s-2.383-.752-2.383-2.011a11.353,11.353,0,0,1,.6-3.128H64.1c-1.789,2.31-4.1,5.141-7.148,5.141a2.831,2.831,0,0,1-3.128-3.055c0-6.333,7.45-11.25,13.782-11.25C69.232,167.258,69.828,167.474,69.828,167.929Zm2.161,13.409c-.521,0-.752-.149-.752-.6,0-.6.969-4.1,2.906-11.026.3-1.117.521-1.341.893-1.638a5.429,5.429,0,0,1,2.161-.82c.376,0,.521.224.521.6a7.924,7.924,0,0,1-.448,1.638h.075a10.833,10.833,0,0,1,5.289-2.235c.67,0,.752.448.752.893a4.313,4.313,0,0,1-.67,2.235c-.224.224-1.937-.075-3.278.075-1.638.224-2.458.752-2.831,2.31l-.752,3.055c-.376,1.341-.82,3.2-1.117,4.172-.367.969-2.156,1.341-2.75,1.341Zm14.75-7.674a7.9,7.9,0,0,0,5.289-4.842c.224-.448.376-.969.521-1.193.224-.3,1.266-.224,2.086,0,.521.075.969.376.82.82-.3,1.49-1.937,3.352-6.034,5.961,1.341,2.31,2.458,3.8,3.427,5.214,2.383,3.2,3.128,3.2,3.651,3.352.224.075.3.075.3.3.075.6-.752,1.192-1.862,1.266-1.341.075-2.831-.075-4.992-3.574L86.591,175.6l-.224-.376-.752,2.607a8.088,8.088,0,0,1-.752,2.383,3.574,3.574,0,0,1-2.534,1.341c-.521,0-.752-.149-.752-.6,0-1.117,3.352-12.664,4.917-17.8.3-1.117.521-1.341.893-1.638a6.114,6.114,0,0,1,2.31-.82c.376,0,.521.224.521.6a26.237,26.237,0,0,1-1.341,5.065Zm11.771,1.714a4.92,4.92,0,0,0-.075,1.044c0,1.937,1.193,2.756,3.2,2.756a9.593,9.593,0,0,0,5.81-2.534h.075c.224,0,.376.376.376.6,0,1.416-3.95,4.326-8.12,4.326-3.278,0-4.544-1.862-4.544-4.1,0-5.065,5.065-10.206,9.685-10.206,2.011,0,3.5,1.042,3.5,3.055,0,2.607-2.906,5.141-8.716,5.141a6.411,6.411,0,0,0-1.191-.085Zm5.588-6.555c-2.383,0-4.544,2.607-5.364,5.364,5.214-.224,6.771-2.383,6.771-4.023.008-.82-.365-1.341-1.409-1.341Zm11.919.67c-.82,2.979-1.341,4.842-2.161,8.12a6.945,6.945,0,0,0-.149,1.042c0,.6.448.82,1.638.82a17.735,17.735,0,0,0,2.383-.3c.448,0,.752.075.752.448,0,1.117-3.055,1.862-5.289,1.862-2.161,0-2.906-.82-2.906-2.161a66.848,66.848,0,0,1,2.458-9.536l-.82.075a8.617,8.617,0,0,1-1.266.075c-.893,0-.969-.224-.969-.752,0-1.341.82-1.565,2.979-1.638h.752c.3-1.117.67-2.31,1.042-3.5.3-1.117.521-1.341.893-1.638a6.114,6.114,0,0,1,2.31-.82c.376,0,.521.224.521.6-.075.3-.3,1.266-.67,2.458l-.82,2.906,4.172-.075c.521,0,.82.075.82.521,0,.82-.3,1.044-2.458,1.266Z" transform="translate(-28.694 -160.697)" fill="#ed1c24"/></g><path d="M0,42.006a2.03,2.03,0,0,0,.67,1.565L38.889,81.787a1.076,1.076,0,0,0,.521.149.907.907,0,0,0,.893-.893.677.677,0,0,0-.224-.521C31.587,70.389,28.457,57.8,28.457,42.006S31.585,13.622,40.079,3.416A.677.677,0,0,0,40.3,2.9.907.907,0,0,0,39.41,2a1.076,1.076,0,0,0-.521.149L.67,40.441A2.03,2.03,0,0,0,0,42.006Z" transform="translate(0.004 -0.508)" fill="#ed1c24"/><path d="M64.095,41.5c-.376,23.615,6.406,41.5,21.381,41.5a18.621,18.621,0,0,0,16.836-10.057c1.638-3.352-1.714-2.458-1.714-2.458-6.482.075-8.94-5.065-8.94-10.057a12.687,12.687,0,0,1,12.664-12.813,13.484,13.484,0,0,1,13.409,12.813,27.907,27.907,0,0,1-5.961,19.816.564.564,0,0,0-.075.376.9.9,0,0,0,.82.893,1.076,1.076,0,0,0,.521-.149l38.217-38.217a2.323,2.323,0,0,0,.67-1.565,2.03,2.03,0,0,0-.67-1.565L113.189,1.714a1.076,1.076,0,0,0-.521-.149.846.846,0,0,0-.82.893.564.564,0,0,0,.075.376,28.261,28.261,0,0,1,5.961,19.816,13.484,13.484,0,0,1-13.409,12.813A12.687,12.687,0,0,1,91.811,22.651c0-4.992,2.458-10.133,8.94-10.057,0,0,3.352.893,1.714-2.458A18.856,18.856,0,0,0,85.476,0C70.5,0,64.543,17.954,64.095,41.5Z" transform="translate(-16.338 0.001)" fill="#005baa"/></g></g></svg>