<svg xmlns="http://www.w3.org/2000/svg" width="221.496" height="221.496" viewBox="0 0 221.496 221.496"><g transform="translate(-319.704 59.938)"><g transform="translate(319.704 -59.938)" fill="none" stroke="#bc970c" stroke-width="2"><circle cx="110.748" cy="110.748" r="110.748" stroke="none"/><circle cx="110.748" cy="110.748" r="109.748" fill="none"/></g><path d="M-25.95-2.825-28.4-5.3A6.317,6.317,0,0,1-33-3.25a5.2,5.2,0,0,1-5.075-5.5V-8.8A5.185,5.185,0,0,1-33-14.25a6.458,6.458,0,0,1,4.475,1.975l2.45-2.825a9.029,9.029,0,0,0-6.9-2.7A8.894,8.894,0,0,0-42.1-8.75v.05a8.833,8.833,0,0,0,8.975,9A8.945,8.945,0,0,0-25.95-2.825ZM-5.825,0l-7.5-17.625h-3.55L-24.375,0h3.925l1.6-3.925h7.4L-9.85,0Zm-7-7.325h-4.65L-15.15-13ZM10.725-11.4v-.05c0-3.575-2.525-6.05-6.7-6.05h-7.15V0H.725V-5.25H3.65C7.575-5.25,10.725-7.35,10.725-11.4Zm-3.9.075c0,1.5-1.125,2.65-3.05,2.65H.725v-5.35H3.7c1.925,0,3.125.925,3.125,2.65ZM28.875,0l-7.5-17.625h-3.55L10.325,0H14.25l1.6-3.925h7.4L24.85,0Zm-7-7.325h-4.65L19.55-13Zm20.7-6.625V-17.5h-14.5v3.55H33.4V0h3.85V-13.95ZM-17.988,27l-4.275-6.25a5.435,5.435,0,0,0,3.75-5.425v-.05c0-3.6-2.475-5.775-6.6-5.775h-8V27h3.85V21.4h3.025l3.75,5.6Zm-4.425-11.475C-22.413,17-23.488,18-25.363,18h-3.9V12.975h3.825c1.875,0,3.025.85,3.025,2.5ZM2.013,27l-7.5-17.625h-3.55L-16.538,27h3.925l1.6-3.925h7.4L-2.013,27Zm-7-7.325h-4.65L-7.313,14ZM18.038,13V9.5H4.712V27h3.85V20.225h8.35v-3.5H8.563V13Zm16.325.05V9.5h-14.5v3.55h5.325V27h3.85V13.05Z" transform="translate(431.63 46.211)" fill="#b4932a"/></g></svg>