<svg xmlns="http://www.w3.org/2000/svg" width="221.496" height="221.496" viewBox="0 0 221.496 221.496"><g transform="translate(-560.217 -128.694)"><g transform="translate(560.217 128.694)" fill="none" stroke="#bc970c" stroke-width="2"><circle cx="110.748" cy="110.748" r="110.748" stroke="none"/><circle cx="110.748" cy="110.748" r="109.748" fill="none"/></g><g transform="translate(597.783 181.795)"><path d="M6.714,369.572C9.077,369,12.063,369,13.7,371.077c.312-.623.545-1.506,1.375-1.61.753-.13,1.9-.026,2.052.909a27.07,27.07,0,0,1,.052,3.842c-.026,1.214.39,2.545-.312,3.643a2.832,2.832,0,0,1-2.857.493c-.909-.234-1.091-1.271-1.271-2.052-.234-1.013-.416-2.255-1.48-2.7a3.852,3.852,0,0,0-4.109.768,8.027,8.027,0,0,0-1.561,5.3,8.634,8.634,0,0,0,1.323,5.245,3.642,3.642,0,0,0,5.453.364c.883-1.065.338-2.6.857-3.792a2.586,2.586,0,0,1,4.414.753,6.114,6.114,0,0,1-.6,4.621A7.275,7.275,0,0,1,11.925,390a11.187,11.187,0,0,1-7.063-.675,8.6,8.6,0,0,1-4.3-5.316,14.7,14.7,0,0,1-.052-8.2,8.672,8.672,0,0,1,6.208-6.232Z" transform="translate(0.052 -273.415)" fill="#02458d" fill-rule="evenodd"/><g transform="translate(5.391 0)"><path d="M218.628.406a18.1,18.1,0,0,1,13.814,2.848,23.21,23.21,0,0,1,6.021,5.9,4.716,4.716,0,0,1,1.065,3.816c-1.247.173-2.466-.312-3.714-.208a6.836,6.836,0,0,0-5.738,3.766,17.344,17.344,0,0,0-1.453,8.282,11.168,11.168,0,0,0,2.466,7.037,12,12,0,0,0,8.1,3.868,15.213,15.213,0,0,0,11.528-3.557,14.57,14.57,0,0,0,4.024-10.49A36.062,36.062,0,0,0,252.248,8.89c-.753-2.232-2.388-4.024-3.349-6.154.078-.173.26-.493.364-.675.416,0,.909-.13,1.2.26q17.253,17.565,34.48,35.129a6.907,6.907,0,0,1,2.518,4.907,11.419,11.419,0,0,1-3.427,4.933q-16.24,16.358-32.48,32.689c-.753.694-1.4,1.688-2.492,1.818-.078-.173-.234-.52-.338-.694a18.776,18.776,0,0,1,1.688-4.336,37.349,37.349,0,0,0,1.922-4.6,31.878,31.878,0,0,0,1.561-7.141,49.486,49.486,0,0,0-.493-8.542,11.076,11.076,0,0,0-4.362-7.269,14.761,14.761,0,0,0-11.321-2.6,12.041,12.041,0,0,0-7.66,6.154,14.187,14.187,0,0,0-1.3,10.438A14.04,14.04,0,0,0,231.01,68.3a5.256,5.256,0,0,0,5.79,1.844,3.469,3.469,0,0,1,1.974-.286c1.117,1.013.467,2.675.026,3.868a16.755,16.755,0,0,1-6.543,7.217A19.064,19.064,0,0,1,220,83.3a17.437,17.437,0,0,1-11.548-7c-4-5.271-5.764-11.84-6.938-18.278a97.472,97.472,0,0,1-1.041-21.291A78.35,78.35,0,0,1,204.37,16.71a33.736,33.736,0,0,1,5.92-10.957A15.631,15.631,0,0,1,218.628.406Z" transform="translate(-153.667 -0.056)" fill="#02458d" fill-rule="evenodd"/><path d="M57.125,9.97a13.06,13.06,0,0,1,2.1-1.87,6.153,6.153,0,0,1,.935.234c.13,1.065-.649,1.87-1.169,2.727-1.143,1.87-2.232,3.79-3.4,5.66a50.094,50.094,0,0,0-5.9,17.265,85.161,85.161,0,0,0-1.065,10.282,68.3,68.3,0,0,0,1.584,19.759,58.213,58.213,0,0,0,6.31,16.131c1.117,2.128,2.44,4.163,3.662,6.232a1.934,1.934,0,0,1,.208,1.375c-1.041.26-1.735-.6-2.388-1.247C46.4,75.1,34.714,63.774,23.139,52.349a6.692,6.692,0,0,1-2.466-4.673c.467-2.466,2.6-4.076,4.258-5.764Q40.975,25.9,57.125,9.97Z" transform="translate(-20.673 -6.037)" fill="#d9251c" fill-rule="evenodd"/><path d="M342.689,370.419a6.194,6.194,0,0,1,4.7-1.323,5.946,5.946,0,0,1,3.842,1.2,2.654,2.654,0,0,1,.571,3.037,2.578,2.578,0,0,1-3.584.493c-.571-.416-.52-1.2-.675-1.818-.39,0-.909-.1-1.2.234-.623.694-.441,1.735-.467,2.6a21.244,21.244,0,0,1,2.57-.052,1.937,1.937,0,0,1,.338,3.3c-.883.173-1.818-.026-2.727.078-.078,2.727-.13,5.453.026,8.178.909.1,1.792-.234,2.7-.078a1.932,1.932,0,0,1,.883,2.831,2.137,2.137,0,0,1-2,.727,52.987,52.987,0,0,0-7.321-.052,3.186,3.186,0,0,1-2.649-.52,1.993,1.993,0,0,1,.8-2.985c.909-.13,1.792.173,2.675.078a50.023,50.023,0,0,0,.1-5.219,7.613,7.613,0,0,0-.26-3.063,10.653,10.653,0,0,1-2.57.026c-1.117-.467-1.091-2.154-.39-2.959.935-.694,2.206-.26,3.3-.286a6.176,6.176,0,0,1,1.329-4.418Z" transform="translate(-255.138 -273.301)" fill="#02458d" fill-rule="evenodd"/><path d="M76.927,389.824a9.9,9.9,0,0,1,5.377-1.041,8.709,8.709,0,0,1,4.777,1.091,3.3,3.3,0,0,1,1.428,2.518c.312,2.775,0,5.55.208,8.334a15.941,15.941,0,0,1,2.154.675,2.081,2.081,0,0,1-.649,2.933,3.963,3.963,0,0,1-5.063-1.214,9.129,9.129,0,0,1-7.089,1.48,4.579,4.579,0,0,1-3.714-3.505,5.216,5.216,0,0,1,.6-3.688,4.163,4.163,0,0,1,2.519-1.61c1.584-.52,3.3-.571,4.881-1.091a2.216,2.216,0,0,0,1.61-1.375,1.825,1.825,0,0,0-.987-1.688,3.51,3.51,0,0,0-2.128.026c-.173.8.156,1.922-.694,2.388a3.242,3.242,0,0,1-4.31-.694,2.721,2.721,0,0,1,1.084-3.54Z" transform="translate(-60.363 -287.878)" fill="#02458d" fill-rule="evenodd"/><path d="M-1173.654-1096.3a17.312,17.312,0,0,1-1.768-.1,7.149,7.149,0,0,1-5.3-3.3,9.631,9.631,0,0,1-.831-7.244,7.138,7.138,0,0,1,5.66-5.193,13,13,0,0,1,1.981-.158,8.841,8.841,0,0,1,4.46,1.093,6.4,6.4,0,0,1,2.909,4.83l.028.371a2.688,2.688,0,0,1-.444,2.224,2.806,2.806,0,0,1-1.041.174l-.257.01h-5.661q-1.415,0-2.831.01a4.661,4.661,0,0,0,.779,2.8,2.95,2.95,0,0,0,2.364.962,4.985,4.985,0,0,0,.881-.081c.694-.121,1-.677,1.318-1.265a2.345,2.345,0,0,1,1.148-1.254,3.667,3.667,0,0,1,1.257-.227,2.578,2.578,0,0,1,1.781.643,1.98,1.98,0,0,1,.493,1.844,4.033,4.033,0,0,1-2,2.675,9.518,9.518,0,0,1-4.93,1.171Zm-.29-12.639a2.558,2.558,0,0,0-1.868.729,3.248,3.248,0,0,0-.8,1.868q1.3.041,2.6.042c.867,0,1.735-.014,2.586-.04a2.655,2.655,0,0,0-1.115-2.284,3.293,3.293,0,0,0-1.4-.32Z" transform="translate(1247.573 1213.177)" fill="#02458d"/><path d="M-1173.831-1096.292h-.454a7.5,7.5,0,0,1-5.693-2.39,9.067,9.067,0,0,1-1.688-7.79,7.061,7.061,0,0,1,6.128-5.711,12.326,12.326,0,0,1,1.609-.11,8.112,8.112,0,0,1,4.675,1.3,7.328,7.328,0,0,1,3.122,5.377,8.435,8.435,0,0,1-2.081,7.191A7.539,7.539,0,0,1-1173.831-1096.292Zm-.215-12.357a3.007,3.007,0,0,0-1.439.359,4.058,4.058,0,0,0-1.636,3.193,5.936,5.936,0,0,0,.935,4.18,2.721,2.721,0,0,0,2.175.985,2.753,2.753,0,0,0,2.654-1.662,6.862,6.862,0,0,0,0-5.426,2.922,2.922,0,0,0-2.682-1.623Z" transform="translate(1278.553 1213.166)" fill="#02458d"/><path d="M153.52,389.914a5.485,5.485,0,0,1,4.336-.338,3.9,3.9,0,0,1,1.688,5.842,2.737,2.737,0,0,1-4.024-.39,3.469,3.469,0,0,1-.156-2.128,3.517,3.517,0,0,0-1.766.987,5.807,5.807,0,0,0-.909,3.714,19.941,19.941,0,0,0,.156,3.74c.857,0,1.714-.234,2.571-.173,1.688.338,1.61,3.4-.156,3.557s-3.453-.208-5.193-.156c-1.561-.052-3.122.338-4.647.13a1.537,1.537,0,0,1-.987-1.61c-.052-.727.156-1.688.961-1.9a18.428,18.428,0,0,1,2.388.156,33.827,33.827,0,0,0,.1-3.972,43.06,43.06,0,0,0-.1-4.492,23.56,23.56,0,0,0-2.362.13c-1.561-.571-1.247-3.453.467-3.531,1.818.052,3.643.078,5.427.078a10.642,10.642,0,0,1,.173,2.883,6.031,6.031,0,0,1,2.033-2.529Z" transform="translate(-112.289 -288.254)" fill="#02458d" fill-rule="evenodd"/><path d="M217.938,389.72a5.483,5.483,0,0,1,4.51.078,4.045,4.045,0,0,1,1.688,4.829,2.65,2.65,0,0,1-4.414.545,3.089,3.089,0,0,1-.286-2.255,3.4,3.4,0,0,0-2.6,3.479,42.344,42.344,0,0,0,0,4.8c.883.26,1.766-.13,2.649-.052,1.714.338,1.662,3.4-.156,3.557-1.561.13-3.122-.156-4.673-.156-1.561-.078-3.122.208-4.673.173-1.688.026-1.844-2.414-.909-3.375.857-.441,1.87-.026,2.775-.026a69.045,69.045,0,0,0,0-8.464c-.779-.052-1.584.1-2.362.1a1.951,1.951,0,0,1-.571-2.909c.6-.831,1.734-.6,2.623-.571,1.3.13,2.6-.026,3.894.026a11.927,11.927,0,0,1,.13,2.883,5.783,5.783,0,0,1,2.378-2.67Z" transform="translate(-159.752 -288.24)" fill="#02458d" fill-rule="evenodd"/><path d="M457.8,389.805a9.6,9.6,0,0,1,2.441-.026c1.506.13,3.011-.156,4.51-.026a14.137,14.137,0,0,1,.234,3.766c.026,1.818-.026,3.643.026,5.452a2.172,2.172,0,0,0,1.2,2.128,2.382,2.382,0,0,0,2.775-.649,5.6,5.6,0,0,0,.623-2.775,42.2,42.2,0,0,0-.078-4.44c-.961-.1-2.081.208-2.883-.416a2.132,2.132,0,0,1,.234-2.775c.52-.467,1.273-.312,1.922-.312,1.766.173,3.557-.078,5.323.026a6.294,6.294,0,0,1,.26,1.169c.1,3.532-.1,7.063.1,10.593,1.041.156,2.232-.364,3.141.312a2.307,2.307,0,0,1-.173,2.909c-.694.649-1.688.286-2.519.286-1.453-.173-2.935.156-4.414.052a15.332,15.332,0,0,1-.026-2.44,6.154,6.154,0,0,1-8.022,2.154,4.02,4.02,0,0,1-2.081-3.011c-.338-2.831-.026-5.686-.26-8.542a17.751,17.751,0,0,1-2.623-.13,2.01,2.01,0,0,1,.291-3.3Z" transform="translate(-343.554 -288.559)" fill="#02458d" fill-rule="evenodd"/><path d="M543.21,389.379a37,37,0,0,0,5.089.026,7.7,7.7,0,0,1,.312,2.775,6.72,6.72,0,0,1,1.948-2.31,5.09,5.09,0,0,1,4.881-.1,4.064,4.064,0,0,1,1.792,4.492,2.652,2.652,0,0,1-4.544.857c-.493-.649-.286-1.506-.26-2.255a3.222,3.222,0,0,0-1.636.857,5.54,5.54,0,0,0-1.013,3.816,17.954,17.954,0,0,0,.156,3.74,18.822,18.822,0,0,1,2.7-.156,2.029,2.029,0,0,1,.727,2.959c-.466.649-1.375.623-2.1.623a38.291,38.291,0,0,0-5.972-.13,10.715,10.715,0,0,1-2.883,0,2.151,2.151,0,0,1-.174-3.375c.883-.26,1.818.156,2.7-.052.078-2.753.078-5.5-.026-8.256-.987-.441-2.362.623-3.037-.493C541.03,391.332,541.677,389.306,543.21,389.379Z" transform="translate(-406.276 -288.19)" fill="#02458d" fill-rule="evenodd"/><path d="M94.21,423.491c1.247-.493,2.571-.649,3.816-1.091a4.562,4.562,0,0,1-.675,3.193,2.846,2.846,0,0,1-3.167.441,1.483,1.483,0,0,1,.026-2.543Z" transform="translate(-74.577 -312.768)" fill="#fefefe" fill-rule="evenodd"/></g></g></g></svg>