<svg xmlns="http://www.w3.org/2000/svg" width="221.496" height="221.496" viewBox="0 0 221.496 221.496"><g transform="translate(-319.704 59.938)"><g transform="translate(319.704 -59.938)" fill="none" stroke="#bc970c" stroke-width="2"><circle cx="110.748" cy="110.748" r="110.748" stroke="none"/><circle cx="110.748" cy="110.748" r="109.748" fill="none"/></g><path d="M-54.837-2.825-57.287-5.3a6.317,6.317,0,0,1-4.6,2.05,5.2,5.2,0,0,1-5.075-5.5V-8.8a5.185,5.185,0,0,1,5.075-5.45,6.458,6.458,0,0,1,4.475,1.975l2.45-2.825a9.029,9.029,0,0,0-6.9-2.7,8.894,8.894,0,0,0-9.125,9.05v.05a8.833,8.833,0,0,0,8.975,9A8.945,8.945,0,0,0-54.837-2.825ZM-34.712,0l-7.5-17.625h-3.55L-53.262,0h3.925l1.6-3.925h7.4L-38.737,0Zm-7-7.325h-4.65L-44.037-13Zm20.7-6.625V-17.5h-14.5v3.55h5.325V0h3.85V-13.95ZM-4.737,0V-3.425h-9.5V-7.1h8.25v-3.425h-8.25v-3.55h9.375V-17.5h-13.2V0ZM14.588-2.475v-7.6h-7.6V-6.75h3.875v2.5A6.143,6.143,0,0,1,7.238-3.2a5.243,5.243,0,0,1-5.3-5.55V-8.8a5.256,5.256,0,0,1,5.025-5.45,6.444,6.444,0,0,1,4.575,1.775L13.963-15.4a9.609,9.609,0,0,0-6.875-2.4A8.982,8.982,0,0,0-2.087-8.75v.05c0,5.175,3.75,9,9.2,9A11.359,11.359,0,0,0,14.588-2.475ZM36.113-8.75V-8.8a8.966,8.966,0,0,0-9.275-9,9.049,9.049,0,0,0-9.325,9.05v.05a8.966,8.966,0,0,0,9.275,9A9.049,9.049,0,0,0,36.113-8.75Zm-4.025.05a5.234,5.234,0,0,1-5.25,5.45,5.317,5.317,0,0,1-5.3-5.5V-8.8a5.234,5.234,0,0,1,5.25-5.45,5.317,5.317,0,0,1,5.3,5.5ZM54.663,0,50.388-6.25a5.435,5.435,0,0,0,3.75-5.425v-.05c0-3.6-2.475-5.775-6.6-5.775h-8V0h3.85V-5.6h3.025L50.163,0ZM50.238-11.475C50.238-10,49.163-9,47.288-9h-3.9v-5.025h3.825c1.875,0,3.025.85,3.025,2.5ZM61.638,0V-17.5h-3.85V0Zm8.4,0V-17.5h-3.85V0ZM-49.8,21.825v-.05c0-3.05-2-4.325-5.55-5.25-3.025-.775-3.775-1.15-3.775-2.3v-.05c0-.85.775-1.525,2.25-1.525a8.212,8.212,0,0,1,4.55,1.725l2-2.9a10.13,10.13,0,0,0-6.5-2.225c-3.575,0-6.125,2.1-6.125,5.275v.05c0,3.475,2.275,4.45,5.8,5.35,2.925.75,3.525,1.25,3.525,2.225v.05c0,1.025-.95,1.65-2.525,1.65a8.028,8.028,0,0,1-5.225-2.125L-63.65,24.45a11.136,11.136,0,0,0,7.425,2.8C-52.45,27.25-49.8,25.3-49.8,21.825ZM-42.425,27V9.5h-3.85V27Zm27,0L-19.7,20.75a5.435,5.435,0,0,0,3.75-5.425v-.05c0-3.6-2.475-5.775-6.6-5.775h-8V27h3.85V21.4h3.025l3.75,5.6ZM-19.85,15.525C-19.85,17-20.925,18-22.8,18h-3.9V12.975h3.825c1.875,0,3.025.85,3.025,2.5ZM.85,27V23.575h-9.5V19.9H-.4V16.475H-8.65v-3.55H.725V9.5h-13.2V27Zm19.325-2.475v-7.6h-7.6V20.25H16.45v2.5a6.143,6.143,0,0,1-3.625,1.05,5.243,5.243,0,0,1-5.3-5.55V18.2a5.256,5.256,0,0,1,5.025-5.45,6.444,6.444,0,0,1,4.575,1.775L19.55,11.6a9.609,9.609,0,0,0-6.875-2.4A8.982,8.982,0,0,0,3.5,18.25v.05c0,5.175,3.75,9,9.2,9A11.359,11.359,0,0,0,20.175,24.525Zm18.675-5.15V9.5H35V19.525c0,2.775-1.425,4.2-3.775,4.2S27.45,22.25,27.45,19.4V9.5H23.6v10c0,5.15,2.875,7.775,7.575,7.775S38.85,24.675,38.85,19.375ZM55.35,27V23.5H46.625V9.5h-3.85V27Zm6.925,0V9.5h-3.85V27Z" transform="translate(431.041 46.489)" fill="#b4932a"/></g></svg>