<svg xmlns="http://www.w3.org/2000/svg" width="221.496" height="221.496" viewBox="0 0 221.496 221.496"><g transform="translate(-739.866 -260.359)"><g transform="translate(739.866 260.359)" fill="none"><path d="M110.748,0A110.748,110.748,0,1,1,0,110.748,110.748,110.748,0,0,1,110.748,0Z" stroke="none"/><path d="M 110.7481689453125 2 C 103.3684310913086 2 95.99393463134766 2.74334716796875 88.82949829101563 4.20941162109375 C 81.84817504882813 5.637985229492188 74.98110961914063 7.769638061523438 68.41908264160156 10.54513549804688 C 61.97572326660156 13.27043151855469 55.76095581054688 16.64372253417969 49.94743347167969 20.5712890625 C 44.18858337402344 24.46186828613281 38.77316284179688 28.93002319335938 33.85160827636719 33.85160827636719 C 28.93002319335938 38.77316284179688 24.46186828613281 44.18858337402344 20.5712890625 49.94743347167969 C 16.64372253417969 55.76095581054688 13.27043151855469 61.97572326660156 10.54513549804688 68.41908264160156 C 7.769638061523438 74.98110961914063 5.637985229492188 81.84817504882813 4.20941162109375 88.82949829101563 C 2.74334716796875 95.99393463134766 2 103.3684310913086 2 110.7481689453125 C 2 118.1279067993164 2.74334716796875 125.5024032592773 4.20941162109375 132.6668395996094 C 5.637985229492188 139.6481628417969 7.769638061523438 146.5152282714844 10.54513549804688 153.0772552490234 C 13.27043151855469 159.5206146240234 16.64372253417969 165.7353820800781 20.5712890625 171.5489044189453 C 24.46186828613281 177.3077545166016 28.93002319335938 182.7231750488281 33.85160827636719 187.6447296142578 C 38.77316284179688 192.5663146972656 44.18858337402344 197.0344696044922 49.94743347167969 200.925048828125 C 55.76095581054688 204.8526153564453 61.97572326660156 208.2259063720703 68.41908264160156 210.9512023925781 C 74.98110961914063 213.7266998291016 81.84817504882813 215.8583526611328 88.82949829101563 217.2869262695313 C 95.99393463134766 218.7529907226563 103.3684310913086 219.496337890625 110.7481689453125 219.496337890625 C 118.1279067993164 219.496337890625 125.5024032592773 218.7529907226563 132.6668395996094 217.2869262695313 C 139.6481628417969 215.8583526611328 146.5152282714844 213.7266998291016 153.0772552490234 210.9512023925781 C 159.5206146240234 208.2259063720703 165.7353820800781 204.8526153564453 171.5489044189453 200.925048828125 C 177.3077545166016 197.0344696044922 182.7231750488281 192.5663146972656 187.6447296142578 187.6447296142578 C 192.5663146972656 182.7231750488281 197.0344696044922 177.3077545166016 200.925048828125 171.5489044189453 C 204.8526153564453 165.7353820800781 208.2259063720703 159.5206146240234 210.9512023925781 153.0772552490234 C 213.7266998291016 146.5152282714844 215.8583526611328 139.6481628417969 217.2869262695313 132.6668395996094 C 218.7529907226563 125.5024032592773 219.496337890625 118.1279067993164 219.496337890625 110.7481689453125 C 219.496337890625 103.3684310913086 218.7529907226563 95.99393463134766 217.2869262695313 88.82949829101563 C 215.8583526611328 81.84817504882813 213.7266998291016 74.98110961914063 210.9512023925781 68.41908264160156 C 208.2259063720703 61.97572326660156 204.8526153564453 55.76095581054688 200.925048828125 49.94743347167969 C 197.0344696044922 44.18858337402344 192.5663146972656 38.77316284179688 187.6447296142578 33.85160827636719 C 182.7231750488281 28.93002319335938 177.3077545166016 24.46186828613281 171.5489044189453 20.5712890625 C 165.7353820800781 16.64372253417969 159.5206146240234 13.27043151855469 153.0772552490234 10.54513549804688 C 146.5152282714844 7.769638061523438 139.6481628417969 5.637985229492188 132.6668395996094 4.20941162109375 C 125.5024032592773 2.74334716796875 118.1279067993164 2 110.7481689453125 2 M 110.7481689453125 0 C 171.9126892089844 0 221.496337890625 49.58363342285156 221.496337890625 110.7481689453125 C 221.496337890625 171.9126892089844 171.9126892089844 221.496337890625 110.7481689453125 221.496337890625 C 49.58363342285156 221.496337890625 0 171.9126892089844 0 110.7481689453125 C 0 49.58363342285156 49.58363342285156 0 110.7481689453125 0 Z" stroke="none" fill="#bc970c"/></g><g transform="translate(774.989 309.668)"><path d="M84.125,24.3C42.4,24.3,8.5,52.084,8.5,86.246c0,34.234,33.813,61.946,75.625,61.946,41.728,0,75.625-27.784,75.625-61.946S125.852,24.3,84.125,24.3Z" transform="translate(-8.5 -24.3)" fill="#fff" fill-rule="evenodd"/><path d="M9.5,86.514C9.5,52.873,42.969,25.6,84.265,25.6s74.765,27.273,74.765,60.914-33.467,60.912-74.765,60.912S9.5,120.153,9.5,86.514Zm74.765,45.77c38.888,0,70.377-20.476,70.377-45.771s-31.489-45.77-70.377-45.77S13.888,61.218,13.888,86.514s31.489,45.771,70.377,45.771Z" transform="translate(-8.64 -24.48)" fill="#005baa" fill-rule="evenodd"/><path d="M46.721,86.389h9.033C55.326,81.571,50.507,74,39.666,74S22.2,82.173,22.2,92.584a17.889,17.889,0,0,0,18.068,18.238c10.067,0,15.572-6.625,15.83-13.249H47.5c-1.209,3.184-1.98,6.2-7.661,6.2-4.216,0-8.6-2.582-8.6-11.271,0-8.775,4.646-11.443,8.435-11.443a6.721,6.721,0,0,1,7.055,5.334Z" transform="translate(-10.415 -31.24)" fill="#ed1c24" fill-rule="evenodd"/><path d="M106.8,75.13v35.188l9.205.165V89.928c.6-4.388,4.388-7.829,10.411-7.829V74.7c-4.646,0-6.969.774-10.584,4.99V75.13Z" transform="translate(-22.227 -31.338)" fill="#ed1c24" fill-rule="evenodd"/><path d="M80.5,73.8c8.259,0,18.412,6.023,18.412,19.444s-11.959,17.81-18.066,17.81c-6.2,0-18.842-3.614-18.842-18.842C61.914,78.79,72.839,73.8,80.5,73.8ZM71.033,92.212c0,10.067,5.851,12.045,9.463,12.045,4.044,0,9.463-2.84,9.463-11.787,0-8.861-5.764-12.045-9.809-12.045-4.044.086-9.119,3.528-9.119,11.787Z" transform="translate(-15.971 -31.212)" fill="#ed1c24" fill-rule="evenodd"/><path d="M144.722,74c14.2,0,15.572,8.6,15.572,11.185V103.6c0,.946.344,5.162,1.806,6.625h-8.865a10.917,10.917,0,0,1-1.376-2.582c-1.376.43-3.356,3.356-11.013,3.356S127.6,106.616,127.6,100.765s4.216-9.463,13.163-11.185C149.622,87.946,151,87.43,151,85.021s-2.578-4.57-6.364-4.57-6.45,1.806-6.8,5.162h-8.173C129.5,83.628,130.525,74,144.715,74Zm-1.032,20.39c-3.442.688-7.055,2.315-7.055,5.592,0,3.184,2.84,4.646,6.625,4.646s8-2.15,8-5.42V92.585a44.606,44.606,0,0,1-7.571,1.806Z" transform="translate(-25.133 -31.242)" fill="#ed1c24" fill-rule="evenodd"/></g></g></svg>