<svg xmlns="http://www.w3.org/2000/svg" xmlns:xlink="http://www.w3.org/1999/xlink" width="221.496" height="221.496" viewBox="0 0 221.496 221.496"><defs><linearGradient id="a" x1="0.178" y1="0.065" x2="0.874" y2="1.459" gradientUnits="objectBoundingBox"><stop offset="0" stop-color="#ffde7a"/><stop offset="1" stop-color="#8d641e"/></linearGradient></defs><g transform="translate(-319.704 0)"><g transform="translate(319.704 0)" fill="none" stroke="#bc970c" stroke-width="2"><circle cx="110.748" cy="110.748" r="110.748" stroke="none"/><circle cx="110.748" cy="110.748" r="109.748" fill="none"/></g><path d="M405.191,534.015v-2.273h-4.377v-40h2.435v-3.31H387.69v-5.6h-4.335v5.6h-5.617v-5.6h-9.095v5.6h-7.165v-5.6h-9.095v5.6h-8.846V472.976h2.435V468.2H283.312v4.775h2.435v15.458H274.223V483.2h-9.1v5.244h-7.163V483.2h-9.095v5.244h-5.625V483.2H238.9v5.244H226.034v3.31h2.437v40h-4.379v2.267H221.9v2.76H407.4v-2.76Zm-60.533-5.478-.1-.607h1.575v-2.155c-1.146-.387-2.027-2.594-2.027-5.293a10.7,10.7,0,0,1,.371-2.883h0c.421-1.5,1.159-2.486,2-2.486h0c.784,0,1.479.869,1.909,2.2.031.094.064.193.091.286a10.779,10.779,0,0,1,.379,2.886,10.422,10.422,0,0,1-.462,3.16,3.112,3.112,0,0,1-1.565,2.126v2.156H348.4v.05l-.093.556-.533,3.21v.015h-2.575v-.015Zm45.021-10.764v12.173h-7.857V517.773Zm-9.227,0v12.173H372.6V517.773h7.849Zm-9.227,0v12.173h-7.849V517.773h7.849Zm-9.227,0v12.173h-7.851V517.773H362Zm27.682-5.927v4.1h-7.857V505.582h7.857Zm-9.226,0v4.1H372.6V505.582h7.859Zm-9.227,0v4.1h-7.851V505.582h7.857Zm-9.227,0v4.1h-7.853V505.582h7.859Zm-9.5-11.334h38.817l2.776,3.433H350.147Zm-40.288,31.235H293.394V502.267h18.818v29.481Zm23.665,0H317.065V502.267h18.821v29.481Zm-51.157-3.817-.1.607-.536,3.21v.015h-2.558v-.015l-.535-3.21-.093-.556v-.051h1.573v-2.155a3.109,3.109,0,0,1-1.565-2.126,10.385,10.385,0,0,1-.464-3.16,10.8,10.8,0,0,1,.371-2.883h0c.027-.1.06-.193.091-.284.431-1.331,1.123-2.2,1.907-2.2h0c.841,0,1.579.991,2,2.487a10.786,10.786,0,0,1,.369,2.881c0,2.706-.881,4.912-2.026,5.293v2.157Zm-9.593-10.156v12.174h-7.857V517.775Zm-9.227,0v12.174h-7.859V517.775Zm-9.228,0v12.174h-7.858V517.775h7.858Zm-9.228,0v12.174h-7.857V517.775Zm-7.857-10.382v-1.808h7.857v10.36h-7.857Zm18.453-1.808h7.859v10.36h-7.859Zm-9.227,0h7.86v10.36h-7.86Zm26.312,6.264v4.1h-7.857v-10.36h7.857Zm-39.956-7.9,2.776-3.433h38.823l2.365,3.433ZM336.89,476.483v11.865h-44.5V476.483Zm-52.525,15.265H344.92l4.332,5.989h.039v1.394H280.062v-1.394h-.04l4.332-5.989Z" transform="translate(115.803 -411.346)" fill="url(#a)"/><path d="M-76.187-8.75V-8.8c0-4.925-3.8-8.7-9.3-8.7h-6.825V0h6.825C-79.987,0-76.187-3.825-76.187-8.75Zm-4.025.05a4.987,4.987,0,0,1-5.275,5.225h-2.975v-10.55h2.975A5.026,5.026,0,0,1-80.212-8.75ZM-68.737,0V-17.5h-3.85V0Zm17.025-5.175v-.05c0-3.05-2-4.325-5.55-5.25-3.025-.775-3.775-1.15-3.775-2.3v-.05c0-.85.775-1.525,2.25-1.525a8.212,8.212,0,0,1,4.55,1.725l2-2.9a10.13,10.13,0,0,0-6.5-2.225c-3.575,0-6.125,2.1-6.125,5.275v.05c0,3.475,2.275,4.45,5.8,5.35,2.925.75,3.525,1.25,3.525,2.225v.05c0,1.025-.95,1.65-2.525,1.65a8.028,8.028,0,0,1-5.225-2.125L-65.562-2.55A11.136,11.136,0,0,0-58.137.25C-54.362.25-51.712-1.7-51.712-5.175Zm18.725,2.35L-35.437-5.3a6.317,6.317,0,0,1-4.6,2.05,5.2,5.2,0,0,1-5.075-5.5V-8.8a5.185,5.185,0,0,1,5.075-5.45,6.458,6.458,0,0,1,4.475,1.975l2.45-2.825a9.029,9.029,0,0,0-6.9-2.7,8.894,8.894,0,0,0-9.125,9.05v.05a8.833,8.833,0,0,0,8.975,9A8.945,8.945,0,0,0-32.987-2.825Zm20.4-5.925V-8.8a8.966,8.966,0,0,0-9.275-9,9.049,9.049,0,0,0-9.325,9.05v.05a8.966,8.966,0,0,0,9.275,9A9.049,9.049,0,0,0-12.587-8.75Zm-4.025.05a5.234,5.234,0,0,1-5.25,5.45,5.317,5.317,0,0,1-5.3-5.5V-8.8a5.234,5.234,0,0,1,5.25-5.45,5.317,5.317,0,0,1,5.3,5.5ZM5.813-7.625V-17.5H1.963V-7.475c0,2.775-1.425,4.2-3.775,4.2S-5.587-4.75-5.587-7.6v-9.9h-3.85v10c0,5.15,2.875,7.775,7.575,7.775S5.813-2.325,5.813-7.625ZM25.288,0V-17.5h-3.8V-6.725L13.288-17.5H9.738V0h3.8V-11.125L22.013,0Zm17.45-13.95V-17.5h-14.5v3.55h5.325V0h3.85V-13.95ZM59.013,0V-3.425h-9.5V-7.1h8.25v-3.425h-8.25v-3.55h9.375V-17.5h-13.2V0Zm18.55,0L73.287-6.25a5.435,5.435,0,0,0,3.75-5.425v-.05c0-3.6-2.475-5.775-6.6-5.775h-8V0h3.85V-5.6h3.025L73.063,0ZM73.138-11.475C73.138-10,72.063-9,70.188-9h-3.9v-5.025h3.825c1.875,0,3.025.85,3.025,2.5Zm20.025,6.3v-.05c0-3.05-2-4.325-5.55-5.25-3.025-.775-3.775-1.15-3.775-2.3v-.05c0-.85.775-1.525,2.25-1.525a8.212,8.212,0,0,1,4.55,1.725l2-2.9a10.13,10.13,0,0,0-6.5-2.225c-3.575,0-6.125,2.1-6.125,5.275v.05c0,3.475,2.275,4.45,5.8,5.35,2.925.75,3.525,1.25,3.525,2.225v.05c0,1.025-.95,1.65-2.525,1.65a8.028,8.028,0,0,1-5.225-2.125L79.313-2.55A11.136,11.136,0,0,0,86.737.25C90.512.25,93.162-1.7,93.162-5.175Z" transform="translate(430.038 154.372)" fill="#b4932a"/></g></svg>