<svg xmlns="http://www.w3.org/2000/svg" width="221.496" height="221.496" viewBox="0 0 221.496 221.496"><g transform="translate(-319.703)"><g transform="translate(319.703)" fill="none" stroke="#bc970c" stroke-width="2"><circle cx="110.748" cy="110.748" r="110.748" stroke="none"/><circle cx="110.748" cy="110.748" r="109.748" fill="none"/></g><path d="M-37.287-8.75V-8.8c0-4.925-3.8-8.7-9.3-8.7h-6.825V0h6.825C-41.088,0-37.287-3.825-37.287-8.75Zm-4.025.05a4.987,4.987,0,0,1-5.275,5.225h-2.975v-10.55h2.975A5.026,5.026,0,0,1-41.312-8.75ZM-29.838,0V-17.5h-3.85V0Zm17.025-5.175v-.05c0-3.05-2-4.325-5.55-5.25-3.025-.775-3.775-1.15-3.775-2.3v-.05c0-.85.775-1.525,2.25-1.525a8.212,8.212,0,0,1,4.55,1.725l2-2.9a10.13,10.13,0,0,0-6.5-2.225c-3.575,0-6.125,2.1-6.125,5.275v.05c0,3.475,2.275,4.45,5.8,5.35,2.925.75,3.525,1.25,3.525,2.225v.05c0,1.025-.95,1.65-2.525,1.65a8.028,8.028,0,0,1-5.225-2.125L-26.663-2.55A11.136,11.136,0,0,0-19.237.25C-15.462.25-12.812-1.7-12.812-5.175ZM4.388-11.4v-.05c0-3.575-2.525-6.05-6.7-6.05h-7.15V0h3.85V-5.25h2.925C1.238-5.25,4.388-7.35,4.388-11.4Zm-3.9.075c0,1.5-1.125,2.65-3.05,2.65h-3.05v-5.35h2.975c1.925,0,3.125.925,3.125,2.65ZM19.813,0V-3.5H11.088v-14H7.238V0Zm19.95,0-7.5-17.625h-3.55L21.212,0h3.925l1.6-3.925h7.4L35.737,0Zm-7-7.325h-4.65L30.438-13ZM55.213-17.5H50.838l-4.25,7.025L42.412-17.5h-4.5L44.638-6.9V0h3.85V-6.975ZM-1.125,9.5H-5.15L-8.775,21.35-12.7,9.45H-16l-3.925,11.9L-23.55,9.5h-4.125L-21.7,27.125h3.35l3.95-11.45,3.95,11.45H-7.1ZM7.5,7.05-3.575,30.2H-.35L10.725,7.05ZM27.35,22.2v-.05c0-2.35-1.25-3.525-3.275-4.3a4.07,4.07,0,0,0,2.3-3.775v-.05c0-2.75-2.2-4.525-5.775-4.525H12.475V27H20.8C24.75,27,27.35,25.4,27.35,22.2Zm-4.8-7.475c0,1.3-1.075,1.85-2.775,1.85h-3.55v-3.7h3.8c1.625,0,2.525.65,2.525,1.8Zm.975,7c0,1.3-1.025,1.9-2.725,1.9H16.225v-3.85h4.45c1.975,0,2.85.725,2.85,1.9Z" transform="translate(430.169 106.839)" fill="#b4932a"/></g></svg>