<svg xmlns="http://www.w3.org/2000/svg" width="221.496" height="221.496" viewBox="0 0 221.496 221.496"><g transform="translate(-320.73 -0.063)"><g transform="translate(320.73 0.063)" fill="none" stroke="#bc970c" stroke-width="2"><circle cx="110.748" cy="110.748" r="110.748" stroke="none"/><circle cx="110.748" cy="110.748" r="109.748" fill="none"/></g><path d="M-52.85,0V-3.425h-9.5V-7.1h8.25v-3.425h-8.25v-3.55h9.375V-17.5h-13.2V0Zm18.8-2.825L-36.5-5.3a6.317,6.317,0,0,1-4.6,2.05,5.2,5.2,0,0,1-5.075-5.5V-8.8A5.185,5.185,0,0,1-41.1-14.25a6.458,6.458,0,0,1,4.475,1.975l2.45-2.825a9.029,9.029,0,0,0-6.9-2.7A8.894,8.894,0,0,0-50.2-8.75v.05a8.833,8.833,0,0,0,8.975,9A8.945,8.945,0,0,0-34.05-2.825Zm20.4-5.925V-8.8a8.966,8.966,0,0,0-9.275-9A9.049,9.049,0,0,0-32.25-8.75v.05a8.966,8.966,0,0,0,9.275,9A9.049,9.049,0,0,0-13.65-8.75Zm-4.025.05a5.234,5.234,0,0,1-5.25,5.45,5.317,5.317,0,0,1-5.3-5.5V-8.8a5.234,5.234,0,0,1,5.25-5.45,5.317,5.317,0,0,1,5.3,5.5Zm23,8.7V-17.5h-3.8V-6.725L-6.675-17.5h-3.55V0h3.8V-11.125L2.05,0ZM27.35-8.75V-8.8a8.966,8.966,0,0,0-9.275-9A9.049,9.049,0,0,0,8.75-8.75v.05a8.966,8.966,0,0,0,9.275,9A9.049,9.049,0,0,0,27.35-8.75Zm-4.025.05a5.234,5.234,0,0,1-5.25,5.45,5.317,5.317,0,0,1-5.3-5.5V-8.8a5.234,5.234,0,0,1,5.25-5.45,5.317,5.317,0,0,1,5.3,5.5ZM48.275,0V-17.5h-4.15l-4.6,7.4-4.6-7.4h-4.15V0H34.55V-11.35l4.875,7.4h.1l4.925-7.475V0Zm19.7-17.5H63.6l-4.25,7.025L55.175-17.5h-4.5L57.4-6.9V0h3.85V-6.975Z" transform="translate(429.751 119.127)" fill="#b4932a"/></g></svg>