<svg xmlns="http://www.w3.org/2000/svg" width="221.496" height="221.496" viewBox="0 0 221.496 221.496"><g transform="translate(-319.703 59.937)"><g transform="translate(319.703 -59.937)" fill="none" stroke="#bc970c" stroke-width="2"><circle cx="110.748" cy="110.748" r="110.748" stroke="none"/><circle cx="110.748" cy="110.748" r="109.748" fill="none"/></g><path d="M-46.262,0V-3.425h-9.5V-7.1h8.25v-3.425h-8.25v-3.55h9.375V-17.5h-13.2V0Zm16,0V-3.5h-8.725v-14h-3.85V0Zm16.225,0V-3.425h-9.5V-7.1h8.25v-3.425h-8.25v-3.55h9.375V-17.5h-13.2V0ZM6.887,0V-17.5H2.737l-4.6,7.4-4.6-7.4h-4.15V0h3.775V-11.35l4.875,7.4h.1l4.925-7.475V0ZM24.413,0V-3.425h-9.5V-7.1h8.25v-3.425h-8.25v-3.55h9.375V-17.5h-13.2V0ZM43.388,0V-17.5h-3.8V-6.725L31.388-17.5h-3.55V0h3.8V-11.125L40.113,0Zm17.45-13.95V-17.5h-14.5v3.55h5.325V0h3.85V-13.95ZM-33.538,15.6v-.05c0-3.575-2.525-6.05-6.7-6.05h-7.15V27h3.85V21.75h2.925C-36.688,21.75-33.538,19.65-33.538,15.6Zm-3.9.075c0,1.5-1.125,2.65-3.05,2.65h-3.05v-5.35h2.975c1.925,0,3.125.925,3.125,2.65ZM-15.563,27l-4.275-6.25a5.435,5.435,0,0,0,3.75-5.425v-.05c0-3.6-2.475-5.775-6.6-5.775h-8V27h3.85V21.4h3.025l3.75,5.6Zm-4.425-11.475C-19.988,17-21.063,18-22.938,18h-3.9V12.975h3.825c1.875,0,3.025.85,3.025,2.5Zm25.2,2.725V18.2a8.966,8.966,0,0,0-9.275-9,9.049,9.049,0,0,0-9.325,9.05v.05a8.966,8.966,0,0,0,9.275,9A9.049,9.049,0,0,0,5.212,18.25Zm-4.025.05a5.234,5.234,0,0,1-5.25,5.45,5.317,5.317,0,0,1-5.3-5.5V18.2a5.234,5.234,0,0,1,5.25-5.45,5.317,5.317,0,0,1,5.3,5.5ZM26.137,27V9.5h-4.15l-4.6,7.4-4.6-7.4H8.637V27h3.775V15.65l4.875,7.4h.1l4.925-7.475V27Zm22.025-8.75V18.2a8.966,8.966,0,0,0-9.275-9,9.049,9.049,0,0,0-9.325,9.05v.05a8.966,8.966,0,0,0,9.275,9A9.049,9.049,0,0,0,48.163,18.25Zm-4.025.05a5.234,5.234,0,0,1-5.25,5.45,5.317,5.317,0,0,1-5.3-5.5V18.2a5.234,5.234,0,0,1,5.25-5.45,5.317,5.317,0,0,1,5.3,5.5Z" transform="translate(429.54 45.912)" fill="#b4932a"/></g></svg>