<svg xmlns="http://www.w3.org/2000/svg" xmlns:xlink="http://www.w3.org/1999/xlink" width="221.496" height="221.496" viewBox="0 0 221.496 221.496"><defs><linearGradient id="a" x1="0.437" x2="0.631" y2="1.171" gradientUnits="objectBoundingBox"><stop offset="0" stop-color="#fee690"/><stop offset="1" stop-color="#9d7700"/></linearGradient></defs><g transform="translate(-319.704)"><g transform="translate(319.704)" fill="none" stroke="#bc970c" stroke-width="2"><circle cx="110.748" cy="110.748" r="110.748" stroke="none"/><circle cx="110.748" cy="110.748" r="109.748" fill="none"/></g><path d="M308.451,302.753V296.1h-.128V285.113h1.432V281.8H290V259.972h2.162v-3.31H258.5V238.879H176.768v17.782H143.1v3.31h2.162V281.8H125.507v3.31h1.432V296.1h-.128v6.652h-1.834v3.031H310.286v-3.031Zm-141.1-39.242h4.8v7.435h-4.8Zm0,8.551h4.8V279.5h-4.8Zm-5.634-8.551h4.8v7.435h-4.8Zm0,8.551h4.8V279.5h-4.8Zm-5.634-8.551h4.8v7.435h-4.8Zm0,8.551h4.8V279.5h-4.8Zm-5.634-8.551h4.8v7.435h-4.8Zm0,8.551h4.8V279.5h-4.8Zm-14.3,15.5h4.8V295h-4.8Zm-5.634,0h4.8V295h-4.8Zm14.747,15.191h-14.01V297.56h14.01ZM146.582,295h-4.8v-7.435h4.8Zm3.43,7.756h-.67v-5.745a1.481,1.481,0,0,0,.67,0Zm-.335-6.334a2.56,2.56,0,0,1-2.316-2.749,3.115,3.115,0,0,1,.362-1.476h0a2.255,2.255,0,0,1,1.953-1.273h0a2.256,2.256,0,0,1,1.954,1.275,3.125,3.125,0,0,1,.362,1.475A2.56,2.56,0,0,1,149.678,296.418Zm2.539-4.449c-.012-.023-.02-.048-.032-.072a2.987,2.987,0,0,0-1.753-1.495,2.6,2.6,0,0,0-.755-.111,2.79,2.79,0,0,0-1.447.433,3.058,3.058,0,0,0-.811.78v-3.942h4.8Zm3.07.161c-.049.11-.093.224-.132.339A3.779,3.779,0,0,0,155.2,295h-2.34v-7.435h4.8v2.747a2.689,2.689,0,0,0-1.391.556,3.107,3.107,0,0,0-.618.635,3.52,3.52,0,0,0-.251.395C155.354,291.97,155.322,292.052,155.286,292.13Zm2.949,10.622h-.671v-5.745a1.485,1.485,0,0,0,.671,0Zm-.336-6.334a2.56,2.56,0,0,1-2.316-2.749,3.116,3.116,0,0,1,.363-1.476h0a2.254,2.254,0,0,1,1.953-1.273h0a2.254,2.254,0,0,1,1.954,1.275,3.115,3.115,0,0,1,.362,1.475A2.56,2.56,0,0,1,157.9,296.418Zm5.388-3.657a3.828,3.828,0,0,0-.109.908c0,.021.006.043.006.064a3.774,3.774,0,0,0,.1.793V295H160.6a3.8,3.8,0,0,0-.075-2.833c-.039-.089-.076-.181-.123-.267a3.127,3.127,0,0,0-1.149-1.224,2.666,2.666,0,0,0-.767-.307v-2.8h4.8Zm3.169,9.991h-.67v-5.745a1.481,1.481,0,0,0,.67,0Zm-.335-6.334a2.56,2.56,0,0,1-2.316-2.749,3.115,3.115,0,0,1,.362-1.476h0a2.255,2.255,0,0,1,1.953-1.273h0a2.255,2.255,0,0,1,1.954,1.275,3.124,3.124,0,0,1,.361,1.475A2.56,2.56,0,0,1,166.122,296.418Zm2.8-3.772c-.021-.08-.047-.159-.074-.238a3.487,3.487,0,0,0-.219-.51,3.071,3.071,0,0,0-1.358-1.339,2.638,2.638,0,0,0-1.149-.267c-.075,0-.15.01-.225.016a2.629,2.629,0,0,0-1.046.319,2.9,2.9,0,0,0-.727.562v-3.626h4.8Zm2.917-.751c-.035.067-.063.138-.094.207a3.783,3.783,0,0,0-.1,2.9h-1.881v-7.435h4.8v2.745c-.071-.005-.141-.015-.213-.015a2.638,2.638,0,0,0-1.345.376,2.922,2.922,0,0,0-.686.555,3.3,3.3,0,0,0-.41.569C171.881,291.827,171.857,291.858,171.838,291.9Zm2.841,10.858h-.671v-5.745a1.484,1.484,0,0,0,.671,0Zm-.336-6.334a2.56,2.56,0,0,1-2.316-2.749,3.106,3.106,0,0,1,.363-1.476h0a2.253,2.253,0,0,1,1.953-1.273h0a2.256,2.256,0,0,1,1.954,1.275,3.115,3.115,0,0,1,.362,1.475A2.56,2.56,0,0,1,174.343,296.418Zm15.869-55.036H245.05v5.045H190.212Zm44.743,31.345h4.8v7.435h-4.8Zm-.1-13.455v-7.435h4.8v7.435Zm.1,12.338v-7.434h4.8v7.434Zm-5.634,1.116h4.8v7.435h-4.8Zm-.1-13.455v-7.435h4.8v7.435Zm.1,12.338v-7.434h4.8v7.434Zm-5.635,1.116h4.8v7.435h-4.8Zm-.1-13.455v-7.435h4.8v7.435Zm.1,12.338v-7.434h4.8v7.434Zm-16.907,0v-7.434h4.8v7.434Zm4.8,1.116v7.435h-4.8v-7.435Zm-4.7-13.455v-7.435h4.8v7.435Zm-5.736,12.338v-7.434h4.8v7.434Zm4.8,1.116v7.435h-4.8v-7.435Zm-4.7-13.455v-7.435h4.8v7.435Zm-5.736,12.338v-7.434h4.8v7.434Zm4.8,1.116v7.435h-4.8v-7.435Zm-4.7-13.455v-7.435h4.8v7.435Zm-16.705-11.381h10.439v17.155H178.906Zm0,18.58h10.439v17.155H178.906Zm0,35.735V285.051h10.439V295.18a1.878,1.878,0,0,0-.343-.035,1.783,1.783,0,0,0-.829.213,1.828,1.828,0,0,0-.714.66,1.81,1.81,0,0,0-1.414,1.484c-.006,0-.011.007-.018.01a1.8,1.8,0,0,0-.9.763,1.756,1.756,0,0,0,.908,2.6,1.8,1.8,0,0,0,.792,1.328Zm13.624-1.633a9.33,9.33,0,0,0-3.056,1.666,1.175,1.175,0,0,0-1.647-.348,1.178,1.178,0,0,1-1.126-1.516h-.049a1.176,1.176,0,1,1,0-2.352h.024a1.205,1.205,0,0,1-.024-.242,1.176,1.176,0,0,1,1.175-1.176h.05a9.183,9.183,0,0,0,2.772-.517,2.371,2.371,0,0,1,1.853,4.233A1.142,1.142,0,0,1,192.53,300.573Zm12.023,2.18H193.119V300.9a1.593,1.593,0,0,0,.032-.2,1.8,1.8,0,0,0-.032-3.016V285.24h11.434Zm12.53,0H205.649V285.24h11.434Zm.128-22.59h-4.8v-7.435h4.8Zm0-8.552h-4.8v-7.434h4.8Zm.1-12.338h-4.8v-7.435h4.8Zm.637-7.435h4.8v7.435h-4.8Zm4.9,12.34v7.434h-4.8v-7.434Zm-4.8,8.55h4.8v7.435h-4.8Zm11.562,30.026H218.18V285.24h11.433Zm12.53,0H230.71V285.24h11.433V297.7c-.023.015-.051.024-.074.04a1.8,1.8,0,0,0-.76,1.462,1.758,1.758,0,0,0,.834,1.486Zm4.9-1.294a7.6,7.6,0,0,0-2.754.432,1.176,1.176,0,0,1-1.126-1.516h-.05a1.176,1.176,0,0,1,0-2.352h.026a1.141,1.141,0,0,1-.026-.242,1.176,1.176,0,0,1,1.176-1.176h.05a9.183,9.183,0,0,0,2.772-.517,2.371,2.371,0,0,1,1.853,4.233,1.14,1.14,0,0,1,.028.25,1.176,1.176,0,0,1-1.949.885Zm9.315.747h-7.791a2.659,2.659,0,0,0,.981-4.547,1.827,1.827,0,0,0-.743-1.012,1.8,1.8,0,0,0-2.215-1.106,1.772,1.772,0,0,0-.671-.33v-10.16h10.439Zm0-18.58H245.918V266.471h10.439Zm0-18.581H245.918V247.891h10.439Zm37.958,22.517h4.8V295h-4.8Zm-14.3-24.051h4.8v7.435h-4.8Zm0,8.551h4.8V279.5h-4.8Zm-5.634-8.551h4.8v7.435h-4.8Zm0,8.551h4.8V279.5h-4.8Zm-5.634-8.551h4.8v7.435h-4.8Zm0,8.551h4.8V279.5h-4.8Zm-5.635-8.551h4.8v7.435h-4.8Zm0,8.551h4.8V279.5h-4.8Zm-1.857,30.691h-.671v-5.745a1.481,1.481,0,0,0,.671,0Zm-.336-6.334a2.56,2.56,0,0,1-2.316-2.749,3.115,3.115,0,0,1,.362-1.476h0a2.255,2.255,0,0,1,1.954-1.273h0a2.256,2.256,0,0,1,1.955,1.275,3.135,3.135,0,0,1,.361,1.475A2.56,2.56,0,0,1,260.919,296.418ZM265.5,295h-1.882a3.778,3.778,0,0,0,.239-1.328c0-.071-.009-.141-.013-.211a3.817,3.817,0,0,0-.075-.582,3.681,3.681,0,0,0-.348-.978,2.981,2.981,0,0,0-1.764-1.5,2.584,2.584,0,0,0-.5-.09,2.436,2.436,0,0,0-.244-.018c-.072,0-.141.01-.212.015v-2.745h4.8Zm.837-2.351v-5.084h4.8v3.626a2.737,2.737,0,0,0-1.872-.888c-.043,0-.084-.009-.126-.009a2.634,2.634,0,0,0-.9.166,2.769,2.769,0,0,0-.621.322,3.057,3.057,0,0,0-.255.2,3.261,3.261,0,0,0-.729.92A3.593,3.593,0,0,0,266.341,292.646Zm3.136,10.107h-.671v-5.745a1.485,1.485,0,0,0,.671,0Zm-.336-6.334a2.56,2.56,0,0,1-2.316-2.749,3.115,3.115,0,0,1,.362-1.476h0a2.255,2.255,0,0,1,1.954-1.273h0a2.253,2.253,0,0,1,1.953,1.275,3.115,3.115,0,0,1,.362,1.475A2.56,2.56,0,0,1,269.142,296.418Zm5.716-4.523a4.227,4.227,0,0,0-.329.872,3.872,3.872,0,0,0-.107.9A3.779,3.779,0,0,0,274.66,295h-2.684v-.469a3.8,3.8,0,0,0,.108-.858,3.869,3.869,0,0,0-.108-.907v-5.2h4.8v2.8a2.764,2.764,0,0,0-1.248.668,3.21,3.21,0,0,0-.565.7C274.925,291.784,274.889,291.837,274.857,291.9Zm2.841,10.858h-.671v-5.745a1.485,1.485,0,0,0,.671,0Zm-.336-6.334a2.56,2.56,0,0,1-2.316-2.749,3.125,3.125,0,0,1,.362-1.476h0a2.255,2.255,0,0,1,1.953-1.273h0a2.254,2.254,0,0,1,1.954,1.275,3.114,3.114,0,0,1,.362,1.475A2.56,2.56,0,0,1,277.363,296.418ZM282.408,295h-2.34a3.8,3.8,0,0,0,.238-1.328,3.888,3.888,0,0,0-.1-.85,3.659,3.659,0,0,0-.307-.853c-.012-.023-.019-.047-.031-.07a3.167,3.167,0,0,0-.973-1.108,2.582,2.582,0,0,0-1.287-.479v-2.747h4.8Zm.638-3.027v-4.408h4.8V291.5a2.834,2.834,0,0,0-1.851-1.179,2.569,2.569,0,0,0-.407-.034,2.629,2.629,0,0,0-.7.1,2.732,2.732,0,0,0-.655.281c-.092.055-.18.116-.267.181a3.215,3.215,0,0,0-.885,1.044C283.066,291.919,283.057,291.945,283.046,291.97Zm2.874,10.783h-.67v-5.745a2.628,2.628,0,0,0,.336.038,2.6,2.6,0,0,0,.335-.038Zm-.335-6.334a2.56,2.56,0,0,1-2.316-2.749,3.1,3.1,0,0,1,.362-1.476h0a2.255,2.255,0,0,1,1.953-1.273h0a2.254,2.254,0,0,1,1.953,1.275,3.116,3.116,0,0,1,.363,1.475A2.561,2.561,0,0,1,285.585,296.418Zm3.095-8.856h4.8V295h-4.8Zm15.329,15.191H290V297.56h14.011Zm.738-7.756h-4.8v-7.435h4.8Z" transform="translate(213.379 -184.452)" fill="url(#a)"/><path d="M-27.312,0V-17.5h-3.85v6.925h-7.1V-17.5h-3.85V0h3.85V-7.025h7.1V0Zm19.7-17.5h-4.375l-4.25,7.025L-20.413-17.5h-4.5l6.725,10.6V0h3.85V-6.975Zm16.25,6.1v-.05c0-3.575-2.525-6.05-6.7-6.05h-7.15V0h3.85V-5.25H1.563C5.488-5.25,8.638-7.35,8.638-11.4Zm-3.9.075c0,1.5-1.125,2.65-3.05,2.65h-3.05v-5.35H1.613c1.925,0,3.125.925,3.125,2.65ZM24.813,0V-3.425h-9.5V-7.1h8.25v-3.425h-8.25v-3.55h9.375V-17.5h-13.2V0Zm18.55,0L39.088-6.25a5.435,5.435,0,0,0,3.75-5.425v-.05c0-3.6-2.475-5.775-6.6-5.775h-8V0h3.85V-5.6h3.025L38.863,0ZM38.938-11.475C38.938-10,37.863-9,35.988-9h-3.9v-5.025h3.825c1.875,0,3.025.85,3.025,2.5ZM-43.575,21V3.5h-4.15l-4.6,7.4-4.6-7.4h-4.15V21H-57.3V9.65l4.875,7.4h.1L-47.4,9.575V21Zm21.25,0-7.5-17.625h-3.55L-40.875,21h3.925l1.6-3.925h7.4L-26.35,21Zm-7-7.325h-4.65L-31.65,8ZM-4.5,21l-4.275-6.25a5.435,5.435,0,0,0,3.75-5.425v-.05c0-3.6-2.475-5.775-6.6-5.775h-8V21h3.85V15.4h3.025L-9,21ZM-8.925,9.525C-8.925,11-10,12-11.875,12h-3.9V6.975h3.825c1.875,0,3.025.85,3.025,2.5ZM14.375,21,6.925,10.925,14.05,3.5H9.4L2.3,11.15V3.5H-1.55V21H2.3V15.65l2.025-2.1L9.75,21Zm15.65,0V17.575h-9.5V13.9h8.25V10.475h-8.25V6.925H29.9V3.5H16.7V21ZM46.7,7.05V3.5H32.2V7.05h5.325V21h3.85V7.05Zm15.225,8.775v-.05c0-3.05-2-4.325-5.55-5.25C53.35,9.75,52.6,9.375,52.6,8.225v-.05c0-.85.775-1.525,2.25-1.525A8.212,8.212,0,0,1,59.4,8.375l2-2.9A10.13,10.13,0,0,0,54.9,3.25c-3.575,0-6.125,2.1-6.125,5.275v.05c0,3.475,2.275,4.45,5.8,5.35,2.925.75,3.525,1.25,3.525,2.225v.05c0,1.025-.95,1.65-2.525,1.65a8.028,8.028,0,0,1-5.225-2.125L48.075,18.45a11.136,11.136,0,0,0,7.425,2.8C59.275,21.25,61.925,19.3,61.925,15.825Z" transform="translate(430.51 151.096)" fill="#b4932a"/></g></svg>