<svg xmlns="http://www.w3.org/2000/svg" width="221.496" height="221.496" viewBox="0 0 221.496 221.496"><g transform="translate(-319.704 0)"><g transform="translate(319.704 0)" fill="none" stroke="#bc970c" stroke-width="2"><circle cx="110.748" cy="110.748" r="110.748" stroke="none"/><circle cx="110.748" cy="110.748" r="109.748" fill="none"/></g><path d="M-50.488,0V-17.5h-3.85V0Zm21.875,0V-17.5h-4.15l-4.6,7.4-4.6-7.4h-4.15V0h3.775V-11.35l4.875,7.4h.1l4.925-7.475V0Zm21.25,0-7.5-17.625h-3.55L-25.913,0h3.925l1.6-3.925h7.4L-11.388,0Zm-7-7.325h-4.65L-16.687-13Zm24.475,4.85v-7.6h-7.6V-6.75H6.387v2.5A6.143,6.143,0,0,1,2.762-3.2a5.243,5.243,0,0,1-5.3-5.55V-8.8a5.256,5.256,0,0,1,5.025-5.45,6.444,6.444,0,0,1,4.575,1.775L9.488-15.4a9.609,9.609,0,0,0-6.875-2.4A8.982,8.982,0,0,0-6.563-8.75v.05c0,5.175,3.75,9,9.2,9A11.359,11.359,0,0,0,10.112-2.475ZM17.838,0V-17.5h-3.85V0ZM37.763,0V-17.5h-3.8V-6.725L25.763-17.5h-3.55V0h3.8V-11.125L34.488,0ZM55.288,0V-3.425h-9.5V-7.1h8.25v-3.425h-8.25v-3.55h9.375V-17.5h-13.2V0Z" transform="translate(430.543 119.904)" fill="#b4932a"/></g></svg>