<svg xmlns="http://www.w3.org/2000/svg" width="221.496" height="221.496" viewBox="0 0 221.496 221.496"><g transform="translate(-319.704)"><g transform="translate(319.704)" fill="none" stroke="#bc970c" stroke-width="2"><circle cx="110.748" cy="110.748" r="110.748" stroke="none"/><circle cx="110.748" cy="110.748" r="109.748" fill="none"/></g><path d="M-42.463,0V-17.5h-3.85V0Zm21.875,0V-17.5h-4.15l-4.6,7.4-4.6-7.4h-4.15V0h3.775V-11.35l4.875,7.4h.1l4.925-7.475V0Zm18.05-11.4v-.05c0-3.575-2.525-6.05-6.7-6.05h-7.15V0h3.85V-5.25h2.925C-5.687-5.25-2.537-7.35-2.537-11.4Zm-3.9.075c0,1.5-1.125,2.65-3.05,2.65h-3.05v-5.35h2.975c1.925,0,3.125.925,3.125,2.65Zm21.725,3.7V-17.5h-3.85V-7.475c0,2.775-1.425,4.2-3.775,4.2S3.888-4.75,3.888-7.6v-9.9H.038v10C.038-2.35,2.913.275,7.613.275S15.288-2.325,15.288-7.625ZM31.788,0V-3.5H23.063v-14h-3.85V0Zm15.55-5.175v-.05c0-3.05-2-4.325-5.55-5.25-3.025-.775-3.775-1.15-3.775-2.3v-.05c0-.85.775-1.525,2.25-1.525a8.212,8.212,0,0,1,4.55,1.725l2-2.9a10.13,10.13,0,0,0-6.5-2.225c-3.575,0-6.125,2.1-6.125,5.275v.05c0,3.475,2.275,4.45,5.8,5.35,2.925.75,3.525,1.25,3.525,2.225v.05c0,1.025-.95,1.65-2.525,1.65a8.028,8.028,0,0,1-5.225-2.125L33.488-2.55A11.136,11.136,0,0,0,40.913.25C44.688.25,47.338-1.7,47.338-5.175Z" transform="translate(430.51 119.485)" fill="#b4932a"/></g></svg>