<svg xmlns="http://www.w3.org/2000/svg" width="221.496" height="221.496" viewBox="0 0 221.496 221.496"><g transform="translate(-319.704 59.937)"><g transform="translate(319.704 -59.937)" fill="none" stroke="#bc970c" stroke-width="2"><circle cx="110.748" cy="110.748" r="110.748" stroke="none"/><circle cx="110.748" cy="110.748" r="109.748" fill="none"/></g><path d="M-43.013,0V-17.5h-3.85V0Zm19.925,0V-17.5h-3.8V-6.725l-8.2-10.775h-3.55V0h3.8V-11.125L-26.362,0Zm16.85-5.175v-.05c0-3.05-2-4.325-5.55-5.25-3.025-.775-3.775-1.15-3.775-2.3v-.05c0-.85.775-1.525,2.25-1.525a8.212,8.212,0,0,1,4.55,1.725l2-2.9a10.13,10.13,0,0,0-6.5-2.225c-3.575,0-6.125,2.1-6.125,5.275v.05c0,3.475,2.275,4.45,5.8,5.35,2.925.75,3.525,1.25,3.525,2.225v.05c0,1.025-.95,1.65-2.525,1.65a8.028,8.028,0,0,1-5.225-2.125L-20.087-2.55A11.136,11.136,0,0,0-12.662.25C-8.887.25-6.237-1.7-6.237-5.175Zm18.325-2.45V-17.5H8.238V-7.475c0,2.775-1.425,4.2-3.775,4.2S.688-4.75.688-7.6v-9.9h-3.85v10C-3.162-2.35-.287.275,4.413.275S12.088-2.325,12.088-7.625ZM28.588,0V-3.5H19.863v-14h-3.85V0Zm19.95,0-7.5-17.625h-3.55L29.988,0h3.925l1.6-3.925h7.4L44.513,0Zm-7-7.325h-4.65L39.213-13Z" transform="translate(429.615 59.548)" fill="#b4932a"/></g></svg>