<svg xmlns="http://www.w3.org/2000/svg" width="221.496" height="221.496" viewBox="0 0 221.496 221.496"><g transform="translate(-451.932 -468.774)"><g transform="translate(451.932 468.774)" fill="none" stroke="#bc970c" stroke-width="2"><circle cx="110.748" cy="110.748" r="110.748" stroke="none"/><circle cx="110.748" cy="110.748" r="109.748" fill="none"/></g><g transform="translate(498.885 525.825)"><rect width="31.16" height="31.16" transform="translate(32.953 35.868)" fill="#ed1c24"/><path d="M79.9,59.6V90.872h31.16Z" transform="translate(-11.079 -23.846)" fill="#ed1c24"/><rect width="31.16" height="31.16" transform="translate(32.953 0)" fill="#ed1c24"/><path d="M79.9,27.7V58.86L111.06,27.7Z" transform="translate(-11.079 -27.7)" fill="#ed1c24"/><path d="M36.771,103.9H31.053l-7.4,10.423V103.9H18.5v22.641h5.156v-10.2l7.4,10.2h5.829L28.252,115Z" transform="translate(-18.5 -18.49)" fill="#ed1c24"/><path d="M62.151,120.563a3.856,3.856,0,0,1-3.251,1.681,2.837,2.837,0,0,1-2.915-3.138V110.7H51.615V120a5.485,5.485,0,0,0,5.829,6.052,6.7,6.7,0,0,0,4.819-2.13v1.793h4.371V110.7H62.151Z" transform="translate(-14.515 -17.67)" fill="#ed1c24"/><path d="M98.067,112.3a6.5,6.5,0,0,0-4.6-1.9c-4.148,0-7.062,3.474-7.062,7.959a7.206,7.206,0,0,0,7.062,7.734,6.523,6.523,0,0,0,4.6-1.9v1.57h4.371V110.739H98.067Zm0,8.63a4.244,4.244,0,0,1-3.251,1.456,3.828,3.828,0,0,1-3.923-4.148,3.891,3.891,0,0,1,3.923-4.148,4.447,4.447,0,0,1,3.251,1.456Z" transform="translate(-10.304 -17.704)" fill="#ed1c24"/><path d="M46.067,112.3a6.5,6.5,0,0,0-4.6-1.9c-4.148,0-7.062,3.474-7.062,7.959a7.206,7.206,0,0,0,7.062,7.734,6.523,6.523,0,0,0,4.6-1.9v1.57h4.371V110.739H46.067Zm0,8.63a4.244,4.244,0,0,1-3.251,1.456,3.828,3.828,0,0,1-3.923-4.148,3.891,3.891,0,0,1,3.923-4.148,4.447,4.447,0,0,1,3.251,1.456Z" transform="translate(-16.59 -17.704)" fill="#ed1c24"/><path d="M130.891,103.9v9.3a6.69,6.69,0,0,0-4.819-2.018c-4.259,0-7.062,3.474-7.062,7.959a7.206,7.206,0,0,0,7.062,7.734,6.69,6.69,0,0,0,4.819-2.018v1.681h4.371V103.9Zm0,17.59a4.031,4.031,0,0,1-3.363,1.57,3.828,3.828,0,0,1-3.923-4.148,3.891,3.891,0,0,1,3.923-4.148,4.35,4.35,0,0,1,3.363,1.57Z" transform="translate(-6.364 -18.49)" fill="#ed1c24"/><path d="M112.692,110.4a6.7,6.7,0,0,0-4.819,2.13v-1.793H103.5V125.76h4.371v-9.871a3.857,3.857,0,0,1,3.251-1.681,2.837,2.837,0,0,1,2.915,3.138v8.407h4.371v-9.3a5.451,5.451,0,0,0-5.716-6.052" transform="translate(-8.226 -17.708)" fill="#ed1c24"/><path d="M76.192,107.3a4.18,4.18,0,0,1,2.355.673l.673-3.363a7.248,7.248,0,0,0-4.034-.9,5.458,5.458,0,0,0-5.941,6.052v1.793H67v3.594h2.241v11.433h4.483V115.155H78.88v-3.594H73.726v-1.345c0-2.018.9-2.915,2.459-2.915" transform="translate(-12.639 -18.523)" fill="#ed1c24"/><rect width="4.483" height="22.641" transform="translate(68.707 85.41)" fill="#ed1c24"/></g></g></svg>