<svg xmlns="http://www.w3.org/2000/svg" width="221.496" height="221.496" viewBox="0 0 221.496 221.496"><g transform="translate(-319.704)"><g transform="translate(319.704)" fill="none" stroke="#bc970c" stroke-width="2"><circle cx="110.748" cy="110.748" r="110.748" stroke="none"/><circle cx="110.748" cy="110.748" r="109.748" fill="none"/></g><g transform="translate(111.188 -332.464)"><path d="M318.792,358.081a84.016,84.016,0,1,0,84.016,84.042,84.041,84.041,0,0,0-84.016-84.042Z" transform="translate(1.429 1.429)" fill="#fe0" fill-rule="evenodd"/><path d="M301.77,426.44l-14.82-14.82-17.108,17.125v5.745l4.307-4.323,11.934,11.96-4.4,4.4,2.864,2.887L308.41,425.5v-5.724Z" transform="translate(13.229 19.444)" fill="#e50036" fill-rule="evenodd"/><path d="M241.921,409.28h26.418v5.7h-4.4v18.43l15.3-8.516v15.614H241.921v-5.727h4.427v-19.8h-4.427v-5.7Z" transform="translate(3.834 18.657)" fill="#004497" fill-rule="evenodd"/><path d="M325.272,409.28v5.7H329.7v19.8h-4.427v5.727h37.34V424.9l-15.326,8.516v-18.43h4.427v-5.7Z" transform="translate(31.88 18.657)" fill="#004497" fill-rule="evenodd"/><path d="M283.372,395.994a9.4,9.4,0,1,1-9.407,9.383,9.384,9.384,0,0,1,9.407-9.383Z" transform="translate(14.616 14.186)" fill="#e50036" fill-rule="evenodd"/><path d="M320.221,353.833a89.693,89.693,0,1,0,89.693,89.719A89.729,89.729,0,0,0,320.221,353.833Zm0,173.709a84.016,84.016,0,1,1,84.016-83.991A84.031,84.031,0,0,1,320.221,527.542Z" transform="translate(0 0)" fill="#e50036" fill-rule="evenodd"/><path d="M320.6,409.28H295.406v5.7h4.4v19.8h-4.4v5.727H320.6C339.218,440.508,339.412,409.28,320.6,409.28Z" transform="translate(21.831 18.656)" fill="#004497" fill-rule="evenodd"/><path d="M311.923,428.323h-1.251V416.534h1.059C317.241,416.534,317.241,428.347,311.923,428.323Z" transform="translate(26.967 21.097)" fill="#fe0" fill-rule="evenodd"/></g></g></svg>