<svg xmlns="http://www.w3.org/2000/svg" width="221.496" height="221.496" viewBox="0 0 221.496 221.496"><g transform="translate(-320.73 -0.063)"><g transform="translate(320.73 0.063)" fill="none" stroke="#bc970c" stroke-width="2"><circle cx="110.748" cy="110.748" r="110.748" stroke="none"/><circle cx="110.748" cy="110.748" r="109.748" fill="none"/></g><path d="M-69.25,0V-17.5H-73.4L-78-10.1l-4.6-7.4h-4.15V0h3.775V-11.35l4.875,7.4h.1l4.925-7.475V0ZM-48,0l-7.5-17.625h-3.55L-66.55,0h3.925l1.6-3.925h7.4L-52.025,0Zm-7-7.325h-4.65L-57.325-13ZM-41.275,0V-17.5h-3.85V0ZM-21.35,0V-17.5h-3.8V-6.725L-33.35-17.5H-36.9V0h3.8V-11.125L-24.625,0ZM-4.5-5.175v-.05c0-3.05-2-4.325-5.55-5.25-3.025-.775-3.775-1.15-3.775-2.3v-.05c0-.85.775-1.525,2.25-1.525a8.212,8.212,0,0,1,4.55,1.725l2-2.9a10.13,10.13,0,0,0-6.5-2.225c-3.575,0-6.125,2.1-6.125,5.275v.05c0,3.475,2.275,4.45,5.8,5.35,2.925.75,3.525,1.25,3.525,2.225v.05c0,1.025-.95,1.65-2.525,1.65a8.028,8.028,0,0,1-5.225-2.125L-18.35-2.55A11.136,11.136,0,0,0-10.925.25C-7.15.25-4.5-1.7-4.5-5.175ZM11.725-13.95V-17.5h-14.5v3.55H2.55V0H6.4V-13.95ZM29.8,0,25.525-6.25a5.435,5.435,0,0,0,3.75-5.425v-.05c0-3.6-2.475-5.775-6.6-5.775h-8V0h3.85V-5.6H21.55L25.3,0ZM25.375-11.475C25.375-10,24.3-9,22.425-9h-3.9v-5.025H22.35c1.875,0,3.025.85,3.025,2.5ZM46.075,0V-3.425h-9.5V-7.1h8.25v-3.425h-8.25v-3.55H45.95V-17.5H32.75V0ZM66.55,0l-7.5-17.625H55.5L48,0h3.925l1.6-3.925h7.4L62.525,0Zm-7-7.325H54.9L57.225-13ZM86.75,0V-17.5H82.6L78-10.1l-4.6-7.4H69.25V0h3.775V-11.35L77.9-3.95H78l4.925-7.475V0ZM-20.5,13.05V9.5H-35v3.55h5.325V27h3.85V13.05ZM-2.75,27l-7.5-17.625H-13.8L-21.3,27h3.925l1.6-3.925h7.4L-6.775,27Zm-7-7.325H-14.4L-12.075,14ZM15.5,27V9.5H11.7V20.275L3.5,9.5H-.05V27h3.8V15.875L12.225,27Zm20.125,0-7.45-10.075L35.3,9.5H30.65l-7.1,7.65V9.5H19.7V27h3.85V21.65l2.025-2.1L31,27Z" transform="translate(430.926 106.186)" fill="#b4932a"/></g></svg>