<svg xmlns="http://www.w3.org/2000/svg" width="221.496" height="221.496" viewBox="0 0 221.496 221.496"><g transform="translate(-441.464 -468.094)"><g transform="translate(441.464 468.094)" fill="none" stroke="#bc970c" stroke-width="2"><circle cx="110.748" cy="110.748" r="110.748" stroke="none"/><circle cx="110.748" cy="110.748" r="109.748" fill="none"/></g><g transform="translate(494.212 513.204)"><path d="M154.119,80.416V71.15l-39.192.1-1.011,8.234,1.113,8.579h31.038v3.9l-36.137.162-1.194-18.351-1.679,1.275,1.093-6.455-5.686,2.468-12.3.182-1.275,1.862H79.742l2.1,4.673h7.136v1.093H76.423V83.9h2.471l.162-3.055h9.829v2.631l-2.289,1.78-3.723-2.974-2.55,2.387,2.55,4.755L76.6,107.083l3.8-1.7,2.55,7.3-4.917,7.466-3.321,1.963L72.7,127.54H85.831l-.081-4.578L93.9,113.7l3.561,6.88L93.4,123.711l-.688,3.662h15.358l.769-4.512-3.231-6.029,2.893-5.924,14.164-.182,11.958-5-9.166,16.389-4.067.506-.85,4.917H135.39l-.506-5.948,8.64-8.482,5.423,5.26-1.437,3.743-4.653.506-1.78,4.755H154.39l3.3-10.359-4.917-16.652V86.608l-3.4-3.3-30.108.081-.587-3.9.506-4.33,30.108-.182Z" transform="translate(-57.991 -54.72)" fill-rule="evenodd"/><path d="M145.967,411.311h2.752V398.827h-4.047v4.087h1.194c.121,2.611-.061,4.174-.506,4.673-.627.3-1.077.2-1.356-.269a17.186,17.186,0,0,1-.2-2.246c.02-3.642.02-7.27.04-10.906.02-.343.04-.708.081-1.052.283-.749.708-1.051,1.255-.93.466,0,.708.4.728,1.194v2.893h2.813v-4.067a4.291,4.291,0,0,0-2.407-3.783,3.755,3.755,0,0,0-3.44.365,6.074,6.074,0,0,0-2.125,5.24c.02,4.37.02,8.72.04,13.091a7.425,7.425,0,0,0,.87,3.379,2.369,2.369,0,0,0,2.55,1.235c.648-.04,1.235-.708,1.78-2.02-.02.527-.02,1.052-.02,1.6m-50.26,0h2.752V398.827H94.412v4.087h1.194c.121,2.611-.061,4.174-.506,4.673-.627.3-1.077.2-1.356-.269a17.188,17.188,0,0,1-.2-2.246c.02-3.642.02-7.27.04-10.906.02-.344.04-.708.081-1.052.283-.749.708-1.052,1.255-.93.466,0,.708.4.728,1.194v2.893h2.813v-4.067a4.291,4.291,0,0,0-2.407-3.783,3.755,3.755,0,0,0-3.44.365,6.074,6.074,0,0,0-2.125,5.24c.02,4.37.02,8.72.04,13.091a7.425,7.425,0,0,0,.87,3.379,2.37,2.37,0,0,0,2.55,1.235c.648-.04,1.235-.708,1.78-2.02-.02.525-.02,1.052-.02,1.6Zm17.907.04V388.427h3.081v22.888Zm22.317-8.053h-1.437l.749-11.128Zm-5.159,8.012,2.468-22.925h4.007l2.611,22.925h-3.379l-.182-4.088h-2l-.425,4.088Zm-26.2-8.019h-1.437l.749-11.128ZM99.411,411.3l2.473-22.918h4.007l2.611,22.925H105.1l-.182-4.088h-2l-.425,4.088Zm57.6.061h-6.9V388.447h6.836l-.061,4.391h-3.723v4.735l3.055-.061v4.451h-3.116v4.982h3.9Zm-67.9-.061h-6.9V388.386h6.84l-.061,4.391H85.267v4.735l3.055-.061V401.9H85.207v4.982h3.9Zm29.082.04V388.406h4.982l.89,10.44.829-10.44,4.982.061.061,22.864h-3.055V395.246L125.2,411.331h-2.226l-1.571-15.964v15.964H118.19Zm-49.288-.04V388.386h4.982l.89,10.441.829-10.441,4.982.061.061,22.864H77.578V395.226L75.9,411.311H73.674l-1.559-15.963v15.964Z" transform="translate(-54.958 -309.638)" fill="#ed1c24" fill-rule="evenodd"/><path d="M35.163,26.2h87.49a8.976,8.976,0,0,1,8.963,8.943v87.53a8.976,8.976,0,0,1-8.963,8.943H35.163a8.976,8.976,0,0,1-8.963-8.943V35.143A8.976,8.976,0,0,1,35.163,26.2m1.719,2.084h84.051a8.617,8.617,0,0,1,8.6,8.579v84.09a8.617,8.617,0,0,1-8.6,8.579H36.883a8.617,8.617,0,0,1-8.6-8.579V36.863a8.6,8.6,0,0,1,8.6-8.579Z" transform="translate(-20.899 -20.899)" fill="#ed1c24" fill-rule="evenodd"/><path d="M9.854,0h96.291A9.874,9.874,0,0,1,116,9.829v96.357a9.874,9.874,0,0,1-9.854,9.829H9.854A9.874,9.874,0,0,1,0,106.186V9.829A9.874,9.874,0,0,1,9.854,0m1.9,2.289h92.508a9.491,9.491,0,0,1,9.469,9.449v92.546a9.491,9.491,0,0,1-9.469,9.449H11.755a9.491,9.491,0,0,1-9.466-9.449V11.735a9.491,9.491,0,0,1,9.466-9.446Z" fill="#ed1c24" fill-rule="evenodd"/></g><path d="M-23.56-4.14v-.04c0-2.44-1.6-3.46-4.44-4.2-2.42-.62-3.02-.92-3.02-1.84v-.04c0-.68.62-1.22,1.8-1.22a6.569,6.569,0,0,1,3.64,1.38l1.6-2.32a8.1,8.1,0,0,0-5.2-1.78c-2.86,0-4.9,1.68-4.9,4.22v.04c0,2.78,1.82,3.56,4.64,4.28,2.34.6,2.82,1,2.82,1.78v.04c0,.82-.76,1.32-2.02,1.32a6.422,6.422,0,0,1-4.18-1.7l-1.82,2.18A8.909,8.909,0,0,0-28.7.2C-25.68.2-23.56-1.36-23.56-4.14ZM-6.88,0V-14H-10.2l-3.68,5.92L-17.56-14h-3.32V0h3.02V-9.08l3.9,5.92h.08l3.94-5.98V0Zm17,0-6-14.1H1.28L-4.72,0h3.14L-.3-3.14H5.62L6.9,0ZM4.52-5.86H.8L2.66-10.4ZM22.34,0V-2.8H15.36V-14H12.28V0ZM34.72,0V-2.8H27.74V-14H24.66V0Z" transform="translate(554.93 659.48)" fill="#004391"/></g></svg>