<svg xmlns="http://www.w3.org/2000/svg" width="221.496" height="221.496" viewBox="0 0 221.496 221.496"><g transform="translate(-449.928 -468.929)"><g transform="translate(449.928 468.929)" fill="none" stroke="#bc970c" stroke-width="2"><circle cx="110.748" cy="110.748" r="110.748" stroke="none"/><circle cx="110.748" cy="110.748" r="109.748" fill="none"/></g><g transform="translate(494.212 513.204)"><path d="M166,82.14V71.522l-44.911.116-1.159,9.436,1.276,9.831h35.567v4.474l-41.41.185L114,74.535,112.072,76l1.253-7.4-6.515,2.828-14.1.208L91.251,73.77H80.769l2.411,5.355h8.177v1.253H76.966v5.75H79.8l.185-3.5H91.245v3.015l-2.623,2.04-4.266-3.408-2.922,2.735,2.922,5.449L77.174,112.7l4.359-1.947,2.922,8.37-5.634,8.555-3.806,2.249L72.7,136.141H87.747l-.093-5.246L97,120.276l4.081,7.884-4.661,3.593-.788,4.2h17.6l.881-5.17-3.7-6.909,3.316-6.789,16.231-.208,13.7-5.727-10.5,18.781-4.661.58-.974,5.634h17.019l-.58-6.816,9.9-9.72,6.215,6.028-1.646,4.289-5.332.58-2.04,5.449h15.256l3.78-11.871L164.456,105V89.236l-3.9-3.78-34.5.093-.673-4.474.58-4.962,34.5-.208Z" transform="translate(-55.844 -52.695)" fill-rule="evenodd"/><path d="M157.213,414.689h3.154V400.383h-4.638v4.684H157.1c.139,2.992-.069,4.783-.58,5.355-.719.347-1.234.232-1.554-.308a19.694,19.694,0,0,1-.231-2.574c.023-4.173.023-8.331.046-12.5.023-.393.046-.811.093-1.205.324-.858.812-1.2,1.438-1.066.534,0,.812.463.835,1.369v3.316h3.223V392.8a4.917,4.917,0,0,0-2.759-4.335,4.3,4.3,0,0,0-3.942.418,6.96,6.96,0,0,0-2.435,6c.023,5.008.023,9.993.046,15a8.509,8.509,0,0,0,1,3.873,2.715,2.715,0,0,0,2.922,1.415c.742-.046,1.415-.811,2.04-2.314-.023.6-.023,1.205-.023,1.831m-57.595,0h3.154V400.383H98.134v4.684H99.5c.139,2.992-.069,4.783-.58,5.355-.719.347-1.234.231-1.554-.308a19.7,19.7,0,0,1-.231-2.574c.023-4.173.023-8.331.046-12.5.023-.394.046-.812.093-1.205.324-.858.812-1.205,1.438-1.066.534,0,.812.463.835,1.369v3.316h3.223V392.8a4.917,4.917,0,0,0-2.759-4.335,4.3,4.3,0,0,0-3.942.418,6.96,6.96,0,0,0-2.435,6c.023,5.008.023,9.993.046,15a8.509,8.509,0,0,0,1,3.873,2.715,2.715,0,0,0,2.922,1.415c.742-.046,1.415-.812,2.04-2.314-.023.6-.023,1.205-.023,1.832Zm20.52.046v-26.27h3.53v26.228Zm25.574-9.228h-1.646l.858-12.752Zm-5.912,9.181,2.828-26.27h4.591l2.992,26.27h-3.873L146.13,410h-2.3l-.488,4.684ZM109.775,405.5h-1.646l.858-12.752Zm-5.912,9.181,2.834-26.262h4.591l2.992,26.27h-3.9L110.168,410h-2.3l-.488,4.684Zm66.011.07h-7.907V388.488H169.8l-.069,5.031h-4.266v5.426l3.5-.07v5.1h-3.57v5.708h4.474Zm-77.812-.07H84.154V388.418h7.838l-.069,5.031H87.655v5.426l3.5-.069v5.1h-3.57v5.709H92.06Zm33.326.046V388.442H131.1l1.02,11.963.95-11.963,5.709.069.069,26.2h-3.5V396.279l-1.924,18.432h-2.55l-1.8-18.293v18.293h-3.686Zm-56.481-.046V388.418h5.709l1.02,11.965.95-11.965,5.709.07.069,26.2H78.843V396.256L76.92,414.689h-2.55L72.583,396.4V414.69Z" transform="translate(-52.922 -298.179)" fill="#ed1c24" fill-rule="evenodd"/><path d="M36.471,26.2H136.728A10.286,10.286,0,0,1,147,36.448v100.3A10.286,10.286,0,0,1,136.728,147H36.471A10.286,10.286,0,0,1,26.2,136.751V36.448A10.286,10.286,0,0,1,36.471,26.2m1.97,2.388h96.317a9.874,9.874,0,0,1,9.854,9.831v96.362a9.874,9.874,0,0,1-9.854,9.831H38.443a9.874,9.874,0,0,1-9.854-9.831V38.419a9.856,9.856,0,0,1,9.854-9.831Z" transform="translate(-20.126 -20.126)" fill="#ed1c24" fill-rule="evenodd"/><path d="M11.292,0H121.635a11.315,11.315,0,0,1,11.292,11.263V121.682a11.315,11.315,0,0,1-11.292,11.263H11.292A11.315,11.315,0,0,1,0,121.682V11.263A11.315,11.315,0,0,1,11.292,0m2.179,2.623H119.478a10.876,10.876,0,0,1,10.851,10.828V119.5a10.876,10.876,0,0,1-10.851,10.828H13.471A10.876,10.876,0,0,1,2.623,119.5V13.447A10.876,10.876,0,0,1,13.471,2.623Z" fill="#ed1c24" fill-rule="evenodd"/></g></g></svg>