<svg xmlns="http://www.w3.org/2000/svg" xmlns:xlink="http://www.w3.org/1999/xlink" width="221.496" height="221.496" viewBox="0 0 221.496 221.496"><defs><linearGradient id="a" y1="0.5" x2="1" y2="0.5" gradientUnits="objectBoundingBox"><stop offset="0" stop-color="#ffde7a"/><stop offset="1" stop-color="#8d641e"/></linearGradient></defs><g transform="translate(34.712 47.843)"><g transform="translate(-34.712 -47.843)" fill="none" stroke="#bc970c" stroke-width="2"><circle cx="110.748" cy="110.748" r="110.748" stroke="none"/><circle cx="110.748" cy="110.748" r="109.748" fill="none"/></g><path d="M308.512,321.447a10.856,10.856,0,1,1,0-.005Zm-6.457,0a4.4,4.4,0,1,0-4.405,4.394h0a4.4,4.4,0,0,0,4.4-4.391v0Zm60.717,0a10.857,10.857,0,1,1-10.859-10.859,10.858,10.858,0,0,1,10.859,10.859Zm-6.457,0a4.4,4.4,0,1,0-4.405,4.394h0a4.4,4.4,0,0,0,4.409-4.391v0Zm-7.862-72.2a33.769,33.769,0,0,0,10.518,7.387l-6.68-.427-.195,8.261,12.8.393.583-6.074a33.725,33.725,0,0,0,8.966.753l-2.206,22.913a2.567,2.567,0,0,1-2.553,2.321H292.177l-7.308,12.59a1.55,1.55,0,0,0,.555,2.121l.009.005a1.581,1.581,0,0,0,.778.211h80.9a2.3,2.3,0,0,1,1.772.827l4.366,5.233a4.288,4.288,0,0,1-6.586,5.493h0l-1.449-1.733a2.3,2.3,0,0,0-1.772-.833H285.875a10.558,10.558,0,0,1-8.959-15.551l4.983-8.58-12.776-66.394a11.071,11.071,0,0,0-7.875-8.56l-8.233-2.318a4.5,4.5,0,1,1,2.619-8.606l14.629,4.107a8.995,8.995,0,0,1,6.4,6.962l.845,4.394,61.776,7.308a33.662,33.662,0,0,0,.043,9.062l-11.505-1.361.416,8.093,13.253,1.3a33.916,33.916,0,0,0,2.07,4.217l-15.115-1.476.482,9.425,19.462,1.24ZM303.6,234.833l20.62,2.018-.42-8.176-21.287-2.52Zm-22.534-2.2,18.455,1.807-1.1-8.762-19.127-2.259Zm2.929,15.216,17.348,1.106L300.03,238.5l-18.175-1.772Zm21.407,1.364,19.511,1.24-.489-9.569L304.109,238.9Zm24.2,14.569,18.5.564.195-8.394-19.159-1.221Zm-22.454-.687,18.446.563-.471-9.182-19.208-1.224Zm-20.337-.62,16.293.5L301.846,253l-17.075-1.09Zm77.04,13.3.668-6.928L352,268.47l-.177,7.311Zm-16.017,0,.177-7.433-18.2-.556.408,7.992h17.619Zm-21.618,0-.413-8.112-18.147-.556,1.086,8.67H326.2Zm-21.5,0-1.1-8.791-16.035-.494,1.784,9.278Zm96.012-49.97a27.944,27.944,0,1,0-27.949,27.944,27.943,27.943,0,0,0,27.949-27.944v0Zm-2.327,0a25.617,25.617,0,1,1-25.623-25.617,25.618,25.618,0,0,1,25.623,25.617Z" transform="translate(-249.825 -197.868)" fill="url(#a)"/><path d="M20.384,0V-18.2H16.068l-4.784,7.7L6.5-18.2H2.184V0H6.11V-11.8l5.07,7.7h.1l5.122-7.774V0ZM38.532-14.508V-18.2H23.452v3.692H28.99V0h4V-14.508Z" transform="translate(102.256 36.288)" fill="#b4932a"/></g></svg>