<svg xmlns="http://www.w3.org/2000/svg" width="221.496" height="221.496" viewBox="0 0 221.496 221.496"><g transform="translate(-750.878 -243.771)"><g transform="translate(750.878 243.771)" fill="none" stroke="#bc970c" stroke-width="2"><circle cx="110.748" cy="110.748" r="110.748" stroke="none"/><circle cx="110.748" cy="110.748" r="109.748" fill="none"/></g><g transform="translate(763.894 331.601)"><path d="M297.257,53.9H289.9c-.041-.781-.082-1.439-.123-2.1,0-3.905-.206-7.811.041-11.716.288-4.728-3.659-5.673-6.742-3.823a11.5,11.5,0,0,0-1.192.946V53.777c-2.508.493-4.81.164-7.235.247a16.713,16.713,0,0,1-.247-1.685V22.327a10.5,10.5,0,0,1,.164-1.4c2.425-.206,4.892-.082,7.564-.082v10.36a40.9,40.9,0,0,1,4.892-1.521,13.659,13.659,0,0,1,4.481,0c3.741.658,5.673,3.042,5.838,6.824.082,2.384.041,4.81.041,7.194v8.016C297.38,52.379,297.3,53.037,297.257,53.9Z" transform="translate(-163.198 -13.941)" fill="#e30613"/><path d="M153.447,43a67.872,67.872,0,0,1,7.112-.082c.041.863.123,1.6.123,2.3V56.114a20.839,20.839,0,0,0,.123,2.261,3.543,3.543,0,0,0,4.563,3.165,5.185,5.185,0,0,0,3.248-1.891V42.959c2.59-.164,4.933-.082,7.441-.041V66.8a24.074,24.074,0,0,1-5.714.123c-.288-.781-.534-1.439-.822-2.22a3.084,3.084,0,0,0-.74.329A11.205,11.205,0,0,1,158.75,67.3a6.419,6.419,0,0,1-5.385-5.714,11.073,11.073,0,0,1-.123-1.644c0-5.262-.041-10.565-.041-15.827A9.511,9.511,0,0,0,153.447,43Z" transform="translate(-91.823 -26.926)" fill="#e30613"/><path d="M404.828,42.354h5.714c.247.822.493,1.562.781,2.467.452-.288.781-.493,1.11-.74a11.654,11.654,0,0,1,10.524-1.809c2.672.74,3.988,2.754,4.44,5.385a16.619,16.619,0,0,1,.206,2.467V64.512c0,.534-.123,1.069-.164,1.521a18.988,18.988,0,0,1-7.153.041c-.041-.658-.082-1.4-.082-2.138V53.042a17.181,17.181,0,0,0-.082-2.056,3.637,3.637,0,0,0-4.6-3.165,5.217,5.217,0,0,0-3.207,1.85V66.156a47.424,47.424,0,0,1-7.194.164C404.54,64.8,404.375,45.355,404.828,42.354Z" transform="translate(-239.853 -26.28)" fill="#e30613"/><path d="M237.259,43.664c-.329,1.85-.658,3.7-1.028,5.755a10.112,10.112,0,0,0-1.316-.452,15.733,15.733,0,0,0-2.384-.658c-2.425-.329-4.728-.082-6.331,1.973s-1.6,4.44-.7,6.824c1.069,2.878,4.07,3.741,6.578,3.371a45.519,45.519,0,0,0,4.645-1.192c.288,1.48.617,2.919.863,4.4a10.621,10.621,0,0,1,0,1.151,7.155,7.155,0,0,1-1.357.74,18.888,18.888,0,0,1-11.264.946,9.479,9.479,0,0,1-7.523-8.058,20.011,20.011,0,0,1,.247-8.962,9.813,9.813,0,0,1,7.975-7.359,19.653,19.653,0,0,1,10.113.658c.329.123.658.247.946.37C236.889,43.253,236.971,43.376,237.259,43.664Z" transform="translate(-129.427 -26.275)" fill="#e30613"/><path d="M72.251,23.071a11.436,11.436,0,0,1-4.851-.123c2.467-6.166,5.221-12.086,8.016-18.047H86.228c.822,1.768,1.644,3.535,2.467,5.262-2.1,1.4-3.988,2.672-6.043,4.07-.534-1.028-1.11-2.138-1.891-3.659a40.454,40.454,0,0,0-1.891,4.563,10.737,10.737,0,0,1-4.563,6.29C73.608,21.92,72.95,22.536,72.251,23.071Z" transform="translate(-41.295 -4.571)" fill="#e30613"/><path d="M3.9,18.447c1.028-4.892,2.014-9.538,3-14.306h3.741c.288,3.535.534,7.03.822,10.524.123.041.288.041.411.082,2.055-3.453,3.577-7.153,5.55-10.647h3.905c-1.028,4.851-2.056,9.579-3.083,14.347H15.822c.74-3.577,1.48-7.03,2.179-10.524-.123-.041-.247-.123-.37-.164-1.973,3.453-3.577,7.112-5.509,10.689H9.738C9.2,14.994,9.2,11.5,8.792,7.964,7.559,11.376,7.23,14.953,6.2,18.447Z" transform="translate(-3.9 -4.1)" fill="#e30613"/><path d="M133.08,79.663h-9.25q-1.665-4.5-3.33-9.126c1.316-.987,2.672-1.809,3.782-2.837a37.557,37.557,0,0,0,3-3.7C129.215,69.18,131.106,74.278,133.08,79.663Z" transform="translate(-72.566 -39.375)" fill="#e30613"/><path d="M52.271,78h9.085c-1.069,3.371-2.1,6.578-3.124,9.825H48.9C50.051,84.536,51.161,81.33,52.271,78Z" transform="translate(-30.401 -47.62)" fill="#e30613"/><path d="M43.782,28.5c-.041-.411-.041-.9-.082-1.4a10.983,10.983,0,0,0,2.467-.946,9.726,9.726,0,0,0,1.686-1.973c-.534-3.782-1.069-7.441-1.6-11.182h2.508c.288,2.467.617,4.933.9,7.4h.37c1.192-2.425,2.343-4.892,3.577-7.4h2.631c-.164.452-.206.863-.37,1.192-1.973,3.741-3.988,7.482-6,11.223a7.607,7.607,0,0,1-1.028,1.521C47.482,28.54,46.167,28.951,43.782,28.5Z" transform="translate(-27.338 -9.341)" fill="#e30613"/><path d="M115.587,89.822c-.37.123-.576.206-.74.247a4.673,4.673,0,0,1-1.028-.041c-.946-2.631-1.932-5.3-2.919-8.14.576-.082,1.028-.164,1.686-.288C113.613,84.354,114.6,87.068,115.587,89.822Z" transform="translate(-66.912 -49.74)" fill="#e30613"/><g transform="translate(0 0)"><path d="M48.9,87.925h9.332c1.028-3.248,2.055-6.454,3.124-9.825H52.271C51.161,81.389,50.051,84.6,48.9,87.925Z" transform="translate(-30.401 -47.679)" fill="#e30613"/><path d="M73.767,45.126c4.44-.534,7.975-2.549,9.825-6.7A70.065,70.065,0,0,0,86.1,31.272c.411-1.357.658-2.8.946-4.111.9-.493,1.686-.946,2.754-1.521-1.274-.082-2.138-.164-2.878-.206-3.782-3.494-7.03-3.659-11.1-.617-.863.658-1.727,1.357-2.59,2.055-2.878,2.384-5.838,4.769-8.633,7.235a6.869,6.869,0,0,1-5.015,1.85c-2.713-.123-5.468-.041-8.222-.041a14.5,14.5,0,0,0-1.562.164c.576.9.946,1.644,1.439,2.261,1.151,1.48,2.96,1.809,4.851,2.343-.781.946-1.4,1.686-2.261,2.754,4.234-.123,8.1.123,12-.247a15.018,15.018,0,0,0,11.223-6.372c.37-.493.781-.987,1.151-1.48a9.391,9.391,0,0,1-3,5.468,67.07,67.07,0,0,1-5.344,4.07c1.192,3.33,2.425,6.865,3.7,10.442h1.727c-.863-3.412-2.467-6.454-3.248-9.907A10.057,10.057,0,0,1,73.767,45.126ZM82.4,25.352c-.164.617-.329,1.233-.493,1.809,1.069.781,1.151-.493,1.727-.576.206,1.562-.329,2.3-1.6,2.343a1.858,1.858,0,0,1-1.973-1.891C80.057,25.846,80.961,25.229,82.4,25.352Z" transform="translate(-30.931 -15.034)" fill="#e30613"/><path d="M110.9,81.888c1.028,2.837,1.973,5.509,2.919,8.14a10.076,10.076,0,0,0,1.028.041,3.024,3.024,0,0,0,.74-.247c-.987-2.754-2.014-5.468-3-8.222C111.928,81.682,111.517,81.764,110.9,81.888Z" transform="translate(-66.912 -49.74)" fill="#e30613"/><path d="M72.31,23.012a26.865,26.865,0,0,1,2.1-1.686,10.737,10.737,0,0,0,4.563-6.29,43.859,43.859,0,0,1,1.891-4.563c.781,1.521,1.357,2.59,1.891,3.659,2.056-1.357,3.947-2.672,6.043-4.07-.781-1.727-1.644-3.494-2.467-5.262-3.659.082-7.194.082-10.812.082-2.8,5.961-5.55,11.881-8.016,18.047A11.206,11.206,0,0,0,72.31,23.012Z" transform="translate(-41.354 -4.512)" fill="#e30613"/><path d="M48.739,26.936a9.861,9.861,0,0,0,1.028-1.521c2.014-3.741,3.988-7.482,6-11.223A5.875,5.875,0,0,0,56.139,13H53.507c-1.192,2.508-2.384,4.933-3.577,7.4h-.37c-.288-2.467-.617-4.933-.9-7.4H46.149c.534,3.782,1.069,7.4,1.6,11.223A9.727,9.727,0,0,1,46.067,26.2a9.317,9.317,0,0,1-2.467.946c.041.534.041.987.082,1.4C46.108,28.951,47.423,28.54,48.739,26.936Z" transform="translate(-27.279 -9.341)" fill="#e30613"/><path d="M17.425,4.1c-1.973,3.494-3.535,7.194-5.55,10.647-.123-.041-.288-.041-.411-.082-.288-3.494-.534-6.989-.822-10.524H6.9c-1.028,4.769-1.973,9.414-3,14.306H6.2c1.028-3.494,1.357-7.071,2.59-10.483.411,3.535.411,7.03.946,10.483h2.384c1.932-3.577,3.577-7.235,5.509-10.689.123.041.247.123.37.164-.74,3.494-1.439,6.989-2.179,10.524h2.425c1.028-4.769,2.014-9.5,3.083-14.347Z" transform="translate(-3.9 -4.1)" fill="#e30613"/><path d="M236.918,59.33a40.619,40.619,0,0,1-4.645,1.192c-2.508.37-5.509-.534-6.578-3.371-.9-2.384-.9-4.769.7-6.824s3.947-2.3,6.331-1.973a17.176,17.176,0,0,1,2.384.658c.37.123.74.247,1.316.452.37-2.014.7-3.864,1.028-5.755-.288-.288-.329-.411-.452-.452a3.77,3.77,0,0,0-.946-.37,19.223,19.223,0,0,0-10.113-.658,9.87,9.87,0,0,0-7.975,7.359,19.423,19.423,0,0,0-.247,8.962,9.479,9.479,0,0,0,7.523,8.058,18.861,18.861,0,0,0,11.264-.946,7.156,7.156,0,0,0,1.357-.74,10.679,10.679,0,0,0,0-1.151C237.494,62.249,237.206,60.769,236.918,59.33Z" transform="translate(-129.58 -26.319)" fill="#e30613"/><path d="M291.4,29.7a13.659,13.659,0,0,0-4.481,0,36.291,36.291,0,0,0-4.892,1.521V20.866c-2.672.041-5.1-.123-7.564.082a11.313,11.313,0,0,0-.164,1.4v30.01a15.194,15.194,0,0,0,.247,1.686c2.425-.082,4.728.247,7.235-.247V37.228a12.92,12.92,0,0,1,1.192-.946c3.083-1.85,7.03-.9,6.742,3.823-.247,3.905-.041,7.811-.041,11.716,0,.658.082,1.316.123,2.1h7.359c.041-.863.082-1.562.123-2.22V43.682c0-2.384.041-4.81-.041-7.194C297.116,32.706,295.143,30.362,291.4,29.7Z" transform="translate(-163.139 -13.96)" fill="#e30613"/><path d="M427.52,50.084a12.486,12.486,0,0,0-.206-2.467c-.493-2.59-1.809-4.645-4.44-5.385a11.417,11.417,0,0,0-10.524,1.809,10.339,10.339,0,0,1-1.11.74c-.288-.9-.535-1.644-.781-2.467h-5.714c-.411,3.042-.288,22.487.206,23.967a42.539,42.539,0,0,0,7.194-.164V49.632a5.217,5.217,0,0,1,3.207-1.85,3.6,3.6,0,0,1,4.6,3.165A11.321,11.321,0,0,1,420.038,53V63.9c0,.74.082,1.48.082,2.138a18.194,18.194,0,0,0,7.153-.041c.041-.493.164-1.028.164-1.521C427.52,59.663,427.52,54.853,427.52,50.084Z" transform="translate(-239.812 -26.24)" fill="#e30613"/><path d="M168.875,43.045V59.735a5.185,5.185,0,0,1-3.248,1.891,3.543,3.543,0,0,1-4.563-3.165,13.656,13.656,0,0,1-.123-2.261V45.306c0-.74-.082-1.439-.123-2.3a67.73,67.73,0,0,0-7.112.082,8.661,8.661,0,0,0-.206,1.151c0,5.262,0,10.565.041,15.827a11.073,11.073,0,0,0,.123,1.644,6.414,6.414,0,0,0,5.385,5.714,11.327,11.327,0,0,0,10.031-2.261,3.084,3.084,0,0,1,.74-.329c.288.781.534,1.439.822,2.22a24.124,24.124,0,0,0,5.714-.123V43.045A64.9,64.9,0,0,0,168.875,43.045Z" transform="translate(-91.999 -26.971)" fill="#e30613"/><path d="M124.282,67.6a33.591,33.591,0,0,1-3.782,2.837q1.727,4.625,3.33,9.126h9.25c-2.014-5.385-3.905-10.442-5.838-15.663A32.355,32.355,0,0,1,124.282,67.6Z" transform="translate(-72.566 -39.316)" fill="#e30613"/></g><path d="M360.766,43.066a32.63,32.63,0,0,0-11.757-1.233c-6.536.617-9.25,4.4-10.031,8.921a35.481,35.481,0,0,0-.329,6.948,16.364,16.364,0,0,0,.863,4.4,6.379,6.379,0,0,0,3.947,4.193c3.741,1.316,7.235,1.028,10.4-1.562a10.552,10.552,0,0,1,.9-.658c.288.863.576,1.562.781,2.179,3.124.329,4.481.247,5.838-.288V43.518A2.019,2.019,0,0,0,360.766,43.066Zm-7.112,16.2a13.72,13.72,0,0,1-1.973,1.316c-2.549,1.069-4.481.164-5.139-2.549a13.261,13.261,0,0,1,.288-7.688c.658-1.932,1.809-2.672,3.905-2.631.945.041,1.85.247,2.96.37C353.654,52.028,353.654,55.563,353.654,59.263Z" transform="translate(-201.013 -26.252)" fill="#e30613"/></g></g></svg>