<svg xmlns="http://www.w3.org/2000/svg" xmlns:xlink="http://www.w3.org/1999/xlink" width="221.496" height="221.496" viewBox="0 0 221.496 221.496"><defs><linearGradient id="a" x1="0.11" y1="0.075" x2="0.898" y2="0.979" gradientUnits="objectBoundingBox"><stop offset="0" stop-color="#ffde7a"/><stop offset="1" stop-color="#8d641e"/></linearGradient></defs><g transform="translate(40.311 52.24)"><g transform="translate(-40.311 -52.24)" fill="none" stroke="#bc970c" stroke-width="2"><circle cx="110.748" cy="110.748" r="110.748" stroke="none"/><circle cx="110.748" cy="110.748" r="109.748" fill="none"/></g><path d="M21.519-9.45V-9.5A9.683,9.683,0,0,0,11.5-19.224,9.773,9.773,0,0,0,1.431-9.45V-9.4A9.683,9.683,0,0,0,11.448.324,9.773,9.773,0,0,0,21.519-9.45ZM17.172-9.4A5.652,5.652,0,0,1,11.5-3.51,5.742,5.742,0,0,1,5.778-9.45V-9.5a5.652,5.652,0,0,1,5.67-5.886,5.742,5.742,0,0,1,5.724,5.94ZM42.012,0V-18.9h-4.1V-7.263L29.052-18.9H25.218V0h4.1V-12.015L38.475,0Z" transform="translate(95.155 106.895)" fill="#b4932a"/><path d="M567.578,422.615a10.248,10.248,0,0,1-19.137,1.216,10.246,10.246,0,0,1-18.682,0,10.24,10.24,0,0,1-18.675,0,10.247,10.247,0,0,1-18.68,0,10.249,10.249,0,0,1-18.682,0,10.246,10.246,0,0,1-18.682,0,10.249,10.249,0,0,1-19.137-1.216l25.6-38.312h80.447Zm-75.339-8.378a.428.428,0,0,1,0-.067l2.553-27.233h-9.617l-7.761,27.62c-1.807,3.8-7.788,3.78-11.775,3.485s-8.022-2.461-7.1-4.175l.021-.046,12.593-26.886h-8.238l-24.074,36a7.62,7.62,0,0,0,13.791-.188,2.626,2.626,0,0,1,4.8,0,7.619,7.619,0,0,0,13.878,0,2.635,2.635,0,0,1,4.806,0,7.61,7.61,0,0,0,13.875,0,2.635,2.635,0,0,1,4.806,0,7.62,7.62,0,0,0,13.876,0,2.633,2.633,0,0,1,4.8,0,7.62,7.62,0,0,0,13.876,0,2.633,2.633,0,0,1,4.8,0,7.619,7.619,0,0,0,13.878,0,2.63,2.63,0,0,1,4.8,0,7.609,7.609,0,0,0,13.784.186l-24.07-36h-8.238l12.6,26.886c.443,1.292-2.009,4.646-7.965,5.385-3.921.485-10.442-2.864-10.9-4.65l-7.758-27.62h-9.616l2.553,27.233c-.33,2.812-4.811,5.36-10.667,5.139C494.5,419.08,492.239,415.408,492.239,414.237Zm23.716,67.195a36.153,36.153,0,0,0,1.976,11.785H451.985V433.661a14.643,14.643,0,0,0,3.393-2.112,14.6,14.6,0,0,0,18.682,0,14.6,14.6,0,0,0,18.68,0,14.6,14.6,0,0,0,18.68,0,14.589,14.589,0,0,0,18.675,0,14.6,14.6,0,0,0,18.682,0,14.642,14.642,0,0,0,3.393,2.112V445.2A36.225,36.225,0,0,0,515.955,481.432Zm-56.4-37.366v36.262a5.7,5.7,0,0,0,5.7,5.706h40.693a5.707,5.707,0,0,0,5.708-5.7h0V444.066a5.712,5.712,0,0,0-5.708-5.706H465.263A5.708,5.708,0,0,0,459.555,444.066Zm122.583,37.67a29.973,29.973,0,1,1-29.98-29.966h0A29.979,29.979,0,0,1,582.138,481.737Zm-2.493,0a27.478,27.478,0,1,0-27.49,27.466h0a27.476,27.476,0,0,0,27.483-27.466Zm-81.261-25.929H493.6v-1.24a4.8,4.8,0,0,0-4.012-8.279,6.39,6.39,0,0,0-9.907-1.565,4.784,4.784,0,0,0-8.452,3.1v.08a3.984,3.984,0,0,0-1.595,7.088v21.588a4.808,4.808,0,0,0,4.793,4.784h14.381a4.807,4.807,0,0,0,4.795-4.784v-1.595h4.784a4.808,4.808,0,0,0,4.793-4.784v-9.6A4.806,4.806,0,0,0,498.384,455.807Zm-7.99,20.773a1.6,1.6,0,0,1-1.595,1.595H474.419a1.6,1.6,0,0,1-1.595-1.595V455.807h6.391a4.793,4.793,0,0,0,9.586,0H490.4Zm0-23.969h-3.19a1.6,1.6,0,0,0-1.595,1.595V455.8a1.6,1.6,0,0,1-1.595,1.595,1.519,1.519,0,0,1-1.134-.5,1.479,1.479,0,0,1-.464-1.1V454.2a1.6,1.6,0,0,0-1.595-1.595h-8.789a.8.8,0,1,1-.106-1.595.525.525,0,0,1,.106,0h.8a1.6,1.6,0,0,0,1.595-1.595v-1.595a1.595,1.595,0,0,1,3.19-.012v1.607a1.595,1.595,0,1,0,3.19.011v-.011a3.19,3.19,0,0,1,6.312-.719,1.612,1.612,0,0,0,.943,1.118,1.6,1.6,0,0,0,1.469-.144,1.658,1.658,0,0,1,.863-.255,1.595,1.595,0,0,1,.012,3.19h-.012Zm9.588,17.578a1.6,1.6,0,0,1-1.595,1.595H493.6V459h4.784a1.6,1.6,0,0,1,1.595,1.595ZM477.241,464.2h.741a1.227,1.227,0,0,1,1.228,1.228v7.132a1.227,1.227,0,0,1-1.228,1.228h-.741a1.227,1.227,0,0,1-1.228-1.228v-7.132A1.227,1.227,0,0,1,477.241,464.2Zm7.99,0h.741a1.227,1.227,0,0,1,1.228,1.228v7.132a1.227,1.227,0,0,1-1.228,1.228h-.741A1.227,1.227,0,0,1,484,472.56v-7.132A1.227,1.227,0,0,1,485.231,464.2Z" transform="translate(-435.903 -384.303)" fill="url(#a)"/></g></svg>