<svg xmlns="http://www.w3.org/2000/svg" xmlns:xlink="http://www.w3.org/1999/xlink" width="221.496" height="221.496" viewBox="0 0 221.496 221.496"><defs><linearGradient id="a" x1="0.072" y1="0.065" x2="0.906" y2="1.077" gradientUnits="objectBoundingBox"><stop offset="0" stop-color="#fee690"/><stop offset="1" stop-color="#9d7700"/></linearGradient></defs><g transform="translate(47.747 47.033)"><g transform="translate(173.75 -47.033) rotate(90)" fill="none" stroke="#bc970c" stroke-width="2"><circle cx="110.748" cy="110.748" r="110.748" stroke="none"/><circle cx="110.748" cy="110.748" r="109.748" fill="none"/></g><path d="M2930.625,3107.161h-109.88a4.765,4.765,0,0,1-4.7-4.7v-83.418a14.338,14.338,0,0,1-3.357-9v-5.24a6.868,6.868,0,0,1,2.014-4.97l17.732-18.134a7.385,7.385,0,0,1,5.1-2.15h76.3a7.287,7.287,0,0,1,5.1,2.15l17.732,18.134a6.872,6.872,0,0,1,2.015,4.97v5.24a13.32,13.32,0,0,1-3.359,9v83.418A4.765,4.765,0,0,1,2930.625,3107.161Zm-29.117-24.483a10.754,10.754,0,0,0-11.07,10.92v.06a11.055,11.055,0,0,0,20.129,6.12l-4.379-3.12a5.735,5.735,0,0,1-4.74,2.551,4.73,4.73,0,0,1-3.607-1.624,6.011,6.011,0,0,1-1.4-3.987v-.06c0-3.164,2.154-5.55,5.01-5.55a5.583,5.583,0,0,1,4.59,2.46l4.38-3.389A10.258,10.258,0,0,0,2901.508,3082.677Zm-42.66,0a11.017,11.017,0,0,0-11.34,10.92v.06a11.318,11.318,0,0,0,22.62-.06v-.06A10.958,10.958,0,0,0,2858.848,3082.677Zm18.54,5.52v15.9h5.82v-15.9h6.3v-5.1h-18.419v5.1ZM2823.7,3023.07v45.807h12.761v-.538l.028-.472c.151-2.591.551-9.472,1.182-11.616a22.071,22.071,0,0,1,3.324-6.717,13.612,13.612,0,0,1,3.249-3.22,8.232,8.232,0,0,1,4.307-1.482l2.956,7.792,1.209-5.1h-.135a.86.86,0,0,1-.806-.805v-1.344a.861.861,0,0,1,.806-.806h1.747a.861.861,0,0,1,.805.806v1.344a.86.86,0,0,1-.805.805h-.134l1.209,4.837,2.955-7.792c3.894.135,7.021,3.261,9.535,5.772.37.31.779.687,1.174,1.051l.006.005a13.334,13.334,0,0,0,1.107.964,5.7,5.7,0,0,0,2.364.359,25.748,25.748,0,0,0,4.621-.494,3.746,3.746,0,0,1,.783-.084,3.263,3.263,0,0,1,3.247,2.637,3.3,3.3,0,0,1-2.552,4.029,29.046,29.046,0,0,1-5.893.658,13.679,13.679,0,0,1-5.39-.926,16.492,16.492,0,0,1-4.3-3.49c-.253-.253-.532-.5-.828-.768l-.01-.008c-.339-.3-.69-.617-1.044-.972l-.269,15.313h32.508c-2.9-1.742-4.566-4.337-4.566-7.12a7.914,7.914,0,0,1,3.76-6.582,1.214,1.214,0,0,0,.806.805l1.343.4-1.477,3.225a1.437,1.437,0,0,0,.134,1.075,1.017,1.017,0,0,0,.941.537.81.81,0,0,0,.536-.134l4.031-2.419,4.164,2.419a.81.81,0,0,0,.536.134,1.131,1.131,0,0,0,.941-.537,1.462,1.462,0,0,0,0-1.075l-1.746-3.09,1.074-.135a1.135,1.135,0,0,0,.941-1.072v0h0a7.864,7.864,0,0,1,4.029,6.715,8.337,8.337,0,0,1-4.568,7.12h9.537l-.806-3.761h2.417a.574.574,0,0,0,.536-.538v-.4a.581.581,0,0,0-.536-.537h-2.687l-1.747-8.732h4.433a.573.573,0,0,0,.536-.537v-.4a.574.574,0,0,0-.536-.538h-4.837l-.267-1.074a2.424,2.424,0,0,1,.511-2,2.3,2.3,0,0,1,1.771-.826h5.1a2.3,2.3,0,0,1,1.77.825,2.429,2.429,0,0,1,.514,2l-1.209,6.178h-3.494a.582.582,0,0,0-.537.537v.4a.573.573,0,0,0,.537.537h3.225l-1.881,8.866h11.283V3023.07a3.72,3.72,0,0,1-1.208.135l-.248,0a12.792,12.792,0,0,1-9.019-3.676,5.249,5.249,0,1,0-7.457-.021,12.627,12.627,0,1,0-25.253,0,12.627,12.627,0,1,0-25.254,0,18.545,18.545,0,0,0-34.114,3.7c-.154,0-.314,0-.476-.009a3.689,3.689,0,0,1-.6-.067A3.692,3.692,0,0,0,2823.7,3023.07Zm21.9,31.7a12.639,12.639,0,0,0-1.478,3.089c-.258,1.164-.657,6.236-.94,10.746v.268h2.687l-.269-14.1Zm13.253,44.494a5.176,5.176,0,0,1-3.878-1.7,5.871,5.871,0,0,1-1.493-3.971v-.06a5.346,5.346,0,0,1,5.31-5.611,5.218,5.218,0,0,1,3.9,1.7,5.857,5.857,0,0,1,1.5,3.971v.06a5.811,5.811,0,0,1-1.466,3.941A5.166,5.166,0,0,1,2858.848,3099.267Zm44.6-39.084a.119.119,0,0,1-.087-.037l-4.433-2.687h-.269l-4.3,2.687a.12.12,0,0,1-.088.036.25.25,0,0,1-.2-.153.133.133,0,0,1,.023-.153l1.747-3.9c0-.132,0-.269-.135-.269l-2.149-.536a.2.2,0,0,1,0-.4,35.266,35.266,0,0,1,4.3-.806,29.906,29.906,0,0,1,.672-3.628c.066-.264.6-.4,1.091-.4.4,0,.7.085.789.223a.174.174,0,0,1,0,.179,16.518,16.518,0,0,0-.806,3.628,26.252,26.252,0,0,1,4.029.806.2.2,0,1,1,0,.4l-2.014.4c-.135,0-.135.136-.135.268l2.149,4.029a.133.133,0,0,1,.023.153A.25.25,0,0,1,2903.444,3060.183ZM2918,3048.728h-5.373l-1.746-3.626c-.134,0-.134-.137-.134-.269a.861.861,0,0,1,.806-.805,1.008,1.008,0,0,1,.537.268l1.747,2.149.537-3.09a.848.848,0,0,1,.805-.671h.134a.753.753,0,0,1,.806.671l.537,3.09,1.746-2.149a.7.7,0,0,1,.537-.268.811.811,0,0,1,.643.37.834.834,0,0,1,.163.705l-1.747,3.625Zm-64.612-5.91a7.925,7.925,0,1,1,7.925-7.926A7.935,7.935,0,0,1,2853.386,3042.817Z" transform="translate(-2812.684 -2979.549)" fill="url(#a)"/></g></svg>