<svg xmlns="http://www.w3.org/2000/svg" xmlns:xlink="http://www.w3.org/1999/xlink" width="221.496" height="221.496" viewBox="0 0 221.496 221.496"><defs><linearGradient id="a" x1="-0.164" x2="0.806" y2="1" gradientUnits="objectBoundingBox"><stop offset="0" stop-color="#fee690"/><stop offset="1" stop-color="#9d7700"/></linearGradient></defs><g transform="translate(-925.38 -745.636)"><g transform="translate(925.38 745.636)" fill="none" stroke="#bc970c" stroke-width="2"><circle cx="110.748" cy="110.748" r="110.748" stroke="none"/><circle cx="110.748" cy="110.748" r="109.748" fill="none"/></g><g transform="translate(1011.678 792.955)"><path d="M7.515,81.778A7.515,7.515,0,0,1,0,74.263V7.515A7.515,7.515,0,0,1,7.515,0H59.8a7.629,7.629,0,0,1,7.629,7.628v16L61.778,33.666V14.694l-.1-4.8a4.33,4.33,0,0,0-4.329-4.241H9.984a4.33,4.33,0,0,0-4.33,4.33v61.81a4.33,4.33,0,0,0,4.33,4.33H57.449a4.331,4.331,0,0,0,4.33-4.33V69.488c1.706-1.222,3.414-2.44,5.114-3.677a6.627,6.627,0,0,0,.54-.452v8.9a7.516,7.516,0,0,1-7.516,7.515ZM53.093,70.265a2.016,2.016,0,0,1-.832-2.189c.311-3.861.58-7.724.9-11.584a4.059,4.059,0,0,1,.5-1.592L72.479,21.491a3.69,3.69,0,0,1,4.944-1.448l6.007,3.188a3.691,3.691,0,0,1,1.485,5.07l-18.9,33.55a4.194,4.194,0,0,1-1.1,1.254c-3.132,2.277-6.3,4.507-9.438,6.776a2.682,2.682,0,0,1-1.517.641A1.691,1.691,0,0,1,53.093,70.265Zm2.051-9.156-.1,2.32,3.035,1.709c1.456-1.021,2.9-2.067,4.3-3.079l-7-3.987Q55.262,59.591,55.144,61.109Zm6.691-2.658,1.448.937c4.534-8.034,9.02-15.982,13.5-23.925-.417-.256-.951-.586-1.5-.926ZM74.469,22.92c-1.138,1.975-2.242,3.971-3.328,5.9l8.131,4.6c1.089-1.947,2.218-3.928,3.311-5.929A1.488,1.488,0,0,0,82,25.3q-2.651-1.552-5.352-3.015a1.807,1.807,0,0,0-.858-.24A1.524,1.524,0,0,0,74.469,22.92ZM9.444,57.707A7.461,7.461,0,1,1,16.9,65.168,7.469,7.469,0,0,1,9.444,57.707Zm3.223,0A4.237,4.237,0,1,0,16.9,53.469,4.243,4.243,0,0,0,12.667,57.707Zm17.412,4.751a1.653,1.653,0,0,1,0-3.306H46.955a1.653,1.653,0,0,1,0,3.306Zm0-6.2a1.653,1.653,0,0,1,0-3.306H50.916l-.17.3a7.431,7.431,0,0,0-.917,2.953c0,.016,0,.033-.006.051ZM14,44.448,10.59,41.041a2.115,2.115,0,1,1,2.99-2.99l1.907,1.907,4.739-4.814a2.115,2.115,0,1,1,3,2.985l-6.232,6.315a2.115,2.115,0,0,1-2.994,0Zm16.083.1a1.654,1.654,0,0,1,0-3.307H46.955a1.654,1.654,0,0,1,0,3.307Zm0-6.2a1.653,1.653,0,0,1,0-3.306H56.337a1.653,1.653,0,1,1,0,3.306ZM13.995,26.535,10.589,23.13a2.115,2.115,0,0,1,2.992-2.99l1.906,1.906,4.74-4.813a2.115,2.115,0,1,1,2.994,2.986l-6.231,6.314a2.114,2.114,0,0,1-2.995,0Zm16.084.1a1.653,1.653,0,0,1,0-3.306H46.955a1.653,1.653,0,0,1,0,3.306Zm0-6.2a1.653,1.653,0,0,1,0-3.307H56.337a1.653,1.653,0,1,1,0,3.307Z" transform="translate(-12.928 -8.154)" fill="url(#a)"/></g><path d="M-47.515-11.856v-.052c0-3.718-2.626-6.292-6.968-6.292h-7.436V0h4V-5.46h3.042C-50.791-5.46-47.515-7.644-47.515-11.856Zm-4.056.078c0,1.56-1.17,2.756-3.172,2.756h-3.172v-5.564h3.094c2,0,3.25.962,3.25,2.756ZM-28.821,0l-4.446-6.5a5.652,5.652,0,0,0,3.9-5.642v-.052c0-3.744-2.574-6.006-6.864-6.006h-8.32V0h4V-5.824H-37.4L-33.5,0Zm-4.6-11.934c0,1.534-1.118,2.574-3.068,2.574h-4.056v-5.226h3.978c1.95,0,3.146.884,3.146,2.6ZM-21.567,0V-18.2h-4V0ZM-.845,0V-18.2H-4.8V-6.994L-13.325-18.2h-3.692V0h3.952V-11.57L-4.251,0ZM19.513-2.938,16.965-5.512A6.569,6.569,0,0,1,12.181-3.38C9.061-3.38,6.9-5.98,6.9-9.1v-.052a5.392,5.392,0,0,1,5.278-5.668,6.717,6.717,0,0,1,4.654,2.054L19.383-15.7a9.39,9.39,0,0,0-7.176-2.808A9.25,9.25,0,0,0,2.717-9.1v.052A9.187,9.187,0,0,0,12.051.312,9.3,9.3,0,0,0,19.513-2.938ZM26.9,0V-18.2h-4V0ZM45.851-11.856v-.052c0-3.718-2.626-6.292-6.968-6.292H31.447V0h4V-5.46h3.042C42.575-5.46,45.851-7.644,45.851-11.856Zm-4.056.078c0,1.56-1.17,2.756-3.172,2.756H35.451v-5.564h3.094c2,0,3.25.962,3.25,2.756ZM53,0V-18.2H49V0Zm8.736,0V-18.2h-4V0ZM-50.024,23l-7.8-18.33h-3.692L-69.316,23h4.082l1.664-4.082h7.7L-54.21,23Zm-7.28-7.618H-62.14l2.418-5.9Zm25.012-.312V4.8h-4V15.226c0,2.886-1.482,4.368-3.926,4.368s-3.926-1.534-3.926-4.5V4.8h-4V15.2c0,5.356,2.99,8.086,7.878,8.086S-32.292,20.582-32.292,15.07ZM-11.44,13.9v-.052c0-5.122-3.952-9.048-9.672-9.048h-7.1V23h7.1C-15.392,23-11.44,19.022-11.44,13.9Zm-4.186.052a5.186,5.186,0,0,1-5.486,5.434h-3.094V8.414h3.094A5.227,5.227,0,0,1-15.626,13.9ZM-3.692,23V4.8h-4V23ZM14.638,8.492V4.8H-.442V8.492H5.1V23h4V8.492ZM33.1,23,25.3,4.67H21.606L13.806,23h4.082l1.664-4.082h7.7L28.912,23Zm-7.28-7.618H20.982L23.4,9.48ZM51.636,23,47.19,16.5a5.652,5.652,0,0,0,3.9-5.642v-.052c0-3.744-2.574-6.006-6.864-6.006h-8.32V23h4V17.176h3.146L46.956,23Zm-4.6-11.934c0,1.534-1.118,2.574-3.068,2.574H39.91V8.414h3.978c1.95,0,3.146.884,3.146,2.6ZM68.562,23V19.438h-9.88V15.616h8.58V12.054h-8.58V8.362h9.75V4.8H54.7V23Z" transform="translate(1037.01 904.902)" fill="#b4932a"/></g></svg>