<svg xmlns="http://www.w3.org/2000/svg" width="221.496" height="221.496" viewBox="0 0 221.496 221.496"><g transform="translate(-319.704 59.938)"><g transform="translate(319.704 -59.938)" fill="none" stroke="#bc970c" stroke-width="2"><circle cx="110.748" cy="110.748" r="110.748" stroke="none"/><circle cx="110.748" cy="110.748" r="109.748" fill="none"/></g><path d="M-25.612-11.4v-.05c0-3.575-2.525-6.05-6.7-6.05h-7.15V0h3.85V-5.25h2.925C-28.763-5.25-25.612-7.35-25.612-11.4Zm-3.9.075c0,1.5-1.125,2.65-3.05,2.65h-3.05v-5.35h2.975c1.925,0,3.125.925,3.125,2.65ZM-7.462,0l-7.5-17.625h-3.55L-26.012,0h3.925l1.6-3.925h7.4L-11.487,0Zm-7-7.325h-4.65L-16.787-13ZM7.813,0V-3.5H-.912v-14h-3.85V0ZM24.038,0V-3.425h-9.5V-7.1h8.25v-3.425h-8.25v-3.55h9.375V-17.5h-13.2V0ZM40.713-13.95V-17.5h-14.5v3.55h5.325V0h3.85V-13.95ZM-33.05,27V23.5h-8.725V9.5h-3.85V27Zm19.95,0L-20.6,9.375h-3.55L-31.65,27h3.925l1.6-3.925h7.4l1.6,3.925Zm-7-7.325h-4.65L-22.425,14Zm29.85,2.15v-.05c0-3.05-2-4.325-5.55-5.25-3.025-.775-3.775-1.15-3.775-2.3v-.05c0-.85.775-1.525,2.25-1.525a8.212,8.212,0,0,1,4.55,1.725l2-2.9a10.13,10.13,0,0,0-6.5-2.225C-.85,9.25-3.4,11.35-3.4,14.525v.05c0,3.475,2.275,4.45,5.8,5.35,2.925.75,3.525,1.25,3.525,2.225v.05c0,1.025-.95,1.65-2.525,1.65a8.028,8.028,0,0,1-5.225-2.125L-4.1,24.45a11.136,11.136,0,0,0,7.425,2.8C7.1,27.25,9.75,25.3,9.75,21.825ZM30.925,18.25V18.2a8.966,8.966,0,0,0-9.275-9,9.049,9.049,0,0,0-9.325,9.05v.05a8.966,8.966,0,0,0,9.275,9A9.049,9.049,0,0,0,30.925,18.25ZM26.9,18.3a5.234,5.234,0,0,1-5.25,5.45,5.317,5.317,0,0,1-5.3-5.5V18.2a5.234,5.234,0,0,1,5.25-5.45,5.317,5.317,0,0,1,5.3,5.5ZM46.925,27V23.5H38.2V9.5H34.35V27Z" transform="translate(429.802 45.973)" fill="#b4932a"/></g></svg>