<svg xmlns="http://www.w3.org/2000/svg" xmlns:xlink="http://www.w3.org/1999/xlink" width="221.496" height="221.496" viewBox="0 0 221.496 221.496"><defs><linearGradient id="a" x1="0.5" y1="0.1" x2="1.158" y2="1" gradientUnits="objectBoundingBox"><stop offset="0" stop-color="#fee690"/><stop offset="1" stop-color="#9d7700"/></linearGradient></defs><g transform="translate(-319.704)"><g transform="translate(319.704)" fill="none" stroke="#bc970c" stroke-width="2"><circle cx="110.748" cy="110.748" r="110.748" stroke="none"/><circle cx="110.748" cy="110.748" r="109.748" fill="none"/></g><g transform="translate(353.465 27.453)"><path d="M29.691,61.1a1.6,1.6,0,0,0-.19.053c-.062.02-.124.043-.188.062-.132.035-.266.069-.4.105a3.738,3.738,0,0,0-.386.132c-.068.031-.129.063-.189.1s-.12.07-.183.1c-.119.059-.237.115-.352.175a3.6,3.6,0,0,0-.342.2,1.208,1.208,0,0,0-.167.13c-.052.046-.1.094-.159.136-.1.077-.206.153-.309.232a2.881,2.881,0,0,0-.293.258.968.968,0,0,0-.068.079c-.022.026-.041.053-.061.077L19.925,69.42,13.441,75.9a6.178,6.178,0,0,0,8.734,8.74l1.279-1.281,1.278-1.279v14.76a6.179,6.179,0,0,0,12.358,0l0-10.169,0-4.6,1.274,1.275,1.274,1.274a6.178,6.178,0,0,0,8.74-8.733l-6.532-6.53-6.527-6.53A6.941,6.941,0,0,0,34.314,62a.9.9,0,0,0-.091-.046.731.731,0,0,1-.09-.049c-.138-.085-.283-.171-.43-.248s-.3-.151-.452-.214a2.162,2.162,0,0,0-.214-.07c-.075-.021-.148-.038-.22-.063-.119-.04-.234-.08-.353-.119a3.41,3.41,0,0,0-.36-.094c-.174-.033-.35-.058-.525-.077s-.353-.025-.53-.028l-.069-.007c-.022,0-.046-.007-.074-.01v0h0a5.875,5.875,0,0,0-.608.032Q29.992,61.038,29.691,61.1Z" transform="translate(0 13.195)" fill="url(#a)"/><path d="M96.269,23.064a1.689,1.689,0,0,0-.053-.192c-.02-.062-.042-.124-.061-.188-.036-.132-.07-.267-.105-.4a3.873,3.873,0,0,0-.133-.387c-.031-.068-.063-.129-.1-.188s-.07-.12-.1-.184c-.061-.116-.116-.235-.177-.351a3.515,3.515,0,0,0-.2-.344,1.394,1.394,0,0,0-.129-.167,2.056,2.056,0,0,1-.136-.159c-.077-.105-.154-.209-.234-.309a3.214,3.214,0,0,0-.258-.3.963.963,0,0,0-.079-.065c-.026-.022-.053-.042-.077-.061l-6.483-6.485L81.461,6.809a6.18,6.18,0,0,0-8.744,8.737L74,16.824,75.276,18.1H71.922l-11.4,0a6.18,6.18,0,0,0,0,12.36l10.169,0,4.6,0-1.277,1.275-1.274,1.274a6.178,6.178,0,0,0,8.733,8.74L88,35.22l6.531-6.527a6.07,6.07,0,0,0,.441-.483c.14-.168.273-.344.393-.521a.9.9,0,0,0,.046-.091.777.777,0,0,1,.051-.091c.084-.137.169-.284.247-.429s.151-.3.214-.454a1.964,1.964,0,0,0,.07-.214c.02-.075.038-.148.063-.22.041-.117.082-.235.119-.355a3.415,3.415,0,0,0,.1-.36c.032-.173.056-.35.077-.523s.025-.355.028-.531c0-.026,0-.047.007-.072s.009-.046.01-.073h0c0-.2-.011-.4-.032-.608S96.307,23.262,96.269,23.064Z" transform="translate(10.069 0)" fill="url(#a)"/><path d="M52.293,24.745c-.065-.019-.13-.037-.2-.051s-.13-.025-.19-.04c-.132-.035-.268-.075-.4-.109s-.261-.059-.4-.078c-.075-.006-.142-.01-.21-.01s-.14,0-.213,0c-.13-.006-.261-.019-.391-.022a3.846,3.846,0,0,0-.4,0,1.163,1.163,0,0,0-.21.03c-.07.014-.14.028-.208.037-.13.015-.258.028-.384.051a2.938,2.938,0,0,0-.386.074c-.033.01-.063.025-.094.036s-.063.026-.091.037l-8.86,2.37-8.858,2.374a6.179,6.179,0,0,0,3.2,11.937l1.745-.471,1.745-.468-1.674,2.9-5.7,9.879a6.18,6.18,0,0,0,10.7,6.18L45.906,50.6l2.3-3.985.468,1.744.466,1.74A6.177,6.177,0,0,0,61.08,46.9L58.685,37.98,56.3,29.062c-.056-.209-.124-.419-.2-.624a6.232,6.232,0,0,0-.258-.6.967.967,0,0,0-.053-.084.453.453,0,0,1-.056-.089c-.077-.142-.162-.289-.248-.429s-.183-.281-.283-.412a1.944,1.944,0,0,0-.152-.168c-.053-.056-.106-.108-.157-.164-.082-.1-.164-.187-.248-.281a3.315,3.315,0,0,0-.266-.261c-.132-.115-.276-.225-.415-.329s-.294-.2-.441-.289l-.061-.042c-.017-.011-.036-.028-.058-.044v0h0a6.03,6.03,0,0,0-.542-.276A5.862,5.862,0,0,0,52.293,24.745Z" transform="translate(3.442 4.581)" fill="url(#a)"/></g><path d="M-17.675-11.4v-.05c0-3.575-2.525-6.05-6.7-6.05h-7.15V0h3.85V-5.25h2.925C-20.825-5.25-17.675-7.35-17.675-11.4Zm-3.9.075c0,1.5-1.125,2.65-3.05,2.65h-3.05v-5.35H-24.7c1.925,0,3.125.925,3.125,2.65ZM.475,0l-7.5-17.625h-3.55L-18.075,0h3.925l1.6-3.925h7.4L-3.55,0Zm-7-7.325h-4.65L-8.85-13Zm22.1,2.15v-.05c0-3.05-2-4.325-5.55-5.25C7-11.25,6.25-11.625,6.25-12.775v-.05c0-.85.775-1.525,2.25-1.525a8.212,8.212,0,0,1,4.55,1.725l2-2.9a10.13,10.13,0,0,0-6.5-2.225c-3.575,0-6.125,2.1-6.125,5.275v.05c0,3.475,2.275,4.45,5.8,5.35,2.925.75,3.525,1.25,3.525,2.225v.05c0,1.025-.95,1.65-2.525,1.65A8.028,8.028,0,0,1,4-5.275L1.725-2.55A11.136,11.136,0,0,0,9.15.25C12.925.25,15.575-1.7,15.575-5.175ZM22.95,0V-17.5H19.1V0Zm8.4,0V-17.5H27.5V0Zm-60.5,5.5H-33.3l-4.575,12.325L-42.45,5.5H-46.7l7.075,17.625h3.4ZM-22.425,23V5.5h-3.85V23ZM-4,23V19.625h-9.625L-4,8.425V5.5H-18.275V8.875H-8.95l-9.625,11.2V23Zm7.675,0V5.5H-.175V23ZM21.3,9.05V5.5H6.8V9.05h5.325V23h3.85V9.05ZM37.575,23V19.575h-9.5V15.9h8.25V12.475h-8.25V8.925H37.45V5.5H24.25V23Zm7.45,0V5.5h-3.85V23Z" transform="translate(430.511 162.095)" fill="#b4932a"/></g></svg>