<svg xmlns="http://www.w3.org/2000/svg" width="221.496" height="221.496" viewBox="0 0 221.496 221.496"><g transform="translate(-319.704)"><g transform="translate(319.704)" fill="none" stroke="#bc970c" stroke-width="2"><circle cx="110.748" cy="110.748" r="110.748" stroke="none"/><circle cx="110.748" cy="110.748" r="109.748" fill="none"/></g><g transform="translate(367.796 49.861)"><rect width="128.95" height="128.95" fill="#cd1414"/><path d="M254.6,150.724a4.654,4.654,0,1,1-4.654-4.654A4.654,4.654,0,0,1,254.6,150.724Z" transform="translate(-133.704 -79.621)" fill="#ffd200"/><path d="M27.4,127.77h1.729A3.169,3.169,0,0,0,32.5,125.04a2.415,2.415,0,0,0-2.579-2.729H28.26Zm87.467-3.153,3.94-7.388h9.057l-13.647,21.636h-9.258l4.381-6.173-5-15.012-3.412,21.176H93.682l-4.449-10.008-1.61,10.008H80.375L83.86,117.22H91.3l4.313,9.681,1.56-9.681h15.84ZM81,117.229l-3.485,21.636h-7.27L65.8,128.857l-1.61,10.008H56.938l3.485-21.636h7.438l4.308,9.681,1.56-9.681ZM32,116.9c5,0,8.4,2.729,8.434,7.078l1.064-6.755H57.912l-.883,5.459H48.386l-.432,2.593h7.838l-.873,5.409H47.044l-.455,2.689h8.825l-.883,5.459H38.023l1.888-11.714c-1.269,3.794-4.731,6.028-9.262,6.028H26.491l-.91,5.686H17.72l3.539-21.963Z" transform="translate(-9.659 -63.704)" fill="#fff"/></g></g></svg>