<svg xmlns="http://www.w3.org/2000/svg" xmlns:xlink="http://www.w3.org/1999/xlink" width="221.496" height="221.496" viewBox="0 0 221.496 221.496"><defs><linearGradient id="a" x1="0.337" y1="0.239" x2="0.789" y2="0.771" gradientUnits="objectBoundingBox"><stop offset="0" stop-color="#fee690"/><stop offset="1" stop-color="#9d7700"/></linearGradient></defs><g transform="translate(56.355 29.052)"><g transform="translate(-56.355 -29.052)" fill="none" stroke="#bc970c" stroke-width="2"><circle cx="110.748" cy="110.748" r="110.748" stroke="none"/><circle cx="110.748" cy="110.748" r="109.748" fill="none"/></g><path d="M50.5,104.775V97.218a43,43,0,0,1-38.819-38.7H4.009A4.056,4.056,0,0,1,0,54.506,3.983,3.983,0,0,1,4.009,50.5h7.557A43.109,43.109,0,0,1,50.385,11.68V4.008a4.008,4.008,0,1,1,8.015,0V11.68a44.026,44.026,0,0,1,18.436,6.183,2.506,2.506,0,0,0-.572.344,77.282,77.282,0,0,0-5.954,5.038,35.436,35.436,0,0,0-15.916-3.779,34.983,34.983,0,1,0,34.924,35.04,35.436,35.436,0,0,0-3.778-15.917,58.856,58.856,0,0,0,5.038-6.069,2.455,2.455,0,0,1,.344-.572A42.477,42.477,0,0,1,97.1,50.384h7.673a4.008,4.008,0,1,1,0,8.015H97.218a42.884,42.884,0,0,1-38.7,38.7v7.672a4.057,4.057,0,0,1-4.008,4.008A3.982,3.982,0,0,1,50.5,104.775ZM28.284,54.506A26.219,26.219,0,0,1,54.507,28.283,24.563,24.563,0,0,1,63.667,30C61.72,32.177,60,34.238,58.285,36.414l-.114.114a21.034,21.034,0,0,0-3.778-.344A18.321,18.321,0,1,0,72.714,54.621a21.119,21.119,0,0,0-.344-3.779.112.112,0,0,1,.114-.114c2.291-1.718,4.352-3.55,6.527-5.5a25.159,25.159,0,0,1,1.718,9.275,26.223,26.223,0,0,1-52.445,0Zm16.6-.114a9.481,9.481,0,0,1,9.5-9.5,9.948,9.948,0,0,1,4.466,1.145,70.657,70.657,0,0,1,4.122-6.069c2.519-3.207,5.152-6.184,7.9-9.046a73.414,73.414,0,0,1,8.932-7.9,66.3,66.3,0,0,1,5.954-3.893,1.69,1.69,0,0,0,.916-1.832l-1.031-5.84A1.4,1.4,0,0,1,86,10.42l4.236-4.236a1.189,1.189,0,0,1,1.947.687l.8,7.787a1.353,1.353,0,0,0,1.03,1.031l7.9,1.031a1.153,1.153,0,0,1,.687,1.947L98.364,22.9a.98.98,0,0,1-1.03.344l-5.84-1.031a1.769,1.769,0,0,0-1.832.916c-1.26,2.061-2.519,4.008-3.893,5.84a73.491,73.491,0,0,1-7.9,8.932,84.379,84.379,0,0,1-9.046,7.9,70.657,70.657,0,0,1-6.069,4.122A9.576,9.576,0,0,1,63.9,54.392a9.5,9.5,0,0,1-19.009,0Z" fill="url(#a)"/><path d="M-50.69-9.12v-.04c0-2.86-2.02-4.84-5.36-4.84h-5.72V0h3.08V-4.2h2.34C-53.21-4.2-50.69-5.88-50.69-9.12Zm-3.12.06a2.168,2.168,0,0,1-2.44,2.12h-2.44v-4.28h2.38c1.54,0,2.5.74,2.5,2.12ZM-45.19,0V-14h-3.08V0Zm15.8-2.26-1.96-1.98A5.053,5.053,0,0,1-35.03-2.6,4.158,4.158,0,0,1-39.09-7v-.04a4.148,4.148,0,0,1,4.06-4.36,5.167,5.167,0,0,1,3.58,1.58l1.96-2.26a7.223,7.223,0,0,0-5.52-2.16A7.115,7.115,0,0,0-42.31-7v.04A7.067,7.067,0,0,0-35.13.24,7.156,7.156,0,0,0-29.39-2.26Zm13.06-8.9V-14h-11.6v2.84h4.26V0h3.08V-11.16ZM-1.99-6.1V-14H-5.07v8.02c0,2.22-1.14,3.36-3.02,3.36s-3.02-1.18-3.02-3.46V-14h-3.08v8c0,4.12,2.3,6.22,6.06,6.22S-1.99-1.86-1.99-6.1ZM13.25,0,9.83-5a4.348,4.348,0,0,0,3-4.34v-.04c0-2.88-1.98-4.62-5.28-4.62H1.15V0H4.23V-4.48H6.65L9.65,0ZM9.71-9.18C9.71-8,8.85-7.2,7.35-7.2H4.23v-4.02H7.29c1.5,0,2.42.68,2.42,2ZM26.27,0V-2.74h-7.6V-5.68h6.6V-8.42h-6.6v-2.84h7.5V-14H15.61V0Zm23-7v-.04a7.173,7.173,0,0,0-7.42-7.2A7.24,7.24,0,0,0,34.39-7v.04A7.173,7.173,0,0,0,41.81.24,7.24,7.24,0,0,0,49.27-7Zm-3.22.04a4.187,4.187,0,0,1-4.2,4.36A4.253,4.253,0,0,1,37.61-7v-.04a4.187,4.187,0,0,1,4.2-4.36A4.253,4.253,0,0,1,46.05-7ZM62.67-11.2V-14H52.01V0h3.08V-5.42h6.68v-2.8H55.09V-11.2ZM-36.12,16.86v-.04c0-2.44-1.6-3.46-4.44-4.2-2.42-.62-3.02-.92-3.02-1.84v-.04c0-.68.62-1.22,1.8-1.22a6.569,6.569,0,0,1,3.64,1.38l1.6-2.32a8.1,8.1,0,0,0-5.2-1.78c-2.86,0-4.9,1.68-4.9,4.22v.04c0,2.78,1.82,3.56,4.64,4.28,2.34.6,2.82,1,2.82,1.78v.04c0,.82-.76,1.32-2.02,1.32a6.422,6.422,0,0,1-4.18-1.7l-1.82,2.18a8.909,8.909,0,0,0,5.94,2.24C-38.24,21.2-36.12,19.64-36.12,16.86Zm14.66-1.96V7h-3.08v8.02c0,2.22-1.14,3.36-3.02,3.36s-3.02-1.18-3.02-3.46V7h-3.08v8c0,4.12,2.3,6.22,6.06,6.22S-21.46,19.14-21.46,14.9Zm15.44,3.84-1.96-1.98a5.053,5.053,0,0,1-3.68,1.64A4.158,4.158,0,0,1-15.72,14v-.04A4.148,4.148,0,0,1-11.66,9.6a5.167,5.167,0,0,1,3.58,1.58l1.96-2.26a7.223,7.223,0,0,0-5.52-2.16A7.115,7.115,0,0,0-18.94,14v.04a7.067,7.067,0,0,0,7.18,7.2A7.156,7.156,0,0,0-6.02,18.74Zm14.36,0L6.38,16.76A5.053,5.053,0,0,1,2.7,18.4,4.158,4.158,0,0,1-1.36,14v-.04A4.148,4.148,0,0,1,2.7,9.6a5.167,5.167,0,0,1,3.58,1.58L8.24,8.92A7.223,7.223,0,0,0,2.72,6.76,7.115,7.115,0,0,0-4.58,14v.04a7.067,7.067,0,0,0,7.18,7.2A7.156,7.156,0,0,0,8.34,18.74ZM21.46,21V18.26h-7.6V15.32h6.6V12.58h-6.6V9.74h7.5V7H10.8V21Zm12.86-4.14v-.04c0-2.44-1.6-3.46-4.44-4.2-2.42-.62-3.02-.92-3.02-1.84v-.04c0-.68.62-1.22,1.8-1.22A6.569,6.569,0,0,1,32.3,10.9l1.6-2.32A8.1,8.1,0,0,0,28.7,6.8c-2.86,0-4.9,1.68-4.9,4.22v.04c0,2.78,1.82,3.56,4.64,4.28,2.34.6,2.82,1,2.82,1.78v.04c0,.82-.76,1.32-2.02,1.32a6.422,6.422,0,0,1-4.18-1.7l-1.82,2.18a8.909,8.909,0,0,0,5.94,2.24C32.2,21.2,34.32,19.64,34.32,16.86Zm12.6,0v-.04c0-2.44-1.6-3.46-4.44-4.2-2.42-.62-3.02-.92-3.02-1.84v-.04c0-.68.62-1.22,1.8-1.22A6.569,6.569,0,0,1,44.9,10.9l1.6-2.32A8.1,8.1,0,0,0,41.3,6.8c-2.86,0-4.9,1.68-4.9,4.22v.04c0,2.78,1.82,3.56,4.64,4.28,2.34.6,2.82,1,2.82,1.78v.04c0,.82-.76,1.32-2.02,1.32a6.422,6.422,0,0,1-4.18-1.7l-1.82,2.18a8.909,8.909,0,0,0,5.94,2.24C44.8,21.2,46.92,19.64,46.92,16.86Z" transform="translate(54.393 139.393)" fill="#b4932a"/></g></svg>