<svg xmlns="http://www.w3.org/2000/svg" width="221.496" height="221.496" viewBox="0 0 221.496 221.496"><g transform="translate(-319.703)"><g transform="translate(319.703)" fill="none" stroke="#bc970c" stroke-width="2"><circle cx="110.748" cy="110.748" r="110.748" stroke="none"/><circle cx="110.748" cy="110.748" r="109.748" fill="none"/></g><path d="M-40.812-11.4v-.05c0-3.575-2.525-6.05-6.7-6.05h-7.15V0h3.85V-5.25h2.925C-43.963-5.25-40.812-7.35-40.812-11.4Zm-3.9.075c0,1.5-1.125,2.65-3.05,2.65h-3.05v-5.35h2.975c1.925,0,3.125.925,3.125,2.65ZM-25.388,0V-3.5h-8.725v-14h-3.85V0Zm19.95,0-7.5-17.625h-3.55L-23.987,0h3.925l1.6-3.925h7.4L-9.462,0Zm-7-7.325h-4.65L-14.762-13Zm22.1,2.15v-.05c0-3.05-2-4.325-5.55-5.25-3.025-.775-3.775-1.15-3.775-2.3v-.05c0-.85.775-1.525,2.25-1.525a8.212,8.212,0,0,1,4.55,1.725l2-2.9a10.13,10.13,0,0,0-6.5-2.225c-3.575,0-6.125,2.1-6.125,5.275v.05c0,3.475,2.275,4.45,5.8,5.35,2.925.75,3.525,1.25,3.525,2.225v.05c0,1.025-.95,1.65-2.525,1.65A8.028,8.028,0,0,1-1.912-5.275L-4.187-2.55A11.136,11.136,0,0,0,3.238.25C7.013.25,9.663-1.7,9.663-5.175ZM29.688,0l-7.5-17.625h-3.55L11.138,0h3.925l1.6-3.925h7.4L25.663,0Zm-7-7.325h-4.65L20.363-13ZM47.513,0,43.238-6.25a5.435,5.435,0,0,0,3.75-5.425v-.05c0-3.6-2.475-5.775-6.6-5.775h-8V0h3.85V-5.6h3.025L43.013,0ZM43.088-11.475C43.088-10,42.013-9,40.138-9h-3.9v-5.025h3.825c1.875,0,3.025.85,3.025,2.5ZM54.487,0V-17.5h-3.85V0Zm-121.1,21.825v-.05c0-3.05-2-4.325-5.55-5.25-3.025-.775-3.775-1.15-3.775-2.3v-.05c0-.85.775-1.525,2.25-1.525a8.212,8.212,0,0,1,4.55,1.725l2-2.9a10.13,10.13,0,0,0-6.5-2.225c-3.575,0-6.125,2.1-6.125,5.275v.05c0,3.475,2.275,4.45,5.8,5.35,2.925.75,3.525,1.25,3.525,2.225v.05c0,1.025-.95,1.65-2.525,1.65a8.028,8.028,0,0,1-5.225-2.125l-2.275,2.725a11.136,11.136,0,0,0,7.425,2.8C-69.263,27.25-66.613,25.3-66.613,21.825ZM-49.937,27V23.575h-9.5V19.9h8.25V16.475h-8.25v-3.55h9.375V9.5h-13.2V27Zm18.8-2.825-2.45-2.475a6.317,6.317,0,0,1-4.6,2.05,5.2,5.2,0,0,1-5.075-5.5V18.2a5.185,5.185,0,0,1,5.075-5.45,6.458,6.458,0,0,1,4.475,1.975l2.45-2.825a9.029,9.029,0,0,0-6.9-2.7,8.894,8.894,0,0,0-9.125,9.05v.05a8.833,8.833,0,0,0,8.975,9A8.945,8.945,0,0,0-31.138,24.175Zm18.05-4.8V9.5h-3.85V19.525c0,2.775-1.425,4.2-3.775,4.2s-3.775-1.475-3.775-4.325V9.5h-3.85v10c0,5.15,2.875,7.775,7.575,7.775S-13.088,24.675-13.088,19.375ZM6.387,27V9.5h-3.8V20.275L-5.613,9.5h-3.55V27h3.8V15.875L3.112,27Zm20.325-8.75V18.2c0-4.925-3.8-8.7-9.3-8.7H10.587V27h6.825C22.912,27,26.712,23.175,26.712,18.25Zm-4.025.05a4.987,4.987,0,0,1-5.275,5.225H14.437V12.975h2.975a5.026,5.026,0,0,1,5.275,5.275ZM45.938,27l-7.5-17.625h-3.55L27.387,27h3.925l1.6-3.925h7.4L41.912,27Zm-7-7.325h-4.65L36.612,14ZM63.762,27l-4.275-6.25a5.435,5.435,0,0,0,3.75-5.425v-.05c0-3.6-2.475-5.775-6.6-5.775h-8V27h3.85V21.4h3.025l3.75,5.6ZM59.337,15.525C59.337,17,58.262,18,56.387,18h-3.9V12.975h3.825c1.875,0,3.025.85,3.025,2.5ZM80.038,27V23.575h-9.5V19.9h8.25V16.475h-8.25v-3.55h9.375V9.5h-13.2V27Z" transform="translate(429.779 105.973)" fill="#b4932a"/></g></svg>