<svg xmlns="http://www.w3.org/2000/svg" width="221.496" height="221.496" viewBox="0 0 221.496 221.496"><g transform="translate(-319.703)"><g transform="translate(319.703)" fill="none" stroke="#bc970c" stroke-width="2"><circle cx="110.748" cy="110.748" r="110.748" stroke="none"/><circle cx="110.748" cy="110.748" r="109.748" fill="none"/></g><path d="M-40.812-11.4v-.05c0-3.575-2.525-6.05-6.7-6.05h-7.15V0h3.85V-5.25h2.925C-43.963-5.25-40.812-7.35-40.812-11.4Zm-3.9.075c0,1.5-1.125,2.65-3.05,2.65h-3.05v-5.35h2.975c1.925,0,3.125.925,3.125,2.65ZM-25.388,0V-3.5h-8.725v-14h-3.85V0Zm19.95,0-7.5-17.625h-3.55L-23.987,0h3.925l1.6-3.925h7.4L-9.462,0Zm-7-7.325h-4.65L-14.762-13Zm22.1,2.15v-.05c0-3.05-2-4.325-5.55-5.25-3.025-.775-3.775-1.15-3.775-2.3v-.05c0-.85.775-1.525,2.25-1.525a8.212,8.212,0,0,1,4.55,1.725l2-2.9a10.13,10.13,0,0,0-6.5-2.225c-3.575,0-6.125,2.1-6.125,5.275v.05c0,3.475,2.275,4.45,5.8,5.35,2.925.75,3.525,1.25,3.525,2.225v.05c0,1.025-.95,1.65-2.525,1.65A8.028,8.028,0,0,1-1.912-5.275L-4.187-2.55A11.136,11.136,0,0,0,3.238.25C7.013.25,9.663-1.7,9.663-5.175ZM29.688,0l-7.5-17.625h-3.55L11.138,0h3.925l1.6-3.925h7.4L25.663,0Zm-7-7.325h-4.65L20.363-13ZM47.513,0,43.238-6.25a5.435,5.435,0,0,0,3.75-5.425v-.05c0-3.6-2.475-5.775-6.6-5.775h-8V0h3.85V-5.6h3.025L43.013,0ZM43.088-11.475C43.088-10,42.013-9,40.138-9h-3.9v-5.025h3.825c1.875,0,3.025.85,3.025,2.5ZM54.487,0V-17.5h-3.85V0ZM-62.4,15.6v-.05c0-3.575-2.525-6.05-6.7-6.05h-7.15V27h3.85V21.75h2.925C-65.55,21.75-62.4,19.65-62.4,15.6Zm-3.9.075c0,1.5-1.125,2.65-3.05,2.65H-72.4v-5.35h2.975c1.925,0,3.125.925,3.125,2.65ZM-44.425,27-48.7,20.75a5.435,5.435,0,0,0,3.75-5.425v-.05c0-3.6-2.475-5.775-6.6-5.775h-8V27h3.85V21.4h3.025l3.75,5.6ZM-48.85,15.525C-48.85,17-49.925,18-51.8,18h-3.9V12.975h3.825c1.875,0,3.025.85,3.025,2.5ZM-37.45,27V9.5H-41.3V27Zm19.925,0V9.5h-3.8V20.275L-29.525,9.5h-3.55V27h3.8V15.875L-20.8,27ZM2.05,24.175-.4,21.7A6.317,6.317,0,0,1-5,23.75a5.2,5.2,0,0,1-5.075-5.5V18.2A5.185,5.185,0,0,1-5,12.75,6.458,6.458,0,0,1-.525,14.725L1.925,11.9a9.029,9.029,0,0,0-6.9-2.7A8.894,8.894,0,0,0-14.1,18.25v.05a8.833,8.833,0,0,0,8.975,9A8.945,8.945,0,0,0,2.05,24.175ZM9.15,27V9.5H5.3V27ZM27.375,15.6v-.05c0-3.575-2.525-6.05-6.7-6.05h-7.15V27h3.85V21.75H20.3C24.225,21.75,27.375,19.65,27.375,15.6Zm-3.9.075c0,1.5-1.125,2.65-3.05,2.65h-3.05v-5.35H20.35c1.925,0,3.125.925,3.125,2.65ZM45.525,27l-7.5-17.625h-3.55L26.975,27H30.9l1.6-3.925h7.4L41.5,27Zm-7-7.325h-4.65L36.2,14ZM60.8,27V23.5H52.075V9.5h-3.85V27Zm16.225,0V23.575h-9.5V19.9h8.25V16.475h-8.25v-3.55H76.9V9.5H63.7V27Z" transform="translate(432.066 105.973)" fill="#b4932a"/></g></svg>