<svg xmlns="http://www.w3.org/2000/svg" width="221.496" height="221.496" viewBox="0 0 221.496 221.496"><g transform="translate(-319.703)"><g transform="translate(319.703)" fill="none" stroke="#bc970c" stroke-width="2"><circle cx="110.748" cy="110.748" r="110.748" stroke="none"/><circle cx="110.748" cy="110.748" r="109.748" fill="none"/></g><path d="M-40.812-11.4v-.05c0-3.575-2.525-6.05-6.7-6.05h-7.15V0h3.85V-5.25h2.925C-43.963-5.25-40.812-7.35-40.812-11.4Zm-3.9.075c0,1.5-1.125,2.65-3.05,2.65h-3.05v-5.35h2.975c1.925,0,3.125.925,3.125,2.65ZM-25.388,0V-3.5h-8.725v-14h-3.85V0Zm19.95,0-7.5-17.625h-3.55L-23.987,0h3.925l1.6-3.925h7.4L-9.462,0Zm-7-7.325h-4.65L-14.762-13Zm22.1,2.15v-.05c0-3.05-2-4.325-5.55-5.25-3.025-.775-3.775-1.15-3.775-2.3v-.05c0-.85.775-1.525,2.25-1.525a8.212,8.212,0,0,1,4.55,1.725l2-2.9a10.13,10.13,0,0,0-6.5-2.225c-3.575,0-6.125,2.1-6.125,5.275v.05c0,3.475,2.275,4.45,5.8,5.35,2.925.75,3.525,1.25,3.525,2.225v.05c0,1.025-.95,1.65-2.525,1.65A8.028,8.028,0,0,1-1.912-5.275L-4.187-2.55A11.136,11.136,0,0,0,3.238.25C7.013.25,9.663-1.7,9.663-5.175ZM29.688,0l-7.5-17.625h-3.55L11.138,0h3.925l1.6-3.925h7.4L25.663,0Zm-7-7.325h-4.65L20.363-13ZM47.513,0,43.238-6.25a5.435,5.435,0,0,0,3.75-5.425v-.05c0-3.6-2.475-5.775-6.6-5.775h-8V0h3.85V-5.6h3.025L43.013,0ZM43.088-11.475C43.088-10,42.013-9,40.138-9h-3.9v-5.025h3.825c1.875,0,3.025.85,3.025,2.5ZM54.487,0V-17.5h-3.85V0ZM-33.05,27V23.5h-8.725V9.5h-3.85V27Zm19.95,0L-20.6,9.375h-3.55L-31.65,27h3.925l1.6-3.925h7.4l1.6,3.925Zm-7-7.325h-4.65L-22.425,14Zm29.85,2.15v-.05c0-3.05-2-4.325-5.55-5.25-3.025-.775-3.775-1.15-3.775-2.3v-.05c0-.85.775-1.525,2.25-1.525a8.212,8.212,0,0,1,4.55,1.725l2-2.9a10.13,10.13,0,0,0-6.5-2.225C-.85,9.25-3.4,11.35-3.4,14.525v.05c0,3.475,2.275,4.45,5.8,5.35,2.925.75,3.525,1.25,3.525,2.225v.05c0,1.025-.95,1.65-2.525,1.65a8.028,8.028,0,0,1-5.225-2.125L-4.1,24.45a11.136,11.136,0,0,0,7.425,2.8C7.1,27.25,9.75,25.3,9.75,21.825ZM30.925,18.25V18.2a8.966,8.966,0,0,0-9.275-9,9.049,9.049,0,0,0-9.325,9.05v.05a8.966,8.966,0,0,0,9.275,9A9.049,9.049,0,0,0,30.925,18.25ZM26.9,18.3a5.234,5.234,0,0,1-5.25,5.45,5.317,5.317,0,0,1-5.3-5.5V18.2a5.234,5.234,0,0,1,5.25-5.45,5.317,5.317,0,0,1,5.3,5.5ZM46.925,27V23.5H38.2V9.5H34.35V27Z" transform="translate(430.735 105.721)" fill="#b4932a"/></g></svg>