<svg xmlns="http://www.w3.org/2000/svg" width="221.496" height="221.496" viewBox="0 0 221.496 221.496"><g transform="translate(-320.73 -0.063)"><g transform="translate(320.73 0.063)" fill="none" stroke="#bc970c" stroke-width="2"><circle cx="110.748" cy="110.748" r="110.748" stroke="none"/><circle cx="110.748" cy="110.748" r="109.748" fill="none"/></g><path d="M-45.163-11.4v-.05c0-3.575-2.525-6.05-6.7-6.05h-7.15V0h3.85V-5.25h2.925C-48.313-5.25-45.163-7.35-45.163-11.4Zm-3.9.075c0,1.5-1.125,2.65-3.05,2.65h-3.05v-5.35h2.975c1.925,0,3.125.925,3.125,2.65ZM-27.188,0l-4.275-6.25a5.435,5.435,0,0,0,3.75-5.425v-.05c0-3.6-2.475-5.775-6.6-5.775h-8V0h3.85V-5.6h3.025l3.75,5.6Zm-4.425-11.475C-31.613-10-32.687-9-34.562-9h-3.9v-5.025h3.825c1.875,0,3.025.85,3.025,2.5ZM-10.913,0V-3.425h-9.5V-7.1h8.25v-3.425h-8.25v-3.55h9.375V-17.5h-13.2V0ZM10.012,0V-17.5H5.862l-4.6,7.4-4.6-7.4h-4.15V0h3.775V-11.35l4.875,7.4h.1l4.925-7.475V0Zm8.225,0V-17.5h-3.85V0Zm19.35-7.625V-17.5h-3.85V-7.475c0,2.775-1.425,4.2-3.775,4.2S26.188-4.75,26.188-7.6v-9.9h-3.85v10c0,5.15,2.875,7.775,7.575,7.775S37.588-2.325,37.588-7.625ZM59.013,0V-17.5h-4.15l-4.6,7.4-4.6-7.4h-4.15V0h3.775V-11.35l4.875,7.4h.1l4.925-7.475V0ZM-20.5,13.05V9.5H-35v3.55h5.325V27h3.85V13.05ZM-2.75,27l-7.5-17.625H-13.8L-21.3,27h3.925l1.6-3.925h7.4L-6.775,27Zm-7-7.325H-14.4L-12.075,14ZM15.5,27V9.5H11.7V20.275L3.5,9.5H-.05V27h3.8V15.875L12.225,27Zm20.125,0-7.45-10.075L35.3,9.5H30.65l-7.1,7.65V9.5H19.7V27h3.85V21.65l2.025-2.1L31,27Z" transform="translate(429.117 107.849)" fill="#b4932a"/></g></svg>