<svg xmlns="http://www.w3.org/2000/svg" width="221.496" height="221.496" viewBox="0 0 221.496 221.496"><g transform="translate(-319.704)"><g transform="translate(319.704)" fill="none" stroke="#bc970c" stroke-width="2"><circle cx="110.748" cy="110.748" r="110.748" stroke="none"/><circle cx="110.748" cy="110.748" r="109.748" fill="none"/></g><g transform="translate(362.545 37.7)"><g transform="translate(-482.183 -468.665)" fill="#4a7e25" stroke-miterlimit="10"><path d="M 597.4588623046875 605.1575317382813 L 502.7179260253906 605.1575317382813 C 498.2178955078125 605.1575317382813 493.9720458984375 603.3899536132813 490.762451171875 600.1804809570313 C 487.5528259277344 596.9708862304688 485.7852172851563 592.7249145507813 485.7852172851563 588.2247924804688 L 485.7852172851563 570.260498046875 C 490.1984252929688 573.9321899414063 495.82177734375 576.0580444335938 501.7650451660156 576.0580444335938 L 598.5427856445313 576.0580444335938 C 604.408935546875 576.0580444335938 609.9893798828125 573.9666137695313 614.3916015625 570.35595703125 L 614.3916015625 588.2247924804688 C 614.3916015625 592.7250366210938 612.6240844726563 596.970947265625 609.41455078125 600.1804809570313 C 606.2050170898438 603.3899536132813 601.9591064453125 605.1575317382813 597.4588623046875 605.1575317382813 Z" stroke="none"/><path d="M 489.387451171875 576.8283081054688 L 489.387451171875 588.2247924804688 C 489.387451171875 595.5752563476563 495.367431640625 601.5552978515625 502.7178955078125 601.5552978515625 L 597.4588623046875 601.5552978515625 C 604.809326171875 601.5552978515625 610.7893676757813 595.5752563476563 610.7893676757813 588.2247924804688 L 610.7893676757813 576.8787841796875 C 607.0219116210938 578.675537109375 602.8499755859375 579.6602783203125 598.5427856445313 579.6602783203125 L 501.7650146484375 579.6602783203125 C 497.397705078125 579.6602783203125 493.1823120117188 578.6578979492188 489.387451171875 576.8283081054688 M 482.1829833984375 559.68994140625 C 485.5269775390625 567.19091796875 493.058837890625 572.455810546875 501.7650146484375 572.455810546875 L 598.5427856445313 572.455810546875 C 607.1370849609375 572.455810546875 614.5867919921875 567.3253173828125 617.9938354492188 559.978515625 L 617.9938354492188 588.2247924804688 C 617.9938354492188 599.51904296875 608.753173828125 608.759765625 597.4588623046875 608.759765625 L 502.7178955078125 608.759765625 C 491.4241943359375 608.759765625 482.1829833984375 599.51904296875 482.1829833984375 588.2247924804688 L 482.1829833984375 559.68994140625 Z" stroke="none" fill="#4a7e25"/></g><g transform="translate(33.946 109.324)"><path d="M552.384,617.636c-5.5,0-9.853-4.179-9.853-12.707s4.349-12.707,9.853-12.707a10.325,10.325,0,0,1,5.368,1.325l-1.767,4.587a4.91,4.91,0,0,0-2.854-.884c-2.82,0-4.654,2.719-4.654,7.611s1.834,7.644,4.654,7.644a4.911,4.911,0,0,0,2.854-.917l1.767,4.722A10.051,10.051,0,0,1,552.384,617.636Z" transform="translate(-542.531 -592.222)" fill="#fff"/><path d="M577.385,617.545v-24.6h5.776v24.6Z" transform="translate(-557.78 -592.54)" fill="#fff"/><path d="M605.307,597.772v19.773H599.53V597.772h-4.688v-4.824h15.153v4.824Z" transform="translate(-565.417 -592.54)" fill="#fff"/><path d="M637.633,608v9.546h-5.775V608l-7-15.051h6.183l3.669,9.241h.067l3.669-9.241h6.218Z" transform="translate(-578.55 -592.54)" fill="#fff"/></g><g transform="translate(0.001 60.295)" fill="#d90010" stroke="#fff" stroke-miterlimit="10" stroke-width="7.204"><rect width="135.811" height="41.07" rx="20.535" stroke="none"/><rect x="-3.602" y="-3.602" width="143.015" height="48.274" rx="24.137" fill="none"/></g><g transform="translate(14.664 67.77)"><path d="M508.252,542.772V519.029h8.877c6.275,0,12.55.957,12.55,9.145,0,7.691-5.166,10.063-13.392,10.216v7.423h-5.743c-1.513,0-2.292-1.054-2.292-2.922m9.03-18.2h-1v8.38c4.4-.306,5.357-1.454,5.357-4.745C521.644,525.381,520.382,524.692,517.282,524.692Z" transform="translate(-508.252 -518.646)" fill="#fff"/><path d="M565.178,545.813l-.612-3.864c-.5-3.061-1.225-4.822-2.373-5.854l-2.373.153v9.566h-5.662c-2.373,0-2.373-3.041-2.373-3.041V519.029h9.26c5.548,0,12.55.383,12.55,8.035,0,3.9-1.76,6.428-4.285,7.347,1.837,1.148,2.716,3.52,3.291,5.816l1.377,5.586Zm-4.324-21.581h-1.033v7.079a12.442,12.442,0,0,0,4.133-.612c1.033-.459,1.683-1.377,1.683-3.291C565.637,524.807,564.49,524.233,560.855,524.233Z" transform="translate(-527.298 -518.646)" fill="#fff"/><path d="M606.5,545.9c-5.7,0-11.861-1.913-11.861-13.774,0-12.053,6.581-13.775,11.861-13.775,5.587,0,11.862,2.066,11.862,13.775C618.364,544.482,611.706,545.9,606.5,545.9Zm0-22c-2.985,0-3.826,2.411-3.826,8.227,0,5.739.8,8.226,3.826,8.226,2.87,0,3.827-2.066,3.827-8.226C610.329,526.537,609.563,523.9,606.5,523.9Z" transform="translate(-546.048 -518.349)" fill="#fff"/><path d="M663.162,524.96H651.69v4.592h7.575v5.663H651.69v10.6h-5.7c-2.374,0-2.374-3.041-2.374-3.041V519.029h19.553Z" transform="translate(-567.475 -518.646)" fill="#fff"/><path d="M685.511,545.813c-2.374,0-2.374-3.041-2.374-3.041V519.029h5.739c2.373,0,2.373,2.532,2.373,2.532v24.252Z" transform="translate(-584.765 -518.646)" fill="#fff"/></g><g transform="translate(37.393 0)"><g transform="translate(0 10.362)"><path d="M599.322,418.833h-37.1c-2.966,0-3.961,1.38-3.961,3.379v14.936c-3.294,4.5-7.054,11.273-7.054,15.119,0,4,3.271,7.3,5.38,7.656C561.8,460.8,569.7,458,581.33,458c10.69,0,16.691,3.294,22.426,1.92,2.75-.659,5.449-3.656,5.449-8s-1.931-8.069-5.655-12.966a15.729,15.729,0,0,1-.917-1.362v-15.52a3.027,3.027,0,0,0-3.311-3.242" transform="translate(-549.772 -417.401)" fill="#fff"/><path d="M599.634,460.575a40.479,40.479,0,0,1-7.172-.906,63.56,63.56,0,0,0-12.245-1.347,97.475,97.475,0,0,0-14.672,1.286c-4.192.606-7.5,1.083-10.311.613-2.681-.448-6.574-4.2-6.574-9.067,0-4.539,4.307-11.747,7.054-15.583V421.1c0-3.058,1.965-4.811,5.392-4.811h37.1a4.457,4.457,0,0,1,4.742,4.673v15.111c.213.335.422.638.625.9,3.57,4.694,5.947,8.843,5.947,13.833,0,5.136-3.294,8.613-6.547,9.392A14.227,14.227,0,0,1,599.634,460.575Zm-19.417-5.116a66.813,66.813,0,0,1,12.764,1.395c3.691.679,6.6,1.216,9.329.564,2.162-.518,4.35-2.954,4.35-6.608,0-3.679-1.453-6.959-5.362-12.1a17.05,17.05,0,0,1-1-1.488l-.207-.342V420.961c0-1.218-.615-1.81-1.879-1.81H561.1c-2.339,0-2.529.883-2.529,1.948v15.4l-.276.377c-3.368,4.6-6.778,10.984-6.778,14.274,0,3.449,2.906,6.029,4.184,6.243,2.369.4,5.485-.053,9.429-.623A101.141,101.141,0,0,1,580.217,455.458Z" transform="translate(-548.659 -416.288)" fill="#fff"/></g><g transform="translate(0.716)"><path d="M603.549,430.342a15.724,15.724,0,0,1-.917-1.362V413.46a3.027,3.027,0,0,0-3.311-3.242h-14.6l2.044-.615a10.492,10.492,0,0,1-1.443-2.879,10.164,10.164,0,0,1-.388-2.553,30.358,30.358,0,0,1-6.326-4.908,2.847,2.847,0,0,0-2.65,4.908,10.2,10.2,0,0,1-.388,2.553,10.494,10.494,0,0,1-1.443,2.879l2.044.615H562.218c-2.966,0-3.961,1.38-3.961,3.379v14.936c-3.294,4.5-7.054,11.273-7.054,15.119,0,4,3.271,7.3,5.38,7.656,5.218.873,13.112-1.92,24.747-1.92,10.69,0,16.691,3.294,22.427,1.92,2.749-.659,5.448-3.656,5.448-8S607.274,435.239,603.549,430.342ZM576.861,406.97a6.5,6.5,0,0,1,1.1-2.14,2.591,2.591,0,0,1,4.961,0,6.5,6.5,0,0,1,1.1,2.14,7.959,7.959,0,0,1,.25,3.248h-7.662A7.971,7.971,0,0,1,576.861,406.97Z" transform="translate(-550.488 -398.425)" fill="#171716"/><path d="M600.177,451.8a39.816,39.816,0,0,1-7.028-.9,64.151,64.151,0,0,0-12.375-1.359A99.359,99.359,0,0,0,566,450.841c-4.13.6-7.392,1.066-10.091.615-2.379-.4-5.976-3.936-5.976-8.361s4.368-11.64,7.054-15.352v-14.7c0-1.868.812-4.095,4.677-4.095H572.75l.242-.327a9.866,9.866,0,0,0,1.332-2.658,9.071,9.071,0,0,0,.343-2.048,6.082,6.082,0,1,1,10.435,0,9.083,9.083,0,0,0,.344,2.049,9.855,9.855,0,0,0,1.331,2.658l.242.327h11.745a3.741,3.741,0,0,1,4.026,3.957V428.22c.263.422.521.8.771,1.131h0c3.482,4.579,5.8,8.61,5.8,13.4,0,4.766-3.017,7.982-6,8.7A13.57,13.57,0,0,1,600.177,451.8Zm-19.4-3.689a65.334,65.334,0,0,1,12.635,1.383c3.774.7,6.753,1.245,9.624.556,2.435-.584,4.9-3.279,4.9-7.3,0-3.855-1.493-7.252-5.509-12.533h0a16.576,16.576,0,0,1-.96-1.425l-.1-.172V412.9a2.311,2.311,0,0,0-2.595-2.526h-37.1c-2.859,0-3.245,1.347-3.245,2.664V428.21l-.138.188c-3.331,4.552-6.915,11.092-6.915,14.7,0,3.755,3.14,6.674,4.782,6.949,2.477.415,5.643-.042,9.65-.62A100.63,100.63,0,0,1,580.773,448.115Zm-4.063-39.17h6.351a7.19,7.19,0,0,0-.279-2.326,5.865,5.865,0,0,0-.805-1.672,2.471,2.471,0,0,0-4.182,0,5.871,5.871,0,0,0-.8,1.671h0A7.191,7.191,0,0,0,576.71,408.945Zm7.68-1.7a8.773,8.773,0,0,1,.108,1.565l.588-.177A11.484,11.484,0,0,1,584.39,407.247Zm-9.7,1.388.588.177a8.779,8.779,0,0,1,.108-1.565A11.493,11.493,0,0,1,574.685,408.634Zm2.539-9.335a2.132,2.132,0,0,0-1.367,3.766l.266.223-.011.346a11.672,11.672,0,0,1-.173,1.7,7.122,7.122,0,0,1,.9-1.509l.2-.251.319-.02a2.128,2.128,0,0,0,1.855-1.38l.285-.76-.283-.741a2.12,2.12,0,0,0-1.375-1.285A2.157,2.157,0,0,0,577.224,399.3Zm3.047,2.117.285.76a2.129,2.129,0,0,0,1.855,1.38l.32.02.2.251a7.124,7.124,0,0,1,.9,1.509,11.733,11.733,0,0,1-.173-1.7l-.01-.346.265-.223a2.131,2.131,0,1,0-3.359-2.39Z" transform="translate(-549.931 -397.867)" fill="#fff"/></g><g transform="translate(0.737 0.717)"><g transform="translate(7.054 10.382)"><path d="M563.744,437.3V422.212c0-2,1-3.379,3.961-3.379h37.1a3.027,3.027,0,0,1,3.311,3.242v15.6" transform="translate(-563.05 -418.139)" fill="#fff"/><path d="M608.273,437.134h-1.388v-15.6a2.351,2.351,0,0,0-2.616-2.548h-37.1c-2.879,0-3.267,1.357-3.267,2.685v15.082H562.51V421.673c0-1.858.808-4.074,4.655-4.074h37.1a3.721,3.721,0,0,1,4,3.936Z" transform="translate(-562.51 -417.599)" fill="#171716"/></g><g transform="translate(0 14.779)"><path d="M563.541,426.65h33.808s2.476,10.83,6.2,15.727S609.2,451,609.2,455.343s-2.7,7.341-5.449,8c-5.735,1.374-11.736-1.92-22.426-1.92-11.635,0-19.529,2.793-24.747,1.92-2.109-.353-5.38-3.656-5.38-7.655s4.069-11.173,7.449-15.655S563.541,426.65,563.541,426.65Z" transform="translate(-550.509 -425.956)" fill="#d90010"/><path d="M600.194,463.835a39.887,39.887,0,0,1-7.024-.9,64.091,64.091,0,0,0-12.38-1.36,99.4,99.4,0,0,0-14.779,1.294c-4.127.6-7.387,1.068-10.083.616-2.372-.4-5.958-3.926-5.958-8.34,0-4.128,3.934-11.225,7.588-16.073,3.24-4.3,4.745-12.994,4.76-13.08l.1-.578h34.947l.124.539c.024.107,2.486,10.741,6.076,15.461,3.479,4.575,5.8,8.6,5.8,13.386,0,4.754-3.008,7.963-5.98,8.675A13.52,13.52,0,0,1,600.194,463.835Zm-19.4-3.646a65.259,65.259,0,0,1,12.631,1.383c3.775.695,6.758,1.244,9.633.556,2.443-.586,4.916-3.291,4.916-7.326,0-3.86-1.493-7.261-5.513-12.546-3.335-4.385-5.636-13.167-6.2-15.453H563.58c-.4,2.08-1.937,9.157-4.913,13.106-3.543,4.7-7.309,11.637-7.309,15.237,0,3.765,3.152,6.7,4.8,6.971,2.482.418,5.647-.042,9.655-.62A100.512,100.512,0,0,1,580.79,460.189Z" transform="translate(-549.97 -425.416)" fill="#171716"/></g><g transform="translate(23.614)"><path d="M598.338,402.81a2.848,2.848,0,1,0-4.556,1.361,10.191,10.191,0,0,1-.388,2.553,10.49,10.49,0,0,1-1.443,2.879l2.51.755a7.864,7.864,0,0,1,.227-3.389,6.494,6.494,0,0,1,1.1-2.14A2.847,2.847,0,0,0,598.338,402.81Z" transform="translate(-591.951 -399.142)" fill="#171716"/></g><g transform="translate(29.743)"><path d="M602.968,402.81a2.848,2.848,0,1,1,4.556,1.361,10.169,10.169,0,0,0,.388,2.553,10.5,10.5,0,0,0,1.443,2.879l-2.509.755a7.87,7.87,0,0,0-.228-3.389,6.5,6.5,0,0,0-1.1-2.14A2.848,2.848,0,0,1,602.968,402.81Z" transform="translate(-602.847 -399.142)" fill="#171716"/></g><g transform="translate(27.019 1.145)"><ellipse cx="0.966" cy="0.966" rx="0.966" ry="0.966" fill="#fff"/></g><g transform="translate(32.605 1.145)"><ellipse cx="0.966" cy="0.966" rx="0.966" ry="0.966" fill="#fff"/></g><g transform="translate(18.31 19.611)"><path d="M582.521,444.846a2.4,2.4,0,0,0,1.2-.446,9.679,9.679,0,0,1,6.815-1.224,9.537,9.537,0,0,1,1.474.362s.312-.118.557-.222c.311-.133.723-.306.5-.362s-.807-.25-.807-.25a6.784,6.784,0,0,0,.751-3.06c.121-2.42-1.724-6.1-5.183-5.592-3.246.473-4.639,4.034-4.639,6.2a4.884,4.884,0,0,0,.947,3.2,4.189,4.189,0,0,0-.947.64A5.276,5.276,0,0,0,582.521,444.846Z" transform="translate(-582.521 -434.006)" fill="#171716"/><g transform="translate(1.335 0.928)"><path d="M585.785,443.871s.378-.132.768-.243.679-.168.679-.168a3.984,3.984,0,0,1-1.28-2.427,3.059,3.059,0,0,1,.205-1.725,1.9,1.9,0,0,0,1.473,1.162,1.22,1.22,0,0,0,1.459-1.057,1.371,1.371,0,0,0-1.135-1.488,2.63,2.63,0,0,0-1.223.188,2.77,2.77,0,0,1,2.281-1.141,3.066,3.066,0,0,1,3.171,3.45c-.114,2.223-1.163,2.742-1.163,2.742s.217-.008.606.019.649.067.649.067a5.313,5.313,0,0,0,.994-3.078c0-1.836-1.108-4.59-3.972-4.513s-4.4,3.485-4.4,5.515S585.785,443.871,585.785,443.871Z" transform="translate(-584.895 -435.656)" fill="#fff"/></g></g><g transform="translate(31.467 19.257)"><path d="M615.368,443.976c.871.6,1.308.223.918-.195a6.569,6.569,0,0,0-1.363-.918s.891-.751.946-2.949-1.308-6.454-4.9-6.537-4.812,3.088-5.035,5.146a5.476,5.476,0,0,0,1.029,3.644s-.64.139-.362.417.362.472,1.224.389a10.97,10.97,0,0,1,4.507-.083A6.684,6.684,0,0,1,615.368,443.976Z" transform="translate(-605.912 -433.376)" fill="#171716"/><g transform="translate(0.861 0.864)"><path d="M613.312,442.729s.357.068.724.177c.4.118.695.229.695.229a5.03,5.03,0,0,0,1.029-3.161c0-2.392-1.912-5.063-4.159-5.063-2.605,0-4.187,1.947-4.159,4.646s.918,3.088.918,3.088.417-.056.7-.084.723-.056.723-.056a3.613,3.613,0,0,1-1.335-2.949,3.32,3.32,0,0,1,3.159-3.422,3.1,3.1,0,0,1,2.4,1.308,6.8,6.8,0,0,0-1.029-.278,1.384,1.384,0,0,0-1.375,1.2c-.071.862.71,1.277,1.375,1.335a1.449,1.449,0,0,0,1.558-1.168,3.222,3.222,0,0,1,.167,1.669A3.311,3.311,0,0,1,613.312,442.729Z" transform="translate(-607.442 -434.912)" fill="#fff"/></g></g><g transform="translate(15.919 32.125)"><path d="M579.176,457.911a9.672,9.672,0,0,0,3.056,1.287,40.226,40.226,0,0,0,9.4.714,50.777,50.777,0,0,0,11.512-2.21c.525-.358.654-.746.973-1.021s.563-.853,1.187.091a9.034,9.034,0,0,1,.968,1.666c.168.411-.357.769-.859.83a1.413,1.413,0,0,0-1.194,1.3c-.06.791-4.276,9.129-10.873,9.523s-10.861-5.055-12.631-7.95-2.5-2.454-2.44-3.245S578.756,457.66,579.176,457.911Z" transform="translate(-578.271 -456.253)" fill="#171716"/><g transform="translate(2.695 2.413)"><path d="M583.4,461.571s6.49,1.617,10.816,1.349,9.8-1.643,10.641-2.177,1.288.077.827.9a8.4,8.4,0,0,1-3.122,3.107,14.434,14.434,0,0,1-3.8,1.5s1.712-.268,2.709-.292.907,1.164-.051,1.986a9.238,9.238,0,0,1-13.736.051c-.548-.638-.617-1.042.273-.974a12.221,12.221,0,0,0,2.2-.132s-1.469-.311-3.121-.834-2.2-.5-2.937-1.939S582.612,461.389,583.4,461.571Z" transform="translate(-583.063 -460.543)" fill="#fff"/></g></g><g transform="translate(27.101 31.177)"><path d="M600.787,456.416a5.561,5.561,0,0,0,2.033-.119,4.657,4.657,0,0,0,.935-.416c.19-.107-.068.31-.507.535a5.117,5.117,0,0,1-3.343.424,2.664,2.664,0,0,1-1.649-.829.853.853,0,0,1,.362-1.15,2.014,2.014,0,0,1,1.068-.293c.247.005-.761.333-.9.689C598.643,455.649,599.255,456.179,600.787,456.416Z" transform="translate(-598.15 -454.567)" fill="#171716"/></g><g transform="translate(17.193 25.834)"><path d="M582.678,446.492l-1.664-.908c-.725-.4-.607-.649.24-.439s1.558.343,1.558.343Z" transform="translate(-580.536 -445.069)" fill="#171716"/></g><g transform="translate(17.152 24.222)"><path d="M582.546,443.708l-1.624-.979c-.707-.426-.579-.673.258-.429s1.541.409,1.541.409Z" transform="translate(-580.463 -442.204)" fill="#171716"/></g><g transform="translate(41.165 25.834)"><path d="M623.286,446.492l1.664-.908c.724-.4.607-.649-.24-.439s-1.557.343-1.557.343Z" transform="translate(-623.153 -445.069)" fill="#171716"/></g><g transform="translate(41.222 24.222)"><path d="M623.429,443.708l1.624-.979c.708-.426.579-.673-.258-.429s-1.541.409-1.541.409Z" transform="translate(-623.254 -442.204)" fill="#171716"/></g></g></g></g></g></svg>