<svg xmlns="http://www.w3.org/2000/svg" width="221.496" height="221.496" viewBox="0 0 221.496 221.496"><g transform="translate(-384.076 -256.762)"><g transform="translate(384.076 256.762)" fill="none" stroke="#bc970c" stroke-width="2"><circle cx="110.748" cy="110.748" r="110.748" stroke="none"/><circle cx="110.748" cy="110.748" r="109.748" fill="none"/></g><g transform="translate(415.072 315.515)"><path d="M79.636,404.963q-27.778,0-55.557-.016A23.415,23.415,0,0,1,7.936,398.7a23.928,23.928,0,0,1-.429-35.318,23.57,23.57,0,0,1,16.769-6.641q55.393-.024,110.8,0a23.972,23.972,0,0,1,23.661,18.731,22.941,22.941,0,0,1-5.019,20.806,23.459,23.459,0,0,1-18.769,8.658Q107.3,405,79.636,404.963ZM66.542,383.99a6.772,6.772,0,0,0,3.484-2.813,11.371,11.371,0,0,0,1.218-8.205,7.622,7.622,0,0,0-5.861-6.079,27.655,27.655,0,0,0-7.845-.922c-3.6-.062-7.189-.016-10.784-.016h-.877v27.74a7.9,7.9,0,0,0,.031.86,2.91,2.91,0,0,0,3.048,2.892c1.595-.047,3.172,0,4.766,0H55.4v-9.236c0-2.095,0-2.079,2.095-2.109a1.3,1.3,0,0,1,1.273.673,9.252,9.252,0,0,1,1.157,2.328c.656,2.728,1.2,5.485,1.8,8.314H71.954c-.469-1.891-.909-3.735-1.375-5.563-.727-2.906-1.368-5.859-4.041-7.86Zm21.675,13.939c1.031-.078,2.079-.109,3.11-.235a10.517,10.517,0,0,0,9.424-7.3,26.12,26.12,0,0,0,.062-17.082,10.671,10.671,0,0,0-8.365-7.376,21.147,21.147,0,0,0-7.22-.265,11.066,11.066,0,0,0-9.971,8.283,27.365,27.365,0,0,0,.031,15.69,10.5,10.5,0,0,0,7.049,7.44,19.238,19.238,0,0,0,5.878.844ZM17.171,365.972c-.016.2-.031.313-.031.406V394.2a5.253,5.253,0,0,0,.2,1.391,2.249,2.249,0,0,0,2.235,1.828c.938.062,1.875.031,2.813.047H26.6v-8.709c.327-.016.595-.016.844-.047,2.182-.282,4.406-.406,6.547-.891a9.747,9.747,0,0,0,7.627-6.329,15,15,0,0,0,.595-6.861,8.96,8.96,0,0,0-2.048-4.97,9.821,9.821,0,0,0-6.183-3.171A37.3,37.3,0,0,0,28.709,366C24.891,365.91,21.062,365.972,17.171,365.972Zm89.391.031v22.161c0,1.922-.016,3.861,0,5.783a3.092,3.092,0,0,0,3.548,3.517h5.965V384.976h8.845v-6.689h-8.809v-5.345h13.377V366Zm26.1-.031v27.987c.078,2.422,1.173,3.484,3.579,3.484h5.954c.016-.344.047-.595.047-.844V369.5a7.388,7.388,0,0,0-.078-1.173,2.524,2.524,0,0,0-2.25-2.344C137.52,365.925,135.129,365.972,132.659,365.972Z" transform="translate(0.062 -300.988)" fill="#eb2027"/><path d="M364.843,1.49a2.688,2.688,0,0,1,3-1.438,2.617,2.617,0,0,1,1.517,4.126,1.791,1.791,0,0,0-.327,1.249c.3,1.14.749,2.25,1.14,3.375.173.484.531.609,1.031.609,3.47-.016,6.923-.016,10.393,0a6.423,6.423,0,0,1,1.548.156,3.368,3.368,0,0,1,2.531,3.657c.016,4.141.031,8.283-.016,12.424a3.819,3.819,0,0,0,.875,2.562,27.411,27.411,0,0,1,3.906,6.365,13.013,13.013,0,0,1,1.091,6.923,7.467,7.467,0,0,1-7.485,6.861,31.752,31.752,0,0,1-7.954-.953,58.163,58.163,0,0,0-18.473-.595c-3.923.469-7.845,1.031-11.768,1.391a7.611,7.611,0,0,1-8.032-9.22,28.89,28.89,0,0,1,3.719-8.611A12.731,12.731,0,0,1,342.79,28.4a5.868,5.868,0,0,0,1.313-4.314c-.095-3.517-.031-7.032-.031-10.548,0-2.657,1.047-3.906,3.688-4.017,3.517-.125,7.032-.078,10.533-.062a1.233,1.233,0,0,0,1.375-.827c.327-.891.687-1.782.953-2.7a1.948,1.948,0,0,0-.344-1.875,2.546,2.546,0,0,1,.631-3.537,2.575,2.575,0,0,1,3.572.486,3.5,3.5,0,0,1,.364.484Zm-.013,13.252c-4.688,0-9.376.016-14.065-.016-.531,0-.8.125-.891.687a17.116,17.116,0,0,1-.453,1.969A28.841,28.841,0,0,1,344.8,27.7,35,35,0,0,0,339.356,38a6.9,6.9,0,0,0,.047,4.814,5.625,5.625,0,0,0,5.828,4c2-.062,3.984-.344,5.97-.546,4-.422,8-.953,12.017-1.235a53.475,53.475,0,0,1,14.1,1.235,26.708,26.708,0,0,0,6.954.727,5.91,5.91,0,0,0,3.939-1.626,7.894,7.894,0,0,0,1.906-7.172,14.893,14.893,0,0,0-2.517-6.079c-1.017-1.548-2.173-2.984-3.141-4.563a43.975,43.975,0,0,1-4.563-11.893c-.182-.727-.469-.922-1.2-.909C374.118,14.758,369.472,14.742,364.831,14.742Zm-15.861-1.328H380.71a50.811,50.811,0,0,0,3.61,10.564V12.992a2.031,2.031,0,0,0-2.266-2.266H348c-1.844,0-2.626.782-2.626,2.6V23.714c0,.182.031.364.062.727a39.837,39.837,0,0,0,3.532-11.028Zm19.362-4.032a6.158,6.158,0,0,0-.922-3.719c-.126-.2-.344-.453-.546-.484a2.813,2.813,0,0,1-2-1.5,2.748,2.748,0,0,1-1.939,1.484.839.839,0,0,0-.453.266,6.33,6.33,0,0,0-1.126,3.954Zm-.2-6.594c.562-.016.909-.3.909-.844a.791.791,0,0,0-.86-.891.806.806,0,0,0-.909.844.791.791,0,0,0,.86.889Zm-5.032,0a.806.806,0,0,0,.875-.875.8.8,0,0,0-.891-.86.784.784,0,0,0-.86.891.756.756,0,0,0,.877.842Z" transform="translate(-284.881 0.014)" fill="#191b1c"/><path d="M314.628,433.66c2.673,2,3.328,4.954,4.063,7.845.469,1.828.909,3.672,1.375,5.563H309.832c-.595-2.813-1.14-5.579-1.8-8.314a9.255,9.255,0,0,0-1.156-2.328,1.335,1.335,0,0,0-1.273-.673c-2.095.047-2.095.016-2.095,2.109V447.1h-1.673c-1.595,0-3.172-.047-4.766,0a2.909,2.909,0,0,1-3.048-2.891,5.282,5.282,0,0,1-.031-.86v-27.74h.875c3.6,0,7.189-.047,10.784.016a27.717,27.717,0,0,1,7.845.922,7.638,7.638,0,0,1,5.861,6.079,11.382,11.382,0,0,1-1.219,8.205,6.823,6.823,0,0,1-3.511,2.83Zm-11.093-3.673c.5,0,.922.031,1.328,0a18.3,18.3,0,0,0,2.439-.344c2.313-.595,2.875-1.844,2.922-4.235.047-1.922-.766-3.11-2.364-3.328-1.422-.2-2.861-.173-4.344-.251.018,2.8.018,5.456.018,8.158Z" transform="translate(-248.026 -350.657)" fill="#fefefe"/><path d="M488.874,445.208a18.9,18.9,0,0,1-5.845-.844,10.5,10.5,0,0,1-7.049-7.439,27.233,27.233,0,0,1-.031-15.69,11.05,11.05,0,0,1,9.971-8.284,20.763,20.763,0,0,1,7.22.266,10.671,10.671,0,0,1,8.365,7.376,26.221,26.221,0,0,1-.062,17.082,10.535,10.535,0,0,1-9.424,7.3C490.938,445.1,489.907,445.128,488.874,445.208ZM484.2,428.956c.047,0,.109.016.156.016v1.017a18.608,18.608,0,0,0,.813,6.079,3.473,3.473,0,0,0,3.7,2.517,3.419,3.419,0,0,0,3.61-2.5,10.615,10.615,0,0,0,.344-1.2,30.734,30.734,0,0,0,.364-8.627,24.8,24.8,0,0,0-.875-4.641,3.035,3.035,0,0,0-2.3-2.126,3.837,3.837,0,0,0-5.11,3.375c-.411,2-.48,4.061-.707,6.092Z" transform="translate(-400.598 -348.264)" fill="#fefefe"/><path d="M109.968,415.808c3.892,0,7.705-.047,11.533.016a37.061,37.061,0,0,1,5.274.484,9.966,9.966,0,0,1,6.183,3.172,8.96,8.96,0,0,1,2.048,4.97,14.789,14.789,0,0,1-.595,6.861,9.769,9.769,0,0,1-7.627,6.328c-2.14.484-4.364.609-6.547.891-.249.031-.5.031-.844.047v8.705h-4.2c-.938,0-1.875.016-2.813-.047a2.25,2.25,0,0,1-2.235-1.828,5.252,5.252,0,0,1-.2-1.391q-.024-13.9,0-27.824C109.952,416.108,109.952,416.013,109.968,415.808Zm9.471,16.581c1.3-.282,2.47-.453,3.61-.782a3.159,3.159,0,0,0,2.406-2.782,18.48,18.48,0,0,0,.031-3.719,2.619,2.619,0,0,0-1.891-2.266,11.639,11.639,0,0,0-4.157-.327Z" transform="translate(-92.733 -350.826)" fill="#fefefe"/><path d="M682.209,416.1H705.15v6.94H691.773v5.345h8.814v6.689h-8.845v12.488h-5.97a3.092,3.092,0,0,1-3.548-3.517c-.031-1.922,0-3.861,0-5.783V417.009C682.209,416.726,682.209,416.444,682.209,416.1Z" transform="translate(-575.584 -351.084)" fill="#fefefe"/><path d="M849.2,415.808c2.469,0,4.859-.047,7.25.016a2.524,2.524,0,0,1,2.25,2.344,7.394,7.394,0,0,1,.078,1.173v27.1c0,.251-.016.5-.047.844h-5.954c-2.406,0-3.5-1.062-3.579-3.484V415.808Z" transform="translate(-716.477 -350.826)" fill="#fefefe"/><path d="M372.011,94.329c4.641,0,9.275.016,13.908-.016.727,0,1.017.182,1.2.909a43.971,43.971,0,0,0,4.563,11.893c.953,1.578,2.126,3.017,3.141,4.563a15.111,15.111,0,0,1,2.517,6.079,7.894,7.894,0,0,1-1.906,7.172,5.765,5.765,0,0,1-3.939,1.626,26.054,26.054,0,0,1-6.954-.727,53.474,53.474,0,0,0-14.1-1.235c-4.017.282-8,.827-12.017,1.235-1.984.2-3.97.484-5.97.546a5.625,5.625,0,0,1-5.828-4,6.9,6.9,0,0,1-.047-4.814,34.812,34.812,0,0,1,5.439-10.3,28.839,28.839,0,0,0,4.626-10.315,17.9,17.9,0,0,0,.453-1.969c.078-.562.344-.7.891-.687C362.649,94.345,367.337,94.329,372.011,94.329Zm.687,27.084a9.38,9.38,0,0,0,1.609-.266c4.345-1.3,6.829-4.5,8.6-8.454a2.075,2.075,0,0,1,.8-1.062c1.3-.626,1.327-.609.578-1.8l-.422-.656c-.344-.531-.727-.546-1.109-.047a3.286,3.286,0,0,1-1.891,1.273,42.523,42.523,0,0,1-10.377,1.637,20.449,20.449,0,0,1-10.329-1.782.771.771,0,0,0-.687.251.951.951,0,0,0,.156,1.328,24.626,24.626,0,0,1,1.735,2.095c.766,1.017,1.438,2.11,2.282,3.062a11.837,11.837,0,0,0,9.062,4.414Zm9.94-19.518a24.91,24.91,0,0,0-1.548-3.172,4.023,4.023,0,0,0-6.3-.327,5.621,5.621,0,0,0-.813,6.127c.095.173.218.422.156.546-.327.626.173.673.516.727a3.676,3.676,0,0,0,1.091-.047,9.224,9.224,0,0,1,6.392,1.062,2.364,2.364,0,0,0,.813.173c.031-.095.078-.2.109-.3-.438-.344-.86-.687-1.171-.922-.031-1.673,1.609-1.719,2.313-2.728-.546.078-1.091.173-1.637.249-.031-.078-.047-.14-.078-.218l1.86-1.3c-.031-.062-.078-.14-.109-.2-.567.107-1.146.233-1.6.327Zm-20.488,1.126c-.062.078-.109.156-.173.235-.484-.078-.953-.156-1.438-.218-.047.078-.109.156-.156.249a3.168,3.168,0,0,1,2.313,2.7c-.364.344-.749.7-1.126,1.078l.156.2c.313-.156.64-.282.953-.453a8.811,8.811,0,0,1,5.172-1.157c.673.062,1.328.3,2,.327a4.593,4.593,0,0,0,1.249-.266c-.016-.062-.031-.109-.047-.173-.2-.095-.406-.182-.626-.3a6.331,6.331,0,0,0-.031-5.47,3.981,3.981,0,0,0-7.092-.453,22.558,22.558,0,0,0-1.273,2.531c-.453-.095-1-.2-1.548-.3a1.014,1.014,0,0,1-.062.2c.569.42,1.147.826,1.726,1.249Zm12.184,6.365c-1.062,0-2.157.047-3.235-.031-.364-.031-.673-.406-1.017-.626.2-.266.406-.531.626-.782-.031-.047-.078-.109-.109-.156a5.024,5.024,0,0,0-1.091.86c-.109.14.126.727.364.891a4.139,4.139,0,0,0,4.466-.162Z" transform="translate(-292.062 -79.573)" fill="#eb2027"/><path d="M390.51,71.581a39.122,39.122,0,0,1-3.548,11.049c-.031-.375-.062-.546-.062-.727V71.5c0-1.819.782-2.6,2.626-2.6h34.052a2.024,2.024,0,0,1,2.266,2.266V82.159a50.492,50.492,0,0,1-3.61-10.564C411.685,71.581,401.137,71.581,390.51,71.581Z" transform="translate(-326.424 -58.151)" fill="#fefefe"/><path d="M496.08,29.4h-7A6.33,6.33,0,0,1,490.2,25.45a.786.786,0,0,1,.453-.265A2.748,2.748,0,0,0,492.6,23.7a2.875,2.875,0,0,0,2,1.5,1.091,1.091,0,0,1,.546.484,5.957,5.957,0,0,1,.938,3.719Z" transform="translate(-412.632 -20.006)" fill="#fefefe"/><path d="M527.962,8.625a.811.811,0,0,1-.86-.891.884.884,0,0,1,1.766.047.791.791,0,0,1-.906.844Z" transform="translate(-444.716 -5.822)" fill="#fefefe"/><path d="M495.594,8.55a.778.778,0,0,1-.891-.86.876.876,0,1,1,1.751-.031.784.784,0,0,1-.86.891Z" transform="translate(-417.379 -5.75)" fill="#fefefe"/><path d="M355.1,463.573V455.4c1.469.078,2.922.047,4.345.251,1.595.218,2.406,1.422,2.364,3.328-.062,2.375-.609,3.626-2.922,4.235a18.3,18.3,0,0,1-2.439.344A12.563,12.563,0,0,1,355.1,463.573Z" transform="translate(-299.594 -384.242)" fill="#eb2027"/><path d="M534.9,464.22c.218-2.031.313-4.11.7-6.11a3.843,3.843,0,0,1,5.11-3.375,3.012,3.012,0,0,1,2.3,2.126,24.817,24.817,0,0,1,.875,4.641,31.324,31.324,0,0,1-.364,8.627,6.576,6.576,0,0,1-.344,1.2,3.413,3.413,0,0,1-3.61,2.5,3.5,3.5,0,0,1-3.7-2.517,18.547,18.547,0,0,1-.813-6.079V464.22A.265.265,0,0,1,534.9,464.22Z" transform="translate(-451.295 -383.529)" fill="#eb2027"/><path d="M170.8,468.528v-9.877a12.006,12.006,0,0,1,4.157.327,2.58,2.58,0,0,1,1.891,2.266,18.487,18.487,0,0,1-.031,3.719,3.2,3.2,0,0,1-2.406,2.782C173.27,468.074,172.1,468.263,170.8,468.528Z" transform="translate(-144.096 -386.961)" fill="#eb2027"/><path d="M443.427,199.6a11.917,11.917,0,0,1-9.049-4.392c-.844-.953-1.5-2.048-2.282-3.062a26.172,26.172,0,0,0-1.735-2.095.951.951,0,0,1-.156-1.328.771.771,0,0,1,.687-.251c3.235,1.8,6.8,1.766,10.329,1.782a43.408,43.408,0,0,0,10.377-1.637,3.335,3.335,0,0,0,1.891-1.273c.391-.5.766-.484,1.109.047.14.218.3.438.422.656.727,1.2.7,1.188-.578,1.8a2.075,2.075,0,0,0-.8,1.062c-1.766,3.939-4.25,7.158-8.595,8.454A11.594,11.594,0,0,1,443.427,199.6Zm-11.142-9.564c.438.938.8,1.688,1.157,2.439a2.48,2.48,0,0,0,1.673,1.406c1.109.313,2.219.656,3.563,1.062l-2.61.173a14.839,14.839,0,0,0,1.078,1.328,8.333,8.333,0,0,0,11.5-.047,6.011,6.011,0,0,0,1.062-1.218c.391-.673.109-1.091-.673-1.091a8.35,8.35,0,0,0-.86.047,39.322,39.322,0,0,0,3.47-2.249,7.611,7.611,0,0,0,1.455-1.891.811.811,0,0,0-.062-.7c-.062-.095-.422-.078-.625-.016-1.173.344-2.313.782-3.484,1.062a27.549,27.549,0,0,1-11.128.7c-1.735-.331-3.47-.644-5.518-1Z" transform="translate(-362.792 -157.758)" fill="#191b1c"/><path d="M529.549,116.582c.453-.095,1.031-.218,1.595-.344.031.062.078.14.109.2l-1.86,1.3c.031.078.047.14.078.218.546-.078,1.091-.173,1.637-.249-.7,1.017-2.344,1.062-2.313,2.728.313.249.727.595,1.171.922-.031.095-.078.2-.109.3a3.112,3.112,0,0,1-.813-.173,9.224,9.224,0,0,0-6.392-1.062,3.676,3.676,0,0,1-1.091.047c-.364-.047-.844-.095-.516-.727.062-.125-.062-.391-.156-.546a5.559,5.559,0,0,1,.813-6.127,4.032,4.032,0,0,1,6.3.327,26.207,26.207,0,0,1,1.551,3.188ZM526.5,119.63c1.375.516,1.438.5,1.891-.813a4.832,4.832,0,0,0-1.078-5.063A3.419,3.419,0,0,0,521.407,115a8.545,8.545,0,0,0-.14,3.219c.14,1.313.484,1.469,1.8,1.2-1.391-2.282-1.313-4.048.235-5.172a2.473,2.473,0,0,1,3.532.406c-1.14-.095-1.671.109-1.875.749a.966.966,0,0,0,.469,1.273,1.873,1.873,0,0,0,1.188.173c.364-.078.673-.438,1.031-.687a3.516,3.516,0,0,1-1.14,3.461Z" transform="translate(-438.974 -94.261)" fill="#191b1c"/><path d="M438.87,119.567c-.578-.422-1.157-.827-1.735-1.249a1.006,1.006,0,0,1,.062-.2c.545.109,1.091.218,1.548.3a20.146,20.146,0,0,1,1.273-2.531,3.979,3.979,0,0,1,7.092.453,6.383,6.383,0,0,1,.031,5.47c.218.095.422.2.626.3.016.062.031.109.047.173a4.477,4.477,0,0,1-1.249.265c-.673-.047-1.328-.282-2-.327a8.809,8.809,0,0,0-5.172,1.157c-.313.173-.64.3-.953.453l-.156-.2c.391-.375.782-.727,1.126-1.078a3.188,3.188,0,0,0-2.313-2.7c.047-.078.109-.156.156-.249.484.078.953.156,1.438.218A2.235,2.235,0,0,0,438.87,119.567Zm1.637-1.3c.766.891,1.406,1.126,2.095.813a1.037,1.037,0,0,0,.578-1.3c-.235-.969-1.031-1-1.875-.891a2.7,2.7,0,0,1,3.719-.235,3.646,3.646,0,0,1,.156,4.876c.984.282,1.031.266,1.422-.609a4.843,4.843,0,0,0-.047-4.157,3.292,3.292,0,0,0-5.439-.984,5.61,5.61,0,0,0-1.626,5c.218,1.422.595,1.609,2,1.048a3.514,3.514,0,0,1-.98-3.566Z" transform="translate(-368.783 -96.12)" fill="#191b1c"/><path d="M500.18,182.11a4.108,4.108,0,0,1-4.47.14c-.235-.173-.469-.727-.364-.891a5.022,5.022,0,0,1,1.091-.86c.031.047.078.109.109.156-.2.266-.406.531-.626.782.344.218.656.609,1.017.626a32.111,32.111,0,0,0,3.242.047Z" transform="translate(-417.905 -152.304)" fill="#191b1c"/><path d="M444.6,202.108c2.048.364,3.783.673,5.517.984a27.568,27.568,0,0,0,11.128-.7c1.188-.282,2.328-.727,3.484-1.062.2-.062.562-.078.626.016a.811.811,0,0,1,.062.7,7.337,7.337,0,0,1-1.455,1.891c-1.126.875-2.391,1.562-3.47,2.25.14,0,.5-.047.86-.047.782,0,1.062.406.673,1.091a6.011,6.011,0,0,1-1.062,1.218,8.316,8.316,0,0,1-11.5.047,14.847,14.847,0,0,1-1.078-1.328l2.61-.173c-1.344-.406-2.439-.751-3.563-1.062a2.48,2.48,0,0,1-1.671-1.406C445.4,203.8,445.038,203.03,444.6,202.108Z" transform="translate(-375.107 -169.83)" fill="#fefefe"/><path d="M531.285,124.163a3.521,3.521,0,0,0,1.14-3.455c-.375.249-.671.609-1.031.687a2.075,2.075,0,0,1-1.188-.173.966.966,0,0,1-.469-1.273c.2-.64.727-.844,1.875-.749a2.471,2.471,0,0,0-3.532-.406c-1.548,1.126-1.626,2.891-.235,5.172-1.313.266-1.671.109-1.8-1.2a8.548,8.548,0,0,1,.14-3.219,3.415,3.415,0,0,1,5.907-1.249,4.8,4.8,0,0,1,1.078,5.063C532.738,124.649,532.676,124.68,531.285,124.163Z" transform="translate(-443.758 -98.796)" fill="#fefefe"/><path d="M452.864,122.843a3.593,3.593,0,0,0,.953,3.579c-1.406.562-1.8.375-2-1.047a5.654,5.654,0,0,1,1.626-5,3.288,3.288,0,0,1,5.439.984,4.9,4.9,0,0,1,.047,4.157c-.375.875-.422.875-1.422.609a3.637,3.637,0,0,0-.156-4.876,2.706,2.706,0,0,0-3.719.235c.86-.109,1.657-.078,1.875.891a1.029,1.029,0,0,1-.578,1.3C454.286,123.953,453.646,123.718,452.864,122.843Z" transform="translate(-381.136 -100.694)" fill="#fefefe"/></g></g></svg>