<svg xmlns="http://www.w3.org/2000/svg" width="221.496" height="221.496" viewBox="0 0 221.496 221.496"><g transform="translate(-319.704)"><g transform="translate(319.704)" fill="none" stroke="#bc970c" stroke-width="2"><circle cx="110.748" cy="110.748" r="110.748" stroke="none"/><circle cx="110.748" cy="110.748" r="109.748" fill="none"/></g><g transform="translate(-160.987 -259.433)"><g transform="translate(513.478 357.993)"><path d="M539.665,436.475a24.117,24.117,0,0,1,0-48.234H644.823a24.117,24.117,0,0,1,0,48.234Z" transform="translate(-514.224 -386.917)" fill="#e20917"/><path d="M644.077,388.819a22.86,22.86,0,0,1,22.793,22.793h0a22.86,22.86,0,0,1-22.793,22.793H538.919a22.86,22.86,0,0,1-22.793-22.793h0a22.859,22.859,0,0,1,22.793-22.793H644.077m0-2.648H538.919a25.441,25.441,0,1,0,0,50.882H644.077a25.441,25.441,0,1,0,0-50.882Z" transform="translate(-513.478 -386.171)" fill="#fff"/><g transform="translate(18.924 10.946)"><path d="M543.06,430.3V403.946h9.854c6.964,0,13.93,1.061,13.93,10.15,0,8.536-5.733,11.169-14.864,11.34v8.239H545.6c-1.68,0-2.545-1.169-2.545-3.243m10.023-20.2h-1.1v9.3c4.884-.34,5.946-1.614,5.946-5.267C557.925,411,556.523,410.231,553.083,410.231Z" transform="translate(-543.06 -403.521)" fill="#fff"/><path d="M600.413,433.675l-.679-4.289c-.552-3.4-1.359-5.351-2.633-6.5l-2.634.17v10.617h-6.284c-2.634,0-2.634-3.375-2.634-3.375V403.946h10.278c6.159,0,13.93.424,13.93,8.918,0,4.332-1.954,7.135-4.757,8.154,2.039,1.274,3.016,3.907,3.653,6.455l1.529,6.2Zm-4.8-23.953h-1.147v7.858a13.812,13.812,0,0,0,4.587-.68c1.147-.509,1.869-1.529,1.869-3.652C600.923,410.358,599.649,409.721,595.614,409.721Z" transform="translate(-558.368 -403.521)" fill="#fff"/><path d="M640.539,433.86c-6.328,0-13.165-2.123-13.165-15.289,0-13.378,7.3-15.289,13.165-15.289,6.2,0,13.166,2.293,13.166,15.289C653.705,432.289,646.315,433.86,640.539,433.86Zm0-24.42c-3.312,0-4.247,2.676-4.247,9.131,0,6.37.892,9.131,4.247,9.131,3.185,0,4.247-2.293,4.247-9.131C644.786,412.37,643.937,409.44,640.539,409.44Z" transform="translate(-573.437 -403.282)" fill="#fff"/><path d="M696.867,410.529H684.134v5.1h8.408v6.285h-8.408v11.764h-6.327c-2.634,0-2.634-3.375-2.634-3.375V403.946h21.7Z" transform="translate(-590.658 -403.521)" fill="#fff"/><path d="M716.378,433.675c-2.634,0-2.634-3.375-2.634-3.375V403.946h6.37c2.634,0,2.634,2.81,2.634,2.81v26.919Z" transform="translate(-604.556 -403.521)" fill="#fff"/></g></g><path d="M637.83,322.825H605.979c-2.545,0-3.4,1.184-3.4,2.9v12.821c-2.827,3.864-6.055,9.677-6.055,12.978,0,3.434,2.808,6.269,4.618,6.572,4.479.75,11.255-1.648,21.243-1.648,9.176,0,14.328,2.828,19.252,1.648,2.36-.565,4.677-3.138,4.677-6.867s-1.658-6.927-4.855-11.13a13.283,13.283,0,0,1-.787-1.17V325.608a2.6,2.6,0,0,0-2.842-2.783" transform="translate(-29.921 -5.355)" fill="#fff" stroke="#fff" stroke-miterlimit="10" stroke-width="5.138"/><path d="M641.459,334.745a13.283,13.283,0,0,1-.787-1.17V320.253a2.6,2.6,0,0,0-2.842-2.783H625.292l1.755-.528a9.005,9.005,0,0,1-1.238-2.471,8.711,8.711,0,0,1-.333-2.191,26.057,26.057,0,0,1-5.43-4.214,2.444,2.444,0,0,0-2.275,4.214,8.714,8.714,0,0,1-.333,2.191,9.007,9.007,0,0,1-1.239,2.471l1.755.528H605.979c-2.545,0-3.4,1.184-3.4,2.9v12.821c-2.827,3.864-6.055,9.677-6.055,12.979,0,3.434,2.808,6.268,4.618,6.572,4.479.75,11.255-1.648,21.243-1.648,9.176,0,14.328,2.828,19.252,1.648,2.36-.565,4.677-3.138,4.677-6.867S644.655,338.948,641.459,334.745Zm-22.91-20.063a5.578,5.578,0,0,1,.945-1.837,2.224,2.224,0,0,1,4.259,0,5.578,5.578,0,0,1,.945,1.837,6.84,6.84,0,0,1,.214,2.789h-6.578A6.839,6.839,0,0,1,618.549,314.682Z" transform="translate(-29.921 0)" fill="#1d1e1c" stroke="#fff" stroke-miterlimit="10" stroke-width="2.569"/><g transform="translate(566.008 307.962)"><g transform="translate(0)"><g transform="translate(6.055 8.913)"><path d="M605.99,338.673V325.726c0-1.717.854-2.9,3.4-2.9H641.24a2.6,2.6,0,0,1,2.842,2.783V339" transform="translate(-605.394 -322.229)" fill="#fff"/><path d="M644.341,338.662H643.15v-13.39a2.018,2.018,0,0,0-2.245-2.187H609.054c-2.471,0-2.8,1.166-2.8,2.305v12.947h-1.191V325.391c0-1.6.694-3.5,4-3.5H640.9a3.193,3.193,0,0,1,3.436,3.378Z" transform="translate(-605.058 -321.894)" fill="#1d1e1c"/></g><g transform="translate(0 12.687)"><path d="M607.115,328.725h29.021s2.125,9.3,5.322,13.5,4.855,7.4,4.855,11.13-2.317,6.3-4.677,6.867c-4.924,1.18-10.076-1.648-19.252-1.648-9.988,0-16.764,2.4-21.243,1.648-1.81-.3-4.618-3.138-4.618-6.572s3.493-9.591,6.394-13.438S607.115,328.725,607.115,328.725Z" transform="translate(-595.928 -328.129)" fill="#e20917"/><path d="M638.706,360.774a34.216,34.216,0,0,1-6.03-.771,55.014,55.014,0,0,0-10.627-1.167,85.379,85.379,0,0,0-12.686,1.111c-3.543.512-6.342.915-8.655.528-2.036-.341-5.115-3.37-5.115-7.159,0-3.543,3.376-9.636,6.514-13.8,2.778-3.686,4.073-11.154,4.085-11.229l.084-.5h30l.105.462c.021.092,2.135,9.221,5.216,13.273,2.987,3.928,4.976,7.385,4.976,11.49,0,4.081-2.583,6.836-5.134,7.447A11.6,11.6,0,0,1,638.706,360.774Zm-16.657-3.129a56.078,56.078,0,0,1,10.842,1.187c3.241.6,5.8,1.069,8.27.477,2.1-.5,4.221-2.824,4.221-6.288,0-3.314-1.283-6.233-4.733-10.769-2.863-3.764-4.839-11.3-5.318-13.266H607.276c-.345,1.785-1.663,7.861-4.218,11.251-3.041,4.034-6.274,9.99-6.274,13.08,0,3.232,2.706,5.747,4.12,5.984,2.132.358,4.848-.036,8.289-.532A86.339,86.339,0,0,1,622.05,357.644Z" transform="translate(-595.593 -327.794)" fill="#1d1e1c"/></g><g transform="translate(20.271)"><path d="M632.762,311.111a2.444,2.444,0,1,0-3.911,1.169,8.714,8.714,0,0,1-.333,2.191,9.007,9.007,0,0,1-1.238,2.471l2.155.649a6.754,6.754,0,0,1,.2-2.909,5.579,5.579,0,0,1,.945-1.837A2.443,2.443,0,0,0,632.762,311.111Z" transform="translate(-627.28 -307.962)" fill="#1d1e1c"/></g><g transform="translate(25.532)"><path d="M635.609,311.111a2.444,2.444,0,1,1,3.911,1.169,8.714,8.714,0,0,0,.333,2.191,9.009,9.009,0,0,0,1.238,2.471l-2.154.649a6.754,6.754,0,0,0-.2-2.909,5.579,5.579,0,0,0-.945-1.837A2.443,2.443,0,0,1,635.609,311.111Z" transform="translate(-635.505 -307.962)" fill="#1d1e1c"/></g><g transform="translate(23.193 0.983)"><circle cx="0.829" cy="0.829" r="0.829" fill="#fff"/></g><g transform="translate(27.989 0.983)"><circle cx="0.829" cy="0.829" r="0.829" fill="#fff"/></g></g><g transform="translate(15.718 16.834)"><path d="M620.163,343.583a2.062,2.062,0,0,0,1.027-.382,8.3,8.3,0,0,1,5.85-1.051,8.184,8.184,0,0,1,1.266.311s.267-.1.477-.191c.267-.114.621-.263.43-.31s-.692-.215-.692-.215a5.824,5.824,0,0,0,.645-2.627c.1-2.078-1.48-5.233-4.45-4.8-2.786.406-3.982,3.463-3.982,5.326a4.2,4.2,0,0,0,.812,2.746,3.6,3.6,0,0,0-.812.549A4.54,4.54,0,0,0,620.163,343.583Z" transform="translate(-620.163 -334.277)" fill="#1d1e1c"/><g transform="translate(1.146 0.798)"><path d="M622.719,342.576s.325-.113.659-.208.583-.144.583-.144a3.419,3.419,0,0,1-1.1-2.084,2.621,2.621,0,0,1,.176-1.48,1.635,1.635,0,0,0,1.264,1,1.048,1.048,0,0,0,1.253-.908,1.176,1.176,0,0,0-.974-1.277,2.255,2.255,0,0,0-1.05.161,2.378,2.378,0,0,1,1.958-.979,2.633,2.633,0,0,1,2.723,2.961c-.1,1.908-1,2.354-1,2.354a5.172,5.172,0,0,1,.52.016c.334.024.556.058.556.058a4.562,4.562,0,0,0,.853-2.643c0-1.576-.951-3.94-3.41-3.874s-3.777,2.991-3.777,4.734A2.862,2.862,0,0,0,622.719,342.576Z" transform="translate(-621.955 -335.524)" fill="#fff"/></g></g><g transform="translate(27.012 16.53)"><path d="M645.936,342.9c.747.516,1.122.191.788-.168a5.642,5.642,0,0,0-1.17-.788,3.449,3.449,0,0,0,.812-2.531c.048-1.887-1.123-5.541-4.2-5.612s-4.131,2.651-4.322,4.418a4.7,4.7,0,0,0,.883,3.128s-.549.12-.311.358.311.406,1.051.335a9.409,9.409,0,0,1,3.868-.072A5.738,5.738,0,0,1,645.936,342.9Z" transform="translate(-637.818 -333.802)" fill="#1d1e1c"/><g transform="translate(0.738 0.742)"><path d="M644.012,341.672s.306.058.622.152c.34.1.6.2.6.2a4.318,4.318,0,0,0,.884-2.714c0-2.053-1.642-4.346-3.57-4.346-2.236,0-3.594,1.672-3.57,3.988s.788,2.65.788,2.65.358-.048.6-.072.621-.048.621-.048a3.1,3.1,0,0,1-1.146-2.531,2.85,2.85,0,0,1,2.712-2.938,2.664,2.664,0,0,1,2.064,1.123,5.9,5.9,0,0,0-.883-.239,1.188,1.188,0,0,0-1.18,1.027c-.061.741.609,1.1,1.18,1.146a1.244,1.244,0,0,0,1.337-1,2.769,2.769,0,0,1,.143,1.433A2.842,2.842,0,0,1,644.012,341.672Z" transform="translate(-638.973 -334.962)" fill="#fff"/></g></g><g transform="translate(13.665 27.576)"><path d="M617.731,352.493a8.3,8.3,0,0,0,2.623,1.1,34.548,34.548,0,0,0,8.068.613,43.6,43.6,0,0,0,9.882-1.9c.45-.308.561-.641.835-.876s.483-.732,1.02.077a7.75,7.75,0,0,1,.83,1.43c.145.353-.306.66-.737.713a1.213,1.213,0,0,0-1.025,1.118c-.052.679-3.671,7.836-9.334,8.175s-9.323-4.339-10.842-6.824-2.146-2.107-2.1-2.786S617.371,352.277,617.731,352.493Z" transform="translate(-616.955 -351.07)" fill="#1d1e1c"/><g transform="translate(2.314 2.072)"><path d="M620.857,355.191s5.571,1.388,9.284,1.158a33.453,33.453,0,0,0,9.134-1.869c.718-.458,1.105.066.71.771a7.209,7.209,0,0,1-2.68,2.667,12.379,12.379,0,0,1-3.258,1.29s1.469-.23,2.325-.25.778,1-.044,1.7a7.931,7.931,0,0,1-11.791.044c-.471-.548-.53-.894.234-.837a10.482,10.482,0,0,0,1.888-.113s-1.261-.267-2.679-.716-1.891-.431-2.521-1.665S620.185,355.034,620.857,355.191Z" transform="translate(-620.572 -354.308)" fill="#fff"/></g></g><g transform="translate(23.264 26.763)"><path d="M634.223,351.384a4.757,4.757,0,0,0,1.745-.1,3.976,3.976,0,0,0,.8-.357c.162-.092-.058.266-.436.459a4.391,4.391,0,0,1-2.869.364,2.29,2.29,0,0,1-1.416-.711.732.732,0,0,1,.311-.987,1.724,1.724,0,0,1,.917-.251c.212,0-.653.286-.769.591C632.382,350.725,632.908,351.182,634.223,351.384Z" transform="translate(-631.959 -349.798)" fill="#1d1e1c"/></g><g transform="translate(14.759 22.177)"><path d="M620.5,343.85l-1.429-.78c-.622-.34-.521-.557.206-.377s1.336.294,1.336.294Z" transform="translate(-618.665 -342.628)" fill="#1d1e1c"/></g><g transform="translate(14.724 20.793)"><path d="M620.4,341.757l-1.394-.84c-.607-.366-.5-.578.222-.368s1.323.351,1.323.351Z" transform="translate(-618.609 -340.465)" fill="#1d1e1c"/></g><g transform="translate(35.336 22.177)"><path d="M650.946,343.85l1.428-.78c.622-.34.521-.557-.206-.377s-1.337.294-1.337.294Z" transform="translate(-650.831 -342.628)" fill="#1d1e1c"/></g><g transform="translate(35.386 20.793)"><path d="M651.058,341.757l1.395-.84c.607-.366.5-.578-.222-.368s-1.323.351-1.323.351Z" transform="translate(-650.908 -340.465)" fill="#1d1e1c"/></g></g></g></g></svg>