<svg xmlns="http://www.w3.org/2000/svg" width="221.496" height="221.496" viewBox="0 0 221.496 221.496"><g transform="translate(-319.704)"><g transform="translate(319.704)" fill="none" stroke="#bc970c" stroke-width="2"><circle cx="110.748" cy="110.748" r="110.748" stroke="none"/><circle cx="110.748" cy="110.748" r="109.748" fill="none"/></g><g transform="translate(359.668 39.11)"><g transform="translate(0 65.365)" fill="#ec6500" stroke="#ec6500" stroke-miterlimit="10" stroke-width="4.422"><rect width="141.569" height="81.112" rx="38.055" stroke="none"/><rect x="2.211" y="2.211" width="137.147" height="76.691" rx="35.844" fill="none"/></g><g transform="translate(-469.435 -458.407)" fill="#d90010" stroke-miterlimit="10"><path d="M 589.598388671875 566.2825927734375 L 490.8406982421875 566.2825927734375 C 487.6651000976563 566.2825927734375 484.5779113769531 565.6550903320313 481.6648864746094 564.4175415039063 C 478.85595703125 563.2241821289063 476.3308715820313 561.5182495117188 474.1597290039063 559.3471069335938 C 471.9885864257813 557.1759643554688 470.2826538085938 554.65087890625 469.0892944335938 551.8419799804688 C 467.8517456054688 548.928955078125 467.2242431640625 545.8417358398438 467.2242431640625 542.6661376953125 C 467.2242431640625 539.4905395507813 467.8517456054688 536.4033203125 469.0893249511719 533.4903564453125 C 470.2826538085938 530.6814575195313 471.9885864257813 528.1564331054688 474.1597595214844 525.9853515625 C 476.3308715820313 523.8142700195313 478.8559875488281 522.1083984375 481.6649169921875 520.9151000976563 C 484.5779113769531 519.6776123046875 487.6651000976563 519.0501708984375 490.8406982421875 519.0501708984375 L 589.598388671875 519.0501708984375 C 592.7739868164063 519.0501708984375 595.8611450195313 519.6776123046875 598.7741088867188 520.9151611328125 C 601.5830078125 522.1083984375 604.1080322265625 523.8143310546875 606.2791137695313 525.9853515625 C 608.4501342773438 528.1564331054688 610.1560668945313 530.6815185546875 611.349365234375 533.4903564453125 C 612.5868530273438 536.4033203125 613.2142944335938 539.4905395507813 613.2142944335938 542.6661376953125 C 613.2142944335938 545.8417358398438 612.5868530273438 548.9288940429688 611.349365234375 551.8419189453125 C 610.1560668945313 554.65087890625 608.4501953125 557.1759643554688 606.2791137695313 559.3471069335938 C 604.1080322265625 561.5182495117188 601.5830078125 563.2241821289063 598.774169921875 564.4175415039063 C 595.8612060546875 565.6550903320313 592.7739868164063 566.2825927734375 589.598388671875 566.2825927734375 Z" stroke="none"/><path d="M 589.598388671875 564.0718383789063 C 601.3713989257813 564.0718383789063 611.0035400390625 554.4391479492188 611.0035400390625 542.6661376953125 C 611.0035400390625 530.89306640625 601.3713989257813 521.2609252929688 589.598388671875 521.2609252929688 L 490.8406982421875 521.2609252929688 C 479.0676879882813 521.2609252929688 469.4349975585938 530.89306640625 469.4349975585938 542.6661376953125 C 469.4349975585938 554.4391479492188 479.0676879882813 564.0718383789063 490.8406982421875 564.0718383789063 L 589.598388671875 564.0718383789063 M 589.598388671875 568.4933471679688 L 490.8406982421875 568.4933471679688 C 487.3663940429688 568.4933471679688 483.9883728027344 567.806640625 480.8004455566406 566.4522705078125 C 477.7292785644531 565.1475219726563 474.9690856933594 563.282958984375 472.5964660644531 560.910400390625 C 470.2238464355469 558.5377807617188 468.3592834472656 555.7775268554688 467.0545349121094 552.7064208984375 C 465.7001953125 549.5184936523438 465.0134582519531 546.1404418945313 465.0134582519531 542.6661376953125 C 465.0134582519531 539.1917724609375 465.7001953125 535.8137817382813 467.0545349121094 532.6258544921875 C 468.3592834472656 529.5547485351563 470.2239074707031 526.7946166992188 472.5965270996094 524.4220581054688 C 474.9691162109375 522.049560546875 477.7293090820313 520.18505859375 480.8004760742188 518.88037109375 C 483.9884033203125 517.5260620117188 487.3664245605469 516.8394165039063 490.8406982421875 516.8394165039063 L 589.598388671875 516.8394165039063 C 593.0726928710938 516.8394165039063 596.45068359375 517.5260620117188 599.6385498046875 518.88037109375 C 602.7096557617188 520.18505859375 605.4698486328125 522.0496215820313 607.8423461914063 524.422119140625 C 610.2149047851563 526.794677734375 612.0794067382813 529.5548706054688 613.3840942382813 532.6259765625 C 614.7384033203125 535.8138427734375 615.425048828125 539.1918334960938 615.425048828125 542.6661376953125 C 615.425048828125 546.140380859375 614.7384033203125 549.5184326171875 613.3840942382813 552.7063598632813 C 612.0794067382813 555.7774658203125 610.2149047851563 558.5377197265625 607.8424072265625 560.9102783203125 C 605.4698486328125 563.282958984375 602.709716796875 565.1475219726563 599.6386108398438 566.4522705078125 C 596.45068359375 567.806640625 593.0726928710938 568.4933471679688 589.598388671875 568.4933471679688 Z" stroke="none" fill="#fff"/></g><g transform="translate(15.285 70.645)"><path d="M496.609,560.571v-24.75h9.254c6.541,0,13.082,1,13.082,9.533,0,8.017-5.384,10.489-13.959,10.649v7.738H499c-1.577,0-2.389-1.1-2.389-3.046m9.413-18.971h-1.037v8.736c4.587-.32,5.584-1.516,5.584-4.946C510.569,542.442,509.253,541.724,506.022,541.724Z" transform="translate(-496.609 -535.422)" fill="#fff"/><path d="M555.949,563.741l-.638-4.029c-.518-3.191-1.276-5.026-2.473-6.1l-2.473.159v9.972h-5.9c-2.474,0-2.474-3.17-2.474-3.17v-24.75h9.652c5.784,0,13.083.4,13.083,8.376,0,4.068-1.835,6.7-4.467,7.658,1.915,1.2,2.832,3.67,3.431,6.063l1.435,5.823Zm-4.507-22.5h-1.077v7.379a12.964,12.964,0,0,0,4.308-.638c1.077-.478,1.755-1.436,1.755-3.43C556.428,541.844,555.231,541.246,551.442,541.246Z" transform="translate(-516.463 -535.422)" fill="#fff"/><path d="M599.025,563.83c-5.943,0-12.364-1.994-12.364-14.359,0-12.564,6.86-14.359,12.364-14.359,5.823,0,12.365,2.154,12.365,14.359C611.39,562.354,604.449,563.83,599.025,563.83Zm0-22.934c-3.111,0-3.989,2.513-3.989,8.575,0,5.983.838,8.576,3.989,8.576,2.991,0,3.988-2.154,3.988-8.576C603.013,543.647,602.216,540.9,599.025,540.9Z" transform="translate(-536.007 -535.112)" fill="#fff"/><path d="M658.086,542H646.128v4.785h7.9v5.9h-7.9v11.048h-5.942c-2.473,0-2.473-3.17-2.473-3.17v-24.75h20.381Z" transform="translate(-558.343 -535.422)" fill="#fff"/><path d="M681.383,563.741c-2.474,0-2.474-3.17-2.474-3.17v-24.75h5.982c2.473,0,2.473,2.639,2.473,2.639v25.281Z" transform="translate(-576.366 -535.422)" fill="#fff"/></g><g transform="translate(36.177 114.401)"><path d="M533.749,639.3V613.659h6.02v20.612h7.083V639.3Z" transform="translate(-533.749 -613.233)" fill="#fff"/><path d="M568.28,639.394c-6.834,0-9.987-5.7-9.987-13.245s3.152-13.247,9.987-13.247,9.988,5.7,9.988,13.247S575.116,639.394,568.28,639.394Zm0-21.214c-2.621,0-3.966,3.011-3.966,7.969s1.345,7.968,3.966,7.968,3.967-3.01,3.967-7.968S570.9,618.18,568.28,618.18Z" transform="translate(-544.487 -612.902)" fill="#fff"/><path d="M608.22,639.394c-5.737,0-10.271-4.357-10.271-13.245S602.482,612.9,608.22,612.9a10.76,10.76,0,0,1,5.6,1.382l-1.842,4.781a5.12,5.12,0,0,0-2.974-.921c-2.94,0-4.853,2.834-4.853,7.933s1.912,7.969,4.853,7.969a5.12,5.12,0,0,0,2.974-.956l1.842,4.922A10.482,10.482,0,0,1,608.22,639.394Z" transform="translate(-561.837 -612.902)" fill="#fff"/><path d="M638.587,639.394c-6.836,0-9.987-5.7-9.987-13.245s3.151-13.247,9.987-13.247,9.987,5.7,9.987,13.247S645.422,639.394,638.587,639.394Zm0-21.214c-2.621,0-3.967,3.011-3.967,7.969s1.346,7.968,3.967,7.968,3.966-3.01,3.966-7.968S641.208,618.18,638.587,618.18Z" transform="translate(-575.247 -612.902)" fill="#fff"/></g><g transform="translate(38.978 0)"><g transform="translate(0 10.801)"><path d="M591.54,431.375H552.863c-3.091,0-4.129,1.438-4.129,3.523v15.569c-3.433,4.692-7.353,11.752-7.353,15.761,0,4.17,3.409,7.612,5.608,7.98,5.44.911,13.668-2,25.8-2,11.142,0,17.4,3.433,23.377,2,2.866-.687,5.679-3.81,5.679-8.34s-2.013-8.411-5.895-13.516a16.5,16.5,0,0,1-.956-1.42V434.754a3.155,3.155,0,0,0-3.45-3.379" transform="translate(-539.889 -429.883)" fill="#fff"/><path d="M591.866,474.886a42.133,42.133,0,0,1-7.475-.944,66.245,66.245,0,0,0-12.766-1.4,101.489,101.489,0,0,0-15.3,1.342c-4.369.631-7.82,1.128-10.747.639-2.794-.467-6.853-4.382-6.853-9.452,0-4.731,4.49-12.245,7.352-16.244V433.737c0-3.187,2.049-5.015,5.621-5.015H590.38a4.646,4.646,0,0,1,4.943,4.872v15.752c.222.349.44.664.651.943,3.721,4.892,6.2,9.216,6.2,14.418,0,5.354-3.433,8.978-6.824,9.791A14.854,14.854,0,0,1,591.866,474.886Zm-20.241-5.334a69.65,69.65,0,0,1,13.306,1.455c3.846.709,6.885,1.268,9.723.588,2.253-.54,4.535-3.08,4.535-6.888,0-3.836-1.515-7.254-5.591-12.612a17.961,17.961,0,0,1-1.044-1.551l-.215-.357V433.594c0-1.27-.641-1.887-1.959-1.887H551.7c-2.438,0-2.636.92-2.636,2.031v16.057l-.288.393c-3.51,4.8-7.065,11.45-7.065,14.879,0,3.6,3.03,6.286,4.362,6.509,2.469.413,5.717-.055,9.828-.65A105.437,105.437,0,0,1,571.624,469.553Z" transform="translate(-538.729 -428.722)" fill="#fff"/></g><g transform="translate(0.746)"><path d="M595.946,443.372a16.5,16.5,0,0,1-.956-1.42V425.774a3.154,3.154,0,0,0-3.45-3.379H576.316l2.13-.641a10.939,10.939,0,0,1-1.5-3,10.563,10.563,0,0,1-.4-2.661,31.623,31.623,0,0,1-6.594-5.116,2.968,2.968,0,0,0-2.762,5.116,10.588,10.588,0,0,1-.4,2.661,10.922,10.922,0,0,1-1.5,3l2.13.641H552.863c-3.091,0-4.129,1.438-4.129,3.523v15.569c-3.433,4.692-7.353,11.752-7.353,15.761,0,4.17,3.409,7.612,5.608,7.98,5.44.911,13.668-2,25.8-2,11.142,0,17.4,3.433,23.377,2,2.866-.687,5.679-3.81,5.679-8.34S599.829,448.476,595.946,443.372Zm-27.82-24.363a6.774,6.774,0,0,1,1.147-2.231,2.7,2.7,0,0,1,5.172,0,6.777,6.777,0,0,1,1.147,2.231,8.294,8.294,0,0,1,.26,3.386h-7.987A8.309,8.309,0,0,1,568.126,419.008Z" transform="translate(-540.635 -410.101)" fill="#171716"/><path d="M592.432,465.745a41.54,41.54,0,0,1-7.326-.937,66.87,66.87,0,0,0-12.9-1.417,103.541,103.541,0,0,0-15.4,1.349c-4.3.621-7.706,1.111-10.518.642-2.48-.415-6.23-4.1-6.23-8.716s4.553-12.134,7.353-16V425.336c0-1.947.845-4.269,4.875-4.269h11.559l.253-.341a10.264,10.264,0,0,0,1.388-2.77,9.476,9.476,0,0,0,.358-2.136,6.34,6.34,0,1,1,10.878,0,9.484,9.484,0,0,0,.358,2.136,10.28,10.28,0,0,0,1.388,2.77l.253.341H590.96a3.9,3.9,0,0,1,4.2,4.125V441.16c.272.44.542.836.8,1.179h0c3.63,4.773,6.048,8.974,6.048,13.967,0,4.967-3.145,8.32-6.252,9.066A14.147,14.147,0,0,1,592.432,465.745ZM572.2,461.9a68.1,68.1,0,0,1,13.171,1.441c3.934.724,7.041,1.3,10.033.58,2.538-.609,5.107-3.419,5.107-7.614,0-4.018-1.556-7.559-5.742-13.064h0a17.171,17.171,0,0,1-1-1.486l-.108-.178V425.193a2.408,2.408,0,0,0-2.7-2.634H552.282c-2.981,0-3.382,1.4-3.382,2.777v15.813l-.145.2c-3.472,4.745-7.208,11.563-7.208,15.32,0,3.914,3.273,6.958,4.984,7.244,2.583.433,5.882-.043,10.058-.647A104.812,104.812,0,0,1,572.2,461.9Zm-4.234-40.832h6.619a7.5,7.5,0,0,0-.291-2.425,6.135,6.135,0,0,0-.839-1.742,2.576,2.576,0,0,0-4.359,0,6.14,6.14,0,0,0-.839,1.742h0A7.5,7.5,0,0,0,567.97,421.067Zm-2.111-.323.612.185a9.234,9.234,0,0,1,.113-1.631A11.978,11.978,0,0,1,565.859,420.744Zm10.116-1.447a9.24,9.24,0,0,1,.113,1.631l.613-.185A11.937,11.937,0,0,1,575.975,419.3Zm-4.294-6.077.3.792a2.221,2.221,0,0,0,1.934,1.439l.334.021.206.262a7.424,7.424,0,0,1,.94,1.573,12.214,12.214,0,0,1-.18-1.775l-.011-.361.277-.232a2.221,2.221,0,1,0-3.5-2.491Zm-3.176-2.207a2.223,2.223,0,0,0-1.424,3.926l.277.232-.011.361a12.157,12.157,0,0,1-.181,1.775,7.42,7.42,0,0,1,.941-1.573l.206-.262.333-.021a2.221,2.221,0,0,0,1.934-1.439l.3-.792-.295-.773a2.208,2.208,0,0,0-1.434-1.339A2.237,2.237,0,0,0,568.505,411.013Z" transform="translate(-540.055 -409.52)" fill="#fff"/></g><g transform="translate(0.769 0.747)"><g transform="translate(7.353 10.823)"><path d="M554.453,450.62V434.9c0-2.085,1.037-3.523,4.129-3.523h38.678a3.155,3.155,0,0,1,3.45,3.379v16.26" transform="translate(-553.73 -430.652)" fill="#fff"/><path d="M600.871,450.452h-1.446v-16.26a2.451,2.451,0,0,0-2.728-2.656H558.02c-3,0-3.405,1.415-3.405,2.8v15.722h-1.446V434.335c0-1.937.841-4.246,4.852-4.246H596.7a3.878,3.878,0,0,1,4.174,4.1Z" transform="translate(-553.168 -430.089)" fill="#171716"/></g><g transform="translate(0 15.406)"><path d="M554.242,439.523h35.241s2.581,11.29,6.463,16.394,5.895,8.987,5.895,13.516-2.813,7.653-5.679,8.34c-5.978,1.432-12.235-2-23.377-2-12.128,0-20.356,2.911-25.8,2-2.2-.368-5.608-3.81-5.608-7.98s4.242-11.646,7.765-16.319S554.242,439.523,554.242,439.523Z" transform="translate(-540.658 -438.8)" fill="#d90010"/><path d="M592.449,478.286a41.61,41.61,0,0,1-7.323-.936,66.812,66.812,0,0,0-12.9-1.417,103.657,103.657,0,0,0-15.405,1.349c-4.3.621-7.7,1.113-10.51.642-2.473-.414-6.211-4.093-6.211-8.694,0-4.3,4.1-11.7,7.91-16.754,3.378-4.48,4.946-13.544,4.962-13.635l.1-.6H589.5l.129.563c.025.111,2.591,11.2,6.333,16.117,3.627,4.769,6.043,8.967,6.043,13.953,0,4.956-3.136,8.3-6.234,9.043A14.1,14.1,0,0,1,592.449,478.286Zm-20.227-3.8a68.072,68.072,0,0,1,13.167,1.441c3.936.724,7.045,1.3,10.042.58,2.546-.611,5.125-3.43,5.125-7.636,0-4.025-1.558-7.569-5.748-13.078-3.476-4.57-5.875-13.725-6.458-16.108H554.283c-.418,2.167-2.019,9.545-5.122,13.662-3.693,4.9-7.618,12.131-7.618,15.883,0,3.926,3.286,6.979,5,7.267,2.588.435,5.887-.043,10.065-.647A104.768,104.768,0,0,1,572.222,474.485Z" transform="translate(-540.096 -438.237)" fill="#171716"/></g><g transform="translate(24.615)"><path d="M590.514,414.673a2.968,2.968,0,1,0-4.749,1.419,10.591,10.591,0,0,1-.4,2.661,10.939,10.939,0,0,1-1.5,3l2.616.788a8.21,8.21,0,0,1,.237-3.533,6.777,6.777,0,0,1,1.147-2.231A2.966,2.966,0,0,0,590.514,414.673Z" transform="translate(-583.857 -410.849)" fill="#171716"/></g><g transform="translate(31.004)"><path d="M595.341,414.673a2.968,2.968,0,1,1,4.749,1.419,10.561,10.561,0,0,0,.4,2.661,10.919,10.919,0,0,0,1.5,3l-2.616.788a8.2,8.2,0,0,0-.237-3.533A6.774,6.774,0,0,0,598,416.777,2.966,2.966,0,0,1,595.341,414.673Z" transform="translate(-595.215 -410.849)" fill="#171716"/></g><g transform="translate(28.164 1.194)"><path d="M592.179,413.977a1.007,1.007,0,1,1-1.006-1.006A1.007,1.007,0,0,1,592.179,413.977Z" transform="translate(-590.166 -412.971)" fill="#fff"/></g><g transform="translate(33.988 1.194)"><path d="M602.531,413.977a1.006,1.006,0,1,1-1.006-1.006A1.007,1.007,0,0,1,602.531,413.977Z" transform="translate(-600.519 -412.971)" fill="#fff"/></g><g transform="translate(19.086 20.443)"><path d="M574.027,458.491a2.5,2.5,0,0,0,1.247-.464,10.08,10.08,0,0,1,7.1-1.275,9.9,9.9,0,0,1,1.537.376s.325-.123.58-.232c.325-.139.754-.319.522-.377s-.841-.261-.841-.261a7.059,7.059,0,0,0,.783-3.189c.127-2.523-1.8-6.354-5.4-5.829-3.383.493-4.836,4.2-4.836,6.466a5.093,5.093,0,0,0,.987,3.335,4.36,4.36,0,0,0-.987.667A5.487,5.487,0,0,0,574.027,458.491Z" transform="translate(-574.027 -447.191)" fill="#171716"/><g transform="translate(1.392 0.968)"><path d="M577.43,457.475s.394-.137.8-.254.708-.174.708-.174a4.148,4.148,0,0,1-1.334-2.53,3.18,3.18,0,0,1,.214-1.8,1.983,1.983,0,0,0,1.534,1.211,1.272,1.272,0,0,0,1.521-1.1,1.429,1.429,0,0,0-1.183-1.551,2.742,2.742,0,0,0-1.275.2,2.887,2.887,0,0,1,2.378-1.189,3.2,3.2,0,0,1,3.306,3.6c-.119,2.317-1.212,2.858-1.212,2.858s.225-.008.631.02.676.07.676.07a5.535,5.535,0,0,0,1.037-3.208c0-1.914-1.155-4.785-4.141-4.7s-4.587,3.632-4.587,5.749S577.43,457.475,577.43,457.475Z" transform="translate(-576.502 -448.912)" fill="#fff"/></g></g><g transform="translate(32.801 20.073)"><path d="M608.267,457.585c.907.627,1.362.232.957-.2a6.87,6.87,0,0,0-1.422-.957s.929-.783.986-3.074-1.363-6.727-5.1-6.814-5.017,3.219-5.249,5.365a5.709,5.709,0,0,0,1.073,3.8s-.667.145-.377.435.377.493,1.276.406a11.434,11.434,0,0,1,4.7-.087C607.6,456.947,608.267,457.585,608.267,457.585Z" transform="translate(-598.409 -446.535)" fill="#171716"/><g transform="translate(0.897 0.901)"><path d="M606.123,456.284s.373.071.755.185c.413.123.724.24.724.24a5.244,5.244,0,0,0,1.073-3.294c0-2.494-1.994-5.278-4.335-5.278-2.716,0-4.364,2.029-4.335,4.843s.957,3.219.957,3.219.435-.059.725-.087.754-.058.754-.058a3.767,3.767,0,0,1-1.392-3.074,3.46,3.46,0,0,1,3.293-3.567,3.232,3.232,0,0,1,2.506,1.363,7.157,7.157,0,0,0-1.073-.29,1.444,1.444,0,0,0-1.433,1.247c-.075.9.74,1.331,1.433,1.392a1.511,1.511,0,0,0,1.623-1.218,3.353,3.353,0,0,1,.174,1.74A3.452,3.452,0,0,1,606.123,456.284Z" transform="translate(-600.004 -448.136)" fill="#fff"/></g></g><g transform="translate(16.594 33.487)"><path d="M570.54,472.109a10.068,10.068,0,0,0,3.185,1.342,41.9,41.9,0,0,0,9.8.744,52.835,52.835,0,0,0,12-2.3c.547-.373.681-.777,1.014-1.064s.586-.889,1.237.094a9.34,9.34,0,0,1,1.009,1.736c.176.428-.372.8-.895.866a1.473,1.473,0,0,0-1.244,1.358c-.063.825-4.457,9.515-11.334,9.926s-11.321-5.268-13.166-8.287-2.607-2.558-2.544-3.383S570.1,471.848,570.54,472.109Z" transform="translate(-569.597 -470.382)" fill="#171716"/><g transform="translate(2.81 2.515)"><path d="M574.938,475.926s6.764,1.685,11.275,1.406,10.22-1.713,11.092-2.269,1.342.08.862.937a8.758,8.758,0,0,1-3.254,3.238,15.061,15.061,0,0,1-3.957,1.567s1.784-.28,2.824-.3.945,1.212-.054,2.07a9.63,9.63,0,0,1-14.318.053c-.571-.666-.643-1.086.285-1.015a12.747,12.747,0,0,0,2.292-.137s-1.531-.323-3.253-.87-2.3-.522-3.062-2.022S574.121,475.735,574.938,475.926Z" transform="translate(-574.591 -474.853)" fill="#fff"/></g></g><g transform="translate(28.249 32.499)"><path d="M593.067,470.551a5.811,5.811,0,0,0,2.12-.125,4.836,4.836,0,0,0,.975-.434c.2-.112-.07.323-.528.559a5.333,5.333,0,0,1-3.485.441,2.78,2.78,0,0,1-1.718-.863.889.889,0,0,1,.377-1.2,2.1,2.1,0,0,1,1.113-.305c.258.006-.793.347-.934.718C590.832,469.751,591.469,470.3,593.067,470.551Z" transform="translate(-590.317 -468.624)" fill="#171716"/></g><g transform="translate(17.922 26.929)"><path d="M574.19,460.207l-1.735-.947c-.755-.412-.633-.676.25-.458s1.623.358,1.623.358Z" transform="translate(-571.958 -458.723)" fill="#171716"/></g><g transform="translate(17.879 25.25)"><path d="M574.053,457.3l-1.693-1.02c-.737-.444-.6-.7.269-.447s1.607.426,1.607.426Z" transform="translate(-571.881 -455.737)" fill="#171716"/></g><g transform="translate(42.91 26.929)"><path d="M616.52,460.207l1.735-.947c.755-.412.633-.676-.25-.458s-1.623.358-1.623.358Z" transform="translate(-616.381 -458.723)" fill="#171716"/></g><g transform="translate(42.969 25.25)"><path d="M616.669,457.3l1.693-1.02c.737-.444.6-.7-.269-.447s-1.607.426-1.607.426Z" transform="translate(-616.486 -455.737)" fill="#171716"/></g></g></g></g></g></svg>