<svg xmlns="http://www.w3.org/2000/svg" width="221.496" height="221.496" viewBox="0 0 221.496 221.496"><g transform="translate(-319.704 -0.001)"><g transform="translate(319.704 0.001)" fill="none" stroke="#bc970c" stroke-width="2"><circle cx="110.748" cy="110.748" r="110.748" stroke="none"/><circle cx="110.748" cy="110.748" r="109.748" fill="none"/></g><path d="M-33.538-11.4v-.05c0-3.575-2.525-6.05-6.7-6.05h-7.15V0h3.85V-5.25h2.925C-36.688-5.25-33.538-7.35-33.538-11.4Zm-3.9.075c0,1.5-1.125,2.65-3.05,2.65h-3.05v-5.35h2.975c1.925,0,3.125.925,3.125,2.65ZM-15.563,0l-4.275-6.25a5.435,5.435,0,0,0,3.75-5.425v-.05c0-3.6-2.475-5.775-6.6-5.775h-8V0h3.85V-5.6h3.025l3.75,5.6Zm-4.425-11.475C-19.988-10-21.063-9-22.938-9h-3.9v-5.025h3.825c1.875,0,3.025.85,3.025,2.5ZM5.212-8.75V-8.8a8.966,8.966,0,0,0-9.275-9,9.049,9.049,0,0,0-9.325,9.05v.05A8.966,8.966,0,0,0-4.113.3,9.049,9.049,0,0,0,5.212-8.75ZM1.187-8.7a5.234,5.234,0,0,1-5.25,5.45,5.317,5.317,0,0,1-5.3-5.5V-8.8a5.234,5.234,0,0,1,5.25-5.45,5.317,5.317,0,0,1,5.3,5.5ZM26.137,0V-17.5h-4.15l-4.6,7.4-4.6-7.4H8.637V0h3.775V-11.35l4.875,7.4h.1l4.925-7.475V0ZM48.163-8.75V-8.8a8.966,8.966,0,0,0-9.275-9,9.049,9.049,0,0,0-9.325,9.05v.05a8.966,8.966,0,0,0,9.275,9A9.049,9.049,0,0,0,48.163-8.75Zm-4.025.05a5.234,5.234,0,0,1-5.25,5.45,5.317,5.317,0,0,1-5.3-5.5V-8.8a5.234,5.234,0,0,1,5.25-5.45,5.317,5.317,0,0,1,5.3,5.5Z" transform="translate(430.804 119.872)" fill="#b4932a"/></g></svg>