<svg xmlns="http://www.w3.org/2000/svg" xmlns:xlink="http://www.w3.org/1999/xlink" width="221.496" height="221.496" viewBox="0 0 221.496 221.496"><defs><clipPath id="a"><rect width="180.956" height="39.494" fill="none"/></clipPath></defs><g transform="translate(-393.185 -246.107)"><g transform="translate(393.185 246.107)" fill="none" stroke="#bc970c" stroke-width="2"><circle cx="110.748" cy="110.748" r="110.748" stroke="none"/><circle cx="110.748" cy="110.748" r="109.748" fill="none"/></g><g transform="translate(411.272 330.601)"><g transform="translate(0 0)" clip-path="url(#a)"><path d="M181.214,66.1c.795-.805,1.392-1.643,2.184-2.307A9.715,9.715,0,0,1,194.081,62.5,5.19,5.19,0,0,1,196.8,65.22c.359.768.579.681,1.021.071a9.853,9.853,0,0,1,12.724-2.467A7.566,7.566,0,0,1,214,69.5c.058,5.687.039,11.376.083,17.063,0,.669-.366.589-.773.587-2.383,0-4.78-.037-7.168.01-.72.015-.826-.243-.82-.873q.049-5.25.022-10.5a26.322,26.322,0,0,0-.17-4.732c-.369-1.988-1.21-2.911-2.792-3.016a3.65,3.65,0,0,0-4.313,2.591,14.318,14.318,0,0,0-.562,5.287q-.064,5.15,0,10.3c0,.742-.17.979-.953.957-2.213-.063-4.443-.056-6.664-.014-.722.014-.9-.22-.9-.914.022-4.443,0-8.886,0-13.329a11.78,11.78,0,0,0-.17-2.005c-.34-1.988-1.156-2.79-2.994-2.894a3.547,3.547,0,0,0-4.065,2.535,19.385,19.385,0,0,0-.616,5.394q-.044,5.149,0,10.3c0,.691-.155.935-.889.919-2.288-.046-4.577-.034-6.867,0-.62.01-.809-.155-.793-.788.043-1.884.032-3.77,0-5.655,0-.511.092-.781.638-.914a2.121,2.121,0,0,0,1.549-1.58,22.208,22.208,0,0,0,.487-10.5,11.482,11.482,0,0,0-2.213-4.712c-.117-.148-.351-.264-.269-.5s.34-.17.523-.17c2.424,0,4.846.02,7.27,0,.511,0,.647.17.64.637-.015,1.033,0,2.068,0,3.1" transform="translate(-137.705 -49.045)" fill="#254192"/><path d="M675.019,27.6c0,3.234-.026,6.417.02,9.607.01.706-.136.928-.868.912-2.322-.048-4.647-.036-6.969,0-.623,0-.873-.116-.872-.824q.032-18.233,0-36.464c0-.594.126-.829.776-.819,2.356.037,4.715.053,7.07,0,.793-.02.851.312.851.948q-.024,10.353-.01,20.706v1.872l.24.1c.341-.381.681-.752,1.021-1.144q3.636-4.378,7.255-8.772a.911.911,0,0,1,.751-.41H694.9c-.882.935-1.609,1.7-2.332,2.473-2.751,2.941-5.486,5.9-8.263,8.812-.511.531-.422.812.037,1.294q5.638,5.89,11.226,11.827a1.192,1.192,0,0,1,.136.312,2.5,2.5,0,0,1-1.285.072c-3.064.019-6.128-.012-9.192.031a1.885,1.885,0,0,1-1.617-.783c-2.608-3.117-5.246-6.21-7.874-9.313a.793.793,0,0,0-.711-.42" transform="translate(-531.676 0.006)" fill="#254192"/><path d="M795.833,38.567c1.832-2.136,3.508-4.06,5.139-6.023a1.28,1.28,0,0,1,1.26-.424c.71.071.928-.184.916-.9-.039-2.255.021-4.511-.025-6.766-.015-.747.17-.984.953-.967,2.356.049,4.714.056,7.069-.01.851-.024.992.3.979,1.047-.039,2.213.025,4.445-.032,6.664-.02.795.255.986.977.935s1.481.027,2.213-.01c.553-.027.681.2.681.712q-.036,2.524,0,5.049c0,.511-.141.729-.681.7-.739-.039-1.484.041-2.213-.022s-.974.206-.964.955c.036,3.2.015,6.4.015,9.594,0,2.255-.029,4.511.012,6.766.014.718-.129,1.006-.931.989-2.383-.054-4.78-.046-7.17,0-.723.014-.9-.208-.9-.911q.046-7.978.01-15.957c0-1.483.327-1.416-1.38-1.42h-5.922" transform="translate(-635.009 -18.735)" fill="#254192"/><path d="M65.913,68.655a21.906,21.906,0,0,0-1.99,3.033c-.352.74-.22,1.021.642,1,2.693-.031,5.388-.043,8.079.008.866.017,1.084-.34,1.13-1.115A3.845,3.845,0,0,0,71.82,67.5a.681.681,0,0,1-.357-.924c.49-1.467.992-2.931,1.459-4.405.23-.725.749-.535,1.234-.451a8.171,8.171,0,0,1,7.01,6.717,19.756,19.756,0,0,1-.284,8.6c-.17.751-.609.744-1.176.742q-7.929-.017-15.856-.014c-1.343,0-1.375.065-1.12,1.374a4.041,4.041,0,0,0,3.508,3.3,16.483,16.483,0,0,0,8.467-.511c.924-.293,1.837-.628,2.827-.969a14.845,14.845,0,0,1-.511,3.083,9.017,9.017,0,0,0-.252,1.181c-.01,1.614-.873,2.317-2.383,2.661a34.261,34.261,0,0,1-12.911.34,9.362,9.362,0,0,1-3.566-1.6.786.786,0,0,1-.451-.909c.994-4.256,1.435-8.649,3.1-12.714a6.3,6.3,0,0,1,5.355-4.336" transform="translate(-45.827 -49.177)" fill="#e7262b"/><path d="M566.658,68.631c.449-.691.851-1.415,1.362-2.067a8.246,8.246,0,0,1,7.759-3.335c1.573.148,1.564.184,1.432,1.8a52.627,52.627,0,0,0-.562,5.461c.012.57-.156.829-.851.65a10.187,10.187,0,0,0-4.964.058,6.629,6.629,0,0,0-3.707,4.5,114.275,114.275,0,0,0-.23,12c0,.693-.17.851-.826.843-2.354-.036-4.71-.048-7.064,0-.758.017-.873-.267-.872-.931q.026-11.556,0-23.113c0-.62.155-.795.79-.781,2.254.048,4.509.065,6.761,0,.749-.02.815.271.8.872-.034,1.338-.01,2.676-.01,4.014Z" transform="translate(-445.331 -50.408)" fill="#254192"/><path d="M12.814,63.826c.4-.475.786-.965,1.207-1.423a11.706,11.706,0,0,1,9.873-4.06c.851.06,1.2.272.81,1.207-.465,1.113-.8,2.281-1.158,3.435-.141.46-.34.645-.851.6a9.684,9.684,0,0,0-7.376,2.051A10.748,10.748,0,0,0,12.5,69.719a33.158,33.158,0,0,0-1.728,6.52c-.6,2.894-1.362,5.759-1.738,8.7-.061.477-.32.6-.752.6-2.553,0-5.107-.014-7.67,0-.851,0-.594-.55-.511-.963.473-2.339.97-4.673,1.464-7.008C2.689,72.274,3.819,66.98,4.926,61.688c.306-1.462.276-1.471,1.786-1.478,1.85,0,3.7.036,5.551-.041,1-.041,1.135.293.875,1.163a24.512,24.512,0,0,0-.483,2.424l.16.07" transform="translate(0.001 -46.524)" fill="#e7262b"/><path d="M421.739,63.366c0-.5-.114-.722-.672-.715-2.255.029-4.511.034-6.765,0-.623-.01-.717.249-.7.776.02.805-.031,1.612-.051,2.417-.049.1-.109.194-.242.192a9.533,9.533,0,0,0-6.165-4.07,13.838,13.838,0,0,0-4.085.078,9.533,9.533,0,0,0-5.485,2.654,11.99,11.99,0,0,0-3.476,7.166,17.788,17.788,0,0,0,1.872,11.773c3.607,6.189,13.218,6.314,16.956.815.158-.233.3-.528.722-.466,0,.88.056,1.757-.017,2.621-.06.7.2.851.851.851q3.234-.044,6.469,0c.6.009.819-.124.817-.771q-.032-11.662,0-23.321m-8.14,14.18a5.713,5.713,0,0,1-11.065-2.686,5.353,5.353,0,0,1,2.383-5.188,5.776,5.776,0,0,1,8.867,3.488,8.474,8.474,0,0,1-.187,4.387" transform="translate(-314.255 -49.349)" fill="#254192"/><path d="M490.4,81.628l-.043.34-.2-.145.242-.192" transform="translate(-391.106 -65.132)" fill="#fefefe"/></g></g></g></svg>