<svg xmlns="http://www.w3.org/2000/svg" xmlns:xlink="http://www.w3.org/1999/xlink" width="221.496" height="221.496" viewBox="0 0 221.496 221.496"><defs><linearGradient id="a" x1="0.27" y1="0.178" x2="0.874" y2="1" gradientUnits="objectBoundingBox"><stop offset="0" stop-color="#fee690"/><stop offset="1" stop-color="#9d7700"/></linearGradient></defs><g transform="translate(-319.704 0)"><g transform="translate(319.704 0)" fill="none" stroke="#bc970c" stroke-width="2"><circle cx="110.748" cy="110.748" r="110.748" stroke="none"/><circle cx="110.748" cy="110.748" r="109.748" fill="none"/></g><g transform="translate(378.063 46.626)"><path d="M26.2,86.129V61.673a10.481,10.481,0,1,0-20.962,0V86.129H0V35.468L51.847,0l19.3,14.345v-6.6h6.337V19.055L99.576,35.468v6.988H29.7V54.684a8.733,8.733,0,0,0,8.734,8.735V79.141h55.9V63.419a8.668,8.668,0,0,0,5.241-1.786v24.5Zm76.863-31.446H99.574a5.241,5.241,0,1,1-10.481,0H85.6a5.241,5.241,0,0,1-10.482,0H71.625a5.241,5.241,0,1,1-10.481,0H57.65a5.241,5.241,0,0,1-10.482,0H43.674a5.241,5.241,0,1,1-10.481,0V45.949h74.026v0h6.332v8.734a5.242,5.242,0,0,1-10.484,0Z" transform="translate(-0.001 -0.851)" fill="url(#a)"/></g><path d="M-29.029,0l-4.446-6.5a5.652,5.652,0,0,0,3.9-5.642v-.052c0-3.744-2.574-6.006-6.864-6.006h-8.32V0h4V-5.824h3.146L-33.709,0Zm-4.6-11.934c0,1.534-1.118,2.574-3.068,2.574h-4.056v-5.226h3.978c1.95,0,3.146.884,3.146,2.6Zm23.244,4V-18.2h-4V-7.774c0,2.886-1.482,4.368-3.926,4.368s-3.926-1.534-3.926-4.5V-18.2h-4V-7.8c0,5.356,2.99,8.086,7.878,8.086S-10.387-2.418-10.387-7.93ZM9.425,0,4.979-6.5a5.652,5.652,0,0,0,3.9-5.642v-.052c0-3.744-2.574-6.006-6.864-6.006h-8.32V0h4V-5.824H.845L4.745,0Zm-4.6-11.934C4.823-10.4,3.7-9.36,1.755-9.36H-2.3v-5.226H1.677c1.95,0,3.146.884,3.146,2.6ZM30.225,0l-7.8-18.33H18.733L10.933,0h4.082l1.664-4.082h7.7L26.039,0Zm-7.28-7.618H18.109l2.418-5.9ZM46.111,0V-3.64H37.037V-18.2h-4V0Z" transform="translate(429.776 167.017)" fill="#b4932a"/></g></svg>