<svg xmlns="http://www.w3.org/2000/svg" width="221.496" height="221.496" viewBox="0 0 221.496 221.496"><g transform="translate(31.223 31.723)"><g transform="translate(190.273 189.773) rotate(180)" fill="none" stroke="#bc970c" stroke-width="2"><circle cx="110.748" cy="110.748" r="110.748" stroke="none"/><circle cx="110.748" cy="110.748" r="109.748" fill="none"/></g><g transform="translate(15.6 15.1)"><path d="M15.6,142.95V15.1H143.45V142.95Zm8.886-8.886c3.153.573,107.784.43,109.647,0,.573-3.583.287-50.452-.143-52.315-6.02-1.147-12.04-.573-18.06-.573-6.02-.143-12.183,0-18.2,0H24.63C24.486,98.948,24.486,116.434,24.486,134.064Zm84.421-69.372c.287,2.723.287,2.867-1.72,3.727a8.08,8.08,0,0,1-1.72.573,6.311,6.311,0,0,1-7.31-3.153,10.056,10.056,0,0,1-.287-7.883c1.577-3.727,7.31-5.017,9.746-2.007,1.29,1.577,2.437,2.007,4.3,1.29.43-.143,1-.143,1.577-.287-1.147-3.01-1.72-3.87-3.583-5.017-7.6-4.157-16.626.287-17.2,8.886-.43,4.587,1.577,9.316,6.736,11.18,4.73,1.72,9.03.717,13.186-1.72a2.119,2.119,0,0,0,1.147-1.577c.143-2.58,0-5.16,0-7.74h-9.746v3.583C105.754,64.692,107.331,64.692,108.908,64.692Zm9.6-30.673c-.86.573-1.433,1-2.15,1.433-2.007,1.577-3.153,3.583-2.723,6.163a5.965,5.965,0,0,0,4.587,4.873,11.034,11.034,0,0,0,9.89-1.577c1.29.86,2.437,1.433,3.727,2.293,1-1.147,1.72-2.007,2.58-3.153-1.29-.86-2.293-1.72-3.3-2.437.573-1.433,1.147-2.867,1.863-4.587-1.433-.287-2.58-.573-3.727-.717a17.112,17.112,0,0,0-1.147,2.293c-1.147-1.433-2.007-2.58-3.01-3.727a23.278,23.278,0,0,0,2.723-2.437,4.221,4.221,0,0,0-.86-6.593,8.052,8.052,0,0,0-8.743,0,3.756,3.756,0,0,0-1.433,5.16A22.491,22.491,0,0,0,118.511,34.02ZM25.346,39.466c.143,3.153,1.577,5.3,4.157,6.307a12.921,12.921,0,0,0,10.32,0,5.738,5.738,0,0,0,3.727-5.447,5.609,5.609,0,0,0-3.583-5.877c-1.433-.573-3.153-.86-4.587-1.433a16.576,16.576,0,0,1-4.013-1.433c-1.29-.717-1.29-2.007,0-2.867a5.1,5.1,0,0,1,6.88,1.72,3.8,3.8,0,0,0,.717.86c1.433-.143,2.723-.43,4.013-.573a5.462,5.462,0,0,0-3.3-5.16A11.542,11.542,0,0,0,29.5,25.42a5.143,5.143,0,0,0-3.3,4.873,5.128,5.128,0,0,0,3.3,5.16,30.62,30.62,0,0,0,3.87,1.29,38.423,38.423,0,0,0,3.87,1c1.147.287,2.007.86,2.007,2.15a2.624,2.624,0,0,1-1.863,2.437,5.5,5.5,0,0,1-7.31-2.58,2.037,2.037,0,0,1-.287-.86H26.923A10.887,10.887,0,0,1,25.346,39.466Zm65.072,5.447c.717.43.86.573,1.147.717a6.576,6.576,0,0,0,10.176-4.013,13.986,13.986,0,0,0,.287-4.873c-.86-5.733-6.736-8.026-10.893-4.587a3.133,3.133,0,0,1-.717.43c-.573-1.863-.717-1.863-4.3-1.29V52.079h4.3ZM47.276,24.99v19.78c0,.43.143.86.143,1.433h4.3V39.179a25.587,25.587,0,0,1,.287-3.3,3.144,3.144,0,0,1,3.44-2.293c1.577.143,2.293,1.147,2.437,3.01v9.6h4.3c0-3.583.143-7.023,0-10.463a5.281,5.281,0,0,0-6.45-5.16,7.493,7.493,0,0,0-2.293.86c-.573.287-1,.573-2.007,1v-7.31A37.587,37.587,0,0,0,47.276,24.99Zm86.715,39.7c.143-4.587-3.44-8.026-8.313-8.17s-8.456,2.723-8.743,7.883c-.287,4.73,3.44,8.17,8.456,8.313A7.983,7.983,0,0,0,133.99,64.692ZM74.365,46.776c4.873,0,8.313-3.3,8.456-8.026a8.177,8.177,0,0,0-8.456-8.313c-4.873,0-8.743,3.583-8.6,8.17C65.909,43.766,69.062,46.776,74.365,46.776Z" transform="translate(-15.6 -15.1)" fill="#393531"/><path d="M21.8,114.108V61.219c6.163-.143,12.183,0,18.2,0h73.1c6.02.143,12.183-.43,18.06.573.573,1.863.717,48.732.143,52.315C129.441,114.538,24.953,114.681,21.8,114.108ZM128.294,87.592h0V68.529c0-3.153-1-4.157-4.3-4.157H117.4c-10.176,0-20.353.143-30.529,0-3.87,0-5.447,1-5.16,5.3.143,1.577,0,3.153,0,4.587v32.106c0,3.3,1,4.443,4.013,4.443h38.412c3.01,0,4.013-1.147,4.013-4.157C128.437,100.2,128.294,93.9,128.294,87.592Z" transform="translate(-12.914 4.856)" fill="#c3261d"/><path d="M85.657,54.008H80.64V50.425h9.746c0,2.58.143,5.16,0,7.74,0,.573-.717,1.29-1.147,1.577-4.157,2.437-8.6,3.3-13.186,1.72-5.16-1.863-7.166-6.593-6.736-11.18a11.313,11.313,0,0,1,17.2-8.886c1.863,1,2.58,2.007,3.583,5.017-.573.143-1.147.143-1.577.287-1.863.717-2.867.287-4.3-1.29-2.437-3.01-8.313-1.72-9.746,2.007a8.974,8.974,0,0,0,.287,7.883,6,6,0,0,0,7.31,3.153c.573-.143,1.147-.43,1.72-.573C86.087,56.731,86.087,56.731,85.657,54.008Z" transform="translate(7.651 -4.416)" fill="#f8f8f7"/><path d="M88.9,31.176c-.573-1.147-1.29-2.007-1.72-3.01-.86-2.15-.43-4.013,1.433-5.16a7.782,7.782,0,0,1,8.743,0,4.311,4.311,0,0,1,.86,6.593,23.277,23.277,0,0,1-2.723,2.437c.86,1.147,1.863,2.293,3.01,3.727.43-.717.717-1.433,1.147-2.293,1.147.287,2.293.43,3.727.717-.717,1.72-1.29,3.01-1.863,4.587,1,.717,2.007,1.433,3.3,2.437-.86,1-1.72,2.007-2.58,3.153-1.29-.86-2.437-1.577-3.727-2.293a11.034,11.034,0,0,1-9.89,1.577,5.965,5.965,0,0,1-4.587-4.873c-.43-2.58.717-4.587,2.723-6.163A8.033,8.033,0,0,1,88.9,31.176ZM91.337,33.9c-1.863.86-3.01,2.007-3.01,4.013a2.725,2.725,0,0,0,2.15,2.58c2.007.717,3.583,0,5.16-1.577C94.2,37.053,92.914,35.619,91.337,33.9Zm1.72-4.73c2.437-1.72,3.01-2.723,2.007-3.87a3.25,3.25,0,0,0-3.583-.143C90.62,26.16,90.907,27.02,93.057,29.17Z" transform="translate(14.01 -12.257)" fill="#f8f8f7"/><path d="M22.4,36.6a7.271,7.271,0,0,1,1.29-.287h2.867c.143.287.143.573.287.86a5.38,5.38,0,0,0,7.31,2.58,2.624,2.624,0,0,0,1.863-2.437c0-1.29-1-1.863-2.007-2.15a38.424,38.424,0,0,0-3.87-1c-1.29-.43-2.58-.717-3.87-1.29a5.464,5.464,0,0,1,0-10.033,11.535,11.535,0,0,1,10.176.143,5.462,5.462,0,0,1,3.3,5.16c-1.29.143-2.58.43-4.013.573a3.8,3.8,0,0,1-.717-.86,5.1,5.1,0,0,0-6.88-1.72c-1.29.86-1.29,2.15,0,2.867a22.468,22.468,0,0,0,4.013,1.433,42.891,42.891,0,0,1,4.587,1.433c2.58,1,3.583,3.01,3.583,5.877a5.738,5.738,0,0,1-3.727,5.447,12.921,12.921,0,0,1-10.32,0C23.833,41.9,22.543,39.749,22.4,36.6Z" transform="translate(-12.654 -12.23)" fill="#f8f8f7"/><path d="M69.1,40.236V47.4H64.8V26.62c3.583-.717,3.583-.717,4.3,1.29.287-.143.43-.287.717-.43,4.157-3.44,10.033-1,10.893,4.587a13.986,13.986,0,0,1-.287,4.873,6.435,6.435,0,0,1-10.176,4.013A8.787,8.787,0,0,0,69.1,40.236Zm7.453-6.163a16.765,16.765,0,0,0-.717-2.867,3.422,3.422,0,0,0-3.153-2.15,3.676,3.676,0,0,0-3.3,2.437,8.545,8.545,0,0,0,0,5.017,3.4,3.4,0,0,0,3.3,2.293,3.046,3.046,0,0,0,3.153-2.437A7.079,7.079,0,0,0,76.553,34.073Z" transform="translate(5.718 -10.423)" fill="#f8f8f7"/><path d="M37.7,22h4.443v7.31l2.007-1a10.863,10.863,0,0,1,2.293-.86,5.353,5.353,0,0,1,6.45,5.16c.143,3.44,0,6.88,0,10.463h-4.3v-9.6c-.143-1.863-.86-2.867-2.437-3.01a3.056,3.056,0,0,0-3.44,2.293,12.3,12.3,0,0,0-.287,3.3v7.023h-4.3c0-.573-.143-1-.143-1.433C37.7,35.33,37.7,28.88,37.7,22Z" transform="translate(-6.024 -12.11)" fill="#f8f8f7"/><path d="M103.4,52.128a8.3,8.3,0,0,1-8.743,8.17c-5.017-.143-8.6-3.727-8.456-8.313.287-5.3,4.013-8.026,8.743-7.883C99.961,44.1,103.544,47.542,103.4,52.128Zm-4.587,0a5.374,5.374,0,0,0-.143-1.577,3.983,3.983,0,0,0-6.307-2.437c-2.007,1.433-2.15,6.593.143,8.026a3.888,3.888,0,0,0,4.873-.287A3.84,3.84,0,0,0,98.814,52.128Z" transform="translate(14.99 -2.536)" fill="#f8f8f7"/><path d="M59.2,42.1c-5.16,0-8.456-3.01-8.6-8.026-.143-4.587,3.727-8.17,8.6-8.17a8.177,8.177,0,0,1,8.456,8.313C67.514,38.8,64.074,42.1,59.2,42.1Zm3.87-7.6a8.859,8.859,0,0,0-.143-2.15,3.871,3.871,0,0,0-6.02-2.58c-2.293,1.577-2.58,6.163-.43,7.883a3.835,3.835,0,0,0,6.02-1.147A6.152,6.152,0,0,0,63.071,34.5Z" transform="translate(-0.436 -10.42)" fill="#f8f8f7"/><path d="M110.149,86.619v19.063c0,3.01-1,4.157-4.013,4.157H67.723c-3.01,0-4.013-1.147-4.013-4.443V73.29c0-1.577.143-3.153,0-4.587-.287-4.3,1.29-5.3,5.16-5.3,10.176.143,20.353,0,30.529,0h6.593c3.153,0,4.3,1.147,4.3,4.157-.143,6.307-.143,12.613-.143,19.063ZM87.216,63.973H69.3c-3.87,0-4.73.86-4.73,4.587v36.119c0,3.44,1,4.3,4.3,4.3h36.119c3.583,0,4.3-.717,4.3-4.3V68.273c0-3.583-.86-4.3-4.3-4.3Z" transform="translate(5.232 5.828)" fill="#f8f8f7"/><path d="M90.01,30.2c1.433,1.72,2.867,3.3,4.3,4.873-1.577,1.577-3.153,2.293-5.16,1.577A3.093,3.093,0,0,1,87,34.07C87,32.207,88.147,31.06,90.01,30.2Z" transform="translate(15.337 -8.557)" fill="#393531"/><path d="M90.913,28.227c-2.15-2.15-2.437-3.01-1.577-3.87a3.016,3.016,0,0,1,3.583.143C93.78,25.5,93.35,26.651,90.913,28.227Z" transform="translate(16.154 -11.314)" fill="#393531"/><path d="M75.27,33.073c-.143.86-.43,1.577-.573,2.437a3.191,3.191,0,0,1-3.153,2.437,3.4,3.4,0,0,1-3.3-2.293,6.745,6.745,0,0,1,0-5.017,3.531,3.531,0,0,1,3.3-2.437A3.422,3.422,0,0,1,74.7,30.35C74.983,31.067,74.983,32.07,75.27,33.073Z" transform="translate(7.001 -9.424)" fill="#393531"/><path d="M97.34,51.147a4.964,4.964,0,0,1-1.29,3.727,3.888,3.888,0,0,1-4.873.287c-2.15-1.433-2.007-6.593-.143-8.026a4.006,4.006,0,0,1,6.307,2.437Z" transform="translate(16.464 -1.555)" fill="#393531"/><path d="M61.735,33.492a9.693,9.693,0,0,1-.573,2.15,3.82,3.82,0,0,1-6.02,1.147c-2.15-1.863-1.863-6.307.43-7.883a3.871,3.871,0,0,1,6.02,2.58A7.055,7.055,0,0,1,61.735,33.492Z" transform="translate(0.9 -9.413)" fill="#393531"/><path d="M86.9,63.8h17.916c3.44,0,4.3.86,4.3,4.3v36.406c0,3.44-.86,4.3-4.3,4.3H68.7c-3.44,0-4.3-.86-4.3-4.3V68.387c0-3.727.86-4.587,4.73-4.587Zm20.783,22.789h0V68.1c0-2.437-.287-2.723-2.58-2.723H68.413c-2.437,0-2.723.287-2.723,2.723v36.692c0,2.437.287,2.58,2.723,2.58h36.406c2.58,0,2.723-.143,2.723-2.867C107.686,98.629,107.686,92.609,107.686,86.589Z" transform="translate(5.545 6.002)" fill="#c3261d"/><path d="M107.252,86.113v17.916c0,2.58-.143,2.723-2.723,2.867H68.123c-2.437,0-2.723-.287-2.723-2.58V67.623c0-2.437.287-2.723,2.723-2.723h36.692c2.293,0,2.58.287,2.58,2.723-.143,6.163-.143,12.326-.143,18.49Zm-2.293-13.76c-2.15-.573-16.626-.573-18.92.143v7.6h15.193a10.9,10.9,0,0,0-.143,2.007H84.033a21.744,21.744,0,0,1-.43-3.01c-.143-.86,0-1.863-.143-2.723s0-2.15-.573-2.723c-.86-1,.717-1.863-.43-2.723-1.72,1.147-3.87.86-5.877,1-.86,0-1.863-.143-2.293.43-.717.86-1.577.573-2.437.717-.717,0-1.29.143-2.293.143.287.717.43,1.433.86,1.577a6.049,6.049,0,0,0,1.72.43c.43.143.86.143,1.29.287v.43H67.693c.143.86.287,1.577.43,2.723.717-1,.86-1.72,1.29-1.863a37.556,37.556,0,0,1,4.013-.143c.143,0,.43.717.43,1a1.34,1.34,0,0,1-1,.717,1.769,1.769,0,0,1-1.147-.573c-.43-.287-1-.573-1.433,0-.143.287-.287,1-.143,1.147,1.147,1.433.573,2.58,0,4.013-.717,1.72-1.29,3.44-1.863,5.017a2.916,2.916,0,0,1,.143.717,8.908,8.908,0,0,1,1.433-.43c.143,1.29,1.577,2.437.717,4.013a16.883,16.883,0,0,1-2.723,3.583,4.034,4.034,0,0,0-1.433,3.01h5.59c.287-3.01,2.58-4.443,4.3-6.45.573,1.147,1.147,2.15,1.72,3.153-.86.86-2.437,1.433-1.863,3.3h6.593a3.23,3.23,0,0,0,0-3.727,1.938,1.938,0,0,1-.143-2.437l.86-1.72c2.15,0,4.3.287,6.307-.143,2.007-.287,3.727-1.433,6.163-2.293-1.577,2.723-2.723,4.873-4.013,7.166a1.34,1.34,0,0,1-1,.717c-1.577.287-1.577,1.29-1.433,2.723,2.293-.143,4.443.287,6.593-.287-.717-3.583,2.437-4.587,4.013-6.736.573.573,1.147,1,1.72,1.577,1.29,1.29,1.147,2.437-.717,2.867-1.577.287-1.72,1.147-1.72,2.723h5.017c.43,0,1.147-.287,1.147-.43.573-1.863,2.007-3.583,1.147-5.877-1.29-3.87-2.293-7.74-2.007-11.9.143-2.15-.717-2.867-2.867-2.867H90.626c-.717,0-1.433-.143-2.293-.143.143-1.433.143-2.723.287-4.013,4.013,0,7.74.143,11.466,0,1.863,0,3.583.143,4.73,1.863,0,.143.287,0,.573,0A11.074,11.074,0,0,1,104.959,72.353Z" transform="translate(5.978 6.478)" fill="#f8f8f7"/><path d="M104.786,70.62v3.3h-.573c-1.147-1.72-2.867-1.863-4.73-1.863-3.727.143-7.453,0-11.466,0-.143,1.29-.143,2.58-.287,4.013,1,0,1.577.143,2.293.143H101.2c2.15,0,3.153.86,2.867,2.867a28.151,28.151,0,0,0,2.007,11.9c.717,2.293-.717,4.013-1.147,5.877,0,.287-.717.43-1.147.43H98.766c0-1.433.287-2.293,1.72-2.723,1.863-.43,2.007-1.433.717-2.867a9.362,9.362,0,0,0-1.72-1.577c-1.577,2.15-4.73,3.153-4.013,6.736-2.15.573-4.3.143-6.593.287-.287-1.433-.143-2.437,1.433-2.723a1.828,1.828,0,0,0,1-.717c1.29-2.15,2.437-4.3,4.013-7.166-2.437,1-4.3,2.007-6.163,2.293-2.007.43-4.157.143-6.307.143a9.542,9.542,0,0,1-.86,1.72,1.938,1.938,0,0,0,.143,2.437,3.014,3.014,0,0,1,0,3.727H75.546c-.573-1.863,1-2.437,1.863-3.3-.573-1-1-2.007-1.72-3.153-1.72,2.15-4.013,3.44-4.3,6.45H65.8a4.034,4.034,0,0,1,1.433-3.01,16.883,16.883,0,0,0,2.723-3.583c.86-1.433-.573-2.58-.717-4.013a7.725,7.725,0,0,1-1.433.43,1.558,1.558,0,0,1-.143-.717,51.831,51.831,0,0,1,1.863-5.017c.573-1.29,1.147-2.58,0-4.013-.143-.143,0-.86.143-1.147.43-.573.86-.43,1.433,0,.43.287.717.573,1.147.573a1.659,1.659,0,0,0,1-.717c.143-.287-.287-1-.43-1a18.818,18.818,0,0,0-4.013.143c-.43,0-.573.86-1.29,1.863-.143-1.147-.287-1.863-.43-2.723h5.733v-.43c-.43-.143-.86-.143-1.29-.287a6.048,6.048,0,0,1-1.72-.43c-.43-.287-.43-.86-.86-1.577.86,0,1.577-.143,2.293-.143.86,0,1.72.143,2.437-.717.43-.43,1.577-.287,2.293-.43,2.007,0,4.157.287,5.877-1,1.147.717-.43,1.72.43,2.723.573.573.43,1.72.573,2.723.143.86,0,1.863.143,2.723l.43,3.01h17.056c0-.717.143-1.29.143-2.007H85.436v-7.6C88.3,70.047,102.779,70.047,104.786,70.62Z" transform="translate(6.152 8.211)" fill="#393531"/></g></g></svg>