<svg xmlns="http://www.w3.org/2000/svg" width="221.496" height="221.496" viewBox="0 0 221.496 221.496"><g transform="translate(-319.704 59.938)"><g transform="translate(319.704 -59.938)" fill="none" stroke="#bc970c" stroke-width="2"><circle cx="110.748" cy="110.748" r="110.748" stroke="none"/><circle cx="110.748" cy="110.748" r="109.748" fill="none"/></g><path d="M-16.037-5.175v-.05c0-3.05-2-4.325-5.55-5.25-3.025-.775-3.775-1.15-3.775-2.3v-.05c0-.85.775-1.525,2.25-1.525a8.212,8.212,0,0,1,4.55,1.725l2-2.9a10.13,10.13,0,0,0-6.5-2.225c-3.575,0-6.125,2.1-6.125,5.275v.05c0,3.475,2.275,4.45,5.8,5.35,2.925.75,3.525,1.25,3.525,2.225v.05c0,1.025-.95,1.65-2.525,1.65a8.028,8.028,0,0,1-5.225-2.125L-29.888-2.55A11.136,11.136,0,0,0-22.463.25C-18.687.25-16.037-1.7-16.037-5.175ZM-.113,0V-3.5H-8.837v-14h-3.85V0ZM6.813,0V-17.5H2.963V0ZM28.688,0V-17.5h-4.15l-4.6,7.4-4.6-7.4h-4.15V0h3.775V-11.35l4.875,7.4h.1l4.925-7.475V0Zm-79,24.525v-7.6h-7.6V20.25h3.875v2.5a6.143,6.143,0,0,1-3.625,1.05,5.243,5.243,0,0,1-5.3-5.55V18.2a5.256,5.256,0,0,1,5.025-5.45,6.444,6.444,0,0,1,4.575,1.775l2.425-2.925a9.608,9.608,0,0,0-6.875-2.4,8.982,8.982,0,0,0-9.175,9.05v.05c0,5.175,3.75,9,9.2,9A11.359,11.359,0,0,0-50.312,24.525Zm21.525-6.275V18.2a8.966,8.966,0,0,0-9.275-9,9.049,9.049,0,0,0-9.325,9.05v.05a8.966,8.966,0,0,0,9.275,9A9.049,9.049,0,0,0-28.788,18.25Zm-4.025.05a5.234,5.234,0,0,1-5.25,5.45,5.317,5.317,0,0,1-5.3-5.5V18.2a5.234,5.234,0,0,1,5.25-5.45,5.317,5.317,0,0,1,5.3,5.5Zm23,8.7V9.5h-3.8V20.275L-21.813,9.5h-3.55V27h3.8V15.875L-13.088,27Zm20.325-8.75V18.2c0-4.925-3.8-8.7-9.3-8.7H-5.613V27H1.212C6.712,27,10.512,23.175,10.512,18.25Zm-4.025.05a4.987,4.987,0,0,1-5.275,5.225H-1.763V12.975H1.212A5.026,5.026,0,0,1,6.487,18.25Zm25.275-.05V18.2a8.966,8.966,0,0,0-9.275-9,9.049,9.049,0,0,0-9.325,9.05v.05a8.966,8.966,0,0,0,9.275,9A9.049,9.049,0,0,0,31.763,18.25Zm-4.025.05a5.234,5.234,0,0,1-5.25,5.45,5.317,5.317,0,0,1-5.3-5.5V18.2a5.234,5.234,0,0,1,5.25-5.45,5.317,5.317,0,0,1,5.3,5.5ZM47.763,27V23.5H39.038V9.5h-3.85V27Zm19.95,0-7.5-17.625h-3.55L49.162,27h3.925l1.6-3.925h7.4L63.688,27Zm-7-7.325h-4.65L58.388,14Z" transform="translate(429.455 42.442)" fill="#b4932a"/></g></svg>