<svg xmlns="http://www.w3.org/2000/svg" xmlns:xlink="http://www.w3.org/1999/xlink" width="221.496" height="221.496" viewBox="0 0 221.496 221.496"><defs><linearGradient id="a" x1="0.5" x2="0.699" y2="0.865" gradientUnits="objectBoundingBox"><stop offset="0" stop-color="#fee690"/><stop offset="0.127" stop-color="#f3da80"/><stop offset="1" stop-color="#9e7902"/><stop offset="1" stop-color="#9d7700"/></linearGradient><linearGradient id="b" x1="0.369" y1="-1.135" x2="1.822" y2="0.5" gradientUnits="objectBoundingBox"><stop offset="0" stop-color="#fee690"/><stop offset="1" stop-color="#9d7700"/></linearGradient></defs><g transform="translate(0 541.2) rotate(-90)"><g transform="translate(319.704)" fill="none" stroke="#bc970c" stroke-width="2"><circle cx="110.748" cy="110.748" r="110.748" stroke="none"/><circle cx="110.748" cy="110.748" r="109.748" fill="none"/></g><g transform="translate(499.677 29.532) rotate(90)"><g transform="translate(21.729 0)"><path d="M48.075,122.3a30.614,30.614,0,0,0,.6-6.5A34.811,34.811,0,0,0,33.561,87.077h39.76V59.562a20.082,20.082,0,0,0,6.8,1.21A18.444,18.444,0,0,0,83,60.622v52h26.91v-52a12.3,12.3,0,0,0,2.418.15,19.59,19.59,0,0,0,7.407-1.36V119.58a2.71,2.71,0,0,1-2.721,2.721ZM44.143,80.727a2.747,2.747,0,0,1,0-4.081L57.9,62.888a2.886,2.886,0,1,1,4.082,4.081L48.225,80.727a2.566,2.566,0,0,1-1.964.852A3.027,3.027,0,0,1,44.143,80.727Zm-17.385,0a2.744,2.744,0,0,1,0-4.081L40.515,62.888a3.019,3.019,0,0,1,4.081,0,2.871,2.871,0,0,1,0,4.081L30.84,80.727a2.57,2.57,0,0,1-1.965.852A3.027,3.027,0,0,1,26.759,80.727ZM8.618,59.412a20.749,20.749,0,0,0,7.406,1.36,11.539,11.539,0,0,0,2.268-.15V81.183c-1.512-.152-3.023-.3-4.534-.3a29.641,29.641,0,0,0-5.14.453Zm87.531-19.35a16.025,16.025,0,0,1-32.049,0,16.025,16.025,0,0,1-32.05,0A16.025,16.025,0,0,1,0,40.062,30.347,30.347,0,0,1,1.964,29.027l9.525-25.4A5.353,5.353,0,0,1,16.631,0h94.938a5.564,5.564,0,0,1,5.14,3.628l9.524,25.246A30.591,30.591,0,0,1,128.2,40.062a16.025,16.025,0,0,1-32.049,0Z" transform="translate(0 0)" fill="url(#a)"/></g><path d="M33.755,67.511A33.764,33.764,0,0,1,20.616,2.653,33.764,33.764,0,0,1,46.9,64.858,33.546,33.546,0,0,1,33.755,67.511Zm0-60.76a27,27,0,1,0,27,27A27.035,27.035,0,0,0,33.755,6.751Z" transform="translate(0 83.691)" fill="url(#b)"/></g><path d="M11.8-4.14v-.04c0-2.44-1.6-3.46-4.44-4.2C4.94-9,4.34-9.3,4.34-10.22v-.04c0-.68.62-1.22,1.8-1.22A6.569,6.569,0,0,1,9.78-10.1l1.6-2.32a8.1,8.1,0,0,0-5.2-1.78c-2.86,0-4.9,1.68-4.9,4.22v.04c0,2.78,1.82,3.56,4.64,4.28,2.34.6,2.82,1,2.82,1.78v.04c0,.82-.76,1.32-2.02,1.32a6.422,6.422,0,0,1-4.18-1.7L.72-2.04A8.909,8.909,0,0,0,6.66.2C9.68.2,11.8-1.36,11.8-4.14Zm12.6,0v-.04c0-2.44-1.6-3.46-4.44-4.2-2.42-.62-3.02-.92-3.02-1.84v-.04c0-.68.62-1.22,1.8-1.22a6.569,6.569,0,0,1,3.64,1.38l1.6-2.32a8.1,8.1,0,0,0-5.2-1.78c-2.86,0-4.9,1.68-4.9,4.22v.04c0,2.78,1.82,3.56,4.64,4.28,2.34.6,2.82,1,2.82,1.78v.04c0,.82-.76,1.32-2.02,1.32a6.422,6.422,0,0,1-4.18-1.7L13.32-2.04A8.909,8.909,0,0,0,19.26.2C22.28.2,24.4-1.36,24.4-4.14ZM41.08,0V-14H37.76L34.08-8.08,30.4-14H27.08V0H30.1V-9.08L34-3.16h.08l3.94-5.98V0Z" transform="translate(374.241 42.207) rotate(90)" fill="#b4932a" stroke="rgba(0,0,0,0)" stroke-miterlimit="10" stroke-width="1"/></g></svg>