<svg xmlns="http://www.w3.org/2000/svg" width="221.496" height="221.496" viewBox="0 0 221.496 221.496"><g transform="translate(-320.73 -0.063)"><g transform="translate(320.73 0.063)" fill="#fff" stroke="#bc970c" stroke-width="2"><circle cx="110.748" cy="110.748" r="110.748" stroke="none"/><circle cx="110.748" cy="110.748" r="109.748" fill="none"/></g><path d="M-57.625-5.175v-.05c0-3.05-2-4.325-5.55-5.25-3.025-.775-3.775-1.15-3.775-2.3v-.05c0-.85.775-1.525,2.25-1.525a8.212,8.212,0,0,1,4.55,1.725l2-2.9a10.13,10.13,0,0,0-6.5-2.225c-3.575,0-6.125,2.1-6.125,5.275v.05c0,3.475,2.275,4.45,5.8,5.35,2.925.75,3.525,1.25,3.525,2.225v.05c0,1.025-.95,1.65-2.525,1.65A8.028,8.028,0,0,1-69.2-5.275L-71.475-2.55A11.136,11.136,0,0,0-64.05.25C-60.275.25-57.625-1.7-57.625-5.175ZM-41.4-13.95V-17.5H-55.9v3.55h5.325V0h3.85V-13.95ZM-23.65,0l-7.5-17.625H-34.7L-42.2,0h3.925l1.6-3.925h7.4L-27.675,0Zm-7-7.325H-35.3L-32.975-13ZM-5.4,0V-17.5H-9.2V-6.725L-17.4-17.5h-3.55V0h3.8V-11.125L-8.675,0ZM14.925-8.75V-8.8c0-4.925-3.8-8.7-9.3-8.7H-1.2V0H5.625C11.125,0,14.925-3.825,14.925-8.75ZM10.9-8.7A4.987,4.987,0,0,1,5.625-3.475H2.65v-10.55H5.625A5.026,5.026,0,0,1,10.9-8.75ZM34.15,0l-7.5-17.625H23.1L15.6,0h3.925l1.6-3.925h7.4L30.125,0Zm-7-7.325H22.5L24.825-13ZM51.975,0,47.7-6.25a5.435,5.435,0,0,0,3.75-5.425v-.05c0-3.6-2.475-5.775-6.6-5.775h-8V0H40.7V-5.6h3.025L47.475,0ZM47.55-11.475C47.55-10,46.475-9,44.6-9H40.7v-5.025h3.825c1.875,0,3.025.85,3.025,2.5ZM71.05-8.75V-8.8c0-4.925-3.8-8.7-9.3-8.7H54.925V0H61.75C67.25,0,71.05-3.825,71.05-8.75Zm-4.025.05A4.987,4.987,0,0,1,61.75-3.475H58.775v-10.55H61.75A5.026,5.026,0,0,1,67.025-8.75Z" transform="translate(431.691 119.561)" fill="#b4932a"/></g></svg>