<svg xmlns="http://www.w3.org/2000/svg" width="221.496" height="221.496" viewBox="0 0 221.496 221.496"><g transform="translate(-319.704 59.938)"><g transform="translate(319.704 -59.938)" fill="none" stroke="#bc970c" stroke-width="2"><circle cx="110.748" cy="110.748" r="110.748" stroke="none"/><circle cx="110.748" cy="110.748" r="109.748" fill="none"/></g><path d="M-29.562-5.175v-.05c0-3.05-2-4.325-5.55-5.25-3.025-.775-3.775-1.15-3.775-2.3v-.05c0-.85.775-1.525,2.25-1.525a8.212,8.212,0,0,1,4.55,1.725l2-2.9a10.13,10.13,0,0,0-6.5-2.225c-3.575,0-6.125,2.1-6.125,5.275v.05c0,3.475,2.275,4.45,5.8,5.35,2.925.75,3.525,1.25,3.525,2.225v.05c0,1.025-.95,1.65-2.525,1.65a8.028,8.028,0,0,1-5.225-2.125L-43.412-2.55A11.136,11.136,0,0,0-35.987.25C-32.213.25-29.562-1.7-29.562-5.175Zm16.225-8.775V-17.5h-14.5v3.55h5.325V0h3.85V-13.95ZM4.413,0l-7.5-17.625h-3.55L-14.137,0h3.925l1.6-3.925h7.4L.388,0Zm-7-7.325h-4.65L-4.912-13ZM22.663,0V-17.5h-3.8V-6.725L10.663-17.5H7.113V0h3.8V-11.125L19.388,0ZM42.987-8.75V-8.8c0-4.925-3.8-8.7-9.3-8.7H26.862V0h6.825C39.187,0,42.987-3.825,42.987-8.75Zm-4.025.05a4.987,4.987,0,0,1-5.275,5.225H30.712v-10.55h2.975A5.026,5.026,0,0,1,38.962-8.75Z" transform="translate(430.935 59.561)" fill="#b4932a"/></g></svg>