<svg xmlns="http://www.w3.org/2000/svg" xmlns:xlink="http://www.w3.org/1999/xlink" width="221.496" height="221.496" viewBox="0 0 221.496 221.496"><defs><linearGradient id="a" x1="0.5" x2="0.925" y2="0.947" gradientUnits="objectBoundingBox"><stop offset="0" stop-color="#fee690"/><stop offset="1" stop-color="#9d7700"/></linearGradient></defs><g transform="translate(-319.704)"><g transform="translate(319.704)" fill="none" stroke="#bc970c" stroke-width="2"><circle cx="110.748" cy="110.748" r="110.748" stroke="none"/><circle cx="110.748" cy="110.748" r="109.748" fill="none"/></g><path d="M79.821,92.64a9.153,9.153,0,0,1,2.328-6.168H43.678a9.159,9.159,0,0,1,2.328,6.168,9.189,9.189,0,1,1-18.378,0,9.159,9.159,0,0,1,2.328-6.168H15.376a3.044,3.044,0,0,1-3.063-3.083V29.113L.919,17.64a2.994,2.994,0,0,1,0-4.317,2.947,2.947,0,0,1,4.288,0L15.253,23.437l2.205,2.1a3.566,3.566,0,0,1,.858,2.221V80.182h88.825a3.084,3.084,0,0,1,0,6.167H95.625a9.371,9.371,0,0,1-6.616,15.542A9.287,9.287,0,0,1,79.821,92.64Zm5.88-.123a3.063,3.063,0,1,0,3.063-3.084A3.043,3.043,0,0,0,85.7,92.517Zm-52.07,0a3.063,3.063,0,1,0,3.062-3.084A3.043,3.043,0,0,0,33.631,92.517Zm59.3-18.5H27.505a3.044,3.044,0,0,1-3.063-3.084V27.755a3.044,3.044,0,0,1,3.063-3.083h9.312a27.6,27.6,0,0,1,54.887,0h9.312a3.044,3.044,0,0,1,3.063,3.083V70.929a3.044,3.044,0,0,1-3.063,3.084ZM30.568,67.845H97.953V30.839H91.7a27.6,27.6,0,0,1-54.887,0H30.568ZM42.82,27.755A21.441,21.441,0,1,0,64.26,6.168,21.618,21.618,0,0,0,42.82,27.755ZM58.993,39.228l-9.067-9.252a2.993,2.993,0,0,1,0-4.316,2.944,2.944,0,0,1,4.288,0L61.2,32.69,74.43,19.49a2.947,2.947,0,0,1,4.288,0,3,3,0,0,1,0,4.318L63.4,39.228a3.251,3.251,0,0,1-4.411,0Z" transform="translate(375.35 25.308)" fill="url(#a)"/><path d="M-52.8-4.14v-.04c0-2.44-1.6-3.46-4.44-4.2-2.42-.62-3.02-.92-3.02-1.84v-.04c0-.68.62-1.22,1.8-1.22a6.569,6.569,0,0,1,3.64,1.38l1.6-2.32a8.1,8.1,0,0,0-5.2-1.78c-2.86,0-4.9,1.68-4.9,4.22v.04c0,2.78,1.82,3.56,4.64,4.28,2.34.6,2.82,1,2.82,1.78v.04c0,.82-.76,1.32-2.02,1.32a6.422,6.422,0,0,1-4.18-1.7l-1.82,2.18A8.909,8.909,0,0,0-57.94.2C-54.92.2-52.8-1.36-52.8-4.14Zm12.98-7.02V-14h-11.6v2.84h4.26V0h3.08V-11.16ZM-25.62,0l-6-14.1h-2.84l-6,14.1h3.14l1.28-3.14h5.92L-28.84,0Zm-5.6-5.86h-3.72l1.86-4.54ZM-11.02,0V-14h-3.04v8.62L-20.62-14h-2.84V0h3.04V-8.9L-13.64,0ZM5.24-7v-.04C5.24-10.98,2.2-14-2.2-14H-7.66V0H-2.2C2.2,0,5.24-3.06,5.24-7Zm-3.22.04A3.989,3.989,0,0,1-2.2-2.78H-4.58v-8.44H-2.2A4.021,4.021,0,0,1,2.02-7ZM20.62,0l-6-14.1H11.78L5.78,0H8.92L10.2-3.14h5.92L17.4,0Zm-5.6-5.86H11.3l1.86-4.54ZM34.88,0,31.46-5a4.348,4.348,0,0,0,3-4.34v-.04c0-2.88-1.98-4.62-5.28-4.62h-6.4V0h3.08V-4.48h2.42l3,4.48ZM31.34-9.18c0,1.18-.86,1.98-2.36,1.98H25.86v-4.02h3.06c1.5,0,2.42.68,2.42,2ZM50.14-7v-.04c0-3.94-3.04-6.96-7.44-6.96H37.24V0H42.7C47.1,0,50.14-3.06,50.14-7Zm-3.22.04A3.989,3.989,0,0,1,42.7-2.78H40.32v-8.44H42.7A4.021,4.021,0,0,1,46.92-7ZM63.54,0V-2.74h-7.6V-5.68h6.6V-8.42h-6.6v-2.84h7.5V-14H52.88V0ZM-29.44,14v-.04c0-3.94-3.04-6.96-7.44-6.96h-5.46V21h5.46C-32.48,21-29.44,17.94-29.44,14Zm-3.22.04a3.989,3.989,0,0,1-4.22,4.18h-2.38V9.78h2.38A4.021,4.021,0,0,1-32.66,14ZM-23.48,21V7h-3.08V21Zm13.62-4.14v-.04c0-2.44-1.6-3.46-4.44-4.2-2.42-.62-3.02-.92-3.02-1.84v-.04c0-.68.62-1.22,1.8-1.22a6.569,6.569,0,0,1,3.64,1.38l1.6-2.32a8.1,8.1,0,0,0-5.2-1.78c-2.86,0-4.9,1.68-4.9,4.22v.04c0,2.78,1.82,3.56,4.64,4.28,2.34.6,2.82,1,2.82,1.78v.04c0,.82-.76,1.32-2.02,1.32a6.422,6.422,0,0,1-4.18-1.7l-1.82,2.18A8.909,8.909,0,0,0-15,21.2C-11.98,21.2-9.86,19.64-9.86,16.86ZM3.9,11.88v-.04C3.9,8.98,1.88,7-1.46,7H-7.18V21H-4.1V16.8h2.34C1.38,16.8,3.9,15.12,3.9,11.88Zm-3.12.06a2.168,2.168,0,0,1-2.44,2.12H-4.1V9.78h2.38c1.54,0,2.5.74,2.5,2.12ZM20.44,14v-.04a7.173,7.173,0,0,0-7.42-7.2A7.24,7.24,0,0,0,5.56,14v.04a7.173,7.173,0,0,0,7.42,7.2A7.24,7.24,0,0,0,20.44,14Zm-3.22.04a4.187,4.187,0,0,1-4.2,4.36A4.253,4.253,0,0,1,8.78,14v-.04a4.187,4.187,0,0,1,4.2-4.36A4.253,4.253,0,0,1,17.22,14ZM35.62,21V7H32.58v8.62L26.02,7H23.18V21h3.04V12.1L33,21Zm6.58,0V7H39.12V21ZM-32.31,38.16v-.04c0-1.88-1-2.82-2.62-3.44a3.256,3.256,0,0,0,1.84-3.02v-.04c0-2.2-1.76-3.62-4.62-3.62h-6.5V42h6.66C-34.39,42-32.31,40.72-32.31,38.16Zm-3.84-5.98c0,1.04-.86,1.48-2.22,1.48h-2.84V30.7h3.04c1.3,0,2.02.52,2.02,1.44Zm.78,5.6c0,1.04-.82,1.52-2.18,1.52h-3.66V36.22h3.56c1.58,0,2.28.58,2.28,1.52ZM-26.55,42V28h-3.08V42Zm13.56,0V39.2h-6.98V28h-3.08V42Zm5.54,0V28h-3.08V42ZM6.65,30.84V28H-4.95v2.84H-.69V42H2.39V30.84ZM20.85,42l-6-14.1H12.01L6.01,42H9.15l1.28-3.14h5.92L17.63,42Zm-5.6-5.86H11.53l1.86-4.54Zm16.56-5.3V28H20.21v2.84h4.26V42h3.08V30.84ZM44.83,42V39.26h-7.6V36.32h6.6V33.58h-6.6V30.74h7.5V28H34.17V42Z" transform="translate(430.452 150.754)" fill="#b4932a"/></g></svg>