<svg xmlns="http://www.w3.org/2000/svg" xmlns:xlink="http://www.w3.org/1999/xlink" width="221.496" height="221.496" viewBox="0 0 221.496 221.496"><defs><linearGradient id="a" x1="0.239" y1="0.09" x2="0.723" y2="1" gradientUnits="objectBoundingBox"><stop offset="0" stop-color="#ffde7a"/><stop offset="1" stop-color="#8d641e"/></linearGradient></defs><g transform="translate(-319.703 0)"><g transform="translate(319.703 0)" fill="none" stroke="#bc970c" stroke-width="2"><circle cx="110.748" cy="110.748" r="110.748" stroke="none"/><circle cx="110.748" cy="110.748" r="109.748" fill="none"/></g><path d="M246.972,430.671v-4.719h2.044V410.78h3.691V375.543h-3.691v-14.95H246.25V357.4H358.707v3.2h-2.766v14.95h-3.692v35.233h3.692v15.171h2.044v4.719Zm10.519-6.52h65.987v-4.9H257.491Zm70.352-.979h17.766v-13.9H327.843Zm-70.352-7.4h65.987v-4.585H257.491Zm72.582-38.62a9.133,9.133,0,0,0-1.734,2.409,9.005,9.005,0,0,0-.939,4.018v22.185h18.2V383.577a9.089,9.089,0,0,0-15.528-6.426Zm-26.03,8.828v18.31h18.2V384.02h-18.2Zm-21.784,0v18.31h18.2V384.02h-18.2Zm-21.784,0v18.31h18.2V384.02h-18.2Zm46.243-10.3a9.2,9.2,0,0,0-1.736,2.408,9.042,9.042,0,0,0-.92,3.677h18.152a9.072,9.072,0,0,0-15.5-6.085Zm-21.785,0a9.217,9.217,0,0,0-1.736,2.408,9.023,9.023,0,0,0-.919,3.677h18.15a9.072,9.072,0,0,0-15.5-6.085Zm-21.785,0a9.216,9.216,0,0,0-1.736,2.408,9.024,9.024,0,0,0-.919,3.677h18.151a9.072,9.072,0,0,0-15.5-6.085Zm-6.071-7.729h90.8v-5.3h-90.8Zm87.051,35.164H328.74v-2.622h15.528v2.621Z" transform="translate(127.973 -306.803)" fill="url(#a)"/><path d="M-28.463-5.175v-.05c0-3.05-2-4.325-5.55-5.25-3.025-.775-3.775-1.15-3.775-2.3v-.05c0-.85.775-1.525,2.25-1.525a8.212,8.212,0,0,1,4.55,1.725l2-2.9a10.13,10.13,0,0,0-6.5-2.225c-3.575,0-6.125,2.1-6.125,5.275v.05c0,3.475,2.275,4.45,5.8,5.35,2.925.75,3.525,1.25,3.525,2.225v.05c0,1.025-.95,1.65-2.525,1.65a8.028,8.028,0,0,1-5.225-2.125L-42.312-2.55A11.136,11.136,0,0,0-34.888.25C-31.113.25-28.463-1.7-28.463-5.175Zm18.325-2.45V-17.5h-3.85V-7.475c0,2.775-1.425,4.2-3.775,4.2S-21.538-4.75-21.538-7.6v-9.9h-3.85v10c0,5.15,2.875,7.775,7.575,7.775S-10.138-2.325-10.138-7.625ZM7.638-11.4v-.05c0-3.575-2.525-6.05-6.7-6.05h-7.15V0h3.85V-5.25H.563C4.488-5.25,7.638-7.35,7.638-11.4Zm-3.9.075c0,1.5-1.125,2.65-3.05,2.65h-3.05v-5.35H.613c1.925,0,3.125.925,3.125,2.65ZM23.813,0V-3.425h-9.5V-7.1h8.25v-3.425h-8.25v-3.55h9.375V-17.5h-13.2V0Zm18.55,0L38.088-6.25a5.435,5.435,0,0,0,3.75-5.425v-.05c0-3.6-2.475-5.775-6.6-5.775h-8V0h3.85V-5.6h3.025L37.863,0ZM37.938-11.475C37.938-10,36.863-9,34.988-9h-3.9v-5.025h3.825c1.875,0,3.025.85,3.025,2.5ZM-43.575,21V3.5h-4.15l-4.6,7.4-4.6-7.4h-4.15V21H-57.3V9.65l4.875,7.4h.1L-47.4,9.575V21Zm21.25,0-7.5-17.625h-3.55L-40.875,21h3.925l1.6-3.925h7.4L-26.35,21Zm-7-7.325h-4.65L-31.65,8ZM-4.5,21l-4.275-6.25a5.435,5.435,0,0,0,3.75-5.425v-.05c0-3.6-2.475-5.775-6.6-5.775h-8V21h3.85V15.4h3.025L-9,21ZM-8.925,9.525C-8.925,11-10,12-11.875,12h-3.9V6.975h3.825c1.875,0,3.025.85,3.025,2.5ZM14.375,21,6.925,10.925,14.05,3.5H9.4L2.3,11.15V3.5H-1.55V21H2.3V15.65l2.025-2.1L9.75,21Zm15.65,0V17.575h-9.5V13.9h8.25V10.475h-8.25V6.925H29.9V3.5H16.7V21ZM46.7,7.05V3.5H32.2V7.05h5.325V21h3.85V7.05Zm15.225,8.775v-.05c0-3.05-2-4.325-5.55-5.25C53.35,9.75,52.6,9.375,52.6,8.225v-.05c0-.85.775-1.525,2.25-1.525A8.212,8.212,0,0,1,59.4,8.375l2-2.9A10.13,10.13,0,0,0,54.9,3.25c-3.575,0-6.125,2.1-6.125,5.275v.05c0,3.475,2.275,4.45,5.8,5.35,2.925.75,3.525,1.25,3.525,2.225v.05c0,1.025-.95,1.65-2.525,1.65a8.028,8.028,0,0,1-5.225-2.125L48.075,18.45a11.136,11.136,0,0,0,7.425,2.8C59.275,21.25,61.925,19.3,61.925,15.825Z" transform="translate(430.027 152.654)" fill="#b4932a"/></g></svg>