<svg xmlns="http://www.w3.org/2000/svg" width="221.496" height="221.496" viewBox="0 0 221.496 221.496"><g transform="translate(47.661 32.915)"><g transform="translate(-47.661 -32.915)" fill="none" stroke="#bc970c" stroke-width="2"><circle cx="110.748" cy="110.748" r="110.748" stroke="none"/><circle cx="110.748" cy="110.748" r="109.748" fill="none"/></g><g transform="translate(3.26 3.906)"><path d="M121.881,78.069c-22.644,14.88-45.126,29.6-67.688,44.4-4.287-6.956-8.41-13.748-12.615-20.459C35.911,92.869,30.255,83.73,24.517,74.592c-3.963-6.39-7.926-12.777-11.969-19.085-1.536-2.427-1.536-2.507.728-4.043C23.223,44.832,33.251,38.2,43.2,31.651,51.77,25.989,60.342,20.41,68.915,14.83c3.155-2.022,6.308-4.043,9.624-6.231q9.7,15.649,19.405,31.216L97.7,40.3c-4.851-4.043-10.109-4.933-15.688-2.183a13.619,13.619,0,0,0-7.6,10.029c-1.374,7.682,2.507,15.608,11.727,17.387A12.747,12.747,0,0,0,98.917,60.52a15.067,15.067,0,0,0,3.073-13.263c.162,0,.324-.08.486-.08C109.023,57.366,115.331,67.556,121.881,78.069Z" transform="translate(-7.997 -8.599)" fill="#fac81f"/><path d="M131.459,38.994c-8.011.566-14.234-6.874-14.556-14.065A14.834,14.834,0,0,1,130.968,9a15.17,15.17,0,0,1,15.2,14.556C146.421,31.79,139.87,39.72,131.459,38.994Z" transform="translate(-28.168 -8.664)" fill="#fac81f"/><g transform="translate(0 112.945)"><path d="M65.347,172.12v6.956a2.421,2.421,0,0,1-.808,2.183,1.453,1.453,0,0,1-.728.324,6.114,6.114,0,0,1-2.1,0c-1.132-.242-1.617-.97-1.617-2.265-.08-1.618,0-3.235,0-4.933V157.32c0-1.052.08-1.212,1.132-1.374a3.327,3.327,0,0,1,2.507.242,2.87,2.87,0,0,1,1.456,2.345c0,.08.08.08.08.162a7.548,7.548,0,0,1,1.052-1.212,5.793,5.793,0,0,1,4.367-1.78,9.518,9.518,0,0,1,4.205.808,8.38,8.38,0,0,1,3.073,2.993,10.13,10.13,0,0,1,1.374,5.5,11.081,11.081,0,0,1-1.052,5.341,7.78,7.78,0,0,1-4.771,4.125,8.035,8.035,0,0,1-5.5-.242,6.063,6.063,0,0,1-2.345-1.941.42.42,0,0,1-.324-.166Zm8.814-6.712c-.08-.486-.08-.97-.162-1.456a4.9,4.9,0,0,0-1.86-2.993,4.629,4.629,0,0,0-2.911-.728,4.063,4.063,0,0,0-3.155,1.618,2.991,2.991,0,0,0-.728,2.183c.08.89,0,1.78,0,2.671a3.94,3.94,0,0,0,1.052,2.67,4.248,4.248,0,0,0,3.963,1.294,4,4,0,0,0,2.589-1.456,5.932,5.932,0,0,0,1.214-3.8Z" transform="translate(-17.292 -149.686)"/><path d="M17.065,148.3a11.572,11.572,0,0,1,5.742,1.052,6.231,6.231,0,0,1,2.265,1.86,2.58,2.58,0,0,1-.242,3.315,14.064,14.064,0,0,1-1.212,1.052c-.08.08-.4,0-.486-.08a7.992,7.992,0,0,0-4.933-2.749,5.686,5.686,0,0,0-3.8.566,2.327,2.327,0,0,0-.566,3.721,3.892,3.892,0,0,0,1.294.646c1.617.4,3.235.728,4.851,1.212a10.651,10.651,0,0,1,4.205,2.265,5.891,5.891,0,0,1,1.86,3.8,8.4,8.4,0,0,1-.808,4.691,6.673,6.673,0,0,1-3.561,3.073,15.758,15.758,0,0,1-6.956.89A9.832,9.832,0,0,1,9.376,172a4.643,4.643,0,0,1-2.1-2.67,2.459,2.459,0,0,1,.566-2.345,5.162,5.162,0,0,1,1.212-1.052c.08-.08.4,0,.486.08a8.878,8.878,0,0,0,4.851,2.911,6.929,6.929,0,0,0,4.771-.324,2.384,2.384,0,0,0,1.374-2.183,2.238,2.238,0,0,0-1.78-2.265c-1.617-.486-3.235-.808-4.933-1.294a9,9,0,0,1-4.529-2.507,5.6,5.6,0,0,1-1.456-3.477,11.812,11.812,0,0,1,.242-2.911,6.356,6.356,0,0,1,3.315-4.287,9.247,9.247,0,0,1,5.672-1.376Z" transform="translate(-7.181 -148.272)"/><path d="M90.58,166.861c.4.728.728,1.374,1.132,2.022a4.057,4.057,0,0,0,2.67,1.618,6.5,6.5,0,0,0,4.451-.566,4.477,4.477,0,0,0,1.7-1.536c.242-.324.4-.4.728-.324a2.759,2.759,0,0,1,1.78,1.212,2.861,2.861,0,0,1-.162,2.67,6.943,6.943,0,0,1-4.609,2.67,27.513,27.513,0,0,1-3.639.242,8.83,8.83,0,0,1-8.572-7.2,12.161,12.161,0,0,1,.242-5.661,9.436,9.436,0,0,1,3.073-4.451,10.175,10.175,0,0,1,10.029-.97,8.446,8.446,0,0,1,4.451,5.984,6.587,6.587,0,0,1,.08,3.315c-.162.646-.324.808-1.052.808H90.58C90.655,166.779,90.655,166.861,90.58,166.861Zm.242-3.315h8.41a3.917,3.917,0,0,0-3.315-4.043,4.527,4.527,0,0,0-5.1,4.041Z" transform="translate(-22.219 -149.683)"/><path d="M46.174,172.1a7.625,7.625,0,0,1-2.749,2.345,8.606,8.606,0,0,1-4.287.486,5.387,5.387,0,0,1-3.4-1.617,5.992,5.992,0,0,1-1.78-4.043c-.162-3.721-.08-7.522-.162-11.241a1.889,1.889,0,0,1,2.022-1.941,9.75,9.75,0,0,1,1.536,0,2.111,2.111,0,0,1,1.617,2.1v8.248a6.587,6.587,0,0,0,.486,2.507,2.8,2.8,0,0,0,2.265,1.617,3.853,3.853,0,0,0,4.125-2.1,1.524,1.524,0,0,0,.162-.646v-9.462a2.046,2.046,0,0,1,2.265-2.265,10.953,10.953,0,0,1,1.617.162,1.657,1.657,0,0,1,1.212,1.294,6.45,6.45,0,0,1,.242,1.212v14.88a.835.835,0,0,1-.728.97,3.42,3.42,0,0,1-3.477-.566,9.891,9.891,0,0,1-.97-1.536C46.263,172.343,46.174,172.181,46.174,172.1Z" transform="translate(-12.271 -149.747)"/><path d="M143.324,155.6a10.134,10.134,0,0,1,4.609,1.052,8.736,8.736,0,0,1,4.691,6.308,11.355,11.355,0,0,1-.4,6.146,8.022,8.022,0,0,1-3.639,4.367,10.468,10.468,0,0,1-6.956,1.212,8.677,8.677,0,0,1-5.418-2.67,9.258,9.258,0,0,1-2.427-5.5,10.737,10.737,0,0,1,.808-5.742,7.872,7.872,0,0,1,1.212-1.941,8.756,8.756,0,0,1,4.691-2.993C141.382,155.762,142.352,155.762,143.324,155.6Zm.08,4.367a4.387,4.387,0,0,0-4.043,2.1,5.734,5.734,0,0,0-.89,4.287,4.832,4.832,0,0,0,3.561,4.205,4.6,4.6,0,0,0,5.1-1.86,6.14,6.14,0,0,0,.89-4.451,4.778,4.778,0,0,0-4.613-4.284Z" transform="translate(-31.381 -149.665)"/><path d="M124.79,163.23a4.752,4.752,0,0,0-7.6-1.86,4.431,4.431,0,0,0-1.536,3.561,5.163,5.163,0,0,0,1.132,3.881,4.54,4.54,0,0,0,2.993,1.7,5.341,5.341,0,0,0,3.315-.646,5.435,5.435,0,0,0,1.78-2.265,2.565,2.565,0,0,1,2.993,2.589,4.1,4.1,0,0,1-1.212,2.427,7.007,7.007,0,0,1-4.691,2.265,12.411,12.411,0,0,1-5.175-.4,8.9,8.9,0,0,1-4.609-3.8,10.591,10.591,0,0,1-1.374-6.47,8.991,8.991,0,0,1,4.125-7.036,9.421,9.421,0,0,1,4.691-1.456,11,11,0,0,1,4.287.566,6,6,0,0,1,3.881,3.881,2.526,2.526,0,0,1-2.341,3.071Z" transform="translate(-27 -149.693)"/></g></g></g></svg>