<svg xmlns="http://www.w3.org/2000/svg" width="221.496" height="221.496" viewBox="0 0 221.496 221.496"><g transform="translate(-320.73 -0.063)"><path d="M-28.463-5.175v-.05c0-3.05-2-4.325-5.55-5.25-3.025-.775-3.775-1.15-3.775-2.3v-.05c0-.85.775-1.525,2.25-1.525a8.212,8.212,0,0,1,4.55,1.725l2-2.9a10.13,10.13,0,0,0-6.5-2.225c-3.575,0-6.125,2.1-6.125,5.275v.05c0,3.475,2.275,4.45,5.8,5.35,2.925.75,3.525,1.25,3.525,2.225v.05c0,1.025-.95,1.65-2.525,1.65a8.028,8.028,0,0,1-5.225-2.125L-42.312-2.55A11.136,11.136,0,0,0-34.888.25C-31.113.25-28.463-1.7-28.463-5.175Zm18.325-2.45V-17.5h-3.85V-7.475c0,2.775-1.425,4.2-3.775,4.2S-21.538-4.75-21.538-7.6v-9.9h-3.85v10c0,5.15,2.875,7.775,7.575,7.775S-10.138-2.325-10.138-7.625ZM7.638-11.4v-.05c0-3.575-2.525-6.05-6.7-6.05h-7.15V0h3.85V-5.25H.563C4.488-5.25,7.638-7.35,7.638-11.4Zm-3.9.075c0,1.5-1.125,2.65-3.05,2.65h-3.05v-5.35H.613c1.925,0,3.125.925,3.125,2.65ZM23.813,0V-3.425h-9.5V-7.1h8.25v-3.425h-8.25v-3.55h9.375V-17.5h-13.2V0Zm18.55,0L38.088-6.25a5.435,5.435,0,0,0,3.75-5.425v-.05c0-3.6-2.475-5.775-6.6-5.775h-8V0h3.85V-5.6h3.025L37.863,0ZM37.938-11.475C37.938-10,36.863-9,34.988-9h-3.9v-5.025h3.825c1.875,0,3.025.85,3.025,2.5ZM-45.163,15.6v-.05c0-3.575-2.525-6.05-6.7-6.05h-7.15V27h3.85V21.75h2.925C-48.313,21.75-45.163,19.65-45.163,15.6Zm-3.9.075c0,1.5-1.125,2.65-3.05,2.65h-3.05v-5.35h2.975c1.925,0,3.125.925,3.125,2.65ZM-27.188,27l-4.275-6.25a5.435,5.435,0,0,0,3.75-5.425v-.05c0-3.6-2.475-5.775-6.6-5.775h-8V27h3.85V21.4h3.025l3.75,5.6Zm-4.425-11.475C-31.613,17-32.687,18-34.562,18h-3.9V12.975h3.825c1.875,0,3.025.85,3.025,2.5ZM-10.913,27V23.575h-9.5V19.9h8.25V16.475h-8.25v-3.55h9.375V9.5h-13.2V27Zm20.925,0V9.5H5.862l-4.6,7.4-4.6-7.4h-4.15V27h3.775V15.65l4.875,7.4h.1l4.925-7.475V27Zm8.225,0V9.5h-3.85V27Zm19.35-7.625V9.5h-3.85V19.525c0,2.775-1.425,4.2-3.775,4.2S26.188,22.25,26.188,19.4V9.5h-3.85v10c0,5.15,2.875,7.775,7.575,7.775S37.588,24.675,37.588,19.375ZM59.013,27V9.5h-4.15l-4.6,7.4-4.6-7.4h-4.15V27h3.775V15.65l4.875,7.4h.1l4.925-7.475V27Z" transform="translate(431.479 106.048)" fill="#b4932a"/><g transform="translate(320.73 0.063)" fill="none" stroke="#bc970c" stroke-width="2"><circle cx="110.748" cy="110.748" r="110.748" stroke="none"/><circle cx="110.748" cy="110.748" r="109.748" fill="none"/></g></g></svg>