<svg xmlns="http://www.w3.org/2000/svg" xmlns:xlink="http://www.w3.org/1999/xlink" width="221.496" height="221.496" viewBox="0 0 221.496 221.496"><defs><linearGradient id="a" x1="-1.111" y1="0.35" x2="1.063" y2="2.578" gradientUnits="objectBoundingBox"><stop offset="0" stop-color="#ffde7a"/><stop offset="1" stop-color="#8d641e"/></linearGradient></defs><g transform="translate(40.634 52.129)"><g transform="translate(-40.634 -52.129)" fill="none" stroke="#bc970c" stroke-width="2"><circle cx="110.748" cy="110.748" r="110.748" stroke="none"/><circle cx="110.748" cy="110.748" r="109.748" fill="none"/></g><path d="M203.488,422.615a10.248,10.248,0,0,1-19.137,1.216,10.246,10.246,0,0,1-18.682,0,10.24,10.24,0,0,1-18.675,0,10.247,10.247,0,0,1-18.68,0,10.249,10.249,0,0,1-18.682,0,10.246,10.246,0,0,1-18.682,0,10.249,10.249,0,0,1-19.137-1.216l25.6-38.312h80.447ZM132.82,386.936l-2.566,27.434a1.055,1.055,0,0,1-2.105-.133l.007-.067,2.553-27.233h-9.616l-7.763,27.62a1.063,1.063,0,0,1-2.031-.572l7.6-27.047h-9.5L96.38,414.719a1.052,1.052,0,0,1-1.924-.852l.021-.046,12.593-26.886H98.832l-24.074,36a7.62,7.62,0,0,0,13.791-.188,2.626,2.626,0,0,1,4.8,0,7.619,7.619,0,0,0,13.878,0,2.635,2.635,0,0,1,4.806,0,7.612,7.612,0,0,0,13.875,0,2.635,2.635,0,0,1,4.806,0,7.62,7.62,0,0,0,13.876,0,2.633,2.633,0,0,1,4.8,0,7.62,7.62,0,0,0,13.876,0,2.633,2.633,0,0,1,4.8,0,7.619,7.619,0,0,0,13.878,0,2.63,2.63,0,0,1,4.8,0,7.609,7.609,0,0,0,13.784.186l-24.07-36h-8.238l12.6,26.886a1.063,1.063,0,0,1-1.91.9L165.9,386.936h-9.507l7.6,27.047a1.063,1.063,0,0,1-2.031.572l-7.758-27.62h-9.616l2.553,27.233a1.054,1.054,0,1,1-2.091.268l-.007-.067-2.573-27.434Zm18.7,93.806a36.152,36.152,0,0,0,1.976,11.785H87.553V432.972a14.767,14.767,0,0,0,3.393-2.112,14.6,14.6,0,0,0,18.682,0,14.6,14.6,0,0,0,18.68,0,14.6,14.6,0,0,0,18.68,0,14.593,14.593,0,0,0,18.675,0,14.6,14.6,0,0,0,18.682,0,14.766,14.766,0,0,0,3.393,2.112v11.543A36.225,36.225,0,0,0,151.523,480.742Zm-56.4-29.989V469.3a5.7,5.7,0,0,0,5.7,5.706h44.459a5.708,5.708,0,0,0,5.708-5.7V450.754a5.711,5.711,0,0,0-5.708-5.706h-44.45A5.708,5.708,0,0,0,95.123,450.754Zm122.59,29.98a29.973,29.973,0,1,1-29.98-29.966h.007A29.976,29.976,0,0,1,217.714,480.734Zm-2.493,0A27.478,27.478,0,1,0,187.73,508.2h.009a27.476,27.476,0,0,0,27.483-27.466Z" transform="translate(-71.813 -384.303)" fill="url(#a)"/><path d="M15.35-13.95V-17.5H.85v3.55H6.175V0h3.85V-13.95Zm16.2,0V-17.5H17.05v3.55h5.325V0h3.85V-13.95Z" transform="translate(98.114 104.895)" fill="#b4932a"/></g></svg>