<svg xmlns="http://www.w3.org/2000/svg" width="221.496" height="221.496" viewBox="0 0 221.496 221.496"><g transform="translate(-319.704)"><g transform="translate(319.704)" fill="none" stroke="#bc970c" stroke-width="2"><circle cx="110.748" cy="110.748" r="110.748" stroke="none"/><circle cx="110.748" cy="110.748" r="109.748" fill="none"/></g><g transform="translate(-605.29 -746.824)"><path d="M308.367,439.847,305.92,440.9l.1.013a53.851,53.851,0,0,1-31.848-.055c-32.446-9.089-25.495-47.065-25.069-73.093,4.475-.2,8.945-.323,13.283,1.117.007,11.634-.105,23.27.061,34.9.124,8.675,2.5,16.47,10.408,21.384,15.8,9.822,36.91,3.52,44.4-13.184C318.742,422.689,317.951,432.67,308.367,439.847Z" transform="translate(745.845 442.297)" fill="#c71528"/><path d="M290.459,365.071c8.571-6.746,17.91-11.359,29.185-11.22,3.039.038,4.983.85,6.323,3.643,1.577,3.289,3.5,6.413,5.268,9.608-4.583.794-9.387-.369-13.841,1.563-6.558.321-12.175,3.035-17.369,6.827a18.426,18.426,0,0,0-10.177,12.476c-2.7,4.8-7.542,19.191,2.663,17.488-.137,6.38-4.793,9.537-9.187,12.881-17.02-7.8-10.889-30.231-2.788-42.526C284.1,372.046,287.033,369.057,290.459,365.071Z" transform="translate(745.845 442.297)" fill="#c71528"/><path d="M317.394,368.665c4.454-1.932,9.258-.769,13.841-1.563,1.212,7.562.407,15.174.481,22.76,1.473,19.4-1.624,43.512-23.349,49.985,9.584-7.177,10.375-17.158,8.888-27.867C317.844,397.544,317.56,383.1,317.394,368.665Z" transform="translate(745.845 442.297)" fill="#173087"/><path d="M290.459,365.071a133.2,133.2,0,0,1-9.923,10.739c-5.329-4.2-11.2-6.978-18.146-6.932-4.338-1.44-8.808-1.314-13.283-1.117,1.155-4.762,4.489-8.382,6.681-12.6.891-1.717,2.925-1.212,4.545-1.244C271.785,353.388,281.38,358.7,290.459,365.071Z" transform="translate(745.845 442.297)" fill="#173087"/><path d="M329.212,465.546c-.871-15.411,6.884-8.545,17.129-10.054,11-1.779,10.218,8.734,10.22,16.511.2,2.9-1.512,3.245-3.723,3.3-2.561.063-2.974-1.453-2.908-3.556-.346-2.691,1.4-9.963-2.454-10.185-1.91.054-1.341,1.942-1.392,3.137a58.577,58.577,0,0,0,0,6.974c.2,2.63-1,3.582-3.444,3.643-2.707.067-3.387-1.348-3.225-3.765-.255-2.335,1.285-9.885-1.936-9.957-2.433-.179-1.665,1.985-1.732,3.282a63.784,63.784,0,0,0-.005,7.472c.18,2.717-1.47,2.914-3.46,2.924-1.879.009-3.242-.372-3.1-2.749C329.32,470.2,329.214,467.872,329.212,465.546Z" transform="translate(745.845 442.297)" fill="#c71528"/><path d="M244.332,465.991c.19-6.344-1.328-10.641,5.633-10.567,13.07-1.434,11.347,8.1,11.507,16.8.127,2.59-1.4,3.073-3.465,3.06-1.936-.012-3.175-.689-3.1-2.919-.317-2.512,1.387-10.908-2.345-10.7-2.13.056-1.509,2.186-1.572,3.555A52.765,52.765,0,0,0,251,471.7c.205,2.628-.976,3.612-3.457,3.613-2.675,0-3.419-1.406-3.235-3.832C244.442,469.661,244.332,467.822,244.332,465.991Z" transform="translate(745.845 442.297)" fill="#c71528"/><path d="M241.146,464.958c-.083,8.074,1.052,10.849-7.683,10.389-11.324.661-9.2-8.56-9.463-16.614-.147-2.638,1-3.454,3.538-3.413,2.455.039,3.176,1.119,3.083,3.353.376,2.653-1.592,11.47,2.588,10.852,2.18-.168,1.164-2.333,1.255-3.618a55.493,55.493,0,0,0,.021-6.969c-.136-2.466.655-3.621,3.346-3.63,2.744-.008,3.44,1.282,3.331,3.673C241.072,460.97,241.144,462.965,241.146,464.958Z" transform="translate(745.845 442.297)" fill="#c71528"/><path d="M316.941,467.756c-2.588,2.868,1.364,7.414-4.187,7.47-2.59-.009-3.467-1.02-3.364-3.586.174-4.325.052-8.661.049-12.993,0-1.563.023-3.107,2.205-3.107,6.393-.58,16.962-.288,13.49,8.977-2.879,5.728,4.8,8.671.764,10.315C320.01,477.331,319.355,472.286,316.941,467.756Zm-.334-2.075c2.02-1.262,2.664-2.57,1.8-4.351a1.058,1.058,0,0,0-1.625-.436C315.434,462.218,315.883,463.759,316.607,465.681Z" transform="translate(745.845 442.297)" fill="#c71528"/><path d="M299.453,461.645c-1.281-1.715-3.084-1.069-4.575-.853-2.1.3-3.219-.351-3.465-2.4-.254-2.124,1.5-2.362,2.874-2.737,7.983-2.368,12.777,2.737,12.272,10.6.032,8.51-2.589,10.6-11.082,8.8-3.3-.7-5.381-2.58-5.4-6.129-.021-3.578,1.988-5.367,5.4-6.044C296.779,462.61,298.525,463.49,299.453,461.645Zm-1.19,8.8c1.34,0,2.222-.527,2.18-2,.2-2.58-4.183-2.186-4.409-.012C295.876,469.887,297.028,470.311,298.263,470.445Z" transform="translate(745.845 442.297)" fill="#c71528"/><path d="M283.126,475.268c-14.554.495-12.218-22.843,2.2-19.863,2.041.337,3.487,1.071,3.238,3.508-.425,5.153-7.965-1.637-8.527,6.2-.116,8.486,8.391,1.185,8.729,7.2C289.016,475.9,285.258,475.05,283.126,475.268Z" transform="translate(745.845 442.297)" fill="#c71528"/><path d="M271.12,465.4c-.638,3.538,2.089,10.326-3.5,9.885-2.257,0-3.22-.95-3.143-3.32.145-4.458.093-8.924.028-13.385-.033-2.3.9-3.29,3.243-3.246C273.15,455.041,270.513,462.033,271.12,465.4Z" transform="translate(745.845 442.297)" fill="#c71528"/><path d="M306.024,440.909l-.1-.013Z" transform="translate(745.845 442.297)" fill="#173087"/><path d="M300.025,375.492c4.911,9.944,10.392,21,6.6,32.318-3.464,10.456-14.781,14.7-23.3,10.527,4.394-3.344,9.05-6.5,9.187-12.881l-.073.071c.786-.117.68-.736.717-1.274,1.409-5.938.57-11.42-3.307-16.285A18.426,18.426,0,0,1,300.025,375.492Z" transform="translate(745.845 442.297)" fill="#173087"/><path d="M316.607,465.681c-.724-1.922-1.173-3.463.172-4.787a1.058,1.058,0,0,1,1.625.436C319.271,463.111,318.627,464.419,316.607,465.681Z" transform="translate(745.845 442.297)" fill="#f7f6f7"/><path d="M298.26,470.447c-3.342-.142-2.708-3.887.365-3.761C301.334,466.45,300.867,470.933,298.26,470.447Z" transform="translate(745.845 442.297)" fill="#f7f6f7"/><path d="M292.438,405.527l.717-1.274C293.118,404.791,293.224,405.41,292.438,405.527Z" transform="translate(745.845 442.297)" fill="#c71528"/></g></g></svg>