<svg xmlns="http://www.w3.org/2000/svg" xmlns:xlink="http://www.w3.org/1999/xlink" width="221.496" height="221.496" viewBox="0 0 221.496 221.496"><defs><linearGradient id="a" x1="0.9" y1="0.894" x2="0.187" y2="0.12" gradientUnits="objectBoundingBox"><stop offset="0" stop-color="#9d7700"/><stop offset="1" stop-color="#fee690"/></linearGradient></defs><g transform="translate(-319.704 -0.001)"><g transform="translate(319.704 0.001)" fill="none" stroke="#bc970c" stroke-width="2"><circle cx="110.748" cy="110.748" r="110.748" stroke="none"/><circle cx="110.748" cy="110.748" r="109.748" fill="none"/></g><g transform="translate(928.937 -258.668)"><path d="M0,86.553v-4.09H91.452v4.09Zm72.8-6.794V52.782h4.227a1.352,1.352,0,0,0,1.352-1.352V44.122a1.352,1.352,0,0,0-1.352-1.352h-62.6a1.353,1.353,0,0,0-1.352,1.352V51.43a1.353,1.353,0,0,0,1.352,1.352h4.228V79.759H6.792V0H84.659V79.759ZM61.266,8.171v13.47a1.351,1.351,0,0,0,1.352,1.352h13.47a1.35,1.35,0,0,0,1.352-1.352V8.171a1.351,1.351,0,0,0-1.352-1.352H62.618A1.352,1.352,0,0,0,61.266,8.171Zm-23.625,0v13.47a1.35,1.35,0,0,0,1.352,1.352h13.47a1.351,1.351,0,0,0,1.352-1.352V8.171a1.352,1.352,0,0,0-1.352-1.352H38.992A1.351,1.351,0,0,0,37.64,8.171Zm-23.3,0v13.47A1.351,1.351,0,0,0,15.7,22.993h13.47a1.352,1.352,0,0,0,1.352-1.352V8.171a1.353,1.353,0,0,0-1.352-1.352H15.7A1.352,1.352,0,0,0,14.343,8.171ZM40.989,79.759V52.782h9.476V79.759ZM15.777,50.079v-4.6h59.9v4.6Zm48.192-29.79V9.523H74.736V20.289Zm-23.625,0V9.523H51.11V20.289Zm-23.3,0V9.523H27.813V20.289Z" transform="translate(-542.826 304.987)" fill="url(#a)"/></g><path d="M-31.4-7.93V-18.2h-4V-7.774c0,2.886-1.482,4.368-3.926,4.368s-3.926-1.534-3.926-4.5V-18.2h-4V-7.8c0,5.356,2.99,8.086,7.878,8.086S-31.4-2.418-31.4-7.93ZM-11.583,0l-4.446-6.5a5.652,5.652,0,0,0,3.9-5.642v-.052c0-3.744-2.574-6.006-6.864-6.006h-8.32V0h4V-5.824h3.146L-16.263,0Zm-4.6-11.934c0,1.534-1.118,2.574-3.068,2.574h-4.056v-5.226h3.978c1.95,0,3.146.884,3.146,2.6ZM6.955-4.992v-.052c0-2.444-1.3-3.666-3.406-4.472a4.233,4.233,0,0,0,2.392-3.926v-.052c0-2.86-2.288-4.706-6.006-4.706h-8.45V0H.143C4.251,0,6.955-1.664,6.955-4.992ZM1.963-12.766c0,1.352-1.118,1.924-2.886,1.924H-4.615V-14.69H-.663c1.69,0,2.626.676,2.626,1.872Zm1.014,7.28C2.977-4.134,1.911-3.51.143-3.51H-4.615v-4H.013c2.054,0,2.964.754,2.964,1.976ZM27.989,0l-7.8-18.33H16.5L8.7,0h4.082l1.664-4.082h7.7L23.8,0Zm-7.28-7.618H15.873l2.418-5.9ZM46.969,0V-18.2H43.017V-6.994L34.489-18.2H30.8V0h3.952V-11.57L43.563,0Z" transform="translate(430.595 168.203)" fill="#b4932a"/></g></svg>