<svg xmlns="http://www.w3.org/2000/svg" width="221.496" height="221.496" viewBox="0 0 221.496 221.496"><g transform="translate(-319.704 59.938)"><g transform="translate(319.704 -59.938)" fill="none" stroke="#bc970c" stroke-width="2"><circle cx="110.748" cy="110.748" r="110.748" stroke="none"/><circle cx="110.748" cy="110.748" r="109.748" fill="none"/></g><path d="M-36.513-17.5h-4.15L-45.238-5.175-49.812-17.5h-4.25L-46.988.125h3.4ZM-29.788,0V-17.5h-3.85V0Zm17.625-13.95V-17.5h-14.5v3.55h5.325V0h3.85V-13.95ZM5.913,0,1.637-6.25a5.435,5.435,0,0,0,3.75-5.425v-.05c0-3.6-2.475-5.775-6.6-5.775h-8V0h3.85V-5.6h3.025L1.413,0ZM1.488-11.475C1.488-10,.413-9-1.462-9h-3.9v-5.025h3.825c1.875,0,3.025.85,3.025,2.5ZM12.888,0V-17.5H9.038V0ZM32.813,0V-17.5h-3.8V-6.725L20.813-17.5h-3.55V0h3.8V-11.125L29.538,0Zm21.25,0-7.5-17.625h-3.55L35.513,0h3.925l1.6-3.925h7.4L50.038,0Zm-7-7.325h-4.65L44.738-13Z" transform="translate(431.018 59.561)" fill="#b4932a"/></g></svg>